G04 #@! TF.GenerationSoftware,KiCad,Pcbnew,5.1.5-52549c5~84~ubuntu18.04.1*
G04 #@! TF.CreationDate,2019-12-20T21:30:07+07:00*
G04 #@! TF.ProjectId,plate,706c6174-652e-46b6-9963-61645f706362,rev?*
G04 #@! TF.SameCoordinates,Original*
G04 #@! TF.FileFunction,Paste,Top*
G04 #@! TF.FilePolarity,Positive*
%FSLAX46Y46*%
G04 Gerber Fmt 4.6, Leading zero omitted, Abs format (unit mm)*
G04 Created by KiCad (PCBNEW 5.1.5-52549c5~84~ubuntu18.04.1) date 2019-12-20 21:30:07*
%MOMM*%
%LPD*%
G04 APERTURE LIST*
%ADD10C,0.100000*%
%ADD11R,1.250000X2.200000*%
%ADD12R,2.200000X2.200000*%
G04 APERTURE END LIST*
D10*
G36*
X203049504Y-105876204D02*
G01*
X203073773Y-105879804D01*
X203097571Y-105885765D01*
X203120671Y-105894030D01*
X203142849Y-105904520D01*
X203163893Y-105917133D01*
X203183598Y-105931747D01*
X203201777Y-105948223D01*
X203218253Y-105966402D01*
X203232867Y-105986107D01*
X203245480Y-106007151D01*
X203255970Y-106029329D01*
X203264235Y-106052429D01*
X203270196Y-106076227D01*
X203273796Y-106100496D01*
X203275000Y-106125000D01*
X203275000Y-107375000D01*
X203273796Y-107399504D01*
X203270196Y-107423773D01*
X203264235Y-107447571D01*
X203255970Y-107470671D01*
X203245480Y-107492849D01*
X203232867Y-107513893D01*
X203218253Y-107533598D01*
X203201777Y-107551777D01*
X203183598Y-107568253D01*
X203163893Y-107582867D01*
X203142849Y-107595480D01*
X203120671Y-107605970D01*
X203097571Y-107614235D01*
X203073773Y-107620196D01*
X203049504Y-107623796D01*
X203025000Y-107625000D01*
X202275000Y-107625000D01*
X202250496Y-107623796D01*
X202226227Y-107620196D01*
X202202429Y-107614235D01*
X202179329Y-107605970D01*
X202157151Y-107595480D01*
X202136107Y-107582867D01*
X202116402Y-107568253D01*
X202098223Y-107551777D01*
X202081747Y-107533598D01*
X202067133Y-107513893D01*
X202054520Y-107492849D01*
X202044030Y-107470671D01*
X202035765Y-107447571D01*
X202029804Y-107423773D01*
X202026204Y-107399504D01*
X202025000Y-107375000D01*
X202025000Y-106125000D01*
X202026204Y-106100496D01*
X202029804Y-106076227D01*
X202035765Y-106052429D01*
X202044030Y-106029329D01*
X202054520Y-106007151D01*
X202067133Y-105986107D01*
X202081747Y-105966402D01*
X202098223Y-105948223D01*
X202116402Y-105931747D01*
X202136107Y-105917133D01*
X202157151Y-105904520D01*
X202179329Y-105894030D01*
X202202429Y-105885765D01*
X202226227Y-105879804D01*
X202250496Y-105876204D01*
X202275000Y-105875000D01*
X203025000Y-105875000D01*
X203049504Y-105876204D01*
G37*
G36*
X200249504Y-105876204D02*
G01*
X200273773Y-105879804D01*
X200297571Y-105885765D01*
X200320671Y-105894030D01*
X200342849Y-105904520D01*
X200363893Y-105917133D01*
X200383598Y-105931747D01*
X200401777Y-105948223D01*
X200418253Y-105966402D01*
X200432867Y-105986107D01*
X200445480Y-106007151D01*
X200455970Y-106029329D01*
X200464235Y-106052429D01*
X200470196Y-106076227D01*
X200473796Y-106100496D01*
X200475000Y-106125000D01*
X200475000Y-107375000D01*
X200473796Y-107399504D01*
X200470196Y-107423773D01*
X200464235Y-107447571D01*
X200455970Y-107470671D01*
X200445480Y-107492849D01*
X200432867Y-107513893D01*
X200418253Y-107533598D01*
X200401777Y-107551777D01*
X200383598Y-107568253D01*
X200363893Y-107582867D01*
X200342849Y-107595480D01*
X200320671Y-107605970D01*
X200297571Y-107614235D01*
X200273773Y-107620196D01*
X200249504Y-107623796D01*
X200225000Y-107625000D01*
X199475000Y-107625000D01*
X199450496Y-107623796D01*
X199426227Y-107620196D01*
X199402429Y-107614235D01*
X199379329Y-107605970D01*
X199357151Y-107595480D01*
X199336107Y-107582867D01*
X199316402Y-107568253D01*
X199298223Y-107551777D01*
X199281747Y-107533598D01*
X199267133Y-107513893D01*
X199254520Y-107492849D01*
X199244030Y-107470671D01*
X199235765Y-107447571D01*
X199229804Y-107423773D01*
X199226204Y-107399504D01*
X199225000Y-107375000D01*
X199225000Y-106125000D01*
X199226204Y-106100496D01*
X199229804Y-106076227D01*
X199235765Y-106052429D01*
X199244030Y-106029329D01*
X199254520Y-106007151D01*
X199267133Y-105986107D01*
X199281747Y-105966402D01*
X199298223Y-105948223D01*
X199316402Y-105931747D01*
X199336107Y-105917133D01*
X199357151Y-105904520D01*
X199379329Y-105894030D01*
X199402429Y-105885765D01*
X199426227Y-105879804D01*
X199450496Y-105876204D01*
X199475000Y-105875000D01*
X200225000Y-105875000D01*
X200249504Y-105876204D01*
G37*
G36*
X172709504Y-132476204D02*
G01*
X172733773Y-132479804D01*
X172757571Y-132485765D01*
X172780671Y-132494030D01*
X172802849Y-132504520D01*
X172823893Y-132517133D01*
X172843598Y-132531747D01*
X172861777Y-132548223D01*
X172878253Y-132566402D01*
X172892867Y-132586107D01*
X172905480Y-132607151D01*
X172915970Y-132629329D01*
X172924235Y-132652429D01*
X172930196Y-132676227D01*
X172933796Y-132700496D01*
X172935000Y-132725000D01*
X172935000Y-133975000D01*
X172933796Y-133999504D01*
X172930196Y-134023773D01*
X172924235Y-134047571D01*
X172915970Y-134070671D01*
X172905480Y-134092849D01*
X172892867Y-134113893D01*
X172878253Y-134133598D01*
X172861777Y-134151777D01*
X172843598Y-134168253D01*
X172823893Y-134182867D01*
X172802849Y-134195480D01*
X172780671Y-134205970D01*
X172757571Y-134214235D01*
X172733773Y-134220196D01*
X172709504Y-134223796D01*
X172685000Y-134225000D01*
X171935000Y-134225000D01*
X171910496Y-134223796D01*
X171886227Y-134220196D01*
X171862429Y-134214235D01*
X171839329Y-134205970D01*
X171817151Y-134195480D01*
X171796107Y-134182867D01*
X171776402Y-134168253D01*
X171758223Y-134151777D01*
X171741747Y-134133598D01*
X171727133Y-134113893D01*
X171714520Y-134092849D01*
X171704030Y-134070671D01*
X171695765Y-134047571D01*
X171689804Y-134023773D01*
X171686204Y-133999504D01*
X171685000Y-133975000D01*
X171685000Y-132725000D01*
X171686204Y-132700496D01*
X171689804Y-132676227D01*
X171695765Y-132652429D01*
X171704030Y-132629329D01*
X171714520Y-132607151D01*
X171727133Y-132586107D01*
X171741747Y-132566402D01*
X171758223Y-132548223D01*
X171776402Y-132531747D01*
X171796107Y-132517133D01*
X171817151Y-132504520D01*
X171839329Y-132494030D01*
X171862429Y-132485765D01*
X171886227Y-132479804D01*
X171910496Y-132476204D01*
X171935000Y-132475000D01*
X172685000Y-132475000D01*
X172709504Y-132476204D01*
G37*
G36*
X169909504Y-132476204D02*
G01*
X169933773Y-132479804D01*
X169957571Y-132485765D01*
X169980671Y-132494030D01*
X170002849Y-132504520D01*
X170023893Y-132517133D01*
X170043598Y-132531747D01*
X170061777Y-132548223D01*
X170078253Y-132566402D01*
X170092867Y-132586107D01*
X170105480Y-132607151D01*
X170115970Y-132629329D01*
X170124235Y-132652429D01*
X170130196Y-132676227D01*
X170133796Y-132700496D01*
X170135000Y-132725000D01*
X170135000Y-133975000D01*
X170133796Y-133999504D01*
X170130196Y-134023773D01*
X170124235Y-134047571D01*
X170115970Y-134070671D01*
X170105480Y-134092849D01*
X170092867Y-134113893D01*
X170078253Y-134133598D01*
X170061777Y-134151777D01*
X170043598Y-134168253D01*
X170023893Y-134182867D01*
X170002849Y-134195480D01*
X169980671Y-134205970D01*
X169957571Y-134214235D01*
X169933773Y-134220196D01*
X169909504Y-134223796D01*
X169885000Y-134225000D01*
X169135000Y-134225000D01*
X169110496Y-134223796D01*
X169086227Y-134220196D01*
X169062429Y-134214235D01*
X169039329Y-134205970D01*
X169017151Y-134195480D01*
X168996107Y-134182867D01*
X168976402Y-134168253D01*
X168958223Y-134151777D01*
X168941747Y-134133598D01*
X168927133Y-134113893D01*
X168914520Y-134092849D01*
X168904030Y-134070671D01*
X168895765Y-134047571D01*
X168889804Y-134023773D01*
X168886204Y-133999504D01*
X168885000Y-133975000D01*
X168885000Y-132725000D01*
X168886204Y-132700496D01*
X168889804Y-132676227D01*
X168895765Y-132652429D01*
X168904030Y-132629329D01*
X168914520Y-132607151D01*
X168927133Y-132586107D01*
X168941747Y-132566402D01*
X168958223Y-132548223D01*
X168976402Y-132531747D01*
X168996107Y-132517133D01*
X169017151Y-132504520D01*
X169039329Y-132494030D01*
X169062429Y-132485765D01*
X169086227Y-132479804D01*
X169110496Y-132476204D01*
X169135000Y-132475000D01*
X169885000Y-132475000D01*
X169909504Y-132476204D01*
G37*
G36*
X207989504Y-99176204D02*
G01*
X208013773Y-99179804D01*
X208037571Y-99185765D01*
X208060671Y-99194030D01*
X208082849Y-99204520D01*
X208103893Y-99217133D01*
X208123598Y-99231747D01*
X208141777Y-99248223D01*
X208158253Y-99266402D01*
X208172867Y-99286107D01*
X208185480Y-99307151D01*
X208195970Y-99329329D01*
X208204235Y-99352429D01*
X208210196Y-99376227D01*
X208213796Y-99400496D01*
X208215000Y-99425000D01*
X208215000Y-100675000D01*
X208213796Y-100699504D01*
X208210196Y-100723773D01*
X208204235Y-100747571D01*
X208195970Y-100770671D01*
X208185480Y-100792849D01*
X208172867Y-100813893D01*
X208158253Y-100833598D01*
X208141777Y-100851777D01*
X208123598Y-100868253D01*
X208103893Y-100882867D01*
X208082849Y-100895480D01*
X208060671Y-100905970D01*
X208037571Y-100914235D01*
X208013773Y-100920196D01*
X207989504Y-100923796D01*
X207965000Y-100925000D01*
X207215000Y-100925000D01*
X207190496Y-100923796D01*
X207166227Y-100920196D01*
X207142429Y-100914235D01*
X207119329Y-100905970D01*
X207097151Y-100895480D01*
X207076107Y-100882867D01*
X207056402Y-100868253D01*
X207038223Y-100851777D01*
X207021747Y-100833598D01*
X207007133Y-100813893D01*
X206994520Y-100792849D01*
X206984030Y-100770671D01*
X206975765Y-100747571D01*
X206969804Y-100723773D01*
X206966204Y-100699504D01*
X206965000Y-100675000D01*
X206965000Y-99425000D01*
X206966204Y-99400496D01*
X206969804Y-99376227D01*
X206975765Y-99352429D01*
X206984030Y-99329329D01*
X206994520Y-99307151D01*
X207007133Y-99286107D01*
X207021747Y-99266402D01*
X207038223Y-99248223D01*
X207056402Y-99231747D01*
X207076107Y-99217133D01*
X207097151Y-99204520D01*
X207119329Y-99194030D01*
X207142429Y-99185765D01*
X207166227Y-99179804D01*
X207190496Y-99176204D01*
X207215000Y-99175000D01*
X207965000Y-99175000D01*
X207989504Y-99176204D01*
G37*
G36*
X205189504Y-99176204D02*
G01*
X205213773Y-99179804D01*
X205237571Y-99185765D01*
X205260671Y-99194030D01*
X205282849Y-99204520D01*
X205303893Y-99217133D01*
X205323598Y-99231747D01*
X205341777Y-99248223D01*
X205358253Y-99266402D01*
X205372867Y-99286107D01*
X205385480Y-99307151D01*
X205395970Y-99329329D01*
X205404235Y-99352429D01*
X205410196Y-99376227D01*
X205413796Y-99400496D01*
X205415000Y-99425000D01*
X205415000Y-100675000D01*
X205413796Y-100699504D01*
X205410196Y-100723773D01*
X205404235Y-100747571D01*
X205395970Y-100770671D01*
X205385480Y-100792849D01*
X205372867Y-100813893D01*
X205358253Y-100833598D01*
X205341777Y-100851777D01*
X205323598Y-100868253D01*
X205303893Y-100882867D01*
X205282849Y-100895480D01*
X205260671Y-100905970D01*
X205237571Y-100914235D01*
X205213773Y-100920196D01*
X205189504Y-100923796D01*
X205165000Y-100925000D01*
X204415000Y-100925000D01*
X204390496Y-100923796D01*
X204366227Y-100920196D01*
X204342429Y-100914235D01*
X204319329Y-100905970D01*
X204297151Y-100895480D01*
X204276107Y-100882867D01*
X204256402Y-100868253D01*
X204238223Y-100851777D01*
X204221747Y-100833598D01*
X204207133Y-100813893D01*
X204194520Y-100792849D01*
X204184030Y-100770671D01*
X204175765Y-100747571D01*
X204169804Y-100723773D01*
X204166204Y-100699504D01*
X204165000Y-100675000D01*
X204165000Y-99425000D01*
X204166204Y-99400496D01*
X204169804Y-99376227D01*
X204175765Y-99352429D01*
X204184030Y-99329329D01*
X204194520Y-99307151D01*
X204207133Y-99286107D01*
X204221747Y-99266402D01*
X204238223Y-99248223D01*
X204256402Y-99231747D01*
X204276107Y-99217133D01*
X204297151Y-99204520D01*
X204319329Y-99194030D01*
X204342429Y-99185765D01*
X204366227Y-99179804D01*
X204390496Y-99176204D01*
X204415000Y-99175000D01*
X205165000Y-99175000D01*
X205189504Y-99176204D01*
G37*
G36*
X207989504Y-102466204D02*
G01*
X208013773Y-102469804D01*
X208037571Y-102475765D01*
X208060671Y-102484030D01*
X208082849Y-102494520D01*
X208103893Y-102507133D01*
X208123598Y-102521747D01*
X208141777Y-102538223D01*
X208158253Y-102556402D01*
X208172867Y-102576107D01*
X208185480Y-102597151D01*
X208195970Y-102619329D01*
X208204235Y-102642429D01*
X208210196Y-102666227D01*
X208213796Y-102690496D01*
X208215000Y-102715000D01*
X208215000Y-103965000D01*
X208213796Y-103989504D01*
X208210196Y-104013773D01*
X208204235Y-104037571D01*
X208195970Y-104060671D01*
X208185480Y-104082849D01*
X208172867Y-104103893D01*
X208158253Y-104123598D01*
X208141777Y-104141777D01*
X208123598Y-104158253D01*
X208103893Y-104172867D01*
X208082849Y-104185480D01*
X208060671Y-104195970D01*
X208037571Y-104204235D01*
X208013773Y-104210196D01*
X207989504Y-104213796D01*
X207965000Y-104215000D01*
X207215000Y-104215000D01*
X207190496Y-104213796D01*
X207166227Y-104210196D01*
X207142429Y-104204235D01*
X207119329Y-104195970D01*
X207097151Y-104185480D01*
X207076107Y-104172867D01*
X207056402Y-104158253D01*
X207038223Y-104141777D01*
X207021747Y-104123598D01*
X207007133Y-104103893D01*
X206994520Y-104082849D01*
X206984030Y-104060671D01*
X206975765Y-104037571D01*
X206969804Y-104013773D01*
X206966204Y-103989504D01*
X206965000Y-103965000D01*
X206965000Y-102715000D01*
X206966204Y-102690496D01*
X206969804Y-102666227D01*
X206975765Y-102642429D01*
X206984030Y-102619329D01*
X206994520Y-102597151D01*
X207007133Y-102576107D01*
X207021747Y-102556402D01*
X207038223Y-102538223D01*
X207056402Y-102521747D01*
X207076107Y-102507133D01*
X207097151Y-102494520D01*
X207119329Y-102484030D01*
X207142429Y-102475765D01*
X207166227Y-102469804D01*
X207190496Y-102466204D01*
X207215000Y-102465000D01*
X207965000Y-102465000D01*
X207989504Y-102466204D01*
G37*
G36*
X205189504Y-102466204D02*
G01*
X205213773Y-102469804D01*
X205237571Y-102475765D01*
X205260671Y-102484030D01*
X205282849Y-102494520D01*
X205303893Y-102507133D01*
X205323598Y-102521747D01*
X205341777Y-102538223D01*
X205358253Y-102556402D01*
X205372867Y-102576107D01*
X205385480Y-102597151D01*
X205395970Y-102619329D01*
X205404235Y-102642429D01*
X205410196Y-102666227D01*
X205413796Y-102690496D01*
X205415000Y-102715000D01*
X205415000Y-103965000D01*
X205413796Y-103989504D01*
X205410196Y-104013773D01*
X205404235Y-104037571D01*
X205395970Y-104060671D01*
X205385480Y-104082849D01*
X205372867Y-104103893D01*
X205358253Y-104123598D01*
X205341777Y-104141777D01*
X205323598Y-104158253D01*
X205303893Y-104172867D01*
X205282849Y-104185480D01*
X205260671Y-104195970D01*
X205237571Y-104204235D01*
X205213773Y-104210196D01*
X205189504Y-104213796D01*
X205165000Y-104215000D01*
X204415000Y-104215000D01*
X204390496Y-104213796D01*
X204366227Y-104210196D01*
X204342429Y-104204235D01*
X204319329Y-104195970D01*
X204297151Y-104185480D01*
X204276107Y-104172867D01*
X204256402Y-104158253D01*
X204238223Y-104141777D01*
X204221747Y-104123598D01*
X204207133Y-104103893D01*
X204194520Y-104082849D01*
X204184030Y-104060671D01*
X204175765Y-104037571D01*
X204169804Y-104013773D01*
X204166204Y-103989504D01*
X204165000Y-103965000D01*
X204165000Y-102715000D01*
X204166204Y-102690496D01*
X204169804Y-102666227D01*
X204175765Y-102642429D01*
X204184030Y-102619329D01*
X204194520Y-102597151D01*
X204207133Y-102576107D01*
X204221747Y-102556402D01*
X204238223Y-102538223D01*
X204256402Y-102521747D01*
X204276107Y-102507133D01*
X204297151Y-102494520D01*
X204319329Y-102484030D01*
X204342429Y-102475765D01*
X204366227Y-102469804D01*
X204390496Y-102466204D01*
X204415000Y-102465000D01*
X205165000Y-102465000D01*
X205189504Y-102466204D01*
G37*
G36*
X178319504Y-132476204D02*
G01*
X178343773Y-132479804D01*
X178367571Y-132485765D01*
X178390671Y-132494030D01*
X178412849Y-132504520D01*
X178433893Y-132517133D01*
X178453598Y-132531747D01*
X178471777Y-132548223D01*
X178488253Y-132566402D01*
X178502867Y-132586107D01*
X178515480Y-132607151D01*
X178525970Y-132629329D01*
X178534235Y-132652429D01*
X178540196Y-132676227D01*
X178543796Y-132700496D01*
X178545000Y-132725000D01*
X178545000Y-133975000D01*
X178543796Y-133999504D01*
X178540196Y-134023773D01*
X178534235Y-134047571D01*
X178525970Y-134070671D01*
X178515480Y-134092849D01*
X178502867Y-134113893D01*
X178488253Y-134133598D01*
X178471777Y-134151777D01*
X178453598Y-134168253D01*
X178433893Y-134182867D01*
X178412849Y-134195480D01*
X178390671Y-134205970D01*
X178367571Y-134214235D01*
X178343773Y-134220196D01*
X178319504Y-134223796D01*
X178295000Y-134225000D01*
X177545000Y-134225000D01*
X177520496Y-134223796D01*
X177496227Y-134220196D01*
X177472429Y-134214235D01*
X177449329Y-134205970D01*
X177427151Y-134195480D01*
X177406107Y-134182867D01*
X177386402Y-134168253D01*
X177368223Y-134151777D01*
X177351747Y-134133598D01*
X177337133Y-134113893D01*
X177324520Y-134092849D01*
X177314030Y-134070671D01*
X177305765Y-134047571D01*
X177299804Y-134023773D01*
X177296204Y-133999504D01*
X177295000Y-133975000D01*
X177295000Y-132725000D01*
X177296204Y-132700496D01*
X177299804Y-132676227D01*
X177305765Y-132652429D01*
X177314030Y-132629329D01*
X177324520Y-132607151D01*
X177337133Y-132586107D01*
X177351747Y-132566402D01*
X177368223Y-132548223D01*
X177386402Y-132531747D01*
X177406107Y-132517133D01*
X177427151Y-132504520D01*
X177449329Y-132494030D01*
X177472429Y-132485765D01*
X177496227Y-132479804D01*
X177520496Y-132476204D01*
X177545000Y-132475000D01*
X178295000Y-132475000D01*
X178319504Y-132476204D01*
G37*
G36*
X175519504Y-132476204D02*
G01*
X175543773Y-132479804D01*
X175567571Y-132485765D01*
X175590671Y-132494030D01*
X175612849Y-132504520D01*
X175633893Y-132517133D01*
X175653598Y-132531747D01*
X175671777Y-132548223D01*
X175688253Y-132566402D01*
X175702867Y-132586107D01*
X175715480Y-132607151D01*
X175725970Y-132629329D01*
X175734235Y-132652429D01*
X175740196Y-132676227D01*
X175743796Y-132700496D01*
X175745000Y-132725000D01*
X175745000Y-133975000D01*
X175743796Y-133999504D01*
X175740196Y-134023773D01*
X175734235Y-134047571D01*
X175725970Y-134070671D01*
X175715480Y-134092849D01*
X175702867Y-134113893D01*
X175688253Y-134133598D01*
X175671777Y-134151777D01*
X175653598Y-134168253D01*
X175633893Y-134182867D01*
X175612849Y-134195480D01*
X175590671Y-134205970D01*
X175567571Y-134214235D01*
X175543773Y-134220196D01*
X175519504Y-134223796D01*
X175495000Y-134225000D01*
X174745000Y-134225000D01*
X174720496Y-134223796D01*
X174696227Y-134220196D01*
X174672429Y-134214235D01*
X174649329Y-134205970D01*
X174627151Y-134195480D01*
X174606107Y-134182867D01*
X174586402Y-134168253D01*
X174568223Y-134151777D01*
X174551747Y-134133598D01*
X174537133Y-134113893D01*
X174524520Y-134092849D01*
X174514030Y-134070671D01*
X174505765Y-134047571D01*
X174499804Y-134023773D01*
X174496204Y-133999504D01*
X174495000Y-133975000D01*
X174495000Y-132725000D01*
X174496204Y-132700496D01*
X174499804Y-132676227D01*
X174505765Y-132652429D01*
X174514030Y-132629329D01*
X174524520Y-132607151D01*
X174537133Y-132586107D01*
X174551747Y-132566402D01*
X174568223Y-132548223D01*
X174586402Y-132531747D01*
X174606107Y-132517133D01*
X174627151Y-132504520D01*
X174649329Y-132494030D01*
X174672429Y-132485765D01*
X174696227Y-132479804D01*
X174720496Y-132476204D01*
X174745000Y-132475000D01*
X175495000Y-132475000D01*
X175519504Y-132476204D01*
G37*
G36*
X192559504Y-118126204D02*
G01*
X192583773Y-118129804D01*
X192607571Y-118135765D01*
X192630671Y-118144030D01*
X192652849Y-118154520D01*
X192673893Y-118167133D01*
X192693598Y-118181747D01*
X192711777Y-118198223D01*
X192728253Y-118216402D01*
X192742867Y-118236107D01*
X192755480Y-118257151D01*
X192765970Y-118279329D01*
X192774235Y-118302429D01*
X192780196Y-118326227D01*
X192783796Y-118350496D01*
X192785000Y-118375000D01*
X192785000Y-119625000D01*
X192783796Y-119649504D01*
X192780196Y-119673773D01*
X192774235Y-119697571D01*
X192765970Y-119720671D01*
X192755480Y-119742849D01*
X192742867Y-119763893D01*
X192728253Y-119783598D01*
X192711777Y-119801777D01*
X192693598Y-119818253D01*
X192673893Y-119832867D01*
X192652849Y-119845480D01*
X192630671Y-119855970D01*
X192607571Y-119864235D01*
X192583773Y-119870196D01*
X192559504Y-119873796D01*
X192535000Y-119875000D01*
X191785000Y-119875000D01*
X191760496Y-119873796D01*
X191736227Y-119870196D01*
X191712429Y-119864235D01*
X191689329Y-119855970D01*
X191667151Y-119845480D01*
X191646107Y-119832867D01*
X191626402Y-119818253D01*
X191608223Y-119801777D01*
X191591747Y-119783598D01*
X191577133Y-119763893D01*
X191564520Y-119742849D01*
X191554030Y-119720671D01*
X191545765Y-119697571D01*
X191539804Y-119673773D01*
X191536204Y-119649504D01*
X191535000Y-119625000D01*
X191535000Y-118375000D01*
X191536204Y-118350496D01*
X191539804Y-118326227D01*
X191545765Y-118302429D01*
X191554030Y-118279329D01*
X191564520Y-118257151D01*
X191577133Y-118236107D01*
X191591747Y-118216402D01*
X191608223Y-118198223D01*
X191626402Y-118181747D01*
X191646107Y-118167133D01*
X191667151Y-118154520D01*
X191689329Y-118144030D01*
X191712429Y-118135765D01*
X191736227Y-118129804D01*
X191760496Y-118126204D01*
X191785000Y-118125000D01*
X192535000Y-118125000D01*
X192559504Y-118126204D01*
G37*
G36*
X189759504Y-118126204D02*
G01*
X189783773Y-118129804D01*
X189807571Y-118135765D01*
X189830671Y-118144030D01*
X189852849Y-118154520D01*
X189873893Y-118167133D01*
X189893598Y-118181747D01*
X189911777Y-118198223D01*
X189928253Y-118216402D01*
X189942867Y-118236107D01*
X189955480Y-118257151D01*
X189965970Y-118279329D01*
X189974235Y-118302429D01*
X189980196Y-118326227D01*
X189983796Y-118350496D01*
X189985000Y-118375000D01*
X189985000Y-119625000D01*
X189983796Y-119649504D01*
X189980196Y-119673773D01*
X189974235Y-119697571D01*
X189965970Y-119720671D01*
X189955480Y-119742849D01*
X189942867Y-119763893D01*
X189928253Y-119783598D01*
X189911777Y-119801777D01*
X189893598Y-119818253D01*
X189873893Y-119832867D01*
X189852849Y-119845480D01*
X189830671Y-119855970D01*
X189807571Y-119864235D01*
X189783773Y-119870196D01*
X189759504Y-119873796D01*
X189735000Y-119875000D01*
X188985000Y-119875000D01*
X188960496Y-119873796D01*
X188936227Y-119870196D01*
X188912429Y-119864235D01*
X188889329Y-119855970D01*
X188867151Y-119845480D01*
X188846107Y-119832867D01*
X188826402Y-119818253D01*
X188808223Y-119801777D01*
X188791747Y-119783598D01*
X188777133Y-119763893D01*
X188764520Y-119742849D01*
X188754030Y-119720671D01*
X188745765Y-119697571D01*
X188739804Y-119673773D01*
X188736204Y-119649504D01*
X188735000Y-119625000D01*
X188735000Y-118375000D01*
X188736204Y-118350496D01*
X188739804Y-118326227D01*
X188745765Y-118302429D01*
X188754030Y-118279329D01*
X188764520Y-118257151D01*
X188777133Y-118236107D01*
X188791747Y-118216402D01*
X188808223Y-118198223D01*
X188826402Y-118181747D01*
X188846107Y-118167133D01*
X188867151Y-118154520D01*
X188889329Y-118144030D01*
X188912429Y-118135765D01*
X188936227Y-118129804D01*
X188960496Y-118126204D01*
X188985000Y-118125000D01*
X189735000Y-118125000D01*
X189759504Y-118126204D01*
G37*
G36*
X187859504Y-123916204D02*
G01*
X187883773Y-123919804D01*
X187907571Y-123925765D01*
X187930671Y-123934030D01*
X187952849Y-123944520D01*
X187973893Y-123957133D01*
X187993598Y-123971747D01*
X188011777Y-123988223D01*
X188028253Y-124006402D01*
X188042867Y-124026107D01*
X188055480Y-124047151D01*
X188065970Y-124069329D01*
X188074235Y-124092429D01*
X188080196Y-124116227D01*
X188083796Y-124140496D01*
X188085000Y-124165000D01*
X188085000Y-125415000D01*
X188083796Y-125439504D01*
X188080196Y-125463773D01*
X188074235Y-125487571D01*
X188065970Y-125510671D01*
X188055480Y-125532849D01*
X188042867Y-125553893D01*
X188028253Y-125573598D01*
X188011777Y-125591777D01*
X187993598Y-125608253D01*
X187973893Y-125622867D01*
X187952849Y-125635480D01*
X187930671Y-125645970D01*
X187907571Y-125654235D01*
X187883773Y-125660196D01*
X187859504Y-125663796D01*
X187835000Y-125665000D01*
X187085000Y-125665000D01*
X187060496Y-125663796D01*
X187036227Y-125660196D01*
X187012429Y-125654235D01*
X186989329Y-125645970D01*
X186967151Y-125635480D01*
X186946107Y-125622867D01*
X186926402Y-125608253D01*
X186908223Y-125591777D01*
X186891747Y-125573598D01*
X186877133Y-125553893D01*
X186864520Y-125532849D01*
X186854030Y-125510671D01*
X186845765Y-125487571D01*
X186839804Y-125463773D01*
X186836204Y-125439504D01*
X186835000Y-125415000D01*
X186835000Y-124165000D01*
X186836204Y-124140496D01*
X186839804Y-124116227D01*
X186845765Y-124092429D01*
X186854030Y-124069329D01*
X186864520Y-124047151D01*
X186877133Y-124026107D01*
X186891747Y-124006402D01*
X186908223Y-123988223D01*
X186926402Y-123971747D01*
X186946107Y-123957133D01*
X186967151Y-123944520D01*
X186989329Y-123934030D01*
X187012429Y-123925765D01*
X187036227Y-123919804D01*
X187060496Y-123916204D01*
X187085000Y-123915000D01*
X187835000Y-123915000D01*
X187859504Y-123916204D01*
G37*
G36*
X185059504Y-123916204D02*
G01*
X185083773Y-123919804D01*
X185107571Y-123925765D01*
X185130671Y-123934030D01*
X185152849Y-123944520D01*
X185173893Y-123957133D01*
X185193598Y-123971747D01*
X185211777Y-123988223D01*
X185228253Y-124006402D01*
X185242867Y-124026107D01*
X185255480Y-124047151D01*
X185265970Y-124069329D01*
X185274235Y-124092429D01*
X185280196Y-124116227D01*
X185283796Y-124140496D01*
X185285000Y-124165000D01*
X185285000Y-125415000D01*
X185283796Y-125439504D01*
X185280196Y-125463773D01*
X185274235Y-125487571D01*
X185265970Y-125510671D01*
X185255480Y-125532849D01*
X185242867Y-125553893D01*
X185228253Y-125573598D01*
X185211777Y-125591777D01*
X185193598Y-125608253D01*
X185173893Y-125622867D01*
X185152849Y-125635480D01*
X185130671Y-125645970D01*
X185107571Y-125654235D01*
X185083773Y-125660196D01*
X185059504Y-125663796D01*
X185035000Y-125665000D01*
X184285000Y-125665000D01*
X184260496Y-125663796D01*
X184236227Y-125660196D01*
X184212429Y-125654235D01*
X184189329Y-125645970D01*
X184167151Y-125635480D01*
X184146107Y-125622867D01*
X184126402Y-125608253D01*
X184108223Y-125591777D01*
X184091747Y-125573598D01*
X184077133Y-125553893D01*
X184064520Y-125532849D01*
X184054030Y-125510671D01*
X184045765Y-125487571D01*
X184039804Y-125463773D01*
X184036204Y-125439504D01*
X184035000Y-125415000D01*
X184035000Y-124165000D01*
X184036204Y-124140496D01*
X184039804Y-124116227D01*
X184045765Y-124092429D01*
X184054030Y-124069329D01*
X184064520Y-124047151D01*
X184077133Y-124026107D01*
X184091747Y-124006402D01*
X184108223Y-123988223D01*
X184126402Y-123971747D01*
X184146107Y-123957133D01*
X184167151Y-123944520D01*
X184189329Y-123934030D01*
X184212429Y-123925765D01*
X184236227Y-123919804D01*
X184260496Y-123916204D01*
X184285000Y-123915000D01*
X185035000Y-123915000D01*
X185059504Y-123916204D01*
G37*
G36*
X213599504Y-99176204D02*
G01*
X213623773Y-99179804D01*
X213647571Y-99185765D01*
X213670671Y-99194030D01*
X213692849Y-99204520D01*
X213713893Y-99217133D01*
X213733598Y-99231747D01*
X213751777Y-99248223D01*
X213768253Y-99266402D01*
X213782867Y-99286107D01*
X213795480Y-99307151D01*
X213805970Y-99329329D01*
X213814235Y-99352429D01*
X213820196Y-99376227D01*
X213823796Y-99400496D01*
X213825000Y-99425000D01*
X213825000Y-100675000D01*
X213823796Y-100699504D01*
X213820196Y-100723773D01*
X213814235Y-100747571D01*
X213805970Y-100770671D01*
X213795480Y-100792849D01*
X213782867Y-100813893D01*
X213768253Y-100833598D01*
X213751777Y-100851777D01*
X213733598Y-100868253D01*
X213713893Y-100882867D01*
X213692849Y-100895480D01*
X213670671Y-100905970D01*
X213647571Y-100914235D01*
X213623773Y-100920196D01*
X213599504Y-100923796D01*
X213575000Y-100925000D01*
X212825000Y-100925000D01*
X212800496Y-100923796D01*
X212776227Y-100920196D01*
X212752429Y-100914235D01*
X212729329Y-100905970D01*
X212707151Y-100895480D01*
X212686107Y-100882867D01*
X212666402Y-100868253D01*
X212648223Y-100851777D01*
X212631747Y-100833598D01*
X212617133Y-100813893D01*
X212604520Y-100792849D01*
X212594030Y-100770671D01*
X212585765Y-100747571D01*
X212579804Y-100723773D01*
X212576204Y-100699504D01*
X212575000Y-100675000D01*
X212575000Y-99425000D01*
X212576204Y-99400496D01*
X212579804Y-99376227D01*
X212585765Y-99352429D01*
X212594030Y-99329329D01*
X212604520Y-99307151D01*
X212617133Y-99286107D01*
X212631747Y-99266402D01*
X212648223Y-99248223D01*
X212666402Y-99231747D01*
X212686107Y-99217133D01*
X212707151Y-99204520D01*
X212729329Y-99194030D01*
X212752429Y-99185765D01*
X212776227Y-99179804D01*
X212800496Y-99176204D01*
X212825000Y-99175000D01*
X213575000Y-99175000D01*
X213599504Y-99176204D01*
G37*
G36*
X210799504Y-99176204D02*
G01*
X210823773Y-99179804D01*
X210847571Y-99185765D01*
X210870671Y-99194030D01*
X210892849Y-99204520D01*
X210913893Y-99217133D01*
X210933598Y-99231747D01*
X210951777Y-99248223D01*
X210968253Y-99266402D01*
X210982867Y-99286107D01*
X210995480Y-99307151D01*
X211005970Y-99329329D01*
X211014235Y-99352429D01*
X211020196Y-99376227D01*
X211023796Y-99400496D01*
X211025000Y-99425000D01*
X211025000Y-100675000D01*
X211023796Y-100699504D01*
X211020196Y-100723773D01*
X211014235Y-100747571D01*
X211005970Y-100770671D01*
X210995480Y-100792849D01*
X210982867Y-100813893D01*
X210968253Y-100833598D01*
X210951777Y-100851777D01*
X210933598Y-100868253D01*
X210913893Y-100882867D01*
X210892849Y-100895480D01*
X210870671Y-100905970D01*
X210847571Y-100914235D01*
X210823773Y-100920196D01*
X210799504Y-100923796D01*
X210775000Y-100925000D01*
X210025000Y-100925000D01*
X210000496Y-100923796D01*
X209976227Y-100920196D01*
X209952429Y-100914235D01*
X209929329Y-100905970D01*
X209907151Y-100895480D01*
X209886107Y-100882867D01*
X209866402Y-100868253D01*
X209848223Y-100851777D01*
X209831747Y-100833598D01*
X209817133Y-100813893D01*
X209804520Y-100792849D01*
X209794030Y-100770671D01*
X209785765Y-100747571D01*
X209779804Y-100723773D01*
X209776204Y-100699504D01*
X209775000Y-100675000D01*
X209775000Y-99425000D01*
X209776204Y-99400496D01*
X209779804Y-99376227D01*
X209785765Y-99352429D01*
X209794030Y-99329329D01*
X209804520Y-99307151D01*
X209817133Y-99286107D01*
X209831747Y-99266402D01*
X209848223Y-99248223D01*
X209866402Y-99231747D01*
X209886107Y-99217133D01*
X209907151Y-99204520D01*
X209929329Y-99194030D01*
X209952429Y-99185765D01*
X209976227Y-99179804D01*
X210000496Y-99176204D01*
X210025000Y-99175000D01*
X210775000Y-99175000D01*
X210799504Y-99176204D01*
G37*
G36*
X200539504Y-109166204D02*
G01*
X200563773Y-109169804D01*
X200587571Y-109175765D01*
X200610671Y-109184030D01*
X200632849Y-109194520D01*
X200653893Y-109207133D01*
X200673598Y-109221747D01*
X200691777Y-109238223D01*
X200708253Y-109256402D01*
X200722867Y-109276107D01*
X200735480Y-109297151D01*
X200745970Y-109319329D01*
X200754235Y-109342429D01*
X200760196Y-109366227D01*
X200763796Y-109390496D01*
X200765000Y-109415000D01*
X200765000Y-110665000D01*
X200763796Y-110689504D01*
X200760196Y-110713773D01*
X200754235Y-110737571D01*
X200745970Y-110760671D01*
X200735480Y-110782849D01*
X200722867Y-110803893D01*
X200708253Y-110823598D01*
X200691777Y-110841777D01*
X200673598Y-110858253D01*
X200653893Y-110872867D01*
X200632849Y-110885480D01*
X200610671Y-110895970D01*
X200587571Y-110904235D01*
X200563773Y-110910196D01*
X200539504Y-110913796D01*
X200515000Y-110915000D01*
X199765000Y-110915000D01*
X199740496Y-110913796D01*
X199716227Y-110910196D01*
X199692429Y-110904235D01*
X199669329Y-110895970D01*
X199647151Y-110885480D01*
X199626107Y-110872867D01*
X199606402Y-110858253D01*
X199588223Y-110841777D01*
X199571747Y-110823598D01*
X199557133Y-110803893D01*
X199544520Y-110782849D01*
X199534030Y-110760671D01*
X199525765Y-110737571D01*
X199519804Y-110713773D01*
X199516204Y-110689504D01*
X199515000Y-110665000D01*
X199515000Y-109415000D01*
X199516204Y-109390496D01*
X199519804Y-109366227D01*
X199525765Y-109342429D01*
X199534030Y-109319329D01*
X199544520Y-109297151D01*
X199557133Y-109276107D01*
X199571747Y-109256402D01*
X199588223Y-109238223D01*
X199606402Y-109221747D01*
X199626107Y-109207133D01*
X199647151Y-109194520D01*
X199669329Y-109184030D01*
X199692429Y-109175765D01*
X199716227Y-109169804D01*
X199740496Y-109166204D01*
X199765000Y-109165000D01*
X200515000Y-109165000D01*
X200539504Y-109166204D01*
G37*
G36*
X197739504Y-109166204D02*
G01*
X197763773Y-109169804D01*
X197787571Y-109175765D01*
X197810671Y-109184030D01*
X197832849Y-109194520D01*
X197853893Y-109207133D01*
X197873598Y-109221747D01*
X197891777Y-109238223D01*
X197908253Y-109256402D01*
X197922867Y-109276107D01*
X197935480Y-109297151D01*
X197945970Y-109319329D01*
X197954235Y-109342429D01*
X197960196Y-109366227D01*
X197963796Y-109390496D01*
X197965000Y-109415000D01*
X197965000Y-110665000D01*
X197963796Y-110689504D01*
X197960196Y-110713773D01*
X197954235Y-110737571D01*
X197945970Y-110760671D01*
X197935480Y-110782849D01*
X197922867Y-110803893D01*
X197908253Y-110823598D01*
X197891777Y-110841777D01*
X197873598Y-110858253D01*
X197853893Y-110872867D01*
X197832849Y-110885480D01*
X197810671Y-110895970D01*
X197787571Y-110904235D01*
X197763773Y-110910196D01*
X197739504Y-110913796D01*
X197715000Y-110915000D01*
X196965000Y-110915000D01*
X196940496Y-110913796D01*
X196916227Y-110910196D01*
X196892429Y-110904235D01*
X196869329Y-110895970D01*
X196847151Y-110885480D01*
X196826107Y-110872867D01*
X196806402Y-110858253D01*
X196788223Y-110841777D01*
X196771747Y-110823598D01*
X196757133Y-110803893D01*
X196744520Y-110782849D01*
X196734030Y-110760671D01*
X196725765Y-110737571D01*
X196719804Y-110713773D01*
X196716204Y-110689504D01*
X196715000Y-110665000D01*
X196715000Y-109415000D01*
X196716204Y-109390496D01*
X196719804Y-109366227D01*
X196725765Y-109342429D01*
X196734030Y-109319329D01*
X196744520Y-109297151D01*
X196757133Y-109276107D01*
X196771747Y-109256402D01*
X196788223Y-109238223D01*
X196806402Y-109221747D01*
X196826107Y-109207133D01*
X196847151Y-109194520D01*
X196869329Y-109184030D01*
X196892429Y-109175765D01*
X196916227Y-109169804D01*
X196940496Y-109166204D01*
X196965000Y-109165000D01*
X197715000Y-109165000D01*
X197739504Y-109166204D01*
G37*
G36*
X197439504Y-105876204D02*
G01*
X197463773Y-105879804D01*
X197487571Y-105885765D01*
X197510671Y-105894030D01*
X197532849Y-105904520D01*
X197553893Y-105917133D01*
X197573598Y-105931747D01*
X197591777Y-105948223D01*
X197608253Y-105966402D01*
X197622867Y-105986107D01*
X197635480Y-106007151D01*
X197645970Y-106029329D01*
X197654235Y-106052429D01*
X197660196Y-106076227D01*
X197663796Y-106100496D01*
X197665000Y-106125000D01*
X197665000Y-107375000D01*
X197663796Y-107399504D01*
X197660196Y-107423773D01*
X197654235Y-107447571D01*
X197645970Y-107470671D01*
X197635480Y-107492849D01*
X197622867Y-107513893D01*
X197608253Y-107533598D01*
X197591777Y-107551777D01*
X197573598Y-107568253D01*
X197553893Y-107582867D01*
X197532849Y-107595480D01*
X197510671Y-107605970D01*
X197487571Y-107614235D01*
X197463773Y-107620196D01*
X197439504Y-107623796D01*
X197415000Y-107625000D01*
X196665000Y-107625000D01*
X196640496Y-107623796D01*
X196616227Y-107620196D01*
X196592429Y-107614235D01*
X196569329Y-107605970D01*
X196547151Y-107595480D01*
X196526107Y-107582867D01*
X196506402Y-107568253D01*
X196488223Y-107551777D01*
X196471747Y-107533598D01*
X196457133Y-107513893D01*
X196444520Y-107492849D01*
X196434030Y-107470671D01*
X196425765Y-107447571D01*
X196419804Y-107423773D01*
X196416204Y-107399504D01*
X196415000Y-107375000D01*
X196415000Y-106125000D01*
X196416204Y-106100496D01*
X196419804Y-106076227D01*
X196425765Y-106052429D01*
X196434030Y-106029329D01*
X196444520Y-106007151D01*
X196457133Y-105986107D01*
X196471747Y-105966402D01*
X196488223Y-105948223D01*
X196506402Y-105931747D01*
X196526107Y-105917133D01*
X196547151Y-105904520D01*
X196569329Y-105894030D01*
X196592429Y-105885765D01*
X196616227Y-105879804D01*
X196640496Y-105876204D01*
X196665000Y-105875000D01*
X197415000Y-105875000D01*
X197439504Y-105876204D01*
G37*
G36*
X194639504Y-105876204D02*
G01*
X194663773Y-105879804D01*
X194687571Y-105885765D01*
X194710671Y-105894030D01*
X194732849Y-105904520D01*
X194753893Y-105917133D01*
X194773598Y-105931747D01*
X194791777Y-105948223D01*
X194808253Y-105966402D01*
X194822867Y-105986107D01*
X194835480Y-106007151D01*
X194845970Y-106029329D01*
X194854235Y-106052429D01*
X194860196Y-106076227D01*
X194863796Y-106100496D01*
X194865000Y-106125000D01*
X194865000Y-107375000D01*
X194863796Y-107399504D01*
X194860196Y-107423773D01*
X194854235Y-107447571D01*
X194845970Y-107470671D01*
X194835480Y-107492849D01*
X194822867Y-107513893D01*
X194808253Y-107533598D01*
X194791777Y-107551777D01*
X194773598Y-107568253D01*
X194753893Y-107582867D01*
X194732849Y-107595480D01*
X194710671Y-107605970D01*
X194687571Y-107614235D01*
X194663773Y-107620196D01*
X194639504Y-107623796D01*
X194615000Y-107625000D01*
X193865000Y-107625000D01*
X193840496Y-107623796D01*
X193816227Y-107620196D01*
X193792429Y-107614235D01*
X193769329Y-107605970D01*
X193747151Y-107595480D01*
X193726107Y-107582867D01*
X193706402Y-107568253D01*
X193688223Y-107551777D01*
X193671747Y-107533598D01*
X193657133Y-107513893D01*
X193644520Y-107492849D01*
X193634030Y-107470671D01*
X193625765Y-107447571D01*
X193619804Y-107423773D01*
X193616204Y-107399504D01*
X193615000Y-107375000D01*
X193615000Y-106125000D01*
X193616204Y-106100496D01*
X193619804Y-106076227D01*
X193625765Y-106052429D01*
X193634030Y-106029329D01*
X193644520Y-106007151D01*
X193657133Y-105986107D01*
X193671747Y-105966402D01*
X193688223Y-105948223D01*
X193706402Y-105931747D01*
X193726107Y-105917133D01*
X193747151Y-105904520D01*
X193769329Y-105894030D01*
X193792429Y-105885765D01*
X193816227Y-105879804D01*
X193840496Y-105876204D01*
X193865000Y-105875000D01*
X194615000Y-105875000D01*
X194639504Y-105876204D01*
G37*
D11*
X200085000Y-113860000D03*
D12*
X197810000Y-113860000D03*
D11*
X205695000Y-110570000D03*
D12*
X203420000Y-110570000D03*
D11*
X187405000Y-128610000D03*
D12*
X185130000Y-128610000D03*
M02*
