G04 #@! TF.GenerationSoftware,KiCad,Pcbnew,5.1.5-52549c5~84~ubuntu18.04.1*
G04 #@! TF.CreationDate,2019-12-20T21:30:07+07:00*
G04 #@! TF.ProjectId,plate,706c6174-652e-46b6-9963-61645f706362,rev?*
G04 #@! TF.SameCoordinates,Original*
G04 #@! TF.FileFunction,Copper,L2,Bot*
G04 #@! TF.FilePolarity,Positive*
%FSLAX46Y46*%
G04 Gerber Fmt 4.6, Leading zero omitted, Abs format (unit mm)*
G04 Created by KiCad (PCBNEW 5.1.5-52549c5~84~ubuntu18.04.1) date 2019-12-20 21:30:07*
%MOMM*%
%LPD*%
G04 APERTURE LIST*
%ADD10O,1.700000X1.700000*%
%ADD11R,1.700000X1.700000*%
%ADD12C,2.000000*%
%ADD13R,1.050000X1.500000*%
%ADD14O,1.050000X1.500000*%
%ADD15O,1.600000X1.600000*%
%ADD16R,1.600000X1.600000*%
G04 APERTURE END LIST*
D10*
X199710000Y-94260000D03*
X199710000Y-91720000D03*
X199710000Y-89180000D03*
X199710000Y-86640000D03*
X199710000Y-84100000D03*
X199710000Y-81560000D03*
X199710000Y-79020000D03*
D11*
X199710000Y-76480000D03*
D10*
X159270000Y-131370000D03*
X159270000Y-128830000D03*
X159270000Y-126290000D03*
D11*
X159270000Y-123750000D03*
D10*
X123320000Y-131320000D03*
X123320000Y-128780000D03*
X123320000Y-126240000D03*
D11*
X123320000Y-123700000D03*
D10*
X136670000Y-131320000D03*
X136670000Y-128780000D03*
X136670000Y-126240000D03*
D11*
X136670000Y-123700000D03*
D10*
X150020000Y-131320000D03*
X150020000Y-128780000D03*
X150020000Y-126240000D03*
D11*
X150020000Y-123700000D03*
D10*
X185910000Y-106450000D03*
X185910000Y-103910000D03*
X185910000Y-101370000D03*
D11*
X185910000Y-98830000D03*
D10*
X154620000Y-131370000D03*
X154620000Y-128830000D03*
X154620000Y-126290000D03*
D11*
X154620000Y-123750000D03*
D10*
X204310000Y-84100000D03*
X204310000Y-81560000D03*
X204310000Y-79020000D03*
D11*
X204310000Y-76480000D03*
D10*
X190510000Y-106500000D03*
X190510000Y-103960000D03*
X190510000Y-101420000D03*
D11*
X190510000Y-98880000D03*
D12*
X170120000Y-123450000D03*
X170120000Y-127950000D03*
X163620000Y-123450000D03*
X163620000Y-127950000D03*
X183360000Y-110830000D03*
X183360000Y-115330000D03*
X176860000Y-110830000D03*
X176860000Y-115330000D03*
X215160000Y-76180000D03*
X215160000Y-80680000D03*
X208660000Y-76180000D03*
X208660000Y-80680000D03*
X215160000Y-84730000D03*
X215160000Y-89230000D03*
X208660000Y-84730000D03*
X208660000Y-89230000D03*
X201360000Y-98580000D03*
X201360000Y-103080000D03*
X194860000Y-98580000D03*
X194860000Y-103080000D03*
X193910000Y-110830000D03*
X193910000Y-115330000D03*
X187410000Y-110830000D03*
X187410000Y-115330000D03*
D13*
X213220000Y-94510000D03*
D14*
X215760000Y-94510000D03*
X214490000Y-94510000D03*
D13*
X178730000Y-127810000D03*
D14*
X181270000Y-127810000D03*
X180000000Y-127810000D03*
D13*
X183430000Y-120610000D03*
D14*
X185970000Y-120610000D03*
X184700000Y-120610000D03*
D13*
X163580000Y-133230000D03*
D14*
X166120000Y-133230000D03*
X164850000Y-133230000D03*
D10*
X208960000Y-96120000D03*
D11*
X208960000Y-93580000D03*
D10*
X219510000Y-79020000D03*
D11*
X219510000Y-76480000D03*
D10*
X174470000Y-129420000D03*
D11*
X174470000Y-126880000D03*
D10*
X219510000Y-86170000D03*
D11*
X219510000Y-83630000D03*
D10*
X58420000Y-78740000D03*
X55880000Y-78740000D03*
X53340000Y-78740000D03*
X50800000Y-78740000D03*
X48260000Y-78740000D03*
X45720000Y-78740000D03*
X43180000Y-78740000D03*
D11*
X40640000Y-78740000D03*
D10*
X45720000Y-75210000D03*
X45720000Y-72670000D03*
X45720000Y-70130000D03*
X45720000Y-67590000D03*
X45720000Y-65050000D03*
X45720000Y-62510000D03*
X45720000Y-59970000D03*
D11*
X45720000Y-57430000D03*
D10*
X43180000Y-75210000D03*
X43180000Y-72670000D03*
X43180000Y-70130000D03*
X43180000Y-67590000D03*
X43180000Y-65050000D03*
X43180000Y-62510000D03*
X43180000Y-59970000D03*
D11*
X43180000Y-57430000D03*
D10*
X40480000Y-75210000D03*
X40480000Y-72670000D03*
X40480000Y-70130000D03*
X40480000Y-67590000D03*
X40480000Y-65050000D03*
X40480000Y-62510000D03*
X40480000Y-59970000D03*
D11*
X40480000Y-57430000D03*
D10*
X204310000Y-91270000D03*
D11*
X204310000Y-88730000D03*
D10*
X174470000Y-122220000D03*
D11*
X174470000Y-119680000D03*
D10*
X172560000Y-109040000D03*
X172560000Y-106500000D03*
X172560000Y-103960000D03*
X172560000Y-101420000D03*
D11*
X172560000Y-98880000D03*
D10*
X179120000Y-122220000D03*
D11*
X179120000Y-119680000D03*
D15*
X147320000Y-76200000D03*
X132080000Y-76200000D03*
X147320000Y-40640000D03*
X132080000Y-73660000D03*
X147320000Y-43180000D03*
X132080000Y-71120000D03*
X147320000Y-45720000D03*
X132080000Y-68580000D03*
X147320000Y-48260000D03*
X132080000Y-66040000D03*
X147320000Y-50800000D03*
X132080000Y-63500000D03*
X147320000Y-53340000D03*
X132080000Y-60960000D03*
X147320000Y-55880000D03*
X132080000Y-58420000D03*
X147320000Y-58420000D03*
X132080000Y-55880000D03*
X147320000Y-60960000D03*
X132080000Y-53340000D03*
X147320000Y-63500000D03*
X132080000Y-50800000D03*
X147320000Y-66040000D03*
X132080000Y-48260000D03*
X147320000Y-68580000D03*
X132080000Y-45720000D03*
X147320000Y-71120000D03*
X132080000Y-43180000D03*
X147320000Y-73660000D03*
D16*
X132080000Y-40640000D03*
D15*
X177800000Y-38100000D03*
X162560000Y-38100000D03*
X177800000Y-2540000D03*
X162560000Y-35560000D03*
X177800000Y-5080000D03*
X162560000Y-33020000D03*
X177800000Y-7620000D03*
X162560000Y-30480000D03*
X177800000Y-10160000D03*
X162560000Y-27940000D03*
X177800000Y-12700000D03*
X162560000Y-25400000D03*
X177800000Y-15240000D03*
X162560000Y-22860000D03*
X177800000Y-17780000D03*
X162560000Y-20320000D03*
X177800000Y-20320000D03*
X162560000Y-17780000D03*
X177800000Y-22860000D03*
X162560000Y-15240000D03*
X177800000Y-25400000D03*
X162560000Y-12700000D03*
X177800000Y-27940000D03*
X162560000Y-10160000D03*
X177800000Y-30480000D03*
X162560000Y-7620000D03*
X177800000Y-33020000D03*
X162560000Y-5080000D03*
X177800000Y-35560000D03*
D16*
X162560000Y-2540000D03*
D15*
X90170000Y-76200000D03*
X74930000Y-76200000D03*
X90170000Y-40640000D03*
X74930000Y-73660000D03*
X90170000Y-43180000D03*
X74930000Y-71120000D03*
X90170000Y-45720000D03*
X74930000Y-68580000D03*
X90170000Y-48260000D03*
X74930000Y-66040000D03*
X90170000Y-50800000D03*
X74930000Y-63500000D03*
X90170000Y-53340000D03*
X74930000Y-60960000D03*
X90170000Y-55880000D03*
X74930000Y-58420000D03*
X90170000Y-58420000D03*
X74930000Y-55880000D03*
X90170000Y-60960000D03*
X74930000Y-53340000D03*
X90170000Y-63500000D03*
X74930000Y-50800000D03*
X90170000Y-66040000D03*
X74930000Y-48260000D03*
X90170000Y-68580000D03*
X74930000Y-45720000D03*
X90170000Y-71120000D03*
X74930000Y-43180000D03*
X90170000Y-73660000D03*
D16*
X74930000Y-40640000D03*
M02*
