G04 #@! TF.GenerationSoftware,KiCad,Pcbnew,5.1.5-52549c5~84~ubuntu18.04.1*
G04 #@! TF.CreationDate,2019-12-30T18:31:59+07:00*
G04 #@! TF.ProjectId,plate,706c6174-652e-46b6-9963-61645f706362,rev?*
G04 #@! TF.SameCoordinates,Original*
G04 #@! TF.FileFunction,Soldermask,Top*
G04 #@! TF.FilePolarity,Negative*
%FSLAX46Y46*%
G04 Gerber Fmt 4.6, Leading zero omitted, Abs format (unit mm)*
G04 Created by KiCad (PCBNEW 5.1.5-52549c5~84~ubuntu18.04.1) date 2019-12-30 18:31:59*
%MOMM*%
%LPD*%
G04 APERTURE LIST*
%ADD10C,0.100000*%
G04 APERTURE END LIST*
D10*
G36*
X135076564Y-171129389D02*
G01*
X135267833Y-171208615D01*
X135267835Y-171208616D01*
X135439973Y-171323635D01*
X135586365Y-171470027D01*
X135701385Y-171642167D01*
X135780611Y-171833436D01*
X135821000Y-172036484D01*
X135821000Y-172243516D01*
X135780611Y-172446564D01*
X135701385Y-172637833D01*
X135701384Y-172637835D01*
X135586365Y-172809973D01*
X135439973Y-172956365D01*
X135267835Y-173071384D01*
X135267834Y-173071385D01*
X135267833Y-173071385D01*
X135076564Y-173150611D01*
X134873516Y-173191000D01*
X134666484Y-173191000D01*
X134463436Y-173150611D01*
X134272167Y-173071385D01*
X134272166Y-173071385D01*
X134272165Y-173071384D01*
X134100027Y-172956365D01*
X133953635Y-172809973D01*
X133838616Y-172637835D01*
X133838615Y-172637833D01*
X133759389Y-172446564D01*
X133719000Y-172243516D01*
X133719000Y-172036484D01*
X133759389Y-171833436D01*
X133838615Y-171642167D01*
X133953635Y-171470027D01*
X134100027Y-171323635D01*
X134272165Y-171208616D01*
X134272167Y-171208615D01*
X134463436Y-171129389D01*
X134666484Y-171089000D01*
X134873516Y-171089000D01*
X135076564Y-171129389D01*
G37*
G36*
X128576564Y-171129389D02*
G01*
X128767833Y-171208615D01*
X128767835Y-171208616D01*
X128939973Y-171323635D01*
X129086365Y-171470027D01*
X129201385Y-171642167D01*
X129280611Y-171833436D01*
X129321000Y-172036484D01*
X129321000Y-172243516D01*
X129280611Y-172446564D01*
X129201385Y-172637833D01*
X129201384Y-172637835D01*
X129086365Y-172809973D01*
X128939973Y-172956365D01*
X128767835Y-173071384D01*
X128767834Y-173071385D01*
X128767833Y-173071385D01*
X128576564Y-173150611D01*
X128373516Y-173191000D01*
X128166484Y-173191000D01*
X127963436Y-173150611D01*
X127772167Y-173071385D01*
X127772166Y-173071385D01*
X127772165Y-173071384D01*
X127600027Y-172956365D01*
X127453635Y-172809973D01*
X127338616Y-172637835D01*
X127338615Y-172637833D01*
X127259389Y-172446564D01*
X127219000Y-172243516D01*
X127219000Y-172036484D01*
X127259389Y-171833436D01*
X127338615Y-171642167D01*
X127453635Y-171470027D01*
X127600027Y-171323635D01*
X127772165Y-171208616D01*
X127772167Y-171208615D01*
X127963436Y-171129389D01*
X128166484Y-171089000D01*
X128373516Y-171089000D01*
X128576564Y-171129389D01*
G37*
G36*
X47446564Y-171129389D02*
G01*
X47637833Y-171208615D01*
X47637835Y-171208616D01*
X47809973Y-171323635D01*
X47956365Y-171470027D01*
X48071385Y-171642167D01*
X48150611Y-171833436D01*
X48191000Y-172036484D01*
X48191000Y-172243516D01*
X48150611Y-172446564D01*
X48071385Y-172637833D01*
X48071384Y-172637835D01*
X47956365Y-172809973D01*
X47809973Y-172956365D01*
X47637835Y-173071384D01*
X47637834Y-173071385D01*
X47637833Y-173071385D01*
X47446564Y-173150611D01*
X47243516Y-173191000D01*
X47036484Y-173191000D01*
X46833436Y-173150611D01*
X46642167Y-173071385D01*
X46642166Y-173071385D01*
X46642165Y-173071384D01*
X46470027Y-172956365D01*
X46323635Y-172809973D01*
X46208616Y-172637835D01*
X46208615Y-172637833D01*
X46129389Y-172446564D01*
X46089000Y-172243516D01*
X46089000Y-172036484D01*
X46129389Y-171833436D01*
X46208615Y-171642167D01*
X46323635Y-171470027D01*
X46470027Y-171323635D01*
X46642165Y-171208616D01*
X46642167Y-171208615D01*
X46833436Y-171129389D01*
X47036484Y-171089000D01*
X47243516Y-171089000D01*
X47446564Y-171129389D01*
G37*
G36*
X40946564Y-171129389D02*
G01*
X41137833Y-171208615D01*
X41137835Y-171208616D01*
X41309973Y-171323635D01*
X41456365Y-171470027D01*
X41571385Y-171642167D01*
X41650611Y-171833436D01*
X41691000Y-172036484D01*
X41691000Y-172243516D01*
X41650611Y-172446564D01*
X41571385Y-172637833D01*
X41571384Y-172637835D01*
X41456365Y-172809973D01*
X41309973Y-172956365D01*
X41137835Y-173071384D01*
X41137834Y-173071385D01*
X41137833Y-173071385D01*
X40946564Y-173150611D01*
X40743516Y-173191000D01*
X40536484Y-173191000D01*
X40333436Y-173150611D01*
X40142167Y-173071385D01*
X40142166Y-173071385D01*
X40142165Y-173071384D01*
X39970027Y-172956365D01*
X39823635Y-172809973D01*
X39708616Y-172637835D01*
X39708615Y-172637833D01*
X39629389Y-172446564D01*
X39589000Y-172243516D01*
X39589000Y-172036484D01*
X39629389Y-171833436D01*
X39708615Y-171642167D01*
X39823635Y-171470027D01*
X39970027Y-171323635D01*
X40142165Y-171208616D01*
X40142167Y-171208615D01*
X40333436Y-171129389D01*
X40536484Y-171089000D01*
X40743516Y-171089000D01*
X40946564Y-171129389D01*
G37*
G36*
X40946564Y-166629389D02*
G01*
X41137833Y-166708615D01*
X41137835Y-166708616D01*
X41309973Y-166823635D01*
X41456365Y-166970027D01*
X41571385Y-167142167D01*
X41650611Y-167333436D01*
X41691000Y-167536484D01*
X41691000Y-167743516D01*
X41650611Y-167946564D01*
X41571385Y-168137833D01*
X41571384Y-168137835D01*
X41456365Y-168309973D01*
X41309973Y-168456365D01*
X41137835Y-168571384D01*
X41137834Y-168571385D01*
X41137833Y-168571385D01*
X40946564Y-168650611D01*
X40743516Y-168691000D01*
X40536484Y-168691000D01*
X40333436Y-168650611D01*
X40142167Y-168571385D01*
X40142166Y-168571385D01*
X40142165Y-168571384D01*
X39970027Y-168456365D01*
X39823635Y-168309973D01*
X39708616Y-168137835D01*
X39708615Y-168137833D01*
X39629389Y-167946564D01*
X39589000Y-167743516D01*
X39589000Y-167536484D01*
X39629389Y-167333436D01*
X39708615Y-167142167D01*
X39823635Y-166970027D01*
X39970027Y-166823635D01*
X40142165Y-166708616D01*
X40142167Y-166708615D01*
X40333436Y-166629389D01*
X40536484Y-166589000D01*
X40743516Y-166589000D01*
X40946564Y-166629389D01*
G37*
G36*
X47446564Y-166629389D02*
G01*
X47637833Y-166708615D01*
X47637835Y-166708616D01*
X47809973Y-166823635D01*
X47956365Y-166970027D01*
X48071385Y-167142167D01*
X48150611Y-167333436D01*
X48191000Y-167536484D01*
X48191000Y-167743516D01*
X48150611Y-167946564D01*
X48071385Y-168137833D01*
X48071384Y-168137835D01*
X47956365Y-168309973D01*
X47809973Y-168456365D01*
X47637835Y-168571384D01*
X47637834Y-168571385D01*
X47637833Y-168571385D01*
X47446564Y-168650611D01*
X47243516Y-168691000D01*
X47036484Y-168691000D01*
X46833436Y-168650611D01*
X46642167Y-168571385D01*
X46642166Y-168571385D01*
X46642165Y-168571384D01*
X46470027Y-168456365D01*
X46323635Y-168309973D01*
X46208616Y-168137835D01*
X46208615Y-168137833D01*
X46129389Y-167946564D01*
X46089000Y-167743516D01*
X46089000Y-167536484D01*
X46129389Y-167333436D01*
X46208615Y-167142167D01*
X46323635Y-166970027D01*
X46470027Y-166823635D01*
X46642165Y-166708616D01*
X46642167Y-166708615D01*
X46833436Y-166629389D01*
X47036484Y-166589000D01*
X47243516Y-166589000D01*
X47446564Y-166629389D01*
G37*
G36*
X128576564Y-166629389D02*
G01*
X128767833Y-166708615D01*
X128767835Y-166708616D01*
X128939973Y-166823635D01*
X129086365Y-166970027D01*
X129201385Y-167142167D01*
X129280611Y-167333436D01*
X129321000Y-167536484D01*
X129321000Y-167743516D01*
X129280611Y-167946564D01*
X129201385Y-168137833D01*
X129201384Y-168137835D01*
X129086365Y-168309973D01*
X128939973Y-168456365D01*
X128767835Y-168571384D01*
X128767834Y-168571385D01*
X128767833Y-168571385D01*
X128576564Y-168650611D01*
X128373516Y-168691000D01*
X128166484Y-168691000D01*
X127963436Y-168650611D01*
X127772167Y-168571385D01*
X127772166Y-168571385D01*
X127772165Y-168571384D01*
X127600027Y-168456365D01*
X127453635Y-168309973D01*
X127338616Y-168137835D01*
X127338615Y-168137833D01*
X127259389Y-167946564D01*
X127219000Y-167743516D01*
X127219000Y-167536484D01*
X127259389Y-167333436D01*
X127338615Y-167142167D01*
X127453635Y-166970027D01*
X127600027Y-166823635D01*
X127772165Y-166708616D01*
X127772167Y-166708615D01*
X127963436Y-166629389D01*
X128166484Y-166589000D01*
X128373516Y-166589000D01*
X128576564Y-166629389D01*
G37*
G36*
X135076564Y-166629389D02*
G01*
X135267833Y-166708615D01*
X135267835Y-166708616D01*
X135439973Y-166823635D01*
X135586365Y-166970027D01*
X135701385Y-167142167D01*
X135780611Y-167333436D01*
X135821000Y-167536484D01*
X135821000Y-167743516D01*
X135780611Y-167946564D01*
X135701385Y-168137833D01*
X135701384Y-168137835D01*
X135586365Y-168309973D01*
X135439973Y-168456365D01*
X135267835Y-168571384D01*
X135267834Y-168571385D01*
X135267833Y-168571385D01*
X135076564Y-168650611D01*
X134873516Y-168691000D01*
X134666484Y-168691000D01*
X134463436Y-168650611D01*
X134272167Y-168571385D01*
X134272166Y-168571385D01*
X134272165Y-168571384D01*
X134100027Y-168456365D01*
X133953635Y-168309973D01*
X133838616Y-168137835D01*
X133838615Y-168137833D01*
X133759389Y-167946564D01*
X133719000Y-167743516D01*
X133719000Y-167536484D01*
X133759389Y-167333436D01*
X133838615Y-167142167D01*
X133953635Y-166970027D01*
X134100027Y-166823635D01*
X134272165Y-166708616D01*
X134272167Y-166708615D01*
X134463436Y-166629389D01*
X134666484Y-166589000D01*
X134873516Y-166589000D01*
X135076564Y-166629389D01*
G37*
G36*
X89013512Y-160393927D02*
G01*
X89162812Y-160423624D01*
X89326784Y-160491544D01*
X89474354Y-160590147D01*
X89599853Y-160715646D01*
X89698456Y-160863216D01*
X89766376Y-161027188D01*
X89801000Y-161201259D01*
X89801000Y-161378741D01*
X89766376Y-161552812D01*
X89698456Y-161716784D01*
X89599853Y-161864354D01*
X89474354Y-161989853D01*
X89326784Y-162088456D01*
X89162812Y-162156376D01*
X89013512Y-162186073D01*
X88988742Y-162191000D01*
X88811258Y-162191000D01*
X88786488Y-162186073D01*
X88637188Y-162156376D01*
X88473216Y-162088456D01*
X88325646Y-161989853D01*
X88200147Y-161864354D01*
X88101544Y-161716784D01*
X88033624Y-161552812D01*
X87999000Y-161378741D01*
X87999000Y-161201259D01*
X88033624Y-161027188D01*
X88101544Y-160863216D01*
X88200147Y-160715646D01*
X88325646Y-160590147D01*
X88473216Y-160491544D01*
X88637188Y-160423624D01*
X88786488Y-160393927D01*
X88811258Y-160389000D01*
X88988742Y-160389000D01*
X89013512Y-160393927D01*
G37*
G36*
X91553512Y-160393927D02*
G01*
X91702812Y-160423624D01*
X91866784Y-160491544D01*
X92014354Y-160590147D01*
X92139853Y-160715646D01*
X92238456Y-160863216D01*
X92306376Y-161027188D01*
X92341000Y-161201259D01*
X92341000Y-161378741D01*
X92306376Y-161552812D01*
X92238456Y-161716784D01*
X92139853Y-161864354D01*
X92014354Y-161989853D01*
X91866784Y-162088456D01*
X91702812Y-162156376D01*
X91553512Y-162186073D01*
X91528742Y-162191000D01*
X91351258Y-162191000D01*
X91326488Y-162186073D01*
X91177188Y-162156376D01*
X91013216Y-162088456D01*
X90865646Y-161989853D01*
X90740147Y-161864354D01*
X90641544Y-161716784D01*
X90573624Y-161552812D01*
X90539000Y-161378741D01*
X90539000Y-161201259D01*
X90573624Y-161027188D01*
X90641544Y-160863216D01*
X90740147Y-160715646D01*
X90865646Y-160590147D01*
X91013216Y-160491544D01*
X91177188Y-160423624D01*
X91326488Y-160393927D01*
X91351258Y-160389000D01*
X91528742Y-160389000D01*
X91553512Y-160393927D01*
G37*
G36*
X84721000Y-162191000D02*
G01*
X82919000Y-162191000D01*
X82919000Y-160389000D01*
X84721000Y-160389000D01*
X84721000Y-162191000D01*
G37*
G36*
X86473512Y-160393927D02*
G01*
X86622812Y-160423624D01*
X86786784Y-160491544D01*
X86934354Y-160590147D01*
X87059853Y-160715646D01*
X87158456Y-160863216D01*
X87226376Y-161027188D01*
X87261000Y-161201259D01*
X87261000Y-161378741D01*
X87226376Y-161552812D01*
X87158456Y-161716784D01*
X87059853Y-161864354D01*
X86934354Y-161989853D01*
X86786784Y-162088456D01*
X86622812Y-162156376D01*
X86473512Y-162186073D01*
X86448742Y-162191000D01*
X86271258Y-162191000D01*
X86246488Y-162186073D01*
X86097188Y-162156376D01*
X85933216Y-162088456D01*
X85785646Y-161989853D01*
X85660147Y-161864354D01*
X85561544Y-161716784D01*
X85493624Y-161552812D01*
X85459000Y-161378741D01*
X85459000Y-161201259D01*
X85493624Y-161027188D01*
X85561544Y-160863216D01*
X85660147Y-160715646D01*
X85785646Y-160590147D01*
X85933216Y-160491544D01*
X86097188Y-160423624D01*
X86246488Y-160393927D01*
X86271258Y-160389000D01*
X86448742Y-160389000D01*
X86473512Y-160393927D01*
G37*
G36*
X108054769Y-145152188D02*
G01*
X108212812Y-145183624D01*
X108376784Y-145251544D01*
X108524354Y-145350147D01*
X108649853Y-145475646D01*
X108748456Y-145623216D01*
X108816376Y-145787188D01*
X108851000Y-145961259D01*
X108851000Y-146138741D01*
X108816376Y-146312812D01*
X108748456Y-146476784D01*
X108649853Y-146624354D01*
X108524354Y-146749853D01*
X108376784Y-146848456D01*
X108212812Y-146916376D01*
X108063512Y-146946073D01*
X108038742Y-146951000D01*
X107861258Y-146951000D01*
X107836488Y-146946073D01*
X107687188Y-146916376D01*
X107523216Y-146848456D01*
X107375646Y-146749853D01*
X107250147Y-146624354D01*
X107151544Y-146476784D01*
X107083624Y-146312812D01*
X107049000Y-146138741D01*
X107049000Y-145961259D01*
X107083624Y-145787188D01*
X107151544Y-145623216D01*
X107250147Y-145475646D01*
X107375646Y-145350147D01*
X107523216Y-145251544D01*
X107687188Y-145183624D01*
X107845231Y-145152188D01*
X107861258Y-145149000D01*
X108038742Y-145149000D01*
X108054769Y-145152188D01*
G37*
G36*
X66788512Y-144518927D02*
G01*
X66937812Y-144548624D01*
X67101784Y-144616544D01*
X67249354Y-144715147D01*
X67374853Y-144840646D01*
X67473456Y-144988216D01*
X67541376Y-145152188D01*
X67576000Y-145326259D01*
X67576000Y-145503741D01*
X67541376Y-145677812D01*
X67473456Y-145841784D01*
X67374853Y-145989354D01*
X67249354Y-146114853D01*
X67101784Y-146213456D01*
X66937812Y-146281376D01*
X66788512Y-146311073D01*
X66763742Y-146316000D01*
X66586258Y-146316000D01*
X66561488Y-146311073D01*
X66412188Y-146281376D01*
X66248216Y-146213456D01*
X66100646Y-146114853D01*
X65975147Y-145989354D01*
X65876544Y-145841784D01*
X65808624Y-145677812D01*
X65774000Y-145503741D01*
X65774000Y-145326259D01*
X65808624Y-145152188D01*
X65876544Y-144988216D01*
X65975147Y-144840646D01*
X66100646Y-144715147D01*
X66248216Y-144616544D01*
X66412188Y-144548624D01*
X66561488Y-144518927D01*
X66586258Y-144514000D01*
X66763742Y-144514000D01*
X66788512Y-144518927D01*
G37*
G36*
X108054769Y-142612188D02*
G01*
X108212812Y-142643624D01*
X108376784Y-142711544D01*
X108524354Y-142810147D01*
X108649853Y-142935646D01*
X108748456Y-143083216D01*
X108816376Y-143247188D01*
X108851000Y-143421259D01*
X108851000Y-143598741D01*
X108816376Y-143772812D01*
X108748456Y-143936784D01*
X108649853Y-144084354D01*
X108524354Y-144209853D01*
X108376784Y-144308456D01*
X108212812Y-144376376D01*
X108063512Y-144406073D01*
X108038742Y-144411000D01*
X107861258Y-144411000D01*
X107836488Y-144406073D01*
X107687188Y-144376376D01*
X107523216Y-144308456D01*
X107375646Y-144209853D01*
X107250147Y-144084354D01*
X107151544Y-143936784D01*
X107083624Y-143772812D01*
X107049000Y-143598741D01*
X107049000Y-143421259D01*
X107083624Y-143247188D01*
X107151544Y-143083216D01*
X107250147Y-142935646D01*
X107375646Y-142810147D01*
X107523216Y-142711544D01*
X107687188Y-142643624D01*
X107845231Y-142612188D01*
X107861258Y-142609000D01*
X108038742Y-142609000D01*
X108054769Y-142612188D01*
G37*
G36*
X66788512Y-141978927D02*
G01*
X66937812Y-142008624D01*
X67101784Y-142076544D01*
X67249354Y-142175147D01*
X67374853Y-142300646D01*
X67473456Y-142448216D01*
X67541376Y-142612188D01*
X67576000Y-142786259D01*
X67576000Y-142963741D01*
X67541376Y-143137812D01*
X67473456Y-143301784D01*
X67374853Y-143449354D01*
X67249354Y-143574853D01*
X67101784Y-143673456D01*
X66937812Y-143741376D01*
X66788512Y-143771073D01*
X66763742Y-143776000D01*
X66586258Y-143776000D01*
X66561488Y-143771073D01*
X66412188Y-143741376D01*
X66248216Y-143673456D01*
X66100646Y-143574853D01*
X65975147Y-143449354D01*
X65876544Y-143301784D01*
X65808624Y-143137812D01*
X65774000Y-142963741D01*
X65774000Y-142786259D01*
X65808624Y-142612188D01*
X65876544Y-142448216D01*
X65975147Y-142300646D01*
X66100646Y-142175147D01*
X66248216Y-142076544D01*
X66412188Y-142008624D01*
X66561488Y-141978927D01*
X66586258Y-141974000D01*
X66763742Y-141974000D01*
X66788512Y-141978927D01*
G37*
G36*
X108054769Y-140072188D02*
G01*
X108212812Y-140103624D01*
X108376784Y-140171544D01*
X108524354Y-140270147D01*
X108649853Y-140395646D01*
X108748456Y-140543216D01*
X108816376Y-140707188D01*
X108851000Y-140881259D01*
X108851000Y-141058741D01*
X108816376Y-141232812D01*
X108748456Y-141396784D01*
X108649853Y-141544354D01*
X108524354Y-141669853D01*
X108376784Y-141768456D01*
X108212812Y-141836376D01*
X108063512Y-141866073D01*
X108038742Y-141871000D01*
X107861258Y-141871000D01*
X107836488Y-141866073D01*
X107687188Y-141836376D01*
X107523216Y-141768456D01*
X107375646Y-141669853D01*
X107250147Y-141544354D01*
X107151544Y-141396784D01*
X107083624Y-141232812D01*
X107049000Y-141058741D01*
X107049000Y-140881259D01*
X107083624Y-140707188D01*
X107151544Y-140543216D01*
X107250147Y-140395646D01*
X107375646Y-140270147D01*
X107523216Y-140171544D01*
X107687188Y-140103624D01*
X107845231Y-140072188D01*
X107861258Y-140069000D01*
X108038742Y-140069000D01*
X108054769Y-140072188D01*
G37*
G36*
X66788512Y-139438927D02*
G01*
X66937812Y-139468624D01*
X67101784Y-139536544D01*
X67249354Y-139635147D01*
X67374853Y-139760646D01*
X67473456Y-139908216D01*
X67541376Y-140072188D01*
X67576000Y-140246259D01*
X67576000Y-140423741D01*
X67541376Y-140597812D01*
X67473456Y-140761784D01*
X67374853Y-140909354D01*
X67249354Y-141034853D01*
X67101784Y-141133456D01*
X66937812Y-141201376D01*
X66788512Y-141231073D01*
X66763742Y-141236000D01*
X66586258Y-141236000D01*
X66561488Y-141231073D01*
X66412188Y-141201376D01*
X66248216Y-141133456D01*
X66100646Y-141034853D01*
X65975147Y-140909354D01*
X65876544Y-140761784D01*
X65808624Y-140597812D01*
X65774000Y-140423741D01*
X65774000Y-140246259D01*
X65808624Y-140072188D01*
X65876544Y-139908216D01*
X65975147Y-139760646D01*
X66100646Y-139635147D01*
X66248216Y-139536544D01*
X66412188Y-139468624D01*
X66561488Y-139438927D01*
X66586258Y-139434000D01*
X66763742Y-139434000D01*
X66788512Y-139438927D01*
G37*
G36*
X108851000Y-139331000D02*
G01*
X107049000Y-139331000D01*
X107049000Y-137529000D01*
X108851000Y-137529000D01*
X108851000Y-139331000D01*
G37*
G36*
X67576000Y-138696000D02*
G01*
X65774000Y-138696000D01*
X65774000Y-136894000D01*
X67576000Y-136894000D01*
X67576000Y-138696000D01*
G37*
G36*
X131198604Y-135603347D02*
G01*
X131235144Y-135614432D01*
X131268821Y-135632433D01*
X131298341Y-135656659D01*
X131322567Y-135686179D01*
X131340568Y-135719856D01*
X131351653Y-135756396D01*
X131356000Y-135800538D01*
X131356000Y-137249462D01*
X131351653Y-137293604D01*
X131340568Y-137330144D01*
X131322567Y-137363821D01*
X131298341Y-137393341D01*
X131268821Y-137417567D01*
X131235144Y-137435568D01*
X131198604Y-137446653D01*
X131154462Y-137451000D01*
X130205538Y-137451000D01*
X130161396Y-137446653D01*
X130124856Y-137435568D01*
X130091179Y-137417567D01*
X130061659Y-137393341D01*
X130037433Y-137363821D01*
X130019432Y-137330144D01*
X130008347Y-137293604D01*
X130004000Y-137249462D01*
X130004000Y-135800538D01*
X130008347Y-135756396D01*
X130019432Y-135719856D01*
X130037433Y-135686179D01*
X130061659Y-135656659D01*
X130091179Y-135632433D01*
X130124856Y-135614432D01*
X130161396Y-135603347D01*
X130205538Y-135599000D01*
X131154462Y-135599000D01*
X131198604Y-135603347D01*
G37*
G36*
X133998604Y-135603347D02*
G01*
X134035144Y-135614432D01*
X134068821Y-135632433D01*
X134098341Y-135656659D01*
X134122567Y-135686179D01*
X134140568Y-135719856D01*
X134151653Y-135756396D01*
X134156000Y-135800538D01*
X134156000Y-137249462D01*
X134151653Y-137293604D01*
X134140568Y-137330144D01*
X134122567Y-137363821D01*
X134098341Y-137393341D01*
X134068821Y-137417567D01*
X134035144Y-137435568D01*
X133998604Y-137446653D01*
X133954462Y-137451000D01*
X133005538Y-137451000D01*
X132961396Y-137446653D01*
X132924856Y-137435568D01*
X132891179Y-137417567D01*
X132861659Y-137393341D01*
X132837433Y-137363821D01*
X132819432Y-137330144D01*
X132808347Y-137293604D01*
X132804000Y-137249462D01*
X132804000Y-135800538D01*
X132808347Y-135756396D01*
X132819432Y-135719856D01*
X132837433Y-135686179D01*
X132861659Y-135656659D01*
X132891179Y-135632433D01*
X132924856Y-135614432D01*
X132961396Y-135603347D01*
X133005538Y-135599000D01*
X133954462Y-135599000D01*
X133998604Y-135603347D01*
G37*
G36*
X48273604Y-134333347D02*
G01*
X48310144Y-134344432D01*
X48343821Y-134362433D01*
X48373341Y-134386659D01*
X48397567Y-134416179D01*
X48415568Y-134449856D01*
X48426653Y-134486396D01*
X48431000Y-134530538D01*
X48431000Y-135979462D01*
X48426653Y-136023604D01*
X48415568Y-136060144D01*
X48397567Y-136093821D01*
X48373341Y-136123341D01*
X48343821Y-136147567D01*
X48310144Y-136165568D01*
X48273604Y-136176653D01*
X48229462Y-136181000D01*
X47280538Y-136181000D01*
X47236396Y-136176653D01*
X47199856Y-136165568D01*
X47166179Y-136147567D01*
X47136659Y-136123341D01*
X47112433Y-136093821D01*
X47094432Y-136060144D01*
X47083347Y-136023604D01*
X47079000Y-135979462D01*
X47079000Y-134530538D01*
X47083347Y-134486396D01*
X47094432Y-134449856D01*
X47112433Y-134416179D01*
X47136659Y-134386659D01*
X47166179Y-134362433D01*
X47199856Y-134344432D01*
X47236396Y-134333347D01*
X47280538Y-134329000D01*
X48229462Y-134329000D01*
X48273604Y-134333347D01*
G37*
G36*
X45473604Y-134333347D02*
G01*
X45510144Y-134344432D01*
X45543821Y-134362433D01*
X45573341Y-134386659D01*
X45597567Y-134416179D01*
X45615568Y-134449856D01*
X45626653Y-134486396D01*
X45631000Y-134530538D01*
X45631000Y-135979462D01*
X45626653Y-136023604D01*
X45615568Y-136060144D01*
X45597567Y-136093821D01*
X45573341Y-136123341D01*
X45543821Y-136147567D01*
X45510144Y-136165568D01*
X45473604Y-136176653D01*
X45429462Y-136181000D01*
X44480538Y-136181000D01*
X44436396Y-136176653D01*
X44399856Y-136165568D01*
X44366179Y-136147567D01*
X44336659Y-136123341D01*
X44312433Y-136093821D01*
X44294432Y-136060144D01*
X44283347Y-136023604D01*
X44279000Y-135979462D01*
X44279000Y-134530538D01*
X44283347Y-134486396D01*
X44294432Y-134449856D01*
X44312433Y-134416179D01*
X44336659Y-134386659D01*
X44366179Y-134362433D01*
X44399856Y-134344432D01*
X44436396Y-134333347D01*
X44480538Y-134329000D01*
X45429462Y-134329000D01*
X45473604Y-134333347D01*
G37*
G36*
X41541000Y-132346000D02*
G01*
X39739000Y-132346000D01*
X39739000Y-130544000D01*
X41541000Y-130544000D01*
X41541000Y-132346000D01*
G37*
G36*
X136003512Y-129913927D02*
G01*
X136152812Y-129943624D01*
X136316784Y-130011544D01*
X136464354Y-130110147D01*
X136589853Y-130235646D01*
X136688456Y-130383216D01*
X136756376Y-130547188D01*
X136791000Y-130721259D01*
X136791000Y-130898741D01*
X136756376Y-131072812D01*
X136688456Y-131236784D01*
X136589853Y-131384354D01*
X136464354Y-131509853D01*
X136316784Y-131608456D01*
X136152812Y-131676376D01*
X136003512Y-131706073D01*
X135978742Y-131711000D01*
X135801258Y-131711000D01*
X135776488Y-131706073D01*
X135627188Y-131676376D01*
X135463216Y-131608456D01*
X135315646Y-131509853D01*
X135190147Y-131384354D01*
X135091544Y-131236784D01*
X135023624Y-131072812D01*
X134989000Y-130898741D01*
X134989000Y-130721259D01*
X135023624Y-130547188D01*
X135091544Y-130383216D01*
X135190147Y-130235646D01*
X135315646Y-130110147D01*
X135463216Y-130011544D01*
X135627188Y-129943624D01*
X135776488Y-129913927D01*
X135801258Y-129909000D01*
X135978742Y-129909000D01*
X136003512Y-129913927D01*
G37*
G36*
X132192915Y-130017334D02*
G01*
X132301491Y-130050271D01*
X132301494Y-130050272D01*
X132337600Y-130069571D01*
X132401556Y-130103756D01*
X132489264Y-130175736D01*
X132561244Y-130263443D01*
X132595429Y-130327399D01*
X132614728Y-130363505D01*
X132614729Y-130363508D01*
X132647666Y-130472084D01*
X132656000Y-130556702D01*
X132656000Y-131063297D01*
X132647666Y-131147916D01*
X132615252Y-131254767D01*
X132614728Y-131256495D01*
X132604762Y-131275140D01*
X132561244Y-131356557D01*
X132489264Y-131444264D01*
X132401557Y-131516244D01*
X132337601Y-131550429D01*
X132301495Y-131569728D01*
X132301492Y-131569729D01*
X132192916Y-131602666D01*
X132080000Y-131613787D01*
X131967085Y-131602666D01*
X131858509Y-131569729D01*
X131858506Y-131569728D01*
X131822400Y-131550429D01*
X131758444Y-131516244D01*
X131670737Y-131444264D01*
X131598757Y-131356557D01*
X131555239Y-131275141D01*
X131541625Y-131254766D01*
X131524298Y-131237439D01*
X131503924Y-131223826D01*
X131481285Y-131214448D01*
X131457252Y-131209668D01*
X131432748Y-131209668D01*
X131408715Y-131214448D01*
X131386076Y-131223826D01*
X131365701Y-131237440D01*
X131348374Y-131254767D01*
X131334762Y-131275140D01*
X131291244Y-131356557D01*
X131219264Y-131444264D01*
X131131557Y-131516244D01*
X131067601Y-131550429D01*
X131031495Y-131569728D01*
X131031492Y-131569729D01*
X130922916Y-131602666D01*
X130810000Y-131613787D01*
X130697085Y-131602666D01*
X130588509Y-131569729D01*
X130588506Y-131569728D01*
X130552400Y-131550429D01*
X130488444Y-131516244D01*
X130400737Y-131444264D01*
X130337622Y-131367359D01*
X130320297Y-131350034D01*
X130299923Y-131336420D01*
X130277284Y-131327043D01*
X130253250Y-131322263D01*
X130228746Y-131322263D01*
X130204713Y-131327044D01*
X130182074Y-131336421D01*
X130161700Y-131350035D01*
X130144373Y-131367362D01*
X130130759Y-131387736D01*
X130121382Y-131410375D01*
X130116000Y-131446660D01*
X130116000Y-131611000D01*
X128964000Y-131611000D01*
X128964000Y-130009000D01*
X130116000Y-130009000D01*
X130116000Y-130173341D01*
X130118402Y-130197727D01*
X130125515Y-130221176D01*
X130137066Y-130242787D01*
X130152611Y-130261729D01*
X130171553Y-130277274D01*
X130193164Y-130288825D01*
X130216613Y-130295938D01*
X130240999Y-130298340D01*
X130265385Y-130295938D01*
X130288834Y-130288825D01*
X130310445Y-130277274D01*
X130329387Y-130261729D01*
X130337608Y-130252657D01*
X130400736Y-130175736D01*
X130488443Y-130103756D01*
X130552399Y-130069571D01*
X130588505Y-130050272D01*
X130588508Y-130050271D01*
X130697084Y-130017334D01*
X130810000Y-130006213D01*
X130922915Y-130017334D01*
X131031491Y-130050271D01*
X131031494Y-130050272D01*
X131067600Y-130069571D01*
X131131556Y-130103756D01*
X131219264Y-130175736D01*
X131291244Y-130263443D01*
X131334761Y-130344859D01*
X131348375Y-130365234D01*
X131365702Y-130382561D01*
X131386076Y-130396174D01*
X131408715Y-130405552D01*
X131432748Y-130410332D01*
X131457252Y-130410332D01*
X131481285Y-130405552D01*
X131503924Y-130396174D01*
X131524299Y-130382560D01*
X131541626Y-130365233D01*
X131555239Y-130344860D01*
X131598756Y-130263444D01*
X131670736Y-130175736D01*
X131758443Y-130103756D01*
X131822399Y-130069571D01*
X131858505Y-130050272D01*
X131858508Y-130050271D01*
X131967084Y-130017334D01*
X132080000Y-130006213D01*
X132192915Y-130017334D01*
G37*
G36*
X47737916Y-130017334D02*
G01*
X47846492Y-130050271D01*
X47846495Y-130050272D01*
X47882601Y-130069571D01*
X47946557Y-130103756D01*
X48034264Y-130175736D01*
X48097383Y-130252646D01*
X48114702Y-130269965D01*
X48135077Y-130283579D01*
X48157716Y-130292957D01*
X48181749Y-130297737D01*
X48206253Y-130297737D01*
X48230286Y-130292957D01*
X48252925Y-130283579D01*
X48273299Y-130269966D01*
X48290626Y-130252639D01*
X48304240Y-130232264D01*
X48313618Y-130209625D01*
X48318398Y-130185592D01*
X48319000Y-130173340D01*
X48319000Y-130009000D01*
X49471000Y-130009000D01*
X49471000Y-131611000D01*
X48319000Y-131611000D01*
X48319000Y-131446660D01*
X48316598Y-131422274D01*
X48309485Y-131398825D01*
X48297934Y-131377214D01*
X48282389Y-131358272D01*
X48263447Y-131342727D01*
X48241836Y-131331176D01*
X48218387Y-131324063D01*
X48194001Y-131321661D01*
X48169615Y-131324063D01*
X48146166Y-131331176D01*
X48124555Y-131342727D01*
X48097381Y-131367356D01*
X48034264Y-131444264D01*
X47946556Y-131516244D01*
X47882600Y-131550429D01*
X47846494Y-131569728D01*
X47846491Y-131569729D01*
X47737915Y-131602666D01*
X47625000Y-131613787D01*
X47512084Y-131602666D01*
X47403508Y-131569729D01*
X47403505Y-131569728D01*
X47367399Y-131550429D01*
X47303443Y-131516244D01*
X47215736Y-131444264D01*
X47143756Y-131356556D01*
X47100239Y-131275140D01*
X47086625Y-131254766D01*
X47069298Y-131237439D01*
X47048924Y-131223825D01*
X47026285Y-131214448D01*
X47002251Y-131209668D01*
X46977747Y-131209668D01*
X46953714Y-131214449D01*
X46931075Y-131223826D01*
X46910701Y-131237440D01*
X46893374Y-131254767D01*
X46879762Y-131275140D01*
X46836244Y-131356557D01*
X46764264Y-131444264D01*
X46676556Y-131516244D01*
X46612600Y-131550429D01*
X46576494Y-131569728D01*
X46576491Y-131569729D01*
X46467915Y-131602666D01*
X46355000Y-131613787D01*
X46242084Y-131602666D01*
X46133508Y-131569729D01*
X46133505Y-131569728D01*
X46097399Y-131550429D01*
X46033443Y-131516244D01*
X45945736Y-131444264D01*
X45873756Y-131356556D01*
X45820273Y-131256495D01*
X45820272Y-131256494D01*
X45814492Y-131237440D01*
X45787334Y-131147915D01*
X45779000Y-131063297D01*
X45779000Y-130556702D01*
X45787334Y-130472084D01*
X45820271Y-130363508D01*
X45820272Y-130363505D01*
X45873756Y-130263445D01*
X45873757Y-130263443D01*
X45945737Y-130175736D01*
X46033444Y-130103756D01*
X46097400Y-130069571D01*
X46133506Y-130050272D01*
X46133509Y-130050271D01*
X46242085Y-130017334D01*
X46355000Y-130006213D01*
X46467916Y-130017334D01*
X46576492Y-130050271D01*
X46576495Y-130050272D01*
X46612601Y-130069571D01*
X46676557Y-130103756D01*
X46764264Y-130175736D01*
X46836244Y-130263443D01*
X46879761Y-130344859D01*
X46893375Y-130365234D01*
X46910702Y-130382561D01*
X46931076Y-130396174D01*
X46953715Y-130405552D01*
X46977748Y-130410332D01*
X47002252Y-130410332D01*
X47026285Y-130405552D01*
X47048924Y-130396174D01*
X47069299Y-130382560D01*
X47086626Y-130365233D01*
X47100239Y-130344859D01*
X47143756Y-130263445D01*
X47143757Y-130263443D01*
X47215737Y-130175736D01*
X47303444Y-130103756D01*
X47367400Y-130069571D01*
X47403506Y-130050272D01*
X47403509Y-130050271D01*
X47512085Y-130017334D01*
X47625000Y-130006213D01*
X47737916Y-130017334D01*
G37*
G36*
X40744769Y-128007188D02*
G01*
X40902812Y-128038624D01*
X41066784Y-128106544D01*
X41214354Y-128205147D01*
X41339853Y-128330646D01*
X41438456Y-128478216D01*
X41506376Y-128642188D01*
X41541000Y-128816259D01*
X41541000Y-128993741D01*
X41506376Y-129167812D01*
X41438456Y-129331784D01*
X41339853Y-129479354D01*
X41214354Y-129604853D01*
X41066784Y-129703456D01*
X40902812Y-129771376D01*
X40753512Y-129801073D01*
X40728742Y-129806000D01*
X40551258Y-129806000D01*
X40526488Y-129801073D01*
X40377188Y-129771376D01*
X40213216Y-129703456D01*
X40065646Y-129604853D01*
X39940147Y-129479354D01*
X39841544Y-129331784D01*
X39773624Y-129167812D01*
X39739000Y-128993741D01*
X39739000Y-128816259D01*
X39773624Y-128642188D01*
X39841544Y-128478216D01*
X39940147Y-128330646D01*
X40065646Y-128205147D01*
X40213216Y-128106544D01*
X40377188Y-128038624D01*
X40535231Y-128007188D01*
X40551258Y-128004000D01*
X40728742Y-128004000D01*
X40744769Y-128007188D01*
G37*
G36*
X136003512Y-127373927D02*
G01*
X136152812Y-127403624D01*
X136316784Y-127471544D01*
X136464354Y-127570147D01*
X136589853Y-127695646D01*
X136688456Y-127843216D01*
X136756376Y-128007188D01*
X136791000Y-128181259D01*
X136791000Y-128358741D01*
X136756376Y-128532812D01*
X136688456Y-128696784D01*
X136589853Y-128844354D01*
X136464354Y-128969853D01*
X136316784Y-129068456D01*
X136152812Y-129136376D01*
X136003512Y-129166073D01*
X135978742Y-129171000D01*
X135801258Y-129171000D01*
X135776488Y-129166073D01*
X135627188Y-129136376D01*
X135463216Y-129068456D01*
X135315646Y-128969853D01*
X135190147Y-128844354D01*
X135091544Y-128696784D01*
X135023624Y-128532812D01*
X134989000Y-128358741D01*
X134989000Y-128181259D01*
X135023624Y-128007188D01*
X135091544Y-127843216D01*
X135190147Y-127695646D01*
X135315646Y-127570147D01*
X135463216Y-127471544D01*
X135627188Y-127403624D01*
X135776488Y-127373927D01*
X135801258Y-127369000D01*
X135978742Y-127369000D01*
X136003512Y-127373927D01*
G37*
G36*
X40744769Y-125467188D02*
G01*
X40902812Y-125498624D01*
X41066784Y-125566544D01*
X41214354Y-125665147D01*
X41339853Y-125790646D01*
X41438456Y-125938216D01*
X41506376Y-126102188D01*
X41541000Y-126276259D01*
X41541000Y-126453741D01*
X41506376Y-126627812D01*
X41438456Y-126791784D01*
X41339853Y-126939354D01*
X41214354Y-127064853D01*
X41066784Y-127163456D01*
X40902812Y-127231376D01*
X40753512Y-127261073D01*
X40728742Y-127266000D01*
X40551258Y-127266000D01*
X40526488Y-127261073D01*
X40377188Y-127231376D01*
X40213216Y-127163456D01*
X40065646Y-127064853D01*
X39940147Y-126939354D01*
X39841544Y-126791784D01*
X39773624Y-126627812D01*
X39739000Y-126453741D01*
X39739000Y-126276259D01*
X39773624Y-126102188D01*
X39841544Y-125938216D01*
X39940147Y-125790646D01*
X40065646Y-125665147D01*
X40213216Y-125566544D01*
X40377188Y-125498624D01*
X40535231Y-125467188D01*
X40551258Y-125464000D01*
X40728742Y-125464000D01*
X40744769Y-125467188D01*
G37*
G36*
X56783512Y-124833927D02*
G01*
X56932812Y-124863624D01*
X57096784Y-124931544D01*
X57244354Y-125030147D01*
X57369853Y-125155646D01*
X57468456Y-125303216D01*
X57536376Y-125467188D01*
X57571000Y-125641259D01*
X57571000Y-125818741D01*
X57536376Y-125992812D01*
X57468456Y-126156784D01*
X57369853Y-126304354D01*
X57244354Y-126429853D01*
X57096784Y-126528456D01*
X56932812Y-126596376D01*
X56783512Y-126626073D01*
X56758742Y-126631000D01*
X56581258Y-126631000D01*
X56556488Y-126626073D01*
X56407188Y-126596376D01*
X56243216Y-126528456D01*
X56095646Y-126429853D01*
X55970147Y-126304354D01*
X55871544Y-126156784D01*
X55803624Y-125992812D01*
X55769000Y-125818741D01*
X55769000Y-125641259D01*
X55803624Y-125467188D01*
X55871544Y-125303216D01*
X55970147Y-125155646D01*
X56095646Y-125030147D01*
X56243216Y-124931544D01*
X56407188Y-124863624D01*
X56556488Y-124833927D01*
X56581258Y-124829000D01*
X56758742Y-124829000D01*
X56783512Y-124833927D01*
G37*
G36*
X59168512Y-124833927D02*
G01*
X59317812Y-124863624D01*
X59481784Y-124931544D01*
X59629354Y-125030147D01*
X59754853Y-125155646D01*
X59853456Y-125303216D01*
X59921376Y-125467188D01*
X59956000Y-125641259D01*
X59956000Y-125818741D01*
X59921376Y-125992812D01*
X59853456Y-126156784D01*
X59754853Y-126304354D01*
X59629354Y-126429853D01*
X59481784Y-126528456D01*
X59317812Y-126596376D01*
X59168512Y-126626073D01*
X59143742Y-126631000D01*
X58966258Y-126631000D01*
X58941488Y-126626073D01*
X58792188Y-126596376D01*
X58628216Y-126528456D01*
X58480646Y-126429853D01*
X58355147Y-126304354D01*
X58256544Y-126156784D01*
X58188624Y-125992812D01*
X58154000Y-125818741D01*
X58154000Y-125641259D01*
X58188624Y-125467188D01*
X58256544Y-125303216D01*
X58355147Y-125155646D01*
X58480646Y-125030147D01*
X58628216Y-124931544D01*
X58792188Y-124863624D01*
X58941488Y-124833927D01*
X58966258Y-124829000D01*
X59143742Y-124829000D01*
X59168512Y-124833927D01*
G37*
G36*
X61708512Y-124833927D02*
G01*
X61857812Y-124863624D01*
X62021784Y-124931544D01*
X62169354Y-125030147D01*
X62294853Y-125155646D01*
X62393456Y-125303216D01*
X62461376Y-125467188D01*
X62496000Y-125641259D01*
X62496000Y-125818741D01*
X62461376Y-125992812D01*
X62393456Y-126156784D01*
X62294853Y-126304354D01*
X62169354Y-126429853D01*
X62021784Y-126528456D01*
X61857812Y-126596376D01*
X61708512Y-126626073D01*
X61683742Y-126631000D01*
X61506258Y-126631000D01*
X61481488Y-126626073D01*
X61332188Y-126596376D01*
X61168216Y-126528456D01*
X61020646Y-126429853D01*
X60895147Y-126304354D01*
X60796544Y-126156784D01*
X60728624Y-125992812D01*
X60694000Y-125818741D01*
X60694000Y-125641259D01*
X60728624Y-125467188D01*
X60796544Y-125303216D01*
X60895147Y-125155646D01*
X61020646Y-125030147D01*
X61168216Y-124931544D01*
X61332188Y-124863624D01*
X61481488Y-124833927D01*
X61506258Y-124829000D01*
X61683742Y-124829000D01*
X61708512Y-124833927D01*
G37*
G36*
X136003512Y-124833927D02*
G01*
X136152812Y-124863624D01*
X136316784Y-124931544D01*
X136464354Y-125030147D01*
X136589853Y-125155646D01*
X136688456Y-125303216D01*
X136756376Y-125467188D01*
X136791000Y-125641259D01*
X136791000Y-125818741D01*
X136756376Y-125992812D01*
X136688456Y-126156784D01*
X136589853Y-126304354D01*
X136464354Y-126429853D01*
X136316784Y-126528456D01*
X136152812Y-126596376D01*
X136003512Y-126626073D01*
X135978742Y-126631000D01*
X135801258Y-126631000D01*
X135776488Y-126626073D01*
X135627188Y-126596376D01*
X135463216Y-126528456D01*
X135315646Y-126429853D01*
X135190147Y-126304354D01*
X135091544Y-126156784D01*
X135023624Y-125992812D01*
X134989000Y-125818741D01*
X134989000Y-125641259D01*
X135023624Y-125467188D01*
X135091544Y-125303216D01*
X135190147Y-125155646D01*
X135315646Y-125030147D01*
X135463216Y-124931544D01*
X135627188Y-124863624D01*
X135776488Y-124833927D01*
X135801258Y-124829000D01*
X135978742Y-124829000D01*
X136003512Y-124833927D01*
G37*
G36*
X40744769Y-122927188D02*
G01*
X40902812Y-122958624D01*
X41066784Y-123026544D01*
X41214354Y-123125147D01*
X41339853Y-123250646D01*
X41438456Y-123398216D01*
X41506376Y-123562188D01*
X41541000Y-123736259D01*
X41541000Y-123913741D01*
X41506376Y-124087812D01*
X41438456Y-124251784D01*
X41339853Y-124399354D01*
X41214354Y-124524853D01*
X41066784Y-124623456D01*
X40902812Y-124691376D01*
X40753512Y-124721073D01*
X40728742Y-124726000D01*
X40551258Y-124726000D01*
X40526488Y-124721073D01*
X40377188Y-124691376D01*
X40213216Y-124623456D01*
X40065646Y-124524853D01*
X39940147Y-124399354D01*
X39841544Y-124251784D01*
X39773624Y-124087812D01*
X39739000Y-123913741D01*
X39739000Y-123736259D01*
X39773624Y-123562188D01*
X39841544Y-123398216D01*
X39940147Y-123250646D01*
X40065646Y-123125147D01*
X40213216Y-123026544D01*
X40377188Y-122958624D01*
X40535231Y-122927188D01*
X40551258Y-122924000D01*
X40728742Y-122924000D01*
X40744769Y-122927188D01*
G37*
G36*
X136791000Y-124091000D02*
G01*
X134989000Y-124091000D01*
X134989000Y-122289000D01*
X136791000Y-122289000D01*
X136791000Y-124091000D01*
G37*
G36*
X61708512Y-122293927D02*
G01*
X61857812Y-122323624D01*
X62021784Y-122391544D01*
X62169354Y-122490147D01*
X62294853Y-122615646D01*
X62393456Y-122763216D01*
X62461376Y-122927188D01*
X62496000Y-123101259D01*
X62496000Y-123278741D01*
X62461376Y-123452812D01*
X62393456Y-123616784D01*
X62294853Y-123764354D01*
X62169354Y-123889853D01*
X62021784Y-123988456D01*
X61857812Y-124056376D01*
X61708512Y-124086073D01*
X61683742Y-124091000D01*
X61506258Y-124091000D01*
X61481488Y-124086073D01*
X61332188Y-124056376D01*
X61168216Y-123988456D01*
X61020646Y-123889853D01*
X60895147Y-123764354D01*
X60796544Y-123616784D01*
X60728624Y-123452812D01*
X60694000Y-123278741D01*
X60694000Y-123101259D01*
X60728624Y-122927188D01*
X60796544Y-122763216D01*
X60895147Y-122615646D01*
X61020646Y-122490147D01*
X61168216Y-122391544D01*
X61332188Y-122323624D01*
X61481488Y-122293927D01*
X61506258Y-122289000D01*
X61683742Y-122289000D01*
X61708512Y-122293927D01*
G37*
G36*
X56783512Y-122293927D02*
G01*
X56932812Y-122323624D01*
X57096784Y-122391544D01*
X57244354Y-122490147D01*
X57369853Y-122615646D01*
X57468456Y-122763216D01*
X57536376Y-122927188D01*
X57571000Y-123101259D01*
X57571000Y-123278741D01*
X57536376Y-123452812D01*
X57468456Y-123616784D01*
X57369853Y-123764354D01*
X57244354Y-123889853D01*
X57096784Y-123988456D01*
X56932812Y-124056376D01*
X56783512Y-124086073D01*
X56758742Y-124091000D01*
X56581258Y-124091000D01*
X56556488Y-124086073D01*
X56407188Y-124056376D01*
X56243216Y-123988456D01*
X56095646Y-123889853D01*
X55970147Y-123764354D01*
X55871544Y-123616784D01*
X55803624Y-123452812D01*
X55769000Y-123278741D01*
X55769000Y-123101259D01*
X55803624Y-122927188D01*
X55871544Y-122763216D01*
X55970147Y-122615646D01*
X56095646Y-122490147D01*
X56243216Y-122391544D01*
X56407188Y-122323624D01*
X56556488Y-122293927D01*
X56581258Y-122289000D01*
X56758742Y-122289000D01*
X56783512Y-122293927D01*
G37*
G36*
X59168512Y-122293927D02*
G01*
X59317812Y-122323624D01*
X59481784Y-122391544D01*
X59629354Y-122490147D01*
X59754853Y-122615646D01*
X59853456Y-122763216D01*
X59921376Y-122927188D01*
X59956000Y-123101259D01*
X59956000Y-123278741D01*
X59921376Y-123452812D01*
X59853456Y-123616784D01*
X59754853Y-123764354D01*
X59629354Y-123889853D01*
X59481784Y-123988456D01*
X59317812Y-124056376D01*
X59168512Y-124086073D01*
X59143742Y-124091000D01*
X58966258Y-124091000D01*
X58941488Y-124086073D01*
X58792188Y-124056376D01*
X58628216Y-123988456D01*
X58480646Y-123889853D01*
X58355147Y-123764354D01*
X58256544Y-123616784D01*
X58188624Y-123452812D01*
X58154000Y-123278741D01*
X58154000Y-123101259D01*
X58188624Y-122927188D01*
X58256544Y-122763216D01*
X58355147Y-122615646D01*
X58480646Y-122490147D01*
X58628216Y-122391544D01*
X58792188Y-122323624D01*
X58941488Y-122293927D01*
X58966258Y-122289000D01*
X59143742Y-122289000D01*
X59168512Y-122293927D01*
G37*
G36*
X80276000Y-122821000D02*
G01*
X78474000Y-122821000D01*
X78474000Y-121019000D01*
X80276000Y-121019000D01*
X80276000Y-122821000D01*
G37*
G36*
X88531000Y-122821000D02*
G01*
X86729000Y-122821000D01*
X86729000Y-121019000D01*
X88531000Y-121019000D01*
X88531000Y-122821000D01*
G37*
G36*
X90283512Y-121023927D02*
G01*
X90432812Y-121053624D01*
X90596784Y-121121544D01*
X90744354Y-121220147D01*
X90869853Y-121345646D01*
X90968456Y-121493216D01*
X91036376Y-121657188D01*
X91071000Y-121831259D01*
X91071000Y-122008741D01*
X91036376Y-122182812D01*
X90968456Y-122346784D01*
X90869853Y-122494354D01*
X90744354Y-122619853D01*
X90596784Y-122718456D01*
X90432812Y-122786376D01*
X90283512Y-122816073D01*
X90258742Y-122821000D01*
X90081258Y-122821000D01*
X90056488Y-122816073D01*
X89907188Y-122786376D01*
X89743216Y-122718456D01*
X89595646Y-122619853D01*
X89470147Y-122494354D01*
X89371544Y-122346784D01*
X89303624Y-122182812D01*
X89269000Y-122008741D01*
X89269000Y-121831259D01*
X89303624Y-121657188D01*
X89371544Y-121493216D01*
X89470147Y-121345646D01*
X89595646Y-121220147D01*
X89743216Y-121121544D01*
X89907188Y-121053624D01*
X90056488Y-121023927D01*
X90081258Y-121019000D01*
X90258742Y-121019000D01*
X90283512Y-121023927D01*
G37*
G36*
X61708512Y-119753927D02*
G01*
X61857812Y-119783624D01*
X62021784Y-119851544D01*
X62169354Y-119950147D01*
X62294853Y-120075646D01*
X62393456Y-120223216D01*
X62461376Y-120387188D01*
X62496000Y-120561259D01*
X62496000Y-120738741D01*
X62461376Y-120912812D01*
X62393456Y-121076784D01*
X62294853Y-121224354D01*
X62169354Y-121349853D01*
X62021784Y-121448456D01*
X61857812Y-121516376D01*
X61708512Y-121546073D01*
X61683742Y-121551000D01*
X61506258Y-121551000D01*
X61481488Y-121546073D01*
X61332188Y-121516376D01*
X61168216Y-121448456D01*
X61020646Y-121349853D01*
X60895147Y-121224354D01*
X60796544Y-121076784D01*
X60728624Y-120912812D01*
X60694000Y-120738741D01*
X60694000Y-120561259D01*
X60728624Y-120387188D01*
X60796544Y-120223216D01*
X60895147Y-120075646D01*
X61020646Y-119950147D01*
X61168216Y-119851544D01*
X61332188Y-119783624D01*
X61481488Y-119753927D01*
X61506258Y-119749000D01*
X61683742Y-119749000D01*
X61708512Y-119753927D01*
G37*
G36*
X59168512Y-119753927D02*
G01*
X59317812Y-119783624D01*
X59481784Y-119851544D01*
X59629354Y-119950147D01*
X59754853Y-120075646D01*
X59853456Y-120223216D01*
X59921376Y-120387188D01*
X59956000Y-120561259D01*
X59956000Y-120738741D01*
X59921376Y-120912812D01*
X59853456Y-121076784D01*
X59754853Y-121224354D01*
X59629354Y-121349853D01*
X59481784Y-121448456D01*
X59317812Y-121516376D01*
X59168512Y-121546073D01*
X59143742Y-121551000D01*
X58966258Y-121551000D01*
X58941488Y-121546073D01*
X58792188Y-121516376D01*
X58628216Y-121448456D01*
X58480646Y-121349853D01*
X58355147Y-121224354D01*
X58256544Y-121076784D01*
X58188624Y-120912812D01*
X58154000Y-120738741D01*
X58154000Y-120561259D01*
X58188624Y-120387188D01*
X58256544Y-120223216D01*
X58355147Y-120075646D01*
X58480646Y-119950147D01*
X58628216Y-119851544D01*
X58792188Y-119783624D01*
X58941488Y-119753927D01*
X58966258Y-119749000D01*
X59143742Y-119749000D01*
X59168512Y-119753927D01*
G37*
G36*
X56783512Y-119753927D02*
G01*
X56932812Y-119783624D01*
X57096784Y-119851544D01*
X57244354Y-119950147D01*
X57369853Y-120075646D01*
X57468456Y-120223216D01*
X57536376Y-120387188D01*
X57571000Y-120561259D01*
X57571000Y-120738741D01*
X57536376Y-120912812D01*
X57468456Y-121076784D01*
X57369853Y-121224354D01*
X57244354Y-121349853D01*
X57096784Y-121448456D01*
X56932812Y-121516376D01*
X56783512Y-121546073D01*
X56758742Y-121551000D01*
X56581258Y-121551000D01*
X56556488Y-121546073D01*
X56407188Y-121516376D01*
X56243216Y-121448456D01*
X56095646Y-121349853D01*
X55970147Y-121224354D01*
X55871544Y-121076784D01*
X55803624Y-120912812D01*
X55769000Y-120738741D01*
X55769000Y-120561259D01*
X55803624Y-120387188D01*
X55871544Y-120223216D01*
X55970147Y-120075646D01*
X56095646Y-119950147D01*
X56243216Y-119851544D01*
X56407188Y-119783624D01*
X56556488Y-119753927D01*
X56581258Y-119749000D01*
X56758742Y-119749000D01*
X56783512Y-119753927D01*
G37*
G36*
X79488512Y-118483927D02*
G01*
X79637812Y-118513624D01*
X79801784Y-118581544D01*
X79949354Y-118680147D01*
X80074853Y-118805646D01*
X80173456Y-118953216D01*
X80241376Y-119117188D01*
X80276000Y-119291259D01*
X80276000Y-119468741D01*
X80241376Y-119642812D01*
X80173456Y-119806784D01*
X80074853Y-119954354D01*
X79949354Y-120079853D01*
X79801784Y-120178456D01*
X79637812Y-120246376D01*
X79488512Y-120276073D01*
X79463742Y-120281000D01*
X79286258Y-120281000D01*
X79261488Y-120276073D01*
X79112188Y-120246376D01*
X78948216Y-120178456D01*
X78800646Y-120079853D01*
X78675147Y-119954354D01*
X78576544Y-119806784D01*
X78508624Y-119642812D01*
X78474000Y-119468741D01*
X78474000Y-119291259D01*
X78508624Y-119117188D01*
X78576544Y-118953216D01*
X78675147Y-118805646D01*
X78800646Y-118680147D01*
X78948216Y-118581544D01*
X79112188Y-118513624D01*
X79261488Y-118483927D01*
X79286258Y-118479000D01*
X79463742Y-118479000D01*
X79488512Y-118483927D01*
G37*
G36*
X56783512Y-117213927D02*
G01*
X56932812Y-117243624D01*
X57096784Y-117311544D01*
X57244354Y-117410147D01*
X57369853Y-117535646D01*
X57468456Y-117683216D01*
X57536376Y-117847188D01*
X57571000Y-118021259D01*
X57571000Y-118198741D01*
X57536376Y-118372812D01*
X57468456Y-118536784D01*
X57369853Y-118684354D01*
X57244354Y-118809853D01*
X57096784Y-118908456D01*
X56932812Y-118976376D01*
X56783512Y-119006073D01*
X56758742Y-119011000D01*
X56581258Y-119011000D01*
X56556488Y-119006073D01*
X56407188Y-118976376D01*
X56243216Y-118908456D01*
X56095646Y-118809853D01*
X55970147Y-118684354D01*
X55871544Y-118536784D01*
X55803624Y-118372812D01*
X55769000Y-118198741D01*
X55769000Y-118021259D01*
X55803624Y-117847188D01*
X55871544Y-117683216D01*
X55970147Y-117535646D01*
X56095646Y-117410147D01*
X56243216Y-117311544D01*
X56407188Y-117243624D01*
X56556488Y-117213927D01*
X56581258Y-117209000D01*
X56758742Y-117209000D01*
X56783512Y-117213927D01*
G37*
G36*
X61708512Y-117213927D02*
G01*
X61857812Y-117243624D01*
X62021784Y-117311544D01*
X62169354Y-117410147D01*
X62294853Y-117535646D01*
X62393456Y-117683216D01*
X62461376Y-117847188D01*
X62496000Y-118021259D01*
X62496000Y-118198741D01*
X62461376Y-118372812D01*
X62393456Y-118536784D01*
X62294853Y-118684354D01*
X62169354Y-118809853D01*
X62021784Y-118908456D01*
X61857812Y-118976376D01*
X61708512Y-119006073D01*
X61683742Y-119011000D01*
X61506258Y-119011000D01*
X61481488Y-119006073D01*
X61332188Y-118976376D01*
X61168216Y-118908456D01*
X61020646Y-118809853D01*
X60895147Y-118684354D01*
X60796544Y-118536784D01*
X60728624Y-118372812D01*
X60694000Y-118198741D01*
X60694000Y-118021259D01*
X60728624Y-117847188D01*
X60796544Y-117683216D01*
X60895147Y-117535646D01*
X61020646Y-117410147D01*
X61168216Y-117311544D01*
X61332188Y-117243624D01*
X61481488Y-117213927D01*
X61506258Y-117209000D01*
X61683742Y-117209000D01*
X61708512Y-117213927D01*
G37*
G36*
X59168512Y-117213927D02*
G01*
X59317812Y-117243624D01*
X59481784Y-117311544D01*
X59629354Y-117410147D01*
X59754853Y-117535646D01*
X59853456Y-117683216D01*
X59921376Y-117847188D01*
X59956000Y-118021259D01*
X59956000Y-118198741D01*
X59921376Y-118372812D01*
X59853456Y-118536784D01*
X59754853Y-118684354D01*
X59629354Y-118809853D01*
X59481784Y-118908456D01*
X59317812Y-118976376D01*
X59168512Y-119006073D01*
X59143742Y-119011000D01*
X58966258Y-119011000D01*
X58941488Y-119006073D01*
X58792188Y-118976376D01*
X58628216Y-118908456D01*
X58480646Y-118809853D01*
X58355147Y-118684354D01*
X58256544Y-118536784D01*
X58188624Y-118372812D01*
X58154000Y-118198741D01*
X58154000Y-118021259D01*
X58188624Y-117847188D01*
X58256544Y-117683216D01*
X58355147Y-117535646D01*
X58480646Y-117410147D01*
X58628216Y-117311544D01*
X58792188Y-117243624D01*
X58941488Y-117213927D01*
X58966258Y-117209000D01*
X59143742Y-117209000D01*
X59168512Y-117213927D01*
G37*
G36*
X61699769Y-114672188D02*
G01*
X61857812Y-114703624D01*
X62021784Y-114771544D01*
X62169354Y-114870147D01*
X62294853Y-114995646D01*
X62393456Y-115143216D01*
X62461376Y-115307188D01*
X62496000Y-115481259D01*
X62496000Y-115658741D01*
X62461376Y-115832812D01*
X62393456Y-115996784D01*
X62294853Y-116144354D01*
X62169354Y-116269853D01*
X62021784Y-116368456D01*
X61857812Y-116436376D01*
X61708512Y-116466073D01*
X61683742Y-116471000D01*
X61506258Y-116471000D01*
X61481488Y-116466073D01*
X61332188Y-116436376D01*
X61168216Y-116368456D01*
X61020646Y-116269853D01*
X60895147Y-116144354D01*
X60796544Y-115996784D01*
X60728624Y-115832812D01*
X60694000Y-115658741D01*
X60694000Y-115481259D01*
X60728624Y-115307188D01*
X60796544Y-115143216D01*
X60895147Y-114995646D01*
X61020646Y-114870147D01*
X61168216Y-114771544D01*
X61332188Y-114703624D01*
X61490231Y-114672188D01*
X61506258Y-114669000D01*
X61683742Y-114669000D01*
X61699769Y-114672188D01*
G37*
G36*
X56774769Y-114672188D02*
G01*
X56932812Y-114703624D01*
X57096784Y-114771544D01*
X57244354Y-114870147D01*
X57369853Y-114995646D01*
X57468456Y-115143216D01*
X57536376Y-115307188D01*
X57571000Y-115481259D01*
X57571000Y-115658741D01*
X57536376Y-115832812D01*
X57468456Y-115996784D01*
X57369853Y-116144354D01*
X57244354Y-116269853D01*
X57096784Y-116368456D01*
X56932812Y-116436376D01*
X56783512Y-116466073D01*
X56758742Y-116471000D01*
X56581258Y-116471000D01*
X56556488Y-116466073D01*
X56407188Y-116436376D01*
X56243216Y-116368456D01*
X56095646Y-116269853D01*
X55970147Y-116144354D01*
X55871544Y-115996784D01*
X55803624Y-115832812D01*
X55769000Y-115658741D01*
X55769000Y-115481259D01*
X55803624Y-115307188D01*
X55871544Y-115143216D01*
X55970147Y-114995646D01*
X56095646Y-114870147D01*
X56243216Y-114771544D01*
X56407188Y-114703624D01*
X56565231Y-114672188D01*
X56581258Y-114669000D01*
X56758742Y-114669000D01*
X56774769Y-114672188D01*
G37*
G36*
X59159769Y-114672188D02*
G01*
X59317812Y-114703624D01*
X59481784Y-114771544D01*
X59629354Y-114870147D01*
X59754853Y-114995646D01*
X59853456Y-115143216D01*
X59921376Y-115307188D01*
X59956000Y-115481259D01*
X59956000Y-115658741D01*
X59921376Y-115832812D01*
X59853456Y-115996784D01*
X59754853Y-116144354D01*
X59629354Y-116269853D01*
X59481784Y-116368456D01*
X59317812Y-116436376D01*
X59168512Y-116466073D01*
X59143742Y-116471000D01*
X58966258Y-116471000D01*
X58941488Y-116466073D01*
X58792188Y-116436376D01*
X58628216Y-116368456D01*
X58480646Y-116269853D01*
X58355147Y-116144354D01*
X58256544Y-115996784D01*
X58188624Y-115832812D01*
X58154000Y-115658741D01*
X58154000Y-115481259D01*
X58188624Y-115307188D01*
X58256544Y-115143216D01*
X58355147Y-114995646D01*
X58480646Y-114870147D01*
X58628216Y-114771544D01*
X58792188Y-114703624D01*
X58950231Y-114672188D01*
X58966258Y-114669000D01*
X59143742Y-114669000D01*
X59159769Y-114672188D01*
G37*
G36*
X90283512Y-114038927D02*
G01*
X90432812Y-114068624D01*
X90596784Y-114136544D01*
X90744354Y-114235147D01*
X90869853Y-114360646D01*
X90968456Y-114508216D01*
X91036376Y-114672188D01*
X91071000Y-114846259D01*
X91071000Y-115023741D01*
X91036376Y-115197812D01*
X90968456Y-115361784D01*
X90869853Y-115509354D01*
X90744354Y-115634853D01*
X90596784Y-115733456D01*
X90432812Y-115801376D01*
X90283512Y-115831073D01*
X90258742Y-115836000D01*
X90081258Y-115836000D01*
X90056488Y-115831073D01*
X89907188Y-115801376D01*
X89743216Y-115733456D01*
X89595646Y-115634853D01*
X89470147Y-115509354D01*
X89371544Y-115361784D01*
X89303624Y-115197812D01*
X89269000Y-115023741D01*
X89269000Y-114846259D01*
X89303624Y-114672188D01*
X89371544Y-114508216D01*
X89470147Y-114360646D01*
X89595646Y-114235147D01*
X89743216Y-114136544D01*
X89907188Y-114068624D01*
X90056488Y-114038927D01*
X90081258Y-114034000D01*
X90258742Y-114034000D01*
X90283512Y-114038927D01*
G37*
G36*
X88531000Y-115836000D02*
G01*
X86729000Y-115836000D01*
X86729000Y-114034000D01*
X88531000Y-114034000D01*
X88531000Y-115836000D01*
G37*
G36*
X59168512Y-112133927D02*
G01*
X59317812Y-112163624D01*
X59481784Y-112231544D01*
X59629354Y-112330147D01*
X59754853Y-112455646D01*
X59853456Y-112603216D01*
X59921376Y-112767188D01*
X59956000Y-112941259D01*
X59956000Y-113118741D01*
X59921376Y-113292812D01*
X59853456Y-113456784D01*
X59754853Y-113604354D01*
X59629354Y-113729853D01*
X59481784Y-113828456D01*
X59317812Y-113896376D01*
X59168512Y-113926073D01*
X59143742Y-113931000D01*
X58966258Y-113931000D01*
X58941488Y-113926073D01*
X58792188Y-113896376D01*
X58628216Y-113828456D01*
X58480646Y-113729853D01*
X58355147Y-113604354D01*
X58256544Y-113456784D01*
X58188624Y-113292812D01*
X58154000Y-113118741D01*
X58154000Y-112941259D01*
X58188624Y-112767188D01*
X58256544Y-112603216D01*
X58355147Y-112455646D01*
X58480646Y-112330147D01*
X58628216Y-112231544D01*
X58792188Y-112163624D01*
X58941488Y-112133927D01*
X58966258Y-112129000D01*
X59143742Y-112129000D01*
X59168512Y-112133927D01*
G37*
G36*
X61708512Y-112133927D02*
G01*
X61857812Y-112163624D01*
X62021784Y-112231544D01*
X62169354Y-112330147D01*
X62294853Y-112455646D01*
X62393456Y-112603216D01*
X62461376Y-112767188D01*
X62496000Y-112941259D01*
X62496000Y-113118741D01*
X62461376Y-113292812D01*
X62393456Y-113456784D01*
X62294853Y-113604354D01*
X62169354Y-113729853D01*
X62021784Y-113828456D01*
X61857812Y-113896376D01*
X61708512Y-113926073D01*
X61683742Y-113931000D01*
X61506258Y-113931000D01*
X61481488Y-113926073D01*
X61332188Y-113896376D01*
X61168216Y-113828456D01*
X61020646Y-113729853D01*
X60895147Y-113604354D01*
X60796544Y-113456784D01*
X60728624Y-113292812D01*
X60694000Y-113118741D01*
X60694000Y-112941259D01*
X60728624Y-112767188D01*
X60796544Y-112603216D01*
X60895147Y-112455646D01*
X61020646Y-112330147D01*
X61168216Y-112231544D01*
X61332188Y-112163624D01*
X61481488Y-112133927D01*
X61506258Y-112129000D01*
X61683742Y-112129000D01*
X61708512Y-112133927D01*
G37*
G36*
X56783512Y-112133927D02*
G01*
X56932812Y-112163624D01*
X57096784Y-112231544D01*
X57244354Y-112330147D01*
X57369853Y-112455646D01*
X57468456Y-112603216D01*
X57536376Y-112767188D01*
X57571000Y-112941259D01*
X57571000Y-113118741D01*
X57536376Y-113292812D01*
X57468456Y-113456784D01*
X57369853Y-113604354D01*
X57244354Y-113729853D01*
X57096784Y-113828456D01*
X56932812Y-113896376D01*
X56783512Y-113926073D01*
X56758742Y-113931000D01*
X56581258Y-113931000D01*
X56556488Y-113926073D01*
X56407188Y-113896376D01*
X56243216Y-113828456D01*
X56095646Y-113729853D01*
X55970147Y-113604354D01*
X55871544Y-113456784D01*
X55803624Y-113292812D01*
X55769000Y-113118741D01*
X55769000Y-112941259D01*
X55803624Y-112767188D01*
X55871544Y-112603216D01*
X55970147Y-112455646D01*
X56095646Y-112330147D01*
X56243216Y-112231544D01*
X56407188Y-112163624D01*
X56556488Y-112133927D01*
X56581258Y-112129000D01*
X56758742Y-112129000D01*
X56783512Y-112133927D01*
G37*
G36*
X59168512Y-109593927D02*
G01*
X59317812Y-109623624D01*
X59481784Y-109691544D01*
X59629354Y-109790147D01*
X59754853Y-109915646D01*
X59853456Y-110063216D01*
X59921376Y-110227188D01*
X59956000Y-110401259D01*
X59956000Y-110578741D01*
X59921376Y-110752812D01*
X59853456Y-110916784D01*
X59754853Y-111064354D01*
X59629354Y-111189853D01*
X59481784Y-111288456D01*
X59317812Y-111356376D01*
X59168512Y-111386073D01*
X59143742Y-111391000D01*
X58966258Y-111391000D01*
X58941488Y-111386073D01*
X58792188Y-111356376D01*
X58628216Y-111288456D01*
X58480646Y-111189853D01*
X58355147Y-111064354D01*
X58256544Y-110916784D01*
X58188624Y-110752812D01*
X58154000Y-110578741D01*
X58154000Y-110401259D01*
X58188624Y-110227188D01*
X58256544Y-110063216D01*
X58355147Y-109915646D01*
X58480646Y-109790147D01*
X58628216Y-109691544D01*
X58792188Y-109623624D01*
X58941488Y-109593927D01*
X58966258Y-109589000D01*
X59143742Y-109589000D01*
X59168512Y-109593927D01*
G37*
G36*
X108063512Y-109593927D02*
G01*
X108212812Y-109623624D01*
X108376784Y-109691544D01*
X108524354Y-109790147D01*
X108649853Y-109915646D01*
X108748456Y-110063216D01*
X108816376Y-110227188D01*
X108851000Y-110401259D01*
X108851000Y-110578741D01*
X108816376Y-110752812D01*
X108748456Y-110916784D01*
X108649853Y-111064354D01*
X108524354Y-111189853D01*
X108376784Y-111288456D01*
X108212812Y-111356376D01*
X108063512Y-111386073D01*
X108038742Y-111391000D01*
X107861258Y-111391000D01*
X107836488Y-111386073D01*
X107687188Y-111356376D01*
X107523216Y-111288456D01*
X107375646Y-111189853D01*
X107250147Y-111064354D01*
X107151544Y-110916784D01*
X107083624Y-110752812D01*
X107049000Y-110578741D01*
X107049000Y-110401259D01*
X107083624Y-110227188D01*
X107151544Y-110063216D01*
X107250147Y-109915646D01*
X107375646Y-109790147D01*
X107523216Y-109691544D01*
X107687188Y-109623624D01*
X107836488Y-109593927D01*
X107861258Y-109589000D01*
X108038742Y-109589000D01*
X108063512Y-109593927D01*
G37*
G36*
X61708512Y-109593927D02*
G01*
X61857812Y-109623624D01*
X62021784Y-109691544D01*
X62169354Y-109790147D01*
X62294853Y-109915646D01*
X62393456Y-110063216D01*
X62461376Y-110227188D01*
X62496000Y-110401259D01*
X62496000Y-110578741D01*
X62461376Y-110752812D01*
X62393456Y-110916784D01*
X62294853Y-111064354D01*
X62169354Y-111189853D01*
X62021784Y-111288456D01*
X61857812Y-111356376D01*
X61708512Y-111386073D01*
X61683742Y-111391000D01*
X61506258Y-111391000D01*
X61481488Y-111386073D01*
X61332188Y-111356376D01*
X61168216Y-111288456D01*
X61020646Y-111189853D01*
X60895147Y-111064354D01*
X60796544Y-110916784D01*
X60728624Y-110752812D01*
X60694000Y-110578741D01*
X60694000Y-110401259D01*
X60728624Y-110227188D01*
X60796544Y-110063216D01*
X60895147Y-109915646D01*
X61020646Y-109790147D01*
X61168216Y-109691544D01*
X61332188Y-109623624D01*
X61481488Y-109593927D01*
X61506258Y-109589000D01*
X61683742Y-109589000D01*
X61708512Y-109593927D01*
G37*
G36*
X56783512Y-109593927D02*
G01*
X56932812Y-109623624D01*
X57096784Y-109691544D01*
X57244354Y-109790147D01*
X57369853Y-109915646D01*
X57468456Y-110063216D01*
X57536376Y-110227188D01*
X57571000Y-110401259D01*
X57571000Y-110578741D01*
X57536376Y-110752812D01*
X57468456Y-110916784D01*
X57369853Y-111064354D01*
X57244354Y-111189853D01*
X57096784Y-111288456D01*
X56932812Y-111356376D01*
X56783512Y-111386073D01*
X56758742Y-111391000D01*
X56581258Y-111391000D01*
X56556488Y-111386073D01*
X56407188Y-111356376D01*
X56243216Y-111288456D01*
X56095646Y-111189853D01*
X55970147Y-111064354D01*
X55871544Y-110916784D01*
X55803624Y-110752812D01*
X55769000Y-110578741D01*
X55769000Y-110401259D01*
X55803624Y-110227188D01*
X55871544Y-110063216D01*
X55970147Y-109915646D01*
X56095646Y-109790147D01*
X56243216Y-109691544D01*
X56407188Y-109623624D01*
X56556488Y-109593927D01*
X56581258Y-109589000D01*
X56758742Y-109589000D01*
X56783512Y-109593927D01*
G37*
G36*
X106311000Y-111391000D02*
G01*
X104509000Y-111391000D01*
X104509000Y-109589000D01*
X106311000Y-109589000D01*
X106311000Y-111391000D01*
G37*
G36*
X113143512Y-109593927D02*
G01*
X113292812Y-109623624D01*
X113456784Y-109691544D01*
X113604354Y-109790147D01*
X113729853Y-109915646D01*
X113828456Y-110063216D01*
X113896376Y-110227188D01*
X113931000Y-110401259D01*
X113931000Y-110578741D01*
X113896376Y-110752812D01*
X113828456Y-110916784D01*
X113729853Y-111064354D01*
X113604354Y-111189853D01*
X113456784Y-111288456D01*
X113292812Y-111356376D01*
X113143512Y-111386073D01*
X113118742Y-111391000D01*
X112941258Y-111391000D01*
X112916488Y-111386073D01*
X112767188Y-111356376D01*
X112603216Y-111288456D01*
X112455646Y-111189853D01*
X112330147Y-111064354D01*
X112231544Y-110916784D01*
X112163624Y-110752812D01*
X112129000Y-110578741D01*
X112129000Y-110401259D01*
X112163624Y-110227188D01*
X112231544Y-110063216D01*
X112330147Y-109915646D01*
X112455646Y-109790147D01*
X112603216Y-109691544D01*
X112767188Y-109623624D01*
X112916488Y-109593927D01*
X112941258Y-109589000D01*
X113118742Y-109589000D01*
X113143512Y-109593927D01*
G37*
G36*
X123303512Y-109593927D02*
G01*
X123452812Y-109623624D01*
X123616784Y-109691544D01*
X123764354Y-109790147D01*
X123889853Y-109915646D01*
X123988456Y-110063216D01*
X124056376Y-110227188D01*
X124091000Y-110401259D01*
X124091000Y-110578741D01*
X124056376Y-110752812D01*
X123988456Y-110916784D01*
X123889853Y-111064354D01*
X123764354Y-111189853D01*
X123616784Y-111288456D01*
X123452812Y-111356376D01*
X123303512Y-111386073D01*
X123278742Y-111391000D01*
X123101258Y-111391000D01*
X123076488Y-111386073D01*
X122927188Y-111356376D01*
X122763216Y-111288456D01*
X122615646Y-111189853D01*
X122490147Y-111064354D01*
X122391544Y-110916784D01*
X122323624Y-110752812D01*
X122289000Y-110578741D01*
X122289000Y-110401259D01*
X122323624Y-110227188D01*
X122391544Y-110063216D01*
X122490147Y-109915646D01*
X122615646Y-109790147D01*
X122763216Y-109691544D01*
X122927188Y-109623624D01*
X123076488Y-109593927D01*
X123101258Y-109589000D01*
X123278742Y-109589000D01*
X123303512Y-109593927D01*
G37*
G36*
X120763512Y-109593927D02*
G01*
X120912812Y-109623624D01*
X121076784Y-109691544D01*
X121224354Y-109790147D01*
X121349853Y-109915646D01*
X121448456Y-110063216D01*
X121516376Y-110227188D01*
X121551000Y-110401259D01*
X121551000Y-110578741D01*
X121516376Y-110752812D01*
X121448456Y-110916784D01*
X121349853Y-111064354D01*
X121224354Y-111189853D01*
X121076784Y-111288456D01*
X120912812Y-111356376D01*
X120763512Y-111386073D01*
X120738742Y-111391000D01*
X120561258Y-111391000D01*
X120536488Y-111386073D01*
X120387188Y-111356376D01*
X120223216Y-111288456D01*
X120075646Y-111189853D01*
X119950147Y-111064354D01*
X119851544Y-110916784D01*
X119783624Y-110752812D01*
X119749000Y-110578741D01*
X119749000Y-110401259D01*
X119783624Y-110227188D01*
X119851544Y-110063216D01*
X119950147Y-109915646D01*
X120075646Y-109790147D01*
X120223216Y-109691544D01*
X120387188Y-109623624D01*
X120536488Y-109593927D01*
X120561258Y-109589000D01*
X120738742Y-109589000D01*
X120763512Y-109593927D01*
G37*
G36*
X118223512Y-109593927D02*
G01*
X118372812Y-109623624D01*
X118536784Y-109691544D01*
X118684354Y-109790147D01*
X118809853Y-109915646D01*
X118908456Y-110063216D01*
X118976376Y-110227188D01*
X119011000Y-110401259D01*
X119011000Y-110578741D01*
X118976376Y-110752812D01*
X118908456Y-110916784D01*
X118809853Y-111064354D01*
X118684354Y-111189853D01*
X118536784Y-111288456D01*
X118372812Y-111356376D01*
X118223512Y-111386073D01*
X118198742Y-111391000D01*
X118021258Y-111391000D01*
X117996488Y-111386073D01*
X117847188Y-111356376D01*
X117683216Y-111288456D01*
X117535646Y-111189853D01*
X117410147Y-111064354D01*
X117311544Y-110916784D01*
X117243624Y-110752812D01*
X117209000Y-110578741D01*
X117209000Y-110401259D01*
X117243624Y-110227188D01*
X117311544Y-110063216D01*
X117410147Y-109915646D01*
X117535646Y-109790147D01*
X117683216Y-109691544D01*
X117847188Y-109623624D01*
X117996488Y-109593927D01*
X118021258Y-109589000D01*
X118198742Y-109589000D01*
X118223512Y-109593927D01*
G37*
G36*
X115683512Y-109593927D02*
G01*
X115832812Y-109623624D01*
X115996784Y-109691544D01*
X116144354Y-109790147D01*
X116269853Y-109915646D01*
X116368456Y-110063216D01*
X116436376Y-110227188D01*
X116471000Y-110401259D01*
X116471000Y-110578741D01*
X116436376Y-110752812D01*
X116368456Y-110916784D01*
X116269853Y-111064354D01*
X116144354Y-111189853D01*
X115996784Y-111288456D01*
X115832812Y-111356376D01*
X115683512Y-111386073D01*
X115658742Y-111391000D01*
X115481258Y-111391000D01*
X115456488Y-111386073D01*
X115307188Y-111356376D01*
X115143216Y-111288456D01*
X114995646Y-111189853D01*
X114870147Y-111064354D01*
X114771544Y-110916784D01*
X114703624Y-110752812D01*
X114669000Y-110578741D01*
X114669000Y-110401259D01*
X114703624Y-110227188D01*
X114771544Y-110063216D01*
X114870147Y-109915646D01*
X114995646Y-109790147D01*
X115143216Y-109691544D01*
X115307188Y-109623624D01*
X115456488Y-109593927D01*
X115481258Y-109589000D01*
X115658742Y-109589000D01*
X115683512Y-109593927D01*
G37*
G36*
X110603512Y-109593927D02*
G01*
X110752812Y-109623624D01*
X110916784Y-109691544D01*
X111064354Y-109790147D01*
X111189853Y-109915646D01*
X111288456Y-110063216D01*
X111356376Y-110227188D01*
X111391000Y-110401259D01*
X111391000Y-110578741D01*
X111356376Y-110752812D01*
X111288456Y-110916784D01*
X111189853Y-111064354D01*
X111064354Y-111189853D01*
X110916784Y-111288456D01*
X110752812Y-111356376D01*
X110603512Y-111386073D01*
X110578742Y-111391000D01*
X110401258Y-111391000D01*
X110376488Y-111386073D01*
X110227188Y-111356376D01*
X110063216Y-111288456D01*
X109915646Y-111189853D01*
X109790147Y-111064354D01*
X109691544Y-110916784D01*
X109623624Y-110752812D01*
X109589000Y-110578741D01*
X109589000Y-110401259D01*
X109623624Y-110227188D01*
X109691544Y-110063216D01*
X109790147Y-109915646D01*
X109915646Y-109790147D01*
X110063216Y-109691544D01*
X110227188Y-109623624D01*
X110376488Y-109593927D01*
X110401258Y-109589000D01*
X110578742Y-109589000D01*
X110603512Y-109593927D01*
G37*
G36*
X57571000Y-108851000D02*
G01*
X55769000Y-108851000D01*
X55769000Y-107049000D01*
X57571000Y-107049000D01*
X57571000Y-108851000D01*
G37*
G36*
X59956000Y-108851000D02*
G01*
X58154000Y-108851000D01*
X58154000Y-107049000D01*
X59956000Y-107049000D01*
X59956000Y-108851000D01*
G37*
G36*
X62496000Y-108851000D02*
G01*
X60694000Y-108851000D01*
X60694000Y-107049000D01*
X62496000Y-107049000D01*
X62496000Y-108851000D01*
G37*
G36*
X83933512Y-100703927D02*
G01*
X84082812Y-100733624D01*
X84246784Y-100801544D01*
X84394354Y-100900147D01*
X84519853Y-101025646D01*
X84618456Y-101173216D01*
X84686376Y-101337188D01*
X84721000Y-101511259D01*
X84721000Y-101688741D01*
X84686376Y-101862812D01*
X84618456Y-102026784D01*
X84519853Y-102174354D01*
X84394354Y-102299853D01*
X84246784Y-102398456D01*
X84082812Y-102466376D01*
X83933512Y-102496073D01*
X83908742Y-102501000D01*
X83731258Y-102501000D01*
X83706488Y-102496073D01*
X83557188Y-102466376D01*
X83393216Y-102398456D01*
X83245646Y-102299853D01*
X83120147Y-102174354D01*
X83021544Y-102026784D01*
X82953624Y-101862812D01*
X82919000Y-101688741D01*
X82919000Y-101511259D01*
X82953624Y-101337188D01*
X83021544Y-101173216D01*
X83120147Y-101025646D01*
X83245646Y-100900147D01*
X83393216Y-100801544D01*
X83557188Y-100733624D01*
X83706488Y-100703927D01*
X83731258Y-100699000D01*
X83908742Y-100699000D01*
X83933512Y-100703927D01*
G37*
G36*
X82181000Y-102501000D02*
G01*
X80379000Y-102501000D01*
X80379000Y-100699000D01*
X82181000Y-100699000D01*
X82181000Y-102501000D01*
G37*
G36*
X78873604Y-100423347D02*
G01*
X78910144Y-100434432D01*
X78943821Y-100452433D01*
X78973341Y-100476659D01*
X78997567Y-100506179D01*
X79015568Y-100539856D01*
X79026653Y-100576396D01*
X79031000Y-100620538D01*
X79031000Y-101569462D01*
X79026653Y-101613604D01*
X79015568Y-101650144D01*
X78997567Y-101683821D01*
X78973341Y-101713341D01*
X78943821Y-101737567D01*
X78910144Y-101755568D01*
X78873604Y-101766653D01*
X78829462Y-101771000D01*
X77380538Y-101771000D01*
X77336396Y-101766653D01*
X77299856Y-101755568D01*
X77266179Y-101737567D01*
X77236659Y-101713341D01*
X77212433Y-101683821D01*
X77194432Y-101650144D01*
X77183347Y-101613604D01*
X77179000Y-101569462D01*
X77179000Y-100620538D01*
X77183347Y-100576396D01*
X77194432Y-100539856D01*
X77212433Y-100506179D01*
X77236659Y-100476659D01*
X77266179Y-100452433D01*
X77299856Y-100434432D01*
X77336396Y-100423347D01*
X77380538Y-100419000D01*
X78829462Y-100419000D01*
X78873604Y-100423347D01*
G37*
G36*
X52183512Y-98163927D02*
G01*
X52332812Y-98193624D01*
X52496784Y-98261544D01*
X52644354Y-98360147D01*
X52769853Y-98485646D01*
X52868456Y-98633216D01*
X52936376Y-98797188D01*
X52961884Y-98925429D01*
X52970949Y-98971000D01*
X52971000Y-98971259D01*
X52971000Y-99148741D01*
X52936376Y-99322812D01*
X52868456Y-99486784D01*
X52769853Y-99634354D01*
X52644354Y-99759853D01*
X52496784Y-99858456D01*
X52332812Y-99926376D01*
X52183512Y-99956073D01*
X52158742Y-99961000D01*
X51981258Y-99961000D01*
X51956488Y-99956073D01*
X51807188Y-99926376D01*
X51643216Y-99858456D01*
X51495646Y-99759853D01*
X51370147Y-99634354D01*
X51271544Y-99486784D01*
X51203624Y-99322812D01*
X51169000Y-99148741D01*
X51169000Y-98971259D01*
X51169052Y-98971000D01*
X51178116Y-98925429D01*
X51203624Y-98797188D01*
X51271544Y-98633216D01*
X51370147Y-98485646D01*
X51495646Y-98360147D01*
X51643216Y-98261544D01*
X51807188Y-98193624D01*
X51956488Y-98163927D01*
X51981258Y-98159000D01*
X52158742Y-98159000D01*
X52183512Y-98163927D01*
G37*
G36*
X102501000Y-99961000D02*
G01*
X100699000Y-99961000D01*
X100699000Y-98159000D01*
X102501000Y-98159000D01*
X102501000Y-99961000D01*
G37*
G36*
X78873604Y-97623347D02*
G01*
X78910144Y-97634432D01*
X78943821Y-97652433D01*
X78973341Y-97676659D01*
X78997567Y-97706179D01*
X79015568Y-97739856D01*
X79026653Y-97776396D01*
X79031000Y-97820538D01*
X79031000Y-98769462D01*
X79026653Y-98813604D01*
X79015568Y-98850144D01*
X78997567Y-98883821D01*
X78973341Y-98913341D01*
X78943821Y-98937567D01*
X78910144Y-98955568D01*
X78873604Y-98966653D01*
X78829462Y-98971000D01*
X77380538Y-98971000D01*
X77336396Y-98966653D01*
X77299856Y-98955568D01*
X77266179Y-98937567D01*
X77236659Y-98913341D01*
X77212433Y-98883821D01*
X77194432Y-98850144D01*
X77183347Y-98813604D01*
X77179000Y-98769462D01*
X77179000Y-97820538D01*
X77183347Y-97776396D01*
X77194432Y-97739856D01*
X77212433Y-97706179D01*
X77236659Y-97676659D01*
X77266179Y-97652433D01*
X77299856Y-97634432D01*
X77336396Y-97623347D01*
X77380538Y-97619000D01*
X78829462Y-97619000D01*
X78873604Y-97623347D01*
G37*
G36*
X84721000Y-98691000D02*
G01*
X82919000Y-98691000D01*
X82919000Y-96889000D01*
X84721000Y-96889000D01*
X84721000Y-98691000D01*
G37*
G36*
X81393512Y-96893927D02*
G01*
X81542812Y-96923624D01*
X81706784Y-96991544D01*
X81854354Y-97090147D01*
X81979853Y-97215646D01*
X82078456Y-97363216D01*
X82146376Y-97527188D01*
X82181000Y-97701259D01*
X82181000Y-97878741D01*
X82146376Y-98052812D01*
X82078456Y-98216784D01*
X81979853Y-98364354D01*
X81854354Y-98489853D01*
X81706784Y-98588456D01*
X81542812Y-98656376D01*
X81393512Y-98686073D01*
X81368742Y-98691000D01*
X81191258Y-98691000D01*
X81166488Y-98686073D01*
X81017188Y-98656376D01*
X80853216Y-98588456D01*
X80705646Y-98489853D01*
X80580147Y-98364354D01*
X80481544Y-98216784D01*
X80413624Y-98052812D01*
X80379000Y-97878741D01*
X80379000Y-97701259D01*
X80413624Y-97527188D01*
X80481544Y-97363216D01*
X80580147Y-97215646D01*
X80705646Y-97090147D01*
X80853216Y-96991544D01*
X81017188Y-96923624D01*
X81166488Y-96893927D01*
X81191258Y-96889000D01*
X81368742Y-96889000D01*
X81393512Y-96893927D01*
G37*
G36*
X52971000Y-97421000D02*
G01*
X51169000Y-97421000D01*
X51169000Y-95619000D01*
X52971000Y-95619000D01*
X52971000Y-97421000D01*
G37*
G36*
X74408512Y-95623927D02*
G01*
X74557812Y-95653624D01*
X74721784Y-95721544D01*
X74869354Y-95820147D01*
X74994853Y-95945646D01*
X75093456Y-96093216D01*
X75161376Y-96257188D01*
X75196000Y-96431259D01*
X75196000Y-96608741D01*
X75161376Y-96782812D01*
X75093456Y-96946784D01*
X74994853Y-97094354D01*
X74869354Y-97219853D01*
X74721784Y-97318456D01*
X74557812Y-97386376D01*
X74408512Y-97416073D01*
X74383742Y-97421000D01*
X74206258Y-97421000D01*
X74181488Y-97416073D01*
X74032188Y-97386376D01*
X73868216Y-97318456D01*
X73720646Y-97219853D01*
X73595147Y-97094354D01*
X73496544Y-96946784D01*
X73428624Y-96782812D01*
X73394000Y-96608741D01*
X73394000Y-96431259D01*
X73428624Y-96257188D01*
X73496544Y-96093216D01*
X73595147Y-95945646D01*
X73720646Y-95820147D01*
X73868216Y-95721544D01*
X74032188Y-95653624D01*
X74181488Y-95623927D01*
X74206258Y-95619000D01*
X74383742Y-95619000D01*
X74408512Y-95623927D01*
G37*
G36*
X101713512Y-95623927D02*
G01*
X101862812Y-95653624D01*
X102026784Y-95721544D01*
X102174354Y-95820147D01*
X102299853Y-95945646D01*
X102398456Y-96093216D01*
X102466376Y-96257188D01*
X102501000Y-96431259D01*
X102501000Y-96608741D01*
X102466376Y-96782812D01*
X102398456Y-96946784D01*
X102299853Y-97094354D01*
X102174354Y-97219853D01*
X102026784Y-97318456D01*
X101862812Y-97386376D01*
X101713512Y-97416073D01*
X101688742Y-97421000D01*
X101511258Y-97421000D01*
X101486488Y-97416073D01*
X101337188Y-97386376D01*
X101173216Y-97318456D01*
X101025646Y-97219853D01*
X100900147Y-97094354D01*
X100801544Y-96946784D01*
X100733624Y-96782812D01*
X100699000Y-96608741D01*
X100699000Y-96431259D01*
X100733624Y-96257188D01*
X100801544Y-96093216D01*
X100900147Y-95945646D01*
X101025646Y-95820147D01*
X101173216Y-95721544D01*
X101337188Y-95653624D01*
X101486488Y-95623927D01*
X101511258Y-95619000D01*
X101688742Y-95619000D01*
X101713512Y-95623927D01*
G37*
G36*
X123938512Y-95623927D02*
G01*
X124087812Y-95653624D01*
X124251784Y-95721544D01*
X124399354Y-95820147D01*
X124524853Y-95945646D01*
X124623456Y-96093216D01*
X124691376Y-96257188D01*
X124726000Y-96431259D01*
X124726000Y-96608741D01*
X124691376Y-96782812D01*
X124623456Y-96946784D01*
X124524853Y-97094354D01*
X124399354Y-97219853D01*
X124251784Y-97318456D01*
X124087812Y-97386376D01*
X123938512Y-97416073D01*
X123913742Y-97421000D01*
X123736258Y-97421000D01*
X123711488Y-97416073D01*
X123562188Y-97386376D01*
X123398216Y-97318456D01*
X123250646Y-97219853D01*
X123125147Y-97094354D01*
X123026544Y-96946784D01*
X122958624Y-96782812D01*
X122924000Y-96608741D01*
X122924000Y-96431259D01*
X122958624Y-96257188D01*
X123026544Y-96093216D01*
X123125147Y-95945646D01*
X123250646Y-95820147D01*
X123398216Y-95721544D01*
X123562188Y-95653624D01*
X123711488Y-95623927D01*
X123736258Y-95619000D01*
X123913742Y-95619000D01*
X123938512Y-95623927D01*
G37*
G36*
X71971000Y-97371000D02*
G01*
X70269000Y-97371000D01*
X70269000Y-95669000D01*
X71971000Y-95669000D01*
X71971000Y-97371000D01*
G37*
G36*
X105658228Y-95701703D02*
G01*
X105813100Y-95765853D01*
X105952481Y-95858985D01*
X106071015Y-95977519D01*
X106164147Y-96116900D01*
X106228297Y-96271772D01*
X106261000Y-96436184D01*
X106261000Y-96603816D01*
X106228297Y-96768228D01*
X106164147Y-96923100D01*
X106071015Y-97062481D01*
X105952481Y-97181015D01*
X105813100Y-97274147D01*
X105658228Y-97338297D01*
X105493816Y-97371000D01*
X105326184Y-97371000D01*
X105161772Y-97338297D01*
X105006900Y-97274147D01*
X104867519Y-97181015D01*
X104748985Y-97062481D01*
X104655853Y-96923100D01*
X104591703Y-96768228D01*
X104559000Y-96603816D01*
X104559000Y-96436184D01*
X104591703Y-96271772D01*
X104655853Y-96116900D01*
X104748985Y-95977519D01*
X104867519Y-95858985D01*
X105006900Y-95765853D01*
X105161772Y-95701703D01*
X105326184Y-95669000D01*
X105493816Y-95669000D01*
X105658228Y-95701703D01*
G37*
G36*
X56128228Y-95701703D02*
G01*
X56283100Y-95765853D01*
X56422481Y-95858985D01*
X56541015Y-95977519D01*
X56634147Y-96116900D01*
X56698297Y-96271772D01*
X56731000Y-96436184D01*
X56731000Y-96603816D01*
X56698297Y-96768228D01*
X56634147Y-96923100D01*
X56541015Y-97062481D01*
X56422481Y-97181015D01*
X56283100Y-97274147D01*
X56128228Y-97338297D01*
X55963816Y-97371000D01*
X55796184Y-97371000D01*
X55631772Y-97338297D01*
X55476900Y-97274147D01*
X55337519Y-97181015D01*
X55218985Y-97062481D01*
X55125853Y-96923100D01*
X55061703Y-96768228D01*
X55029000Y-96603816D01*
X55029000Y-96436184D01*
X55061703Y-96271772D01*
X55125853Y-96116900D01*
X55218985Y-95977519D01*
X55337519Y-95858985D01*
X55476900Y-95765853D01*
X55631772Y-95701703D01*
X55796184Y-95669000D01*
X55963816Y-95669000D01*
X56128228Y-95701703D01*
G37*
G36*
X121501000Y-97371000D02*
G01*
X119799000Y-97371000D01*
X119799000Y-95669000D01*
X121501000Y-95669000D01*
X121501000Y-97371000D01*
G37*
G36*
X124726000Y-94881000D02*
G01*
X122924000Y-94881000D01*
X122924000Y-93079000D01*
X124726000Y-93079000D01*
X124726000Y-94881000D01*
G37*
G36*
X75196000Y-94881000D02*
G01*
X73394000Y-94881000D01*
X73394000Y-93079000D01*
X75196000Y-93079000D01*
X75196000Y-94881000D01*
G37*
G36*
X56128228Y-93161703D02*
G01*
X56283100Y-93225853D01*
X56422481Y-93318985D01*
X56541015Y-93437519D01*
X56634147Y-93576900D01*
X56698297Y-93731772D01*
X56731000Y-93896184D01*
X56731000Y-94063816D01*
X56698297Y-94228228D01*
X56634147Y-94383100D01*
X56541015Y-94522481D01*
X56422481Y-94641015D01*
X56283100Y-94734147D01*
X56128228Y-94798297D01*
X55963816Y-94831000D01*
X55796184Y-94831000D01*
X55631772Y-94798297D01*
X55476900Y-94734147D01*
X55337519Y-94641015D01*
X55218985Y-94522481D01*
X55125853Y-94383100D01*
X55061703Y-94228228D01*
X55029000Y-94063816D01*
X55029000Y-93896184D01*
X55061703Y-93731772D01*
X55125853Y-93576900D01*
X55218985Y-93437519D01*
X55337519Y-93318985D01*
X55476900Y-93225853D01*
X55631772Y-93161703D01*
X55796184Y-93129000D01*
X55963816Y-93129000D01*
X56128228Y-93161703D01*
G37*
G36*
X120898228Y-93161703D02*
G01*
X121053100Y-93225853D01*
X121192481Y-93318985D01*
X121311015Y-93437519D01*
X121404147Y-93576900D01*
X121468297Y-93731772D01*
X121501000Y-93896184D01*
X121501000Y-94063816D01*
X121468297Y-94228228D01*
X121404147Y-94383100D01*
X121311015Y-94522481D01*
X121192481Y-94641015D01*
X121053100Y-94734147D01*
X120898228Y-94798297D01*
X120733816Y-94831000D01*
X120566184Y-94831000D01*
X120401772Y-94798297D01*
X120246900Y-94734147D01*
X120107519Y-94641015D01*
X119988985Y-94522481D01*
X119895853Y-94383100D01*
X119831703Y-94228228D01*
X119799000Y-94063816D01*
X119799000Y-93896184D01*
X119831703Y-93731772D01*
X119895853Y-93576900D01*
X119988985Y-93437519D01*
X120107519Y-93318985D01*
X120246900Y-93225853D01*
X120401772Y-93161703D01*
X120566184Y-93129000D01*
X120733816Y-93129000D01*
X120898228Y-93161703D01*
G37*
G36*
X71368228Y-93161703D02*
G01*
X71523100Y-93225853D01*
X71662481Y-93318985D01*
X71781015Y-93437519D01*
X71874147Y-93576900D01*
X71938297Y-93731772D01*
X71971000Y-93896184D01*
X71971000Y-94063816D01*
X71938297Y-94228228D01*
X71874147Y-94383100D01*
X71781015Y-94522481D01*
X71662481Y-94641015D01*
X71523100Y-94734147D01*
X71368228Y-94798297D01*
X71203816Y-94831000D01*
X71036184Y-94831000D01*
X70871772Y-94798297D01*
X70716900Y-94734147D01*
X70577519Y-94641015D01*
X70458985Y-94522481D01*
X70365853Y-94383100D01*
X70301703Y-94228228D01*
X70269000Y-94063816D01*
X70269000Y-93896184D01*
X70301703Y-93731772D01*
X70365853Y-93576900D01*
X70458985Y-93437519D01*
X70577519Y-93318985D01*
X70716900Y-93225853D01*
X70871772Y-93161703D01*
X71036184Y-93129000D01*
X71203816Y-93129000D01*
X71368228Y-93161703D01*
G37*
G36*
X105658228Y-93161703D02*
G01*
X105813100Y-93225853D01*
X105952481Y-93318985D01*
X106071015Y-93437519D01*
X106164147Y-93576900D01*
X106228297Y-93731772D01*
X106261000Y-93896184D01*
X106261000Y-94063816D01*
X106228297Y-94228228D01*
X106164147Y-94383100D01*
X106071015Y-94522481D01*
X105952481Y-94641015D01*
X105813100Y-94734147D01*
X105658228Y-94798297D01*
X105493816Y-94831000D01*
X105326184Y-94831000D01*
X105161772Y-94798297D01*
X105006900Y-94734147D01*
X104867519Y-94641015D01*
X104748985Y-94522481D01*
X104655853Y-94383100D01*
X104591703Y-94228228D01*
X104559000Y-94063816D01*
X104559000Y-93896184D01*
X104591703Y-93731772D01*
X104655853Y-93576900D01*
X104748985Y-93437519D01*
X104867519Y-93318985D01*
X105006900Y-93225853D01*
X105161772Y-93161703D01*
X105326184Y-93129000D01*
X105493816Y-93129000D01*
X105658228Y-93161703D01*
G37*
G36*
X127901000Y-92341000D02*
G01*
X126099000Y-92341000D01*
X126099000Y-90539000D01*
X127901000Y-90539000D01*
X127901000Y-92341000D01*
G37*
G36*
X49643512Y-90543927D02*
G01*
X49792812Y-90573624D01*
X49956784Y-90641544D01*
X50104354Y-90740147D01*
X50229853Y-90865646D01*
X50328456Y-91013216D01*
X50396376Y-91177188D01*
X50431000Y-91351259D01*
X50431000Y-91528741D01*
X50396376Y-91702812D01*
X50328456Y-91866784D01*
X50229853Y-92014354D01*
X50104354Y-92139853D01*
X49956784Y-92238456D01*
X49792812Y-92306376D01*
X49643512Y-92336073D01*
X49618742Y-92341000D01*
X49441258Y-92341000D01*
X49416488Y-92336073D01*
X49267188Y-92306376D01*
X49103216Y-92238456D01*
X48955646Y-92139853D01*
X48830147Y-92014354D01*
X48731544Y-91866784D01*
X48663624Y-91702812D01*
X48629000Y-91528741D01*
X48629000Y-91351259D01*
X48663624Y-91177188D01*
X48731544Y-91013216D01*
X48830147Y-90865646D01*
X48955646Y-90740147D01*
X49103216Y-90641544D01*
X49267188Y-90573624D01*
X49416488Y-90543927D01*
X49441258Y-90539000D01*
X49618742Y-90539000D01*
X49643512Y-90543927D01*
G37*
G36*
X71368228Y-90621703D02*
G01*
X71523100Y-90685853D01*
X71662481Y-90778985D01*
X71781015Y-90897519D01*
X71874147Y-91036900D01*
X71938297Y-91191772D01*
X71971000Y-91356184D01*
X71971000Y-91523816D01*
X71938297Y-91688228D01*
X71874147Y-91843100D01*
X71781015Y-91982481D01*
X71662481Y-92101015D01*
X71523100Y-92194147D01*
X71368228Y-92258297D01*
X71203816Y-92291000D01*
X71036184Y-92291000D01*
X70871772Y-92258297D01*
X70716900Y-92194147D01*
X70577519Y-92101015D01*
X70458985Y-91982481D01*
X70365853Y-91843100D01*
X70301703Y-91688228D01*
X70269000Y-91523816D01*
X70269000Y-91356184D01*
X70301703Y-91191772D01*
X70365853Y-91036900D01*
X70458985Y-90897519D01*
X70577519Y-90778985D01*
X70716900Y-90685853D01*
X70871772Y-90621703D01*
X71036184Y-90589000D01*
X71203816Y-90589000D01*
X71368228Y-90621703D01*
G37*
G36*
X105658228Y-90621703D02*
G01*
X105813100Y-90685853D01*
X105952481Y-90778985D01*
X106071015Y-90897519D01*
X106164147Y-91036900D01*
X106228297Y-91191772D01*
X106261000Y-91356184D01*
X106261000Y-91523816D01*
X106228297Y-91688228D01*
X106164147Y-91843100D01*
X106071015Y-91982481D01*
X105952481Y-92101015D01*
X105813100Y-92194147D01*
X105658228Y-92258297D01*
X105493816Y-92291000D01*
X105326184Y-92291000D01*
X105161772Y-92258297D01*
X105006900Y-92194147D01*
X104867519Y-92101015D01*
X104748985Y-91982481D01*
X104655853Y-91843100D01*
X104591703Y-91688228D01*
X104559000Y-91523816D01*
X104559000Y-91356184D01*
X104591703Y-91191772D01*
X104655853Y-91036900D01*
X104748985Y-90897519D01*
X104867519Y-90778985D01*
X105006900Y-90685853D01*
X105161772Y-90621703D01*
X105326184Y-90589000D01*
X105493816Y-90589000D01*
X105658228Y-90621703D01*
G37*
G36*
X56128228Y-90621703D02*
G01*
X56283100Y-90685853D01*
X56422481Y-90778985D01*
X56541015Y-90897519D01*
X56634147Y-91036900D01*
X56698297Y-91191772D01*
X56731000Y-91356184D01*
X56731000Y-91523816D01*
X56698297Y-91688228D01*
X56634147Y-91843100D01*
X56541015Y-91982481D01*
X56422481Y-92101015D01*
X56283100Y-92194147D01*
X56128228Y-92258297D01*
X55963816Y-92291000D01*
X55796184Y-92291000D01*
X55631772Y-92258297D01*
X55476900Y-92194147D01*
X55337519Y-92101015D01*
X55218985Y-91982481D01*
X55125853Y-91843100D01*
X55061703Y-91688228D01*
X55029000Y-91523816D01*
X55029000Y-91356184D01*
X55061703Y-91191772D01*
X55125853Y-91036900D01*
X55218985Y-90897519D01*
X55337519Y-90778985D01*
X55476900Y-90685853D01*
X55631772Y-90621703D01*
X55796184Y-90589000D01*
X55963816Y-90589000D01*
X56128228Y-90621703D01*
G37*
G36*
X120898228Y-90621703D02*
G01*
X121053100Y-90685853D01*
X121192481Y-90778985D01*
X121311015Y-90897519D01*
X121404147Y-91036900D01*
X121468297Y-91191772D01*
X121501000Y-91356184D01*
X121501000Y-91523816D01*
X121468297Y-91688228D01*
X121404147Y-91843100D01*
X121311015Y-91982481D01*
X121192481Y-92101015D01*
X121053100Y-92194147D01*
X120898228Y-92258297D01*
X120733816Y-92291000D01*
X120566184Y-92291000D01*
X120401772Y-92258297D01*
X120246900Y-92194147D01*
X120107519Y-92101015D01*
X119988985Y-91982481D01*
X119895853Y-91843100D01*
X119831703Y-91688228D01*
X119799000Y-91523816D01*
X119799000Y-91356184D01*
X119831703Y-91191772D01*
X119895853Y-91036900D01*
X119988985Y-90897519D01*
X120107519Y-90778985D01*
X120246900Y-90685853D01*
X120401772Y-90621703D01*
X120566184Y-90589000D01*
X120733816Y-90589000D01*
X120898228Y-90621703D01*
G37*
G36*
X127113512Y-88003927D02*
G01*
X127262812Y-88033624D01*
X127426784Y-88101544D01*
X127574354Y-88200147D01*
X127699853Y-88325646D01*
X127798456Y-88473216D01*
X127866376Y-88637188D01*
X127901000Y-88811259D01*
X127901000Y-88988741D01*
X127866376Y-89162812D01*
X127798456Y-89326784D01*
X127699853Y-89474354D01*
X127574354Y-89599853D01*
X127426784Y-89698456D01*
X127262812Y-89766376D01*
X127113512Y-89796073D01*
X127088742Y-89801000D01*
X126911258Y-89801000D01*
X126886488Y-89796073D01*
X126737188Y-89766376D01*
X126573216Y-89698456D01*
X126425646Y-89599853D01*
X126300147Y-89474354D01*
X126201544Y-89326784D01*
X126133624Y-89162812D01*
X126099000Y-88988741D01*
X126099000Y-88811259D01*
X126133624Y-88637188D01*
X126201544Y-88473216D01*
X126300147Y-88325646D01*
X126425646Y-88200147D01*
X126573216Y-88101544D01*
X126737188Y-88033624D01*
X126886488Y-88003927D01*
X126911258Y-87999000D01*
X127088742Y-87999000D01*
X127113512Y-88003927D01*
G37*
G36*
X49643512Y-88003927D02*
G01*
X49792812Y-88033624D01*
X49956784Y-88101544D01*
X50104354Y-88200147D01*
X50229853Y-88325646D01*
X50328456Y-88473216D01*
X50396376Y-88637188D01*
X50431000Y-88811259D01*
X50431000Y-88988741D01*
X50396376Y-89162812D01*
X50328456Y-89326784D01*
X50229853Y-89474354D01*
X50104354Y-89599853D01*
X49956784Y-89698456D01*
X49792812Y-89766376D01*
X49643512Y-89796073D01*
X49618742Y-89801000D01*
X49441258Y-89801000D01*
X49416488Y-89796073D01*
X49267188Y-89766376D01*
X49103216Y-89698456D01*
X48955646Y-89599853D01*
X48830147Y-89474354D01*
X48731544Y-89326784D01*
X48663624Y-89162812D01*
X48629000Y-88988741D01*
X48629000Y-88811259D01*
X48663624Y-88637188D01*
X48731544Y-88473216D01*
X48830147Y-88325646D01*
X48955646Y-88200147D01*
X49103216Y-88101544D01*
X49267188Y-88033624D01*
X49416488Y-88003927D01*
X49441258Y-87999000D01*
X49618742Y-87999000D01*
X49643512Y-88003927D01*
G37*
G36*
X64248512Y-88003927D02*
G01*
X64397812Y-88033624D01*
X64561784Y-88101544D01*
X64709354Y-88200147D01*
X64834853Y-88325646D01*
X64933456Y-88473216D01*
X65001376Y-88637188D01*
X65036000Y-88811259D01*
X65036000Y-88988741D01*
X65001376Y-89162812D01*
X64933456Y-89326784D01*
X64834853Y-89474354D01*
X64709354Y-89599853D01*
X64561784Y-89698456D01*
X64397812Y-89766376D01*
X64248512Y-89796073D01*
X64223742Y-89801000D01*
X64046258Y-89801000D01*
X64021488Y-89796073D01*
X63872188Y-89766376D01*
X63708216Y-89698456D01*
X63560646Y-89599853D01*
X63435147Y-89474354D01*
X63336544Y-89326784D01*
X63268624Y-89162812D01*
X63234000Y-88988741D01*
X63234000Y-88811259D01*
X63268624Y-88637188D01*
X63336544Y-88473216D01*
X63435147Y-88325646D01*
X63560646Y-88200147D01*
X63708216Y-88101544D01*
X63872188Y-88033624D01*
X64021488Y-88003927D01*
X64046258Y-87999000D01*
X64223742Y-87999000D01*
X64248512Y-88003927D01*
G37*
G36*
X120898228Y-88081703D02*
G01*
X121053100Y-88145853D01*
X121192481Y-88238985D01*
X121311015Y-88357519D01*
X121404147Y-88496900D01*
X121468297Y-88651772D01*
X121501000Y-88816184D01*
X121501000Y-88983816D01*
X121468297Y-89148228D01*
X121404147Y-89303100D01*
X121311015Y-89442481D01*
X121192481Y-89561015D01*
X121053100Y-89654147D01*
X120898228Y-89718297D01*
X120733816Y-89751000D01*
X120566184Y-89751000D01*
X120401772Y-89718297D01*
X120246900Y-89654147D01*
X120107519Y-89561015D01*
X119988985Y-89442481D01*
X119895853Y-89303100D01*
X119831703Y-89148228D01*
X119799000Y-88983816D01*
X119799000Y-88816184D01*
X119831703Y-88651772D01*
X119895853Y-88496900D01*
X119988985Y-88357519D01*
X120107519Y-88238985D01*
X120246900Y-88145853D01*
X120401772Y-88081703D01*
X120566184Y-88049000D01*
X120733816Y-88049000D01*
X120898228Y-88081703D01*
G37*
G36*
X105658228Y-88081703D02*
G01*
X105813100Y-88145853D01*
X105952481Y-88238985D01*
X106071015Y-88357519D01*
X106164147Y-88496900D01*
X106228297Y-88651772D01*
X106261000Y-88816184D01*
X106261000Y-88983816D01*
X106228297Y-89148228D01*
X106164147Y-89303100D01*
X106071015Y-89442481D01*
X105952481Y-89561015D01*
X105813100Y-89654147D01*
X105658228Y-89718297D01*
X105493816Y-89751000D01*
X105326184Y-89751000D01*
X105161772Y-89718297D01*
X105006900Y-89654147D01*
X104867519Y-89561015D01*
X104748985Y-89442481D01*
X104655853Y-89303100D01*
X104591703Y-89148228D01*
X104559000Y-88983816D01*
X104559000Y-88816184D01*
X104591703Y-88651772D01*
X104655853Y-88496900D01*
X104748985Y-88357519D01*
X104867519Y-88238985D01*
X105006900Y-88145853D01*
X105161772Y-88081703D01*
X105326184Y-88049000D01*
X105493816Y-88049000D01*
X105658228Y-88081703D01*
G37*
G36*
X71368228Y-88081703D02*
G01*
X71523100Y-88145853D01*
X71662481Y-88238985D01*
X71781015Y-88357519D01*
X71874147Y-88496900D01*
X71938297Y-88651772D01*
X71971000Y-88816184D01*
X71971000Y-88983816D01*
X71938297Y-89148228D01*
X71874147Y-89303100D01*
X71781015Y-89442481D01*
X71662481Y-89561015D01*
X71523100Y-89654147D01*
X71368228Y-89718297D01*
X71203816Y-89751000D01*
X71036184Y-89751000D01*
X70871772Y-89718297D01*
X70716900Y-89654147D01*
X70577519Y-89561015D01*
X70458985Y-89442481D01*
X70365853Y-89303100D01*
X70301703Y-89148228D01*
X70269000Y-88983816D01*
X70269000Y-88816184D01*
X70301703Y-88651772D01*
X70365853Y-88496900D01*
X70458985Y-88357519D01*
X70577519Y-88238985D01*
X70716900Y-88145853D01*
X70871772Y-88081703D01*
X71036184Y-88049000D01*
X71203816Y-88049000D01*
X71368228Y-88081703D01*
G37*
G36*
X56128228Y-88081703D02*
G01*
X56283100Y-88145853D01*
X56422481Y-88238985D01*
X56541015Y-88357519D01*
X56634147Y-88496900D01*
X56698297Y-88651772D01*
X56731000Y-88816184D01*
X56731000Y-88983816D01*
X56698297Y-89148228D01*
X56634147Y-89303100D01*
X56541015Y-89442481D01*
X56422481Y-89561015D01*
X56283100Y-89654147D01*
X56128228Y-89718297D01*
X55963816Y-89751000D01*
X55796184Y-89751000D01*
X55631772Y-89718297D01*
X55476900Y-89654147D01*
X55337519Y-89561015D01*
X55218985Y-89442481D01*
X55125853Y-89303100D01*
X55061703Y-89148228D01*
X55029000Y-88983816D01*
X55029000Y-88816184D01*
X55061703Y-88651772D01*
X55125853Y-88496900D01*
X55218985Y-88357519D01*
X55337519Y-88238985D01*
X55476900Y-88145853D01*
X55631772Y-88081703D01*
X55796184Y-88049000D01*
X55963816Y-88049000D01*
X56128228Y-88081703D01*
G37*
G36*
X127113512Y-85463927D02*
G01*
X127262812Y-85493624D01*
X127426784Y-85561544D01*
X127574354Y-85660147D01*
X127699853Y-85785646D01*
X127798456Y-85933216D01*
X127866376Y-86097188D01*
X127901000Y-86271259D01*
X127901000Y-86448741D01*
X127866376Y-86622812D01*
X127798456Y-86786784D01*
X127699853Y-86934354D01*
X127574354Y-87059853D01*
X127426784Y-87158456D01*
X127262812Y-87226376D01*
X127113512Y-87256073D01*
X127088742Y-87261000D01*
X126911258Y-87261000D01*
X126886488Y-87256073D01*
X126737188Y-87226376D01*
X126573216Y-87158456D01*
X126425646Y-87059853D01*
X126300147Y-86934354D01*
X126201544Y-86786784D01*
X126133624Y-86622812D01*
X126099000Y-86448741D01*
X126099000Y-86271259D01*
X126133624Y-86097188D01*
X126201544Y-85933216D01*
X126300147Y-85785646D01*
X126425646Y-85660147D01*
X126573216Y-85561544D01*
X126737188Y-85493624D01*
X126886488Y-85463927D01*
X126911258Y-85459000D01*
X127088742Y-85459000D01*
X127113512Y-85463927D01*
G37*
G36*
X49643512Y-85463927D02*
G01*
X49792812Y-85493624D01*
X49956784Y-85561544D01*
X50104354Y-85660147D01*
X50229853Y-85785646D01*
X50328456Y-85933216D01*
X50396376Y-86097188D01*
X50431000Y-86271259D01*
X50431000Y-86448741D01*
X50396376Y-86622812D01*
X50328456Y-86786784D01*
X50229853Y-86934354D01*
X50104354Y-87059853D01*
X49956784Y-87158456D01*
X49792812Y-87226376D01*
X49643512Y-87256073D01*
X49618742Y-87261000D01*
X49441258Y-87261000D01*
X49416488Y-87256073D01*
X49267188Y-87226376D01*
X49103216Y-87158456D01*
X48955646Y-87059853D01*
X48830147Y-86934354D01*
X48731544Y-86786784D01*
X48663624Y-86622812D01*
X48629000Y-86448741D01*
X48629000Y-86271259D01*
X48663624Y-86097188D01*
X48731544Y-85933216D01*
X48830147Y-85785646D01*
X48955646Y-85660147D01*
X49103216Y-85561544D01*
X49267188Y-85493624D01*
X49416488Y-85463927D01*
X49441258Y-85459000D01*
X49618742Y-85459000D01*
X49643512Y-85463927D01*
G37*
G36*
X64248512Y-85463927D02*
G01*
X64397812Y-85493624D01*
X64561784Y-85561544D01*
X64709354Y-85660147D01*
X64834853Y-85785646D01*
X64933456Y-85933216D01*
X65001376Y-86097188D01*
X65036000Y-86271259D01*
X65036000Y-86448741D01*
X65001376Y-86622812D01*
X64933456Y-86786784D01*
X64834853Y-86934354D01*
X64709354Y-87059853D01*
X64561784Y-87158456D01*
X64397812Y-87226376D01*
X64248512Y-87256073D01*
X64223742Y-87261000D01*
X64046258Y-87261000D01*
X64021488Y-87256073D01*
X63872188Y-87226376D01*
X63708216Y-87158456D01*
X63560646Y-87059853D01*
X63435147Y-86934354D01*
X63336544Y-86786784D01*
X63268624Y-86622812D01*
X63234000Y-86448741D01*
X63234000Y-86271259D01*
X63268624Y-86097188D01*
X63336544Y-85933216D01*
X63435147Y-85785646D01*
X63560646Y-85660147D01*
X63708216Y-85561544D01*
X63872188Y-85493624D01*
X64021488Y-85463927D01*
X64046258Y-85459000D01*
X64223742Y-85459000D01*
X64248512Y-85463927D01*
G37*
G36*
X71368228Y-85541703D02*
G01*
X71523100Y-85605853D01*
X71662481Y-85698985D01*
X71781015Y-85817519D01*
X71874147Y-85956900D01*
X71938297Y-86111772D01*
X71971000Y-86276184D01*
X71971000Y-86443816D01*
X71938297Y-86608228D01*
X71874147Y-86763100D01*
X71781015Y-86902481D01*
X71662481Y-87021015D01*
X71523100Y-87114147D01*
X71368228Y-87178297D01*
X71203816Y-87211000D01*
X71036184Y-87211000D01*
X70871772Y-87178297D01*
X70716900Y-87114147D01*
X70577519Y-87021015D01*
X70458985Y-86902481D01*
X70365853Y-86763100D01*
X70301703Y-86608228D01*
X70269000Y-86443816D01*
X70269000Y-86276184D01*
X70301703Y-86111772D01*
X70365853Y-85956900D01*
X70458985Y-85817519D01*
X70577519Y-85698985D01*
X70716900Y-85605853D01*
X70871772Y-85541703D01*
X71036184Y-85509000D01*
X71203816Y-85509000D01*
X71368228Y-85541703D01*
G37*
G36*
X105658228Y-85541703D02*
G01*
X105813100Y-85605853D01*
X105952481Y-85698985D01*
X106071015Y-85817519D01*
X106164147Y-85956900D01*
X106228297Y-86111772D01*
X106261000Y-86276184D01*
X106261000Y-86443816D01*
X106228297Y-86608228D01*
X106164147Y-86763100D01*
X106071015Y-86902481D01*
X105952481Y-87021015D01*
X105813100Y-87114147D01*
X105658228Y-87178297D01*
X105493816Y-87211000D01*
X105326184Y-87211000D01*
X105161772Y-87178297D01*
X105006900Y-87114147D01*
X104867519Y-87021015D01*
X104748985Y-86902481D01*
X104655853Y-86763100D01*
X104591703Y-86608228D01*
X104559000Y-86443816D01*
X104559000Y-86276184D01*
X104591703Y-86111772D01*
X104655853Y-85956900D01*
X104748985Y-85817519D01*
X104867519Y-85698985D01*
X105006900Y-85605853D01*
X105161772Y-85541703D01*
X105326184Y-85509000D01*
X105493816Y-85509000D01*
X105658228Y-85541703D01*
G37*
G36*
X120898228Y-85541703D02*
G01*
X121053100Y-85605853D01*
X121192481Y-85698985D01*
X121311015Y-85817519D01*
X121404147Y-85956900D01*
X121468297Y-86111772D01*
X121501000Y-86276184D01*
X121501000Y-86443816D01*
X121468297Y-86608228D01*
X121404147Y-86763100D01*
X121311015Y-86902481D01*
X121192481Y-87021015D01*
X121053100Y-87114147D01*
X120898228Y-87178297D01*
X120733816Y-87211000D01*
X120566184Y-87211000D01*
X120401772Y-87178297D01*
X120246900Y-87114147D01*
X120107519Y-87021015D01*
X119988985Y-86902481D01*
X119895853Y-86763100D01*
X119831703Y-86608228D01*
X119799000Y-86443816D01*
X119799000Y-86276184D01*
X119831703Y-86111772D01*
X119895853Y-85956900D01*
X119988985Y-85817519D01*
X120107519Y-85698985D01*
X120246900Y-85605853D01*
X120401772Y-85541703D01*
X120566184Y-85509000D01*
X120733816Y-85509000D01*
X120898228Y-85541703D01*
G37*
G36*
X56128228Y-85541703D02*
G01*
X56283100Y-85605853D01*
X56422481Y-85698985D01*
X56541015Y-85817519D01*
X56634147Y-85956900D01*
X56698297Y-86111772D01*
X56731000Y-86276184D01*
X56731000Y-86443816D01*
X56698297Y-86608228D01*
X56634147Y-86763100D01*
X56541015Y-86902481D01*
X56422481Y-87021015D01*
X56283100Y-87114147D01*
X56128228Y-87178297D01*
X55963816Y-87211000D01*
X55796184Y-87211000D01*
X55631772Y-87178297D01*
X55476900Y-87114147D01*
X55337519Y-87021015D01*
X55218985Y-86902481D01*
X55125853Y-86763100D01*
X55061703Y-86608228D01*
X55029000Y-86443816D01*
X55029000Y-86276184D01*
X55061703Y-86111772D01*
X55125853Y-85956900D01*
X55218985Y-85817519D01*
X55337519Y-85698985D01*
X55476900Y-85605853D01*
X55631772Y-85541703D01*
X55796184Y-85509000D01*
X55963816Y-85509000D01*
X56128228Y-85541703D01*
G37*
G36*
X50431000Y-84721000D02*
G01*
X48629000Y-84721000D01*
X48629000Y-82919000D01*
X50431000Y-82919000D01*
X50431000Y-84721000D01*
G37*
G36*
X127113512Y-82923927D02*
G01*
X127262812Y-82953624D01*
X127426784Y-83021544D01*
X127574354Y-83120147D01*
X127699853Y-83245646D01*
X127798456Y-83393216D01*
X127866376Y-83557188D01*
X127901000Y-83731259D01*
X127901000Y-83908741D01*
X127866376Y-84082812D01*
X127798456Y-84246784D01*
X127699853Y-84394354D01*
X127574354Y-84519853D01*
X127426784Y-84618456D01*
X127262812Y-84686376D01*
X127113512Y-84716073D01*
X127088742Y-84721000D01*
X126911258Y-84721000D01*
X126886488Y-84716073D01*
X126737188Y-84686376D01*
X126573216Y-84618456D01*
X126425646Y-84519853D01*
X126300147Y-84394354D01*
X126201544Y-84246784D01*
X126133624Y-84082812D01*
X126099000Y-83908741D01*
X126099000Y-83731259D01*
X126133624Y-83557188D01*
X126201544Y-83393216D01*
X126300147Y-83245646D01*
X126425646Y-83120147D01*
X126573216Y-83021544D01*
X126737188Y-82953624D01*
X126886488Y-82923927D01*
X126911258Y-82919000D01*
X127088742Y-82919000D01*
X127113512Y-82923927D01*
G37*
G36*
X65036000Y-84721000D02*
G01*
X63234000Y-84721000D01*
X63234000Y-82919000D01*
X65036000Y-82919000D01*
X65036000Y-84721000D01*
G37*
G36*
X71368228Y-83001703D02*
G01*
X71523100Y-83065853D01*
X71662481Y-83158985D01*
X71781015Y-83277519D01*
X71874147Y-83416900D01*
X71938297Y-83571772D01*
X71971000Y-83736184D01*
X71971000Y-83903816D01*
X71938297Y-84068228D01*
X71874147Y-84223100D01*
X71781015Y-84362481D01*
X71662481Y-84481015D01*
X71523100Y-84574147D01*
X71368228Y-84638297D01*
X71203816Y-84671000D01*
X71036184Y-84671000D01*
X70871772Y-84638297D01*
X70716900Y-84574147D01*
X70577519Y-84481015D01*
X70458985Y-84362481D01*
X70365853Y-84223100D01*
X70301703Y-84068228D01*
X70269000Y-83903816D01*
X70269000Y-83736184D01*
X70301703Y-83571772D01*
X70365853Y-83416900D01*
X70458985Y-83277519D01*
X70577519Y-83158985D01*
X70716900Y-83065853D01*
X70871772Y-83001703D01*
X71036184Y-82969000D01*
X71203816Y-82969000D01*
X71368228Y-83001703D01*
G37*
G36*
X120898228Y-83001703D02*
G01*
X121053100Y-83065853D01*
X121192481Y-83158985D01*
X121311015Y-83277519D01*
X121404147Y-83416900D01*
X121468297Y-83571772D01*
X121501000Y-83736184D01*
X121501000Y-83903816D01*
X121468297Y-84068228D01*
X121404147Y-84223100D01*
X121311015Y-84362481D01*
X121192481Y-84481015D01*
X121053100Y-84574147D01*
X120898228Y-84638297D01*
X120733816Y-84671000D01*
X120566184Y-84671000D01*
X120401772Y-84638297D01*
X120246900Y-84574147D01*
X120107519Y-84481015D01*
X119988985Y-84362481D01*
X119895853Y-84223100D01*
X119831703Y-84068228D01*
X119799000Y-83903816D01*
X119799000Y-83736184D01*
X119831703Y-83571772D01*
X119895853Y-83416900D01*
X119988985Y-83277519D01*
X120107519Y-83158985D01*
X120246900Y-83065853D01*
X120401772Y-83001703D01*
X120566184Y-82969000D01*
X120733816Y-82969000D01*
X120898228Y-83001703D01*
G37*
G36*
X105658228Y-83001703D02*
G01*
X105813100Y-83065853D01*
X105952481Y-83158985D01*
X106071015Y-83277519D01*
X106164147Y-83416900D01*
X106228297Y-83571772D01*
X106261000Y-83736184D01*
X106261000Y-83903816D01*
X106228297Y-84068228D01*
X106164147Y-84223100D01*
X106071015Y-84362481D01*
X105952481Y-84481015D01*
X105813100Y-84574147D01*
X105658228Y-84638297D01*
X105493816Y-84671000D01*
X105326184Y-84671000D01*
X105161772Y-84638297D01*
X105006900Y-84574147D01*
X104867519Y-84481015D01*
X104748985Y-84362481D01*
X104655853Y-84223100D01*
X104591703Y-84068228D01*
X104559000Y-83903816D01*
X104559000Y-83736184D01*
X104591703Y-83571772D01*
X104655853Y-83416900D01*
X104748985Y-83277519D01*
X104867519Y-83158985D01*
X105006900Y-83065853D01*
X105161772Y-83001703D01*
X105326184Y-82969000D01*
X105493816Y-82969000D01*
X105658228Y-83001703D01*
G37*
G36*
X56128228Y-83001703D02*
G01*
X56283100Y-83065853D01*
X56422481Y-83158985D01*
X56541015Y-83277519D01*
X56634147Y-83416900D01*
X56698297Y-83571772D01*
X56731000Y-83736184D01*
X56731000Y-83903816D01*
X56698297Y-84068228D01*
X56634147Y-84223100D01*
X56541015Y-84362481D01*
X56422481Y-84481015D01*
X56283100Y-84574147D01*
X56128228Y-84638297D01*
X55963816Y-84671000D01*
X55796184Y-84671000D01*
X55631772Y-84638297D01*
X55476900Y-84574147D01*
X55337519Y-84481015D01*
X55218985Y-84362481D01*
X55125853Y-84223100D01*
X55061703Y-84068228D01*
X55029000Y-83903816D01*
X55029000Y-83736184D01*
X55061703Y-83571772D01*
X55125853Y-83416900D01*
X55218985Y-83277519D01*
X55337519Y-83158985D01*
X55476900Y-83065853D01*
X55631772Y-83001703D01*
X55796184Y-82969000D01*
X55963816Y-82969000D01*
X56128228Y-83001703D01*
G37*
G36*
X120898228Y-80461703D02*
G01*
X121053100Y-80525853D01*
X121192481Y-80618985D01*
X121311015Y-80737519D01*
X121404147Y-80876900D01*
X121468297Y-81031772D01*
X121501000Y-81196184D01*
X121501000Y-81363816D01*
X121468297Y-81528228D01*
X121404147Y-81683100D01*
X121311015Y-81822481D01*
X121192481Y-81941015D01*
X121053100Y-82034147D01*
X120898228Y-82098297D01*
X120733816Y-82131000D01*
X120566184Y-82131000D01*
X120401772Y-82098297D01*
X120246900Y-82034147D01*
X120107519Y-81941015D01*
X119988985Y-81822481D01*
X119895853Y-81683100D01*
X119831703Y-81528228D01*
X119799000Y-81363816D01*
X119799000Y-81196184D01*
X119831703Y-81031772D01*
X119895853Y-80876900D01*
X119988985Y-80737519D01*
X120107519Y-80618985D01*
X120246900Y-80525853D01*
X120401772Y-80461703D01*
X120566184Y-80429000D01*
X120733816Y-80429000D01*
X120898228Y-80461703D01*
G37*
G36*
X105658228Y-80461703D02*
G01*
X105813100Y-80525853D01*
X105952481Y-80618985D01*
X106071015Y-80737519D01*
X106164147Y-80876900D01*
X106228297Y-81031772D01*
X106261000Y-81196184D01*
X106261000Y-81363816D01*
X106228297Y-81528228D01*
X106164147Y-81683100D01*
X106071015Y-81822481D01*
X105952481Y-81941015D01*
X105813100Y-82034147D01*
X105658228Y-82098297D01*
X105493816Y-82131000D01*
X105326184Y-82131000D01*
X105161772Y-82098297D01*
X105006900Y-82034147D01*
X104867519Y-81941015D01*
X104748985Y-81822481D01*
X104655853Y-81683100D01*
X104591703Y-81528228D01*
X104559000Y-81363816D01*
X104559000Y-81196184D01*
X104591703Y-81031772D01*
X104655853Y-80876900D01*
X104748985Y-80737519D01*
X104867519Y-80618985D01*
X105006900Y-80525853D01*
X105161772Y-80461703D01*
X105326184Y-80429000D01*
X105493816Y-80429000D01*
X105658228Y-80461703D01*
G37*
G36*
X56128228Y-80461703D02*
G01*
X56283100Y-80525853D01*
X56422481Y-80618985D01*
X56541015Y-80737519D01*
X56634147Y-80876900D01*
X56698297Y-81031772D01*
X56731000Y-81196184D01*
X56731000Y-81363816D01*
X56698297Y-81528228D01*
X56634147Y-81683100D01*
X56541015Y-81822481D01*
X56422481Y-81941015D01*
X56283100Y-82034147D01*
X56128228Y-82098297D01*
X55963816Y-82131000D01*
X55796184Y-82131000D01*
X55631772Y-82098297D01*
X55476900Y-82034147D01*
X55337519Y-81941015D01*
X55218985Y-81822481D01*
X55125853Y-81683100D01*
X55061703Y-81528228D01*
X55029000Y-81363816D01*
X55029000Y-81196184D01*
X55061703Y-81031772D01*
X55125853Y-80876900D01*
X55218985Y-80737519D01*
X55337519Y-80618985D01*
X55476900Y-80525853D01*
X55631772Y-80461703D01*
X55796184Y-80429000D01*
X55963816Y-80429000D01*
X56128228Y-80461703D01*
G37*
G36*
X71368228Y-80461703D02*
G01*
X71523100Y-80525853D01*
X71662481Y-80618985D01*
X71781015Y-80737519D01*
X71874147Y-80876900D01*
X71938297Y-81031772D01*
X71971000Y-81196184D01*
X71971000Y-81363816D01*
X71938297Y-81528228D01*
X71874147Y-81683100D01*
X71781015Y-81822481D01*
X71662481Y-81941015D01*
X71523100Y-82034147D01*
X71368228Y-82098297D01*
X71203816Y-82131000D01*
X71036184Y-82131000D01*
X70871772Y-82098297D01*
X70716900Y-82034147D01*
X70577519Y-81941015D01*
X70458985Y-81822481D01*
X70365853Y-81683100D01*
X70301703Y-81528228D01*
X70269000Y-81363816D01*
X70269000Y-81196184D01*
X70301703Y-81031772D01*
X70365853Y-80876900D01*
X70458985Y-80737519D01*
X70577519Y-80618985D01*
X70716900Y-80525853D01*
X70871772Y-80461703D01*
X71036184Y-80429000D01*
X71203816Y-80429000D01*
X71368228Y-80461703D01*
G37*
G36*
X56128228Y-77921703D02*
G01*
X56283100Y-77985853D01*
X56422481Y-78078985D01*
X56541015Y-78197519D01*
X56634147Y-78336900D01*
X56698297Y-78491772D01*
X56731000Y-78656184D01*
X56731000Y-78823816D01*
X56698297Y-78988228D01*
X56634147Y-79143100D01*
X56541015Y-79282481D01*
X56422481Y-79401015D01*
X56283100Y-79494147D01*
X56128228Y-79558297D01*
X55963816Y-79591000D01*
X55796184Y-79591000D01*
X55631772Y-79558297D01*
X55476900Y-79494147D01*
X55337519Y-79401015D01*
X55218985Y-79282481D01*
X55125853Y-79143100D01*
X55061703Y-78988228D01*
X55029000Y-78823816D01*
X55029000Y-78656184D01*
X55061703Y-78491772D01*
X55125853Y-78336900D01*
X55218985Y-78197519D01*
X55337519Y-78078985D01*
X55476900Y-77985853D01*
X55631772Y-77921703D01*
X55796184Y-77889000D01*
X55963816Y-77889000D01*
X56128228Y-77921703D01*
G37*
G36*
X105658228Y-77921703D02*
G01*
X105813100Y-77985853D01*
X105952481Y-78078985D01*
X106071015Y-78197519D01*
X106164147Y-78336900D01*
X106228297Y-78491772D01*
X106261000Y-78656184D01*
X106261000Y-78823816D01*
X106228297Y-78988228D01*
X106164147Y-79143100D01*
X106071015Y-79282481D01*
X105952481Y-79401015D01*
X105813100Y-79494147D01*
X105658228Y-79558297D01*
X105493816Y-79591000D01*
X105326184Y-79591000D01*
X105161772Y-79558297D01*
X105006900Y-79494147D01*
X104867519Y-79401015D01*
X104748985Y-79282481D01*
X104655853Y-79143100D01*
X104591703Y-78988228D01*
X104559000Y-78823816D01*
X104559000Y-78656184D01*
X104591703Y-78491772D01*
X104655853Y-78336900D01*
X104748985Y-78197519D01*
X104867519Y-78078985D01*
X105006900Y-77985853D01*
X105161772Y-77921703D01*
X105326184Y-77889000D01*
X105493816Y-77889000D01*
X105658228Y-77921703D01*
G37*
G36*
X120898228Y-77921703D02*
G01*
X121053100Y-77985853D01*
X121192481Y-78078985D01*
X121311015Y-78197519D01*
X121404147Y-78336900D01*
X121468297Y-78491772D01*
X121501000Y-78656184D01*
X121501000Y-78823816D01*
X121468297Y-78988228D01*
X121404147Y-79143100D01*
X121311015Y-79282481D01*
X121192481Y-79401015D01*
X121053100Y-79494147D01*
X120898228Y-79558297D01*
X120733816Y-79591000D01*
X120566184Y-79591000D01*
X120401772Y-79558297D01*
X120246900Y-79494147D01*
X120107519Y-79401015D01*
X119988985Y-79282481D01*
X119895853Y-79143100D01*
X119831703Y-78988228D01*
X119799000Y-78823816D01*
X119799000Y-78656184D01*
X119831703Y-78491772D01*
X119895853Y-78336900D01*
X119988985Y-78197519D01*
X120107519Y-78078985D01*
X120246900Y-77985853D01*
X120401772Y-77921703D01*
X120566184Y-77889000D01*
X120733816Y-77889000D01*
X120898228Y-77921703D01*
G37*
G36*
X71368228Y-77921703D02*
G01*
X71523100Y-77985853D01*
X71662481Y-78078985D01*
X71781015Y-78197519D01*
X71874147Y-78336900D01*
X71938297Y-78491772D01*
X71971000Y-78656184D01*
X71971000Y-78823816D01*
X71938297Y-78988228D01*
X71874147Y-79143100D01*
X71781015Y-79282481D01*
X71662481Y-79401015D01*
X71523100Y-79494147D01*
X71368228Y-79558297D01*
X71203816Y-79591000D01*
X71036184Y-79591000D01*
X70871772Y-79558297D01*
X70716900Y-79494147D01*
X70577519Y-79401015D01*
X70458985Y-79282481D01*
X70365853Y-79143100D01*
X70301703Y-78988228D01*
X70269000Y-78823816D01*
X70269000Y-78656184D01*
X70301703Y-78491772D01*
X70365853Y-78336900D01*
X70458985Y-78197519D01*
X70577519Y-78078985D01*
X70716900Y-77985853D01*
X70871772Y-77921703D01*
X71036184Y-77889000D01*
X71203816Y-77889000D01*
X71368228Y-77921703D01*
G37*
G36*
X69481000Y-77101000D02*
G01*
X67679000Y-77101000D01*
X67679000Y-75299000D01*
X69481000Y-75299000D01*
X69481000Y-77101000D01*
G37*
G36*
X56128228Y-75381703D02*
G01*
X56283100Y-75445853D01*
X56422481Y-75538985D01*
X56541015Y-75657519D01*
X56634147Y-75796900D01*
X56698297Y-75951772D01*
X56731000Y-76116184D01*
X56731000Y-76283816D01*
X56698297Y-76448228D01*
X56634147Y-76603100D01*
X56541015Y-76742481D01*
X56422481Y-76861015D01*
X56283100Y-76954147D01*
X56128228Y-77018297D01*
X55963816Y-77051000D01*
X55796184Y-77051000D01*
X55631772Y-77018297D01*
X55476900Y-76954147D01*
X55337519Y-76861015D01*
X55218985Y-76742481D01*
X55125853Y-76603100D01*
X55061703Y-76448228D01*
X55029000Y-76283816D01*
X55029000Y-76116184D01*
X55061703Y-75951772D01*
X55125853Y-75796900D01*
X55218985Y-75657519D01*
X55337519Y-75538985D01*
X55476900Y-75445853D01*
X55631772Y-75381703D01*
X55796184Y-75349000D01*
X55963816Y-75349000D01*
X56128228Y-75381703D01*
G37*
G36*
X71368228Y-75381703D02*
G01*
X71523100Y-75445853D01*
X71662481Y-75538985D01*
X71781015Y-75657519D01*
X71874147Y-75796900D01*
X71938297Y-75951772D01*
X71971000Y-76116184D01*
X71971000Y-76283816D01*
X71938297Y-76448228D01*
X71874147Y-76603100D01*
X71781015Y-76742481D01*
X71662481Y-76861015D01*
X71523100Y-76954147D01*
X71368228Y-77018297D01*
X71203816Y-77051000D01*
X71036184Y-77051000D01*
X70871772Y-77018297D01*
X70716900Y-76954147D01*
X70577519Y-76861015D01*
X70458985Y-76742481D01*
X70365853Y-76603100D01*
X70301703Y-76448228D01*
X70269000Y-76283816D01*
X70269000Y-76116184D01*
X70301703Y-75951772D01*
X70365853Y-75796900D01*
X70458985Y-75657519D01*
X70577519Y-75538985D01*
X70716900Y-75445853D01*
X70871772Y-75381703D01*
X71036184Y-75349000D01*
X71203816Y-75349000D01*
X71368228Y-75381703D01*
G37*
G36*
X120898228Y-75381703D02*
G01*
X121053100Y-75445853D01*
X121192481Y-75538985D01*
X121311015Y-75657519D01*
X121404147Y-75796900D01*
X121468297Y-75951772D01*
X121501000Y-76116184D01*
X121501000Y-76283816D01*
X121468297Y-76448228D01*
X121404147Y-76603100D01*
X121311015Y-76742481D01*
X121192481Y-76861015D01*
X121053100Y-76954147D01*
X120898228Y-77018297D01*
X120733816Y-77051000D01*
X120566184Y-77051000D01*
X120401772Y-77018297D01*
X120246900Y-76954147D01*
X120107519Y-76861015D01*
X119988985Y-76742481D01*
X119895853Y-76603100D01*
X119831703Y-76448228D01*
X119799000Y-76283816D01*
X119799000Y-76116184D01*
X119831703Y-75951772D01*
X119895853Y-75796900D01*
X119988985Y-75657519D01*
X120107519Y-75538985D01*
X120246900Y-75445853D01*
X120401772Y-75381703D01*
X120566184Y-75349000D01*
X120733816Y-75349000D01*
X120898228Y-75381703D01*
G37*
G36*
X105658228Y-75381703D02*
G01*
X105813100Y-75445853D01*
X105952481Y-75538985D01*
X106071015Y-75657519D01*
X106164147Y-75796900D01*
X106228297Y-75951772D01*
X106261000Y-76116184D01*
X106261000Y-76283816D01*
X106228297Y-76448228D01*
X106164147Y-76603100D01*
X106071015Y-76742481D01*
X105952481Y-76861015D01*
X105813100Y-76954147D01*
X105658228Y-77018297D01*
X105493816Y-77051000D01*
X105326184Y-77051000D01*
X105161772Y-77018297D01*
X105006900Y-76954147D01*
X104867519Y-76861015D01*
X104748985Y-76742481D01*
X104655853Y-76603100D01*
X104591703Y-76448228D01*
X104559000Y-76283816D01*
X104559000Y-76116184D01*
X104591703Y-75951772D01*
X104655853Y-75796900D01*
X104748985Y-75657519D01*
X104867519Y-75538985D01*
X105006900Y-75445853D01*
X105161772Y-75381703D01*
X105326184Y-75349000D01*
X105493816Y-75349000D01*
X105658228Y-75381703D01*
G37*
G36*
X68693512Y-72763927D02*
G01*
X68842812Y-72793624D01*
X69006784Y-72861544D01*
X69154354Y-72960147D01*
X69279853Y-73085646D01*
X69378456Y-73233216D01*
X69446376Y-73397188D01*
X69481000Y-73571259D01*
X69481000Y-73748741D01*
X69446376Y-73922812D01*
X69378456Y-74086784D01*
X69279853Y-74234354D01*
X69154354Y-74359853D01*
X69006784Y-74458456D01*
X68842812Y-74526376D01*
X68693512Y-74556073D01*
X68668742Y-74561000D01*
X68491258Y-74561000D01*
X68466488Y-74556073D01*
X68317188Y-74526376D01*
X68153216Y-74458456D01*
X68005646Y-74359853D01*
X67880147Y-74234354D01*
X67781544Y-74086784D01*
X67713624Y-73922812D01*
X67679000Y-73748741D01*
X67679000Y-73571259D01*
X67713624Y-73397188D01*
X67781544Y-73233216D01*
X67880147Y-73085646D01*
X68005646Y-72960147D01*
X68153216Y-72861544D01*
X68317188Y-72793624D01*
X68466488Y-72763927D01*
X68491258Y-72759000D01*
X68668742Y-72759000D01*
X68693512Y-72763927D01*
G37*
G36*
X120898228Y-72841703D02*
G01*
X121053100Y-72905853D01*
X121192481Y-72998985D01*
X121311015Y-73117519D01*
X121404147Y-73256900D01*
X121468297Y-73411772D01*
X121501000Y-73576184D01*
X121501000Y-73743816D01*
X121468297Y-73908228D01*
X121404147Y-74063100D01*
X121311015Y-74202481D01*
X121192481Y-74321015D01*
X121053100Y-74414147D01*
X120898228Y-74478297D01*
X120733816Y-74511000D01*
X120566184Y-74511000D01*
X120401772Y-74478297D01*
X120246900Y-74414147D01*
X120107519Y-74321015D01*
X119988985Y-74202481D01*
X119895853Y-74063100D01*
X119831703Y-73908228D01*
X119799000Y-73743816D01*
X119799000Y-73576184D01*
X119831703Y-73411772D01*
X119895853Y-73256900D01*
X119988985Y-73117519D01*
X120107519Y-72998985D01*
X120246900Y-72905853D01*
X120401772Y-72841703D01*
X120566184Y-72809000D01*
X120733816Y-72809000D01*
X120898228Y-72841703D01*
G37*
G36*
X105658228Y-72841703D02*
G01*
X105813100Y-72905853D01*
X105952481Y-72998985D01*
X106071015Y-73117519D01*
X106164147Y-73256900D01*
X106228297Y-73411772D01*
X106261000Y-73576184D01*
X106261000Y-73743816D01*
X106228297Y-73908228D01*
X106164147Y-74063100D01*
X106071015Y-74202481D01*
X105952481Y-74321015D01*
X105813100Y-74414147D01*
X105658228Y-74478297D01*
X105493816Y-74511000D01*
X105326184Y-74511000D01*
X105161772Y-74478297D01*
X105006900Y-74414147D01*
X104867519Y-74321015D01*
X104748985Y-74202481D01*
X104655853Y-74063100D01*
X104591703Y-73908228D01*
X104559000Y-73743816D01*
X104559000Y-73576184D01*
X104591703Y-73411772D01*
X104655853Y-73256900D01*
X104748985Y-73117519D01*
X104867519Y-72998985D01*
X105006900Y-72905853D01*
X105161772Y-72841703D01*
X105326184Y-72809000D01*
X105493816Y-72809000D01*
X105658228Y-72841703D01*
G37*
G36*
X71368228Y-72841703D02*
G01*
X71523100Y-72905853D01*
X71662481Y-72998985D01*
X71781015Y-73117519D01*
X71874147Y-73256900D01*
X71938297Y-73411772D01*
X71971000Y-73576184D01*
X71971000Y-73743816D01*
X71938297Y-73908228D01*
X71874147Y-74063100D01*
X71781015Y-74202481D01*
X71662481Y-74321015D01*
X71523100Y-74414147D01*
X71368228Y-74478297D01*
X71203816Y-74511000D01*
X71036184Y-74511000D01*
X70871772Y-74478297D01*
X70716900Y-74414147D01*
X70577519Y-74321015D01*
X70458985Y-74202481D01*
X70365853Y-74063100D01*
X70301703Y-73908228D01*
X70269000Y-73743816D01*
X70269000Y-73576184D01*
X70301703Y-73411772D01*
X70365853Y-73256900D01*
X70458985Y-73117519D01*
X70577519Y-72998985D01*
X70716900Y-72905853D01*
X70871772Y-72841703D01*
X71036184Y-72809000D01*
X71203816Y-72809000D01*
X71368228Y-72841703D01*
G37*
G36*
X56128228Y-72841703D02*
G01*
X56283100Y-72905853D01*
X56422481Y-72998985D01*
X56541015Y-73117519D01*
X56634147Y-73256900D01*
X56698297Y-73411772D01*
X56731000Y-73576184D01*
X56731000Y-73743816D01*
X56698297Y-73908228D01*
X56634147Y-74063100D01*
X56541015Y-74202481D01*
X56422481Y-74321015D01*
X56283100Y-74414147D01*
X56128228Y-74478297D01*
X55963816Y-74511000D01*
X55796184Y-74511000D01*
X55631772Y-74478297D01*
X55476900Y-74414147D01*
X55337519Y-74321015D01*
X55218985Y-74202481D01*
X55125853Y-74063100D01*
X55061703Y-73908228D01*
X55029000Y-73743816D01*
X55029000Y-73576184D01*
X55061703Y-73411772D01*
X55125853Y-73256900D01*
X55218985Y-73117519D01*
X55337519Y-72998985D01*
X55476900Y-72905853D01*
X55631772Y-72841703D01*
X55796184Y-72809000D01*
X55963816Y-72809000D01*
X56128228Y-72841703D01*
G37*
G36*
X68693512Y-70223927D02*
G01*
X68842812Y-70253624D01*
X69006784Y-70321544D01*
X69154354Y-70420147D01*
X69279853Y-70545646D01*
X69378456Y-70693216D01*
X69446376Y-70857188D01*
X69481000Y-71031259D01*
X69481000Y-71208741D01*
X69446376Y-71382812D01*
X69378456Y-71546784D01*
X69279853Y-71694354D01*
X69154354Y-71819853D01*
X69006784Y-71918456D01*
X68842812Y-71986376D01*
X68693512Y-72016073D01*
X68668742Y-72021000D01*
X68491258Y-72021000D01*
X68466488Y-72016073D01*
X68317188Y-71986376D01*
X68153216Y-71918456D01*
X68005646Y-71819853D01*
X67880147Y-71694354D01*
X67781544Y-71546784D01*
X67713624Y-71382812D01*
X67679000Y-71208741D01*
X67679000Y-71031259D01*
X67713624Y-70857188D01*
X67781544Y-70693216D01*
X67880147Y-70545646D01*
X68005646Y-70420147D01*
X68153216Y-70321544D01*
X68317188Y-70253624D01*
X68466488Y-70223927D01*
X68491258Y-70219000D01*
X68668742Y-70219000D01*
X68693512Y-70223927D01*
G37*
G36*
X71368228Y-70301703D02*
G01*
X71523100Y-70365853D01*
X71662481Y-70458985D01*
X71781015Y-70577519D01*
X71874147Y-70716900D01*
X71938297Y-70871772D01*
X71971000Y-71036184D01*
X71971000Y-71203816D01*
X71938297Y-71368228D01*
X71874147Y-71523100D01*
X71781015Y-71662481D01*
X71662481Y-71781015D01*
X71523100Y-71874147D01*
X71368228Y-71938297D01*
X71203816Y-71971000D01*
X71036184Y-71971000D01*
X70871772Y-71938297D01*
X70716900Y-71874147D01*
X70577519Y-71781015D01*
X70458985Y-71662481D01*
X70365853Y-71523100D01*
X70301703Y-71368228D01*
X70269000Y-71203816D01*
X70269000Y-71036184D01*
X70301703Y-70871772D01*
X70365853Y-70716900D01*
X70458985Y-70577519D01*
X70577519Y-70458985D01*
X70716900Y-70365853D01*
X70871772Y-70301703D01*
X71036184Y-70269000D01*
X71203816Y-70269000D01*
X71368228Y-70301703D01*
G37*
G36*
X56128228Y-70301703D02*
G01*
X56283100Y-70365853D01*
X56422481Y-70458985D01*
X56541015Y-70577519D01*
X56634147Y-70716900D01*
X56698297Y-70871772D01*
X56731000Y-71036184D01*
X56731000Y-71203816D01*
X56698297Y-71368228D01*
X56634147Y-71523100D01*
X56541015Y-71662481D01*
X56422481Y-71781015D01*
X56283100Y-71874147D01*
X56128228Y-71938297D01*
X55963816Y-71971000D01*
X55796184Y-71971000D01*
X55631772Y-71938297D01*
X55476900Y-71874147D01*
X55337519Y-71781015D01*
X55218985Y-71662481D01*
X55125853Y-71523100D01*
X55061703Y-71368228D01*
X55029000Y-71203816D01*
X55029000Y-71036184D01*
X55061703Y-70871772D01*
X55125853Y-70716900D01*
X55218985Y-70577519D01*
X55337519Y-70458985D01*
X55476900Y-70365853D01*
X55631772Y-70301703D01*
X55796184Y-70269000D01*
X55963816Y-70269000D01*
X56128228Y-70301703D01*
G37*
G36*
X105658228Y-70301703D02*
G01*
X105813100Y-70365853D01*
X105952481Y-70458985D01*
X106071015Y-70577519D01*
X106164147Y-70716900D01*
X106228297Y-70871772D01*
X106261000Y-71036184D01*
X106261000Y-71203816D01*
X106228297Y-71368228D01*
X106164147Y-71523100D01*
X106071015Y-71662481D01*
X105952481Y-71781015D01*
X105813100Y-71874147D01*
X105658228Y-71938297D01*
X105493816Y-71971000D01*
X105326184Y-71971000D01*
X105161772Y-71938297D01*
X105006900Y-71874147D01*
X104867519Y-71781015D01*
X104748985Y-71662481D01*
X104655853Y-71523100D01*
X104591703Y-71368228D01*
X104559000Y-71203816D01*
X104559000Y-71036184D01*
X104591703Y-70871772D01*
X104655853Y-70716900D01*
X104748985Y-70577519D01*
X104867519Y-70458985D01*
X105006900Y-70365853D01*
X105161772Y-70301703D01*
X105326184Y-70269000D01*
X105493816Y-70269000D01*
X105658228Y-70301703D01*
G37*
G36*
X120898228Y-70301703D02*
G01*
X121053100Y-70365853D01*
X121192481Y-70458985D01*
X121311015Y-70577519D01*
X121404147Y-70716900D01*
X121468297Y-70871772D01*
X121501000Y-71036184D01*
X121501000Y-71203816D01*
X121468297Y-71368228D01*
X121404147Y-71523100D01*
X121311015Y-71662481D01*
X121192481Y-71781015D01*
X121053100Y-71874147D01*
X120898228Y-71938297D01*
X120733816Y-71971000D01*
X120566184Y-71971000D01*
X120401772Y-71938297D01*
X120246900Y-71874147D01*
X120107519Y-71781015D01*
X119988985Y-71662481D01*
X119895853Y-71523100D01*
X119831703Y-71368228D01*
X119799000Y-71203816D01*
X119799000Y-71036184D01*
X119831703Y-70871772D01*
X119895853Y-70716900D01*
X119988985Y-70577519D01*
X120107519Y-70458985D01*
X120246900Y-70365853D01*
X120401772Y-70301703D01*
X120566184Y-70269000D01*
X120733816Y-70269000D01*
X120898228Y-70301703D01*
G37*
G36*
X68693512Y-67683927D02*
G01*
X68842812Y-67713624D01*
X69006784Y-67781544D01*
X69154354Y-67880147D01*
X69279853Y-68005646D01*
X69378456Y-68153216D01*
X69446376Y-68317188D01*
X69481000Y-68491259D01*
X69481000Y-68668741D01*
X69446376Y-68842812D01*
X69378456Y-69006784D01*
X69279853Y-69154354D01*
X69154354Y-69279853D01*
X69006784Y-69378456D01*
X68842812Y-69446376D01*
X68693512Y-69476073D01*
X68668742Y-69481000D01*
X68491258Y-69481000D01*
X68466488Y-69476073D01*
X68317188Y-69446376D01*
X68153216Y-69378456D01*
X68005646Y-69279853D01*
X67880147Y-69154354D01*
X67781544Y-69006784D01*
X67713624Y-68842812D01*
X67679000Y-68668741D01*
X67679000Y-68491259D01*
X67713624Y-68317188D01*
X67781544Y-68153216D01*
X67880147Y-68005646D01*
X68005646Y-67880147D01*
X68153216Y-67781544D01*
X68317188Y-67713624D01*
X68466488Y-67683927D01*
X68491258Y-67679000D01*
X68668742Y-67679000D01*
X68693512Y-67683927D01*
G37*
G36*
X105658228Y-67761703D02*
G01*
X105813100Y-67825853D01*
X105952481Y-67918985D01*
X106071015Y-68037519D01*
X106164147Y-68176900D01*
X106228297Y-68331772D01*
X106261000Y-68496184D01*
X106261000Y-68663816D01*
X106228297Y-68828228D01*
X106164147Y-68983100D01*
X106071015Y-69122481D01*
X105952481Y-69241015D01*
X105813100Y-69334147D01*
X105658228Y-69398297D01*
X105493816Y-69431000D01*
X105326184Y-69431000D01*
X105161772Y-69398297D01*
X105006900Y-69334147D01*
X104867519Y-69241015D01*
X104748985Y-69122481D01*
X104655853Y-68983100D01*
X104591703Y-68828228D01*
X104559000Y-68663816D01*
X104559000Y-68496184D01*
X104591703Y-68331772D01*
X104655853Y-68176900D01*
X104748985Y-68037519D01*
X104867519Y-67918985D01*
X105006900Y-67825853D01*
X105161772Y-67761703D01*
X105326184Y-67729000D01*
X105493816Y-67729000D01*
X105658228Y-67761703D01*
G37*
G36*
X56128228Y-67761703D02*
G01*
X56283100Y-67825853D01*
X56422481Y-67918985D01*
X56541015Y-68037519D01*
X56634147Y-68176900D01*
X56698297Y-68331772D01*
X56731000Y-68496184D01*
X56731000Y-68663816D01*
X56698297Y-68828228D01*
X56634147Y-68983100D01*
X56541015Y-69122481D01*
X56422481Y-69241015D01*
X56283100Y-69334147D01*
X56128228Y-69398297D01*
X55963816Y-69431000D01*
X55796184Y-69431000D01*
X55631772Y-69398297D01*
X55476900Y-69334147D01*
X55337519Y-69241015D01*
X55218985Y-69122481D01*
X55125853Y-68983100D01*
X55061703Y-68828228D01*
X55029000Y-68663816D01*
X55029000Y-68496184D01*
X55061703Y-68331772D01*
X55125853Y-68176900D01*
X55218985Y-68037519D01*
X55337519Y-67918985D01*
X55476900Y-67825853D01*
X55631772Y-67761703D01*
X55796184Y-67729000D01*
X55963816Y-67729000D01*
X56128228Y-67761703D01*
G37*
G36*
X71368228Y-67761703D02*
G01*
X71523100Y-67825853D01*
X71662481Y-67918985D01*
X71781015Y-68037519D01*
X71874147Y-68176900D01*
X71938297Y-68331772D01*
X71971000Y-68496184D01*
X71971000Y-68663816D01*
X71938297Y-68828228D01*
X71874147Y-68983100D01*
X71781015Y-69122481D01*
X71662481Y-69241015D01*
X71523100Y-69334147D01*
X71368228Y-69398297D01*
X71203816Y-69431000D01*
X71036184Y-69431000D01*
X70871772Y-69398297D01*
X70716900Y-69334147D01*
X70577519Y-69241015D01*
X70458985Y-69122481D01*
X70365853Y-68983100D01*
X70301703Y-68828228D01*
X70269000Y-68663816D01*
X70269000Y-68496184D01*
X70301703Y-68331772D01*
X70365853Y-68176900D01*
X70458985Y-68037519D01*
X70577519Y-67918985D01*
X70716900Y-67825853D01*
X70871772Y-67761703D01*
X71036184Y-67729000D01*
X71203816Y-67729000D01*
X71368228Y-67761703D01*
G37*
G36*
X120898228Y-67761703D02*
G01*
X121053100Y-67825853D01*
X121192481Y-67918985D01*
X121311015Y-68037519D01*
X121404147Y-68176900D01*
X121468297Y-68331772D01*
X121501000Y-68496184D01*
X121501000Y-68663816D01*
X121468297Y-68828228D01*
X121404147Y-68983100D01*
X121311015Y-69122481D01*
X121192481Y-69241015D01*
X121053100Y-69334147D01*
X120898228Y-69398297D01*
X120733816Y-69431000D01*
X120566184Y-69431000D01*
X120401772Y-69398297D01*
X120246900Y-69334147D01*
X120107519Y-69241015D01*
X119988985Y-69122481D01*
X119895853Y-68983100D01*
X119831703Y-68828228D01*
X119799000Y-68663816D01*
X119799000Y-68496184D01*
X119831703Y-68331772D01*
X119895853Y-68176900D01*
X119988985Y-68037519D01*
X120107519Y-67918985D01*
X120246900Y-67825853D01*
X120401772Y-67761703D01*
X120566184Y-67729000D01*
X120733816Y-67729000D01*
X120898228Y-67761703D01*
G37*
G36*
X68693512Y-65143927D02*
G01*
X68842812Y-65173624D01*
X69006784Y-65241544D01*
X69154354Y-65340147D01*
X69279853Y-65465646D01*
X69378456Y-65613216D01*
X69446376Y-65777188D01*
X69481000Y-65951259D01*
X69481000Y-66128741D01*
X69446376Y-66302812D01*
X69378456Y-66466784D01*
X69279853Y-66614354D01*
X69154354Y-66739853D01*
X69006784Y-66838456D01*
X68842812Y-66906376D01*
X68693512Y-66936073D01*
X68668742Y-66941000D01*
X68491258Y-66941000D01*
X68466488Y-66936073D01*
X68317188Y-66906376D01*
X68153216Y-66838456D01*
X68005646Y-66739853D01*
X67880147Y-66614354D01*
X67781544Y-66466784D01*
X67713624Y-66302812D01*
X67679000Y-66128741D01*
X67679000Y-65951259D01*
X67713624Y-65777188D01*
X67781544Y-65613216D01*
X67880147Y-65465646D01*
X68005646Y-65340147D01*
X68153216Y-65241544D01*
X68317188Y-65173624D01*
X68466488Y-65143927D01*
X68491258Y-65139000D01*
X68668742Y-65139000D01*
X68693512Y-65143927D01*
G37*
G36*
X120898228Y-65221703D02*
G01*
X121053100Y-65285853D01*
X121192481Y-65378985D01*
X121311015Y-65497519D01*
X121404147Y-65636900D01*
X121468297Y-65791772D01*
X121501000Y-65956184D01*
X121501000Y-66123816D01*
X121468297Y-66288228D01*
X121404147Y-66443100D01*
X121311015Y-66582481D01*
X121192481Y-66701015D01*
X121053100Y-66794147D01*
X120898228Y-66858297D01*
X120733816Y-66891000D01*
X120566184Y-66891000D01*
X120401772Y-66858297D01*
X120246900Y-66794147D01*
X120107519Y-66701015D01*
X119988985Y-66582481D01*
X119895853Y-66443100D01*
X119831703Y-66288228D01*
X119799000Y-66123816D01*
X119799000Y-65956184D01*
X119831703Y-65791772D01*
X119895853Y-65636900D01*
X119988985Y-65497519D01*
X120107519Y-65378985D01*
X120246900Y-65285853D01*
X120401772Y-65221703D01*
X120566184Y-65189000D01*
X120733816Y-65189000D01*
X120898228Y-65221703D01*
G37*
G36*
X71368228Y-65221703D02*
G01*
X71523100Y-65285853D01*
X71662481Y-65378985D01*
X71781015Y-65497519D01*
X71874147Y-65636900D01*
X71938297Y-65791772D01*
X71971000Y-65956184D01*
X71971000Y-66123816D01*
X71938297Y-66288228D01*
X71874147Y-66443100D01*
X71781015Y-66582481D01*
X71662481Y-66701015D01*
X71523100Y-66794147D01*
X71368228Y-66858297D01*
X71203816Y-66891000D01*
X71036184Y-66891000D01*
X70871772Y-66858297D01*
X70716900Y-66794147D01*
X70577519Y-66701015D01*
X70458985Y-66582481D01*
X70365853Y-66443100D01*
X70301703Y-66288228D01*
X70269000Y-66123816D01*
X70269000Y-65956184D01*
X70301703Y-65791772D01*
X70365853Y-65636900D01*
X70458985Y-65497519D01*
X70577519Y-65378985D01*
X70716900Y-65285853D01*
X70871772Y-65221703D01*
X71036184Y-65189000D01*
X71203816Y-65189000D01*
X71368228Y-65221703D01*
G37*
G36*
X56128228Y-65221703D02*
G01*
X56283100Y-65285853D01*
X56422481Y-65378985D01*
X56541015Y-65497519D01*
X56634147Y-65636900D01*
X56698297Y-65791772D01*
X56731000Y-65956184D01*
X56731000Y-66123816D01*
X56698297Y-66288228D01*
X56634147Y-66443100D01*
X56541015Y-66582481D01*
X56422481Y-66701015D01*
X56283100Y-66794147D01*
X56128228Y-66858297D01*
X55963816Y-66891000D01*
X55796184Y-66891000D01*
X55631772Y-66858297D01*
X55476900Y-66794147D01*
X55337519Y-66701015D01*
X55218985Y-66582481D01*
X55125853Y-66443100D01*
X55061703Y-66288228D01*
X55029000Y-66123816D01*
X55029000Y-65956184D01*
X55061703Y-65791772D01*
X55125853Y-65636900D01*
X55218985Y-65497519D01*
X55337519Y-65378985D01*
X55476900Y-65285853D01*
X55631772Y-65221703D01*
X55796184Y-65189000D01*
X55963816Y-65189000D01*
X56128228Y-65221703D01*
G37*
G36*
X105658228Y-65221703D02*
G01*
X105813100Y-65285853D01*
X105952481Y-65378985D01*
X106071015Y-65497519D01*
X106164147Y-65636900D01*
X106228297Y-65791772D01*
X106261000Y-65956184D01*
X106261000Y-66123816D01*
X106228297Y-66288228D01*
X106164147Y-66443100D01*
X106071015Y-66582481D01*
X105952481Y-66701015D01*
X105813100Y-66794147D01*
X105658228Y-66858297D01*
X105493816Y-66891000D01*
X105326184Y-66891000D01*
X105161772Y-66858297D01*
X105006900Y-66794147D01*
X104867519Y-66701015D01*
X104748985Y-66582481D01*
X104655853Y-66443100D01*
X104591703Y-66288228D01*
X104559000Y-66123816D01*
X104559000Y-65956184D01*
X104591703Y-65791772D01*
X104655853Y-65636900D01*
X104748985Y-65497519D01*
X104867519Y-65378985D01*
X105006900Y-65285853D01*
X105161772Y-65221703D01*
X105326184Y-65189000D01*
X105493816Y-65189000D01*
X105658228Y-65221703D01*
G37*
G36*
X68693512Y-62603927D02*
G01*
X68842812Y-62633624D01*
X69006784Y-62701544D01*
X69154354Y-62800147D01*
X69279853Y-62925646D01*
X69378456Y-63073216D01*
X69446376Y-63237188D01*
X69481000Y-63411259D01*
X69481000Y-63588741D01*
X69446376Y-63762812D01*
X69378456Y-63926784D01*
X69279853Y-64074354D01*
X69154354Y-64199853D01*
X69006784Y-64298456D01*
X68842812Y-64366376D01*
X68693512Y-64396073D01*
X68668742Y-64401000D01*
X68491258Y-64401000D01*
X68466488Y-64396073D01*
X68317188Y-64366376D01*
X68153216Y-64298456D01*
X68005646Y-64199853D01*
X67880147Y-64074354D01*
X67781544Y-63926784D01*
X67713624Y-63762812D01*
X67679000Y-63588741D01*
X67679000Y-63411259D01*
X67713624Y-63237188D01*
X67781544Y-63073216D01*
X67880147Y-62925646D01*
X68005646Y-62800147D01*
X68153216Y-62701544D01*
X68317188Y-62633624D01*
X68466488Y-62603927D01*
X68491258Y-62599000D01*
X68668742Y-62599000D01*
X68693512Y-62603927D01*
G37*
G36*
X71368228Y-62681703D02*
G01*
X71523100Y-62745853D01*
X71662481Y-62838985D01*
X71781015Y-62957519D01*
X71874147Y-63096900D01*
X71938297Y-63251772D01*
X71971000Y-63416184D01*
X71971000Y-63583816D01*
X71938297Y-63748228D01*
X71874147Y-63903100D01*
X71781015Y-64042481D01*
X71662481Y-64161015D01*
X71523100Y-64254147D01*
X71368228Y-64318297D01*
X71203816Y-64351000D01*
X71036184Y-64351000D01*
X70871772Y-64318297D01*
X70716900Y-64254147D01*
X70577519Y-64161015D01*
X70458985Y-64042481D01*
X70365853Y-63903100D01*
X70301703Y-63748228D01*
X70269000Y-63583816D01*
X70269000Y-63416184D01*
X70301703Y-63251772D01*
X70365853Y-63096900D01*
X70458985Y-62957519D01*
X70577519Y-62838985D01*
X70716900Y-62745853D01*
X70871772Y-62681703D01*
X71036184Y-62649000D01*
X71203816Y-62649000D01*
X71368228Y-62681703D01*
G37*
G36*
X56128228Y-62681703D02*
G01*
X56283100Y-62745853D01*
X56422481Y-62838985D01*
X56541015Y-62957519D01*
X56634147Y-63096900D01*
X56698297Y-63251772D01*
X56731000Y-63416184D01*
X56731000Y-63583816D01*
X56698297Y-63748228D01*
X56634147Y-63903100D01*
X56541015Y-64042481D01*
X56422481Y-64161015D01*
X56283100Y-64254147D01*
X56128228Y-64318297D01*
X55963816Y-64351000D01*
X55796184Y-64351000D01*
X55631772Y-64318297D01*
X55476900Y-64254147D01*
X55337519Y-64161015D01*
X55218985Y-64042481D01*
X55125853Y-63903100D01*
X55061703Y-63748228D01*
X55029000Y-63583816D01*
X55029000Y-63416184D01*
X55061703Y-63251772D01*
X55125853Y-63096900D01*
X55218985Y-62957519D01*
X55337519Y-62838985D01*
X55476900Y-62745853D01*
X55631772Y-62681703D01*
X55796184Y-62649000D01*
X55963816Y-62649000D01*
X56128228Y-62681703D01*
G37*
G36*
X105658228Y-62681703D02*
G01*
X105813100Y-62745853D01*
X105952481Y-62838985D01*
X106071015Y-62957519D01*
X106164147Y-63096900D01*
X106228297Y-63251772D01*
X106261000Y-63416184D01*
X106261000Y-63583816D01*
X106228297Y-63748228D01*
X106164147Y-63903100D01*
X106071015Y-64042481D01*
X105952481Y-64161015D01*
X105813100Y-64254147D01*
X105658228Y-64318297D01*
X105493816Y-64351000D01*
X105326184Y-64351000D01*
X105161772Y-64318297D01*
X105006900Y-64254147D01*
X104867519Y-64161015D01*
X104748985Y-64042481D01*
X104655853Y-63903100D01*
X104591703Y-63748228D01*
X104559000Y-63583816D01*
X104559000Y-63416184D01*
X104591703Y-63251772D01*
X104655853Y-63096900D01*
X104748985Y-62957519D01*
X104867519Y-62838985D01*
X105006900Y-62745853D01*
X105161772Y-62681703D01*
X105326184Y-62649000D01*
X105493816Y-62649000D01*
X105658228Y-62681703D01*
G37*
G36*
X120898228Y-62681703D02*
G01*
X121053100Y-62745853D01*
X121192481Y-62838985D01*
X121311015Y-62957519D01*
X121404147Y-63096900D01*
X121468297Y-63251772D01*
X121501000Y-63416184D01*
X121501000Y-63583816D01*
X121468297Y-63748228D01*
X121404147Y-63903100D01*
X121311015Y-64042481D01*
X121192481Y-64161015D01*
X121053100Y-64254147D01*
X120898228Y-64318297D01*
X120733816Y-64351000D01*
X120566184Y-64351000D01*
X120401772Y-64318297D01*
X120246900Y-64254147D01*
X120107519Y-64161015D01*
X119988985Y-64042481D01*
X119895853Y-63903100D01*
X119831703Y-63748228D01*
X119799000Y-63583816D01*
X119799000Y-63416184D01*
X119831703Y-63251772D01*
X119895853Y-63096900D01*
X119988985Y-62957519D01*
X120107519Y-62838985D01*
X120246900Y-62745853D01*
X120401772Y-62681703D01*
X120566184Y-62649000D01*
X120733816Y-62649000D01*
X120898228Y-62681703D01*
G37*
G36*
X56128228Y-60141703D02*
G01*
X56283100Y-60205853D01*
X56422481Y-60298985D01*
X56541015Y-60417519D01*
X56634147Y-60556900D01*
X56698297Y-60711772D01*
X56731000Y-60876184D01*
X56731000Y-61043816D01*
X56698297Y-61208228D01*
X56634147Y-61363100D01*
X56541015Y-61502481D01*
X56422481Y-61621015D01*
X56283100Y-61714147D01*
X56128228Y-61778297D01*
X55963816Y-61811000D01*
X55796184Y-61811000D01*
X55631772Y-61778297D01*
X55476900Y-61714147D01*
X55337519Y-61621015D01*
X55218985Y-61502481D01*
X55125853Y-61363100D01*
X55061703Y-61208228D01*
X55029000Y-61043816D01*
X55029000Y-60876184D01*
X55061703Y-60711772D01*
X55125853Y-60556900D01*
X55218985Y-60417519D01*
X55337519Y-60298985D01*
X55476900Y-60205853D01*
X55631772Y-60141703D01*
X55796184Y-60109000D01*
X55963816Y-60109000D01*
X56128228Y-60141703D01*
G37*
G36*
X71368228Y-60141703D02*
G01*
X71523100Y-60205853D01*
X71662481Y-60298985D01*
X71781015Y-60417519D01*
X71874147Y-60556900D01*
X71938297Y-60711772D01*
X71971000Y-60876184D01*
X71971000Y-61043816D01*
X71938297Y-61208228D01*
X71874147Y-61363100D01*
X71781015Y-61502481D01*
X71662481Y-61621015D01*
X71523100Y-61714147D01*
X71368228Y-61778297D01*
X71203816Y-61811000D01*
X71036184Y-61811000D01*
X70871772Y-61778297D01*
X70716900Y-61714147D01*
X70577519Y-61621015D01*
X70458985Y-61502481D01*
X70365853Y-61363100D01*
X70301703Y-61208228D01*
X70269000Y-61043816D01*
X70269000Y-60876184D01*
X70301703Y-60711772D01*
X70365853Y-60556900D01*
X70458985Y-60417519D01*
X70577519Y-60298985D01*
X70716900Y-60205853D01*
X70871772Y-60141703D01*
X71036184Y-60109000D01*
X71203816Y-60109000D01*
X71368228Y-60141703D01*
G37*
G36*
X120898228Y-60141703D02*
G01*
X121053100Y-60205853D01*
X121192481Y-60298985D01*
X121311015Y-60417519D01*
X121404147Y-60556900D01*
X121468297Y-60711772D01*
X121501000Y-60876184D01*
X121501000Y-61043816D01*
X121468297Y-61208228D01*
X121404147Y-61363100D01*
X121311015Y-61502481D01*
X121192481Y-61621015D01*
X121053100Y-61714147D01*
X120898228Y-61778297D01*
X120733816Y-61811000D01*
X120566184Y-61811000D01*
X120401772Y-61778297D01*
X120246900Y-61714147D01*
X120107519Y-61621015D01*
X119988985Y-61502481D01*
X119895853Y-61363100D01*
X119831703Y-61208228D01*
X119799000Y-61043816D01*
X119799000Y-60876184D01*
X119831703Y-60711772D01*
X119895853Y-60556900D01*
X119988985Y-60417519D01*
X120107519Y-60298985D01*
X120246900Y-60205853D01*
X120401772Y-60141703D01*
X120566184Y-60109000D01*
X120733816Y-60109000D01*
X120898228Y-60141703D01*
G37*
G36*
X105658228Y-60141703D02*
G01*
X105813100Y-60205853D01*
X105952481Y-60298985D01*
X106071015Y-60417519D01*
X106164147Y-60556900D01*
X106228297Y-60711772D01*
X106261000Y-60876184D01*
X106261000Y-61043816D01*
X106228297Y-61208228D01*
X106164147Y-61363100D01*
X106071015Y-61502481D01*
X105952481Y-61621015D01*
X105813100Y-61714147D01*
X105658228Y-61778297D01*
X105493816Y-61811000D01*
X105326184Y-61811000D01*
X105161772Y-61778297D01*
X105006900Y-61714147D01*
X104867519Y-61621015D01*
X104748985Y-61502481D01*
X104655853Y-61363100D01*
X104591703Y-61208228D01*
X104559000Y-61043816D01*
X104559000Y-60876184D01*
X104591703Y-60711772D01*
X104655853Y-60556900D01*
X104748985Y-60417519D01*
X104867519Y-60298985D01*
X105006900Y-60205853D01*
X105161772Y-60141703D01*
X105326184Y-60109000D01*
X105493816Y-60109000D01*
X105658228Y-60141703D01*
G37*
G36*
X60576000Y-41791000D02*
G01*
X58274000Y-41791000D01*
X58274000Y-39489000D01*
X60576000Y-39489000D01*
X60576000Y-41791000D01*
G37*
G36*
X113601000Y-41791000D02*
G01*
X112249000Y-41791000D01*
X112249000Y-39489000D01*
X113601000Y-39489000D01*
X113601000Y-41791000D01*
G37*
G36*
X116351000Y-41791000D02*
G01*
X114049000Y-41791000D01*
X114049000Y-39489000D01*
X116351000Y-39489000D01*
X116351000Y-41791000D01*
G37*
G36*
X62376000Y-41791000D02*
G01*
X61024000Y-41791000D01*
X61024000Y-39489000D01*
X62376000Y-39489000D01*
X62376000Y-41791000D01*
G37*
G36*
X119003604Y-39718347D02*
G01*
X119040144Y-39729432D01*
X119073821Y-39747433D01*
X119103341Y-39771659D01*
X119127567Y-39801179D01*
X119145568Y-39834856D01*
X119156653Y-39871396D01*
X119161000Y-39915538D01*
X119161000Y-41364462D01*
X119156653Y-41408604D01*
X119145568Y-41445144D01*
X119127567Y-41478821D01*
X119103341Y-41508341D01*
X119073821Y-41532567D01*
X119040144Y-41550568D01*
X119003604Y-41561653D01*
X118959462Y-41566000D01*
X118010538Y-41566000D01*
X117966396Y-41561653D01*
X117929856Y-41550568D01*
X117896179Y-41532567D01*
X117866659Y-41508341D01*
X117842433Y-41478821D01*
X117824432Y-41445144D01*
X117813347Y-41408604D01*
X117809000Y-41364462D01*
X117809000Y-39915538D01*
X117813347Y-39871396D01*
X117824432Y-39834856D01*
X117842433Y-39801179D01*
X117866659Y-39771659D01*
X117896179Y-39747433D01*
X117929856Y-39729432D01*
X117966396Y-39718347D01*
X118010538Y-39714000D01*
X118959462Y-39714000D01*
X119003604Y-39718347D01*
G37*
G36*
X121803604Y-39718347D02*
G01*
X121840144Y-39729432D01*
X121873821Y-39747433D01*
X121903341Y-39771659D01*
X121927567Y-39801179D01*
X121945568Y-39834856D01*
X121956653Y-39871396D01*
X121961000Y-39915538D01*
X121961000Y-41364462D01*
X121956653Y-41408604D01*
X121945568Y-41445144D01*
X121927567Y-41478821D01*
X121903341Y-41508341D01*
X121873821Y-41532567D01*
X121840144Y-41550568D01*
X121803604Y-41561653D01*
X121759462Y-41566000D01*
X120810538Y-41566000D01*
X120766396Y-41561653D01*
X120729856Y-41550568D01*
X120696179Y-41532567D01*
X120666659Y-41508341D01*
X120642433Y-41478821D01*
X120624432Y-41445144D01*
X120613347Y-41408604D01*
X120609000Y-41364462D01*
X120609000Y-39915538D01*
X120613347Y-39871396D01*
X120624432Y-39834856D01*
X120642433Y-39801179D01*
X120666659Y-39771659D01*
X120696179Y-39747433D01*
X120729856Y-39729432D01*
X120766396Y-39718347D01*
X120810538Y-39714000D01*
X121759462Y-39714000D01*
X121803604Y-39718347D01*
G37*
G36*
X57033604Y-39718347D02*
G01*
X57070144Y-39729432D01*
X57103821Y-39747433D01*
X57133341Y-39771659D01*
X57157567Y-39801179D01*
X57175568Y-39834856D01*
X57186653Y-39871396D01*
X57191000Y-39915538D01*
X57191000Y-41364462D01*
X57186653Y-41408604D01*
X57175568Y-41445144D01*
X57157567Y-41478821D01*
X57133341Y-41508341D01*
X57103821Y-41532567D01*
X57070144Y-41550568D01*
X57033604Y-41561653D01*
X56989462Y-41566000D01*
X56040538Y-41566000D01*
X55996396Y-41561653D01*
X55959856Y-41550568D01*
X55926179Y-41532567D01*
X55896659Y-41508341D01*
X55872433Y-41478821D01*
X55854432Y-41445144D01*
X55843347Y-41408604D01*
X55839000Y-41364462D01*
X55839000Y-39915538D01*
X55843347Y-39871396D01*
X55854432Y-39834856D01*
X55872433Y-39801179D01*
X55896659Y-39771659D01*
X55926179Y-39747433D01*
X55959856Y-39729432D01*
X55996396Y-39718347D01*
X56040538Y-39714000D01*
X56989462Y-39714000D01*
X57033604Y-39718347D01*
G37*
G36*
X54233604Y-39718347D02*
G01*
X54270144Y-39729432D01*
X54303821Y-39747433D01*
X54333341Y-39771659D01*
X54357567Y-39801179D01*
X54375568Y-39834856D01*
X54386653Y-39871396D01*
X54391000Y-39915538D01*
X54391000Y-41364462D01*
X54386653Y-41408604D01*
X54375568Y-41445144D01*
X54357567Y-41478821D01*
X54333341Y-41508341D01*
X54303821Y-41532567D01*
X54270144Y-41550568D01*
X54233604Y-41561653D01*
X54189462Y-41566000D01*
X53240538Y-41566000D01*
X53196396Y-41561653D01*
X53159856Y-41550568D01*
X53126179Y-41532567D01*
X53096659Y-41508341D01*
X53072433Y-41478821D01*
X53054432Y-41445144D01*
X53043347Y-41408604D01*
X53039000Y-41364462D01*
X53039000Y-39915538D01*
X53043347Y-39871396D01*
X53054432Y-39834856D01*
X53072433Y-39801179D01*
X53096659Y-39771659D01*
X53126179Y-39747433D01*
X53159856Y-39729432D01*
X53196396Y-39718347D01*
X53240538Y-39714000D01*
X54189462Y-39714000D01*
X54233604Y-39718347D01*
G37*
G36*
X46368604Y-36543347D02*
G01*
X46405144Y-36554432D01*
X46438821Y-36572433D01*
X46468341Y-36596659D01*
X46492567Y-36626179D01*
X46510568Y-36659856D01*
X46521653Y-36696396D01*
X46526000Y-36740538D01*
X46526000Y-38189462D01*
X46521653Y-38233604D01*
X46510568Y-38270144D01*
X46492567Y-38303821D01*
X46468341Y-38333341D01*
X46438821Y-38357567D01*
X46405144Y-38375568D01*
X46368604Y-38386653D01*
X46324462Y-38391000D01*
X45375538Y-38391000D01*
X45331396Y-38386653D01*
X45294856Y-38375568D01*
X45261179Y-38357567D01*
X45231659Y-38333341D01*
X45207433Y-38303821D01*
X45189432Y-38270144D01*
X45178347Y-38233604D01*
X45174000Y-38189462D01*
X45174000Y-36740538D01*
X45178347Y-36696396D01*
X45189432Y-36659856D01*
X45207433Y-36626179D01*
X45231659Y-36596659D01*
X45261179Y-36572433D01*
X45294856Y-36554432D01*
X45331396Y-36543347D01*
X45375538Y-36539000D01*
X46324462Y-36539000D01*
X46368604Y-36543347D01*
G37*
G36*
X43568604Y-36543347D02*
G01*
X43605144Y-36554432D01*
X43638821Y-36572433D01*
X43668341Y-36596659D01*
X43692567Y-36626179D01*
X43710568Y-36659856D01*
X43721653Y-36696396D01*
X43726000Y-36740538D01*
X43726000Y-38189462D01*
X43721653Y-38233604D01*
X43710568Y-38270144D01*
X43692567Y-38303821D01*
X43668341Y-38333341D01*
X43638821Y-38357567D01*
X43605144Y-38375568D01*
X43568604Y-38386653D01*
X43524462Y-38391000D01*
X42575538Y-38391000D01*
X42531396Y-38386653D01*
X42494856Y-38375568D01*
X42461179Y-38357567D01*
X42431659Y-38333341D01*
X42407433Y-38303821D01*
X42389432Y-38270144D01*
X42378347Y-38233604D01*
X42374000Y-38189462D01*
X42374000Y-36740538D01*
X42378347Y-36696396D01*
X42389432Y-36659856D01*
X42407433Y-36626179D01*
X42431659Y-36596659D01*
X42461179Y-36572433D01*
X42494856Y-36554432D01*
X42531396Y-36543347D01*
X42575538Y-36539000D01*
X43524462Y-36539000D01*
X43568604Y-36543347D01*
G37*
G36*
X129928604Y-36543347D02*
G01*
X129965144Y-36554432D01*
X129998821Y-36572433D01*
X130028341Y-36596659D01*
X130052567Y-36626179D01*
X130070568Y-36659856D01*
X130081653Y-36696396D01*
X130086000Y-36740538D01*
X130086000Y-38189462D01*
X130081653Y-38233604D01*
X130070568Y-38270144D01*
X130052567Y-38303821D01*
X130028341Y-38333341D01*
X129998821Y-38357567D01*
X129965144Y-38375568D01*
X129928604Y-38386653D01*
X129884462Y-38391000D01*
X128935538Y-38391000D01*
X128891396Y-38386653D01*
X128854856Y-38375568D01*
X128821179Y-38357567D01*
X128791659Y-38333341D01*
X128767433Y-38303821D01*
X128749432Y-38270144D01*
X128738347Y-38233604D01*
X128734000Y-38189462D01*
X128734000Y-36740538D01*
X128738347Y-36696396D01*
X128749432Y-36659856D01*
X128767433Y-36626179D01*
X128791659Y-36596659D01*
X128821179Y-36572433D01*
X128854856Y-36554432D01*
X128891396Y-36543347D01*
X128935538Y-36539000D01*
X129884462Y-36539000D01*
X129928604Y-36543347D01*
G37*
G36*
X132728604Y-36543347D02*
G01*
X132765144Y-36554432D01*
X132798821Y-36572433D01*
X132828341Y-36596659D01*
X132852567Y-36626179D01*
X132870568Y-36659856D01*
X132881653Y-36696396D01*
X132886000Y-36740538D01*
X132886000Y-38189462D01*
X132881653Y-38233604D01*
X132870568Y-38270144D01*
X132852567Y-38303821D01*
X132828341Y-38333341D01*
X132798821Y-38357567D01*
X132765144Y-38375568D01*
X132728604Y-38386653D01*
X132684462Y-38391000D01*
X131735538Y-38391000D01*
X131691396Y-38386653D01*
X131654856Y-38375568D01*
X131621179Y-38357567D01*
X131591659Y-38333341D01*
X131567433Y-38303821D01*
X131549432Y-38270144D01*
X131538347Y-38233604D01*
X131534000Y-38189462D01*
X131534000Y-36740538D01*
X131538347Y-36696396D01*
X131549432Y-36659856D01*
X131567433Y-36626179D01*
X131591659Y-36596659D01*
X131621179Y-36572433D01*
X131654856Y-36554432D01*
X131691396Y-36543347D01*
X131735538Y-36539000D01*
X132684462Y-36539000D01*
X132728604Y-36543347D01*
G37*
G36*
X93611000Y-37731000D02*
G01*
X91809000Y-37731000D01*
X91809000Y-35929000D01*
X93611000Y-35929000D01*
X93611000Y-37731000D01*
G37*
G36*
X90283512Y-35933927D02*
G01*
X90432812Y-35963624D01*
X90596784Y-36031544D01*
X90744354Y-36130147D01*
X90869853Y-36255646D01*
X90968456Y-36403216D01*
X91036376Y-36567188D01*
X91071000Y-36741259D01*
X91071000Y-36918741D01*
X91036376Y-37092812D01*
X90968456Y-37256784D01*
X90869853Y-37404354D01*
X90744354Y-37529853D01*
X90596784Y-37628456D01*
X90432812Y-37696376D01*
X90283512Y-37726073D01*
X90258742Y-37731000D01*
X90081258Y-37731000D01*
X90056488Y-37726073D01*
X89907188Y-37696376D01*
X89743216Y-37628456D01*
X89595646Y-37529853D01*
X89470147Y-37404354D01*
X89371544Y-37256784D01*
X89303624Y-37092812D01*
X89269000Y-36918741D01*
X89269000Y-36741259D01*
X89303624Y-36567188D01*
X89371544Y-36403216D01*
X89470147Y-36255646D01*
X89595646Y-36130147D01*
X89743216Y-36031544D01*
X89907188Y-35963624D01*
X90056488Y-35933927D01*
X90081258Y-35929000D01*
X90258742Y-35929000D01*
X90283512Y-35933927D01*
G37*
G36*
X87743512Y-35933927D02*
G01*
X87892812Y-35963624D01*
X88056784Y-36031544D01*
X88204354Y-36130147D01*
X88329853Y-36255646D01*
X88428456Y-36403216D01*
X88496376Y-36567188D01*
X88531000Y-36741259D01*
X88531000Y-36918741D01*
X88496376Y-37092812D01*
X88428456Y-37256784D01*
X88329853Y-37404354D01*
X88204354Y-37529853D01*
X88056784Y-37628456D01*
X87892812Y-37696376D01*
X87743512Y-37726073D01*
X87718742Y-37731000D01*
X87541258Y-37731000D01*
X87516488Y-37726073D01*
X87367188Y-37696376D01*
X87203216Y-37628456D01*
X87055646Y-37529853D01*
X86930147Y-37404354D01*
X86831544Y-37256784D01*
X86763624Y-37092812D01*
X86729000Y-36918741D01*
X86729000Y-36741259D01*
X86763624Y-36567188D01*
X86831544Y-36403216D01*
X86930147Y-36255646D01*
X87055646Y-36130147D01*
X87203216Y-36031544D01*
X87367188Y-35963624D01*
X87516488Y-35933927D01*
X87541258Y-35929000D01*
X87718742Y-35929000D01*
X87743512Y-35933927D01*
G37*
G36*
X85203512Y-35933927D02*
G01*
X85352812Y-35963624D01*
X85516784Y-36031544D01*
X85664354Y-36130147D01*
X85789853Y-36255646D01*
X85888456Y-36403216D01*
X85956376Y-36567188D01*
X85991000Y-36741259D01*
X85991000Y-36918741D01*
X85956376Y-37092812D01*
X85888456Y-37256784D01*
X85789853Y-37404354D01*
X85664354Y-37529853D01*
X85516784Y-37628456D01*
X85352812Y-37696376D01*
X85203512Y-37726073D01*
X85178742Y-37731000D01*
X85001258Y-37731000D01*
X84976488Y-37726073D01*
X84827188Y-37696376D01*
X84663216Y-37628456D01*
X84515646Y-37529853D01*
X84390147Y-37404354D01*
X84291544Y-37256784D01*
X84223624Y-37092812D01*
X84189000Y-36918741D01*
X84189000Y-36741259D01*
X84223624Y-36567188D01*
X84291544Y-36403216D01*
X84390147Y-36255646D01*
X84515646Y-36130147D01*
X84663216Y-36031544D01*
X84827188Y-35963624D01*
X84976488Y-35933927D01*
X85001258Y-35929000D01*
X85178742Y-35929000D01*
X85203512Y-35933927D01*
G37*
G36*
X43486564Y-32699389D02*
G01*
X43677833Y-32778615D01*
X43677835Y-32778616D01*
X43849973Y-32893635D01*
X43996365Y-33040027D01*
X44111385Y-33212167D01*
X44190611Y-33403436D01*
X44231000Y-33606484D01*
X44231000Y-33813516D01*
X44190611Y-34016564D01*
X44111385Y-34207833D01*
X44111384Y-34207835D01*
X43996365Y-34379973D01*
X43849973Y-34526365D01*
X43677835Y-34641384D01*
X43677834Y-34641385D01*
X43677833Y-34641385D01*
X43486564Y-34720611D01*
X43283516Y-34761000D01*
X43076484Y-34761000D01*
X42873436Y-34720611D01*
X42682167Y-34641385D01*
X42682166Y-34641385D01*
X42682165Y-34641384D01*
X42510027Y-34526365D01*
X42363635Y-34379973D01*
X42248616Y-34207835D01*
X42248615Y-34207833D01*
X42169389Y-34016564D01*
X42129000Y-33813516D01*
X42129000Y-33606484D01*
X42169389Y-33403436D01*
X42248615Y-33212167D01*
X42363635Y-33040027D01*
X42510027Y-32893635D01*
X42682165Y-32778616D01*
X42682167Y-32778615D01*
X42873436Y-32699389D01*
X43076484Y-32659000D01*
X43283516Y-32659000D01*
X43486564Y-32699389D01*
G37*
G36*
X49986564Y-32699389D02*
G01*
X50177833Y-32778615D01*
X50177835Y-32778616D01*
X50349973Y-32893635D01*
X50496365Y-33040027D01*
X50611385Y-33212167D01*
X50690611Y-33403436D01*
X50731000Y-33606484D01*
X50731000Y-33813516D01*
X50690611Y-34016564D01*
X50611385Y-34207833D01*
X50611384Y-34207835D01*
X50496365Y-34379973D01*
X50349973Y-34526365D01*
X50177835Y-34641384D01*
X50177834Y-34641385D01*
X50177833Y-34641385D01*
X49986564Y-34720611D01*
X49783516Y-34761000D01*
X49576484Y-34761000D01*
X49373436Y-34720611D01*
X49182167Y-34641385D01*
X49182166Y-34641385D01*
X49182165Y-34641384D01*
X49010027Y-34526365D01*
X48863635Y-34379973D01*
X48748616Y-34207835D01*
X48748615Y-34207833D01*
X48669389Y-34016564D01*
X48629000Y-33813516D01*
X48629000Y-33606484D01*
X48669389Y-33403436D01*
X48748615Y-33212167D01*
X48863635Y-33040027D01*
X49010027Y-32893635D01*
X49182165Y-32778616D01*
X49182167Y-32778615D01*
X49373436Y-32699389D01*
X49576484Y-32659000D01*
X49783516Y-32659000D01*
X49986564Y-32699389D01*
G37*
G36*
X126036564Y-32699389D02*
G01*
X126227833Y-32778615D01*
X126227835Y-32778616D01*
X126399973Y-32893635D01*
X126546365Y-33040027D01*
X126661385Y-33212167D01*
X126740611Y-33403436D01*
X126781000Y-33606484D01*
X126781000Y-33813516D01*
X126740611Y-34016564D01*
X126661385Y-34207833D01*
X126661384Y-34207835D01*
X126546365Y-34379973D01*
X126399973Y-34526365D01*
X126227835Y-34641384D01*
X126227834Y-34641385D01*
X126227833Y-34641385D01*
X126036564Y-34720611D01*
X125833516Y-34761000D01*
X125626484Y-34761000D01*
X125423436Y-34720611D01*
X125232167Y-34641385D01*
X125232166Y-34641385D01*
X125232165Y-34641384D01*
X125060027Y-34526365D01*
X124913635Y-34379973D01*
X124798616Y-34207835D01*
X124798615Y-34207833D01*
X124719389Y-34016564D01*
X124679000Y-33813516D01*
X124679000Y-33606484D01*
X124719389Y-33403436D01*
X124798615Y-33212167D01*
X124913635Y-33040027D01*
X125060027Y-32893635D01*
X125232165Y-32778616D01*
X125232167Y-32778615D01*
X125423436Y-32699389D01*
X125626484Y-32659000D01*
X125833516Y-32659000D01*
X126036564Y-32699389D01*
G37*
G36*
X132536564Y-32699389D02*
G01*
X132727833Y-32778615D01*
X132727835Y-32778616D01*
X132899973Y-32893635D01*
X133046365Y-33040027D01*
X133161385Y-33212167D01*
X133240611Y-33403436D01*
X133281000Y-33606484D01*
X133281000Y-33813516D01*
X133240611Y-34016564D01*
X133161385Y-34207833D01*
X133161384Y-34207835D01*
X133046365Y-34379973D01*
X132899973Y-34526365D01*
X132727835Y-34641384D01*
X132727834Y-34641385D01*
X132727833Y-34641385D01*
X132536564Y-34720611D01*
X132333516Y-34761000D01*
X132126484Y-34761000D01*
X131923436Y-34720611D01*
X131732167Y-34641385D01*
X131732166Y-34641385D01*
X131732165Y-34641384D01*
X131560027Y-34526365D01*
X131413635Y-34379973D01*
X131298616Y-34207835D01*
X131298615Y-34207833D01*
X131219389Y-34016564D01*
X131179000Y-33813516D01*
X131179000Y-33606484D01*
X131219389Y-33403436D01*
X131298615Y-33212167D01*
X131413635Y-33040027D01*
X131560027Y-32893635D01*
X131732165Y-32778616D01*
X131732167Y-32778615D01*
X131923436Y-32699389D01*
X132126484Y-32659000D01*
X132333516Y-32659000D01*
X132536564Y-32699389D01*
G37*
G36*
X49986564Y-28199389D02*
G01*
X50177833Y-28278615D01*
X50177835Y-28278616D01*
X50349973Y-28393635D01*
X50496365Y-28540027D01*
X50611385Y-28712167D01*
X50690611Y-28903436D01*
X50731000Y-29106484D01*
X50731000Y-29313516D01*
X50690611Y-29516564D01*
X50611385Y-29707833D01*
X50611384Y-29707835D01*
X50496365Y-29879973D01*
X50349973Y-30026365D01*
X50177835Y-30141384D01*
X50177834Y-30141385D01*
X50177833Y-30141385D01*
X49986564Y-30220611D01*
X49783516Y-30261000D01*
X49576484Y-30261000D01*
X49373436Y-30220611D01*
X49182167Y-30141385D01*
X49182166Y-30141385D01*
X49182165Y-30141384D01*
X49010027Y-30026365D01*
X48863635Y-29879973D01*
X48748616Y-29707835D01*
X48748615Y-29707833D01*
X48669389Y-29516564D01*
X48629000Y-29313516D01*
X48629000Y-29106484D01*
X48669389Y-28903436D01*
X48748615Y-28712167D01*
X48863635Y-28540027D01*
X49010027Y-28393635D01*
X49182165Y-28278616D01*
X49182167Y-28278615D01*
X49373436Y-28199389D01*
X49576484Y-28159000D01*
X49783516Y-28159000D01*
X49986564Y-28199389D01*
G37*
G36*
X126036564Y-28199389D02*
G01*
X126227833Y-28278615D01*
X126227835Y-28278616D01*
X126399973Y-28393635D01*
X126546365Y-28540027D01*
X126661385Y-28712167D01*
X126740611Y-28903436D01*
X126781000Y-29106484D01*
X126781000Y-29313516D01*
X126740611Y-29516564D01*
X126661385Y-29707833D01*
X126661384Y-29707835D01*
X126546365Y-29879973D01*
X126399973Y-30026365D01*
X126227835Y-30141384D01*
X126227834Y-30141385D01*
X126227833Y-30141385D01*
X126036564Y-30220611D01*
X125833516Y-30261000D01*
X125626484Y-30261000D01*
X125423436Y-30220611D01*
X125232167Y-30141385D01*
X125232166Y-30141385D01*
X125232165Y-30141384D01*
X125060027Y-30026365D01*
X124913635Y-29879973D01*
X124798616Y-29707835D01*
X124798615Y-29707833D01*
X124719389Y-29516564D01*
X124679000Y-29313516D01*
X124679000Y-29106484D01*
X124719389Y-28903436D01*
X124798615Y-28712167D01*
X124913635Y-28540027D01*
X125060027Y-28393635D01*
X125232165Y-28278616D01*
X125232167Y-28278615D01*
X125423436Y-28199389D01*
X125626484Y-28159000D01*
X125833516Y-28159000D01*
X126036564Y-28199389D01*
G37*
G36*
X43486564Y-28199389D02*
G01*
X43677833Y-28278615D01*
X43677835Y-28278616D01*
X43849973Y-28393635D01*
X43996365Y-28540027D01*
X44111385Y-28712167D01*
X44190611Y-28903436D01*
X44231000Y-29106484D01*
X44231000Y-29313516D01*
X44190611Y-29516564D01*
X44111385Y-29707833D01*
X44111384Y-29707835D01*
X43996365Y-29879973D01*
X43849973Y-30026365D01*
X43677835Y-30141384D01*
X43677834Y-30141385D01*
X43677833Y-30141385D01*
X43486564Y-30220611D01*
X43283516Y-30261000D01*
X43076484Y-30261000D01*
X42873436Y-30220611D01*
X42682167Y-30141385D01*
X42682166Y-30141385D01*
X42682165Y-30141384D01*
X42510027Y-30026365D01*
X42363635Y-29879973D01*
X42248616Y-29707835D01*
X42248615Y-29707833D01*
X42169389Y-29516564D01*
X42129000Y-29313516D01*
X42129000Y-29106484D01*
X42169389Y-28903436D01*
X42248615Y-28712167D01*
X42363635Y-28540027D01*
X42510027Y-28393635D01*
X42682165Y-28278616D01*
X42682167Y-28278615D01*
X42873436Y-28199389D01*
X43076484Y-28159000D01*
X43283516Y-28159000D01*
X43486564Y-28199389D01*
G37*
G36*
X132536564Y-28199389D02*
G01*
X132727833Y-28278615D01*
X132727835Y-28278616D01*
X132899973Y-28393635D01*
X133046365Y-28540027D01*
X133161385Y-28712167D01*
X133240611Y-28903436D01*
X133281000Y-29106484D01*
X133281000Y-29313516D01*
X133240611Y-29516564D01*
X133161385Y-29707833D01*
X133161384Y-29707835D01*
X133046365Y-29879973D01*
X132899973Y-30026365D01*
X132727835Y-30141384D01*
X132727834Y-30141385D01*
X132727833Y-30141385D01*
X132536564Y-30220611D01*
X132333516Y-30261000D01*
X132126484Y-30261000D01*
X131923436Y-30220611D01*
X131732167Y-30141385D01*
X131732166Y-30141385D01*
X131732165Y-30141384D01*
X131560027Y-30026365D01*
X131413635Y-29879973D01*
X131298616Y-29707835D01*
X131298615Y-29707833D01*
X131219389Y-29516564D01*
X131179000Y-29313516D01*
X131179000Y-29106484D01*
X131219389Y-28903436D01*
X131298615Y-28712167D01*
X131413635Y-28540027D01*
X131560027Y-28393635D01*
X131732165Y-28278616D01*
X131732167Y-28278615D01*
X131923436Y-28199389D01*
X132126484Y-28159000D01*
X132333516Y-28159000D01*
X132536564Y-28199389D01*
G37*
M02*
