G04 #@! TF.GenerationSoftware,KiCad,Pcbnew,5.1.5-52549c5~84~ubuntu18.04.1*
G04 #@! TF.CreationDate,2019-12-30T18:31:59+07:00*
G04 #@! TF.ProjectId,plate,706c6174-652e-46b6-9963-61645f706362,rev?*
G04 #@! TF.SameCoordinates,Original*
G04 #@! TF.FileFunction,Paste,Top*
G04 #@! TF.FilePolarity,Positive*
%FSLAX46Y46*%
G04 Gerber Fmt 4.6, Leading zero omitted, Abs format (unit mm)*
G04 Created by KiCad (PCBNEW 5.1.5-52549c5~84~ubuntu18.04.1) date 2019-12-30 18:31:59*
%MOMM*%
%LPD*%
G04 APERTURE LIST*
%ADD10C,0.100000*%
%ADD11R,1.250000X2.200000*%
%ADD12R,2.200000X2.200000*%
G04 APERTURE END LIST*
D10*
G36*
X48154504Y-134381204D02*
G01*
X48178773Y-134384804D01*
X48202571Y-134390765D01*
X48225671Y-134399030D01*
X48247849Y-134409520D01*
X48268893Y-134422133D01*
X48288598Y-134436747D01*
X48306777Y-134453223D01*
X48323253Y-134471402D01*
X48337867Y-134491107D01*
X48350480Y-134512151D01*
X48360970Y-134534329D01*
X48369235Y-134557429D01*
X48375196Y-134581227D01*
X48378796Y-134605496D01*
X48380000Y-134630000D01*
X48380000Y-135880000D01*
X48378796Y-135904504D01*
X48375196Y-135928773D01*
X48369235Y-135952571D01*
X48360970Y-135975671D01*
X48350480Y-135997849D01*
X48337867Y-136018893D01*
X48323253Y-136038598D01*
X48306777Y-136056777D01*
X48288598Y-136073253D01*
X48268893Y-136087867D01*
X48247849Y-136100480D01*
X48225671Y-136110970D01*
X48202571Y-136119235D01*
X48178773Y-136125196D01*
X48154504Y-136128796D01*
X48130000Y-136130000D01*
X47380000Y-136130000D01*
X47355496Y-136128796D01*
X47331227Y-136125196D01*
X47307429Y-136119235D01*
X47284329Y-136110970D01*
X47262151Y-136100480D01*
X47241107Y-136087867D01*
X47221402Y-136073253D01*
X47203223Y-136056777D01*
X47186747Y-136038598D01*
X47172133Y-136018893D01*
X47159520Y-135997849D01*
X47149030Y-135975671D01*
X47140765Y-135952571D01*
X47134804Y-135928773D01*
X47131204Y-135904504D01*
X47130000Y-135880000D01*
X47130000Y-134630000D01*
X47131204Y-134605496D01*
X47134804Y-134581227D01*
X47140765Y-134557429D01*
X47149030Y-134534329D01*
X47159520Y-134512151D01*
X47172133Y-134491107D01*
X47186747Y-134471402D01*
X47203223Y-134453223D01*
X47221402Y-134436747D01*
X47241107Y-134422133D01*
X47262151Y-134409520D01*
X47284329Y-134399030D01*
X47307429Y-134390765D01*
X47331227Y-134384804D01*
X47355496Y-134381204D01*
X47380000Y-134380000D01*
X48130000Y-134380000D01*
X48154504Y-134381204D01*
G37*
G36*
X45354504Y-134381204D02*
G01*
X45378773Y-134384804D01*
X45402571Y-134390765D01*
X45425671Y-134399030D01*
X45447849Y-134409520D01*
X45468893Y-134422133D01*
X45488598Y-134436747D01*
X45506777Y-134453223D01*
X45523253Y-134471402D01*
X45537867Y-134491107D01*
X45550480Y-134512151D01*
X45560970Y-134534329D01*
X45569235Y-134557429D01*
X45575196Y-134581227D01*
X45578796Y-134605496D01*
X45580000Y-134630000D01*
X45580000Y-135880000D01*
X45578796Y-135904504D01*
X45575196Y-135928773D01*
X45569235Y-135952571D01*
X45560970Y-135975671D01*
X45550480Y-135997849D01*
X45537867Y-136018893D01*
X45523253Y-136038598D01*
X45506777Y-136056777D01*
X45488598Y-136073253D01*
X45468893Y-136087867D01*
X45447849Y-136100480D01*
X45425671Y-136110970D01*
X45402571Y-136119235D01*
X45378773Y-136125196D01*
X45354504Y-136128796D01*
X45330000Y-136130000D01*
X44580000Y-136130000D01*
X44555496Y-136128796D01*
X44531227Y-136125196D01*
X44507429Y-136119235D01*
X44484329Y-136110970D01*
X44462151Y-136100480D01*
X44441107Y-136087867D01*
X44421402Y-136073253D01*
X44403223Y-136056777D01*
X44386747Y-136038598D01*
X44372133Y-136018893D01*
X44359520Y-135997849D01*
X44349030Y-135975671D01*
X44340765Y-135952571D01*
X44334804Y-135928773D01*
X44331204Y-135904504D01*
X44330000Y-135880000D01*
X44330000Y-134630000D01*
X44331204Y-134605496D01*
X44334804Y-134581227D01*
X44340765Y-134557429D01*
X44349030Y-134534329D01*
X44359520Y-134512151D01*
X44372133Y-134491107D01*
X44386747Y-134471402D01*
X44403223Y-134453223D01*
X44421402Y-134436747D01*
X44441107Y-134422133D01*
X44462151Y-134409520D01*
X44484329Y-134399030D01*
X44507429Y-134390765D01*
X44531227Y-134384804D01*
X44555496Y-134381204D01*
X44580000Y-134380000D01*
X45330000Y-134380000D01*
X45354504Y-134381204D01*
G37*
G36*
X131079504Y-135651204D02*
G01*
X131103773Y-135654804D01*
X131127571Y-135660765D01*
X131150671Y-135669030D01*
X131172849Y-135679520D01*
X131193893Y-135692133D01*
X131213598Y-135706747D01*
X131231777Y-135723223D01*
X131248253Y-135741402D01*
X131262867Y-135761107D01*
X131275480Y-135782151D01*
X131285970Y-135804329D01*
X131294235Y-135827429D01*
X131300196Y-135851227D01*
X131303796Y-135875496D01*
X131305000Y-135900000D01*
X131305000Y-137150000D01*
X131303796Y-137174504D01*
X131300196Y-137198773D01*
X131294235Y-137222571D01*
X131285970Y-137245671D01*
X131275480Y-137267849D01*
X131262867Y-137288893D01*
X131248253Y-137308598D01*
X131231777Y-137326777D01*
X131213598Y-137343253D01*
X131193893Y-137357867D01*
X131172849Y-137370480D01*
X131150671Y-137380970D01*
X131127571Y-137389235D01*
X131103773Y-137395196D01*
X131079504Y-137398796D01*
X131055000Y-137400000D01*
X130305000Y-137400000D01*
X130280496Y-137398796D01*
X130256227Y-137395196D01*
X130232429Y-137389235D01*
X130209329Y-137380970D01*
X130187151Y-137370480D01*
X130166107Y-137357867D01*
X130146402Y-137343253D01*
X130128223Y-137326777D01*
X130111747Y-137308598D01*
X130097133Y-137288893D01*
X130084520Y-137267849D01*
X130074030Y-137245671D01*
X130065765Y-137222571D01*
X130059804Y-137198773D01*
X130056204Y-137174504D01*
X130055000Y-137150000D01*
X130055000Y-135900000D01*
X130056204Y-135875496D01*
X130059804Y-135851227D01*
X130065765Y-135827429D01*
X130074030Y-135804329D01*
X130084520Y-135782151D01*
X130097133Y-135761107D01*
X130111747Y-135741402D01*
X130128223Y-135723223D01*
X130146402Y-135706747D01*
X130166107Y-135692133D01*
X130187151Y-135679520D01*
X130209329Y-135669030D01*
X130232429Y-135660765D01*
X130256227Y-135654804D01*
X130280496Y-135651204D01*
X130305000Y-135650000D01*
X131055000Y-135650000D01*
X131079504Y-135651204D01*
G37*
G36*
X133879504Y-135651204D02*
G01*
X133903773Y-135654804D01*
X133927571Y-135660765D01*
X133950671Y-135669030D01*
X133972849Y-135679520D01*
X133993893Y-135692133D01*
X134013598Y-135706747D01*
X134031777Y-135723223D01*
X134048253Y-135741402D01*
X134062867Y-135761107D01*
X134075480Y-135782151D01*
X134085970Y-135804329D01*
X134094235Y-135827429D01*
X134100196Y-135851227D01*
X134103796Y-135875496D01*
X134105000Y-135900000D01*
X134105000Y-137150000D01*
X134103796Y-137174504D01*
X134100196Y-137198773D01*
X134094235Y-137222571D01*
X134085970Y-137245671D01*
X134075480Y-137267849D01*
X134062867Y-137288893D01*
X134048253Y-137308598D01*
X134031777Y-137326777D01*
X134013598Y-137343253D01*
X133993893Y-137357867D01*
X133972849Y-137370480D01*
X133950671Y-137380970D01*
X133927571Y-137389235D01*
X133903773Y-137395196D01*
X133879504Y-137398796D01*
X133855000Y-137400000D01*
X133105000Y-137400000D01*
X133080496Y-137398796D01*
X133056227Y-137395196D01*
X133032429Y-137389235D01*
X133009329Y-137380970D01*
X132987151Y-137370480D01*
X132966107Y-137357867D01*
X132946402Y-137343253D01*
X132928223Y-137326777D01*
X132911747Y-137308598D01*
X132897133Y-137288893D01*
X132884520Y-137267849D01*
X132874030Y-137245671D01*
X132865765Y-137222571D01*
X132859804Y-137198773D01*
X132856204Y-137174504D01*
X132855000Y-137150000D01*
X132855000Y-135900000D01*
X132856204Y-135875496D01*
X132859804Y-135851227D01*
X132865765Y-135827429D01*
X132874030Y-135804329D01*
X132884520Y-135782151D01*
X132897133Y-135761107D01*
X132911747Y-135741402D01*
X132928223Y-135723223D01*
X132946402Y-135706747D01*
X132966107Y-135692133D01*
X132987151Y-135679520D01*
X133009329Y-135669030D01*
X133032429Y-135660765D01*
X133056227Y-135654804D01*
X133080496Y-135651204D01*
X133105000Y-135650000D01*
X133855000Y-135650000D01*
X133879504Y-135651204D01*
G37*
G36*
X132609504Y-36591204D02*
G01*
X132633773Y-36594804D01*
X132657571Y-36600765D01*
X132680671Y-36609030D01*
X132702849Y-36619520D01*
X132723893Y-36632133D01*
X132743598Y-36646747D01*
X132761777Y-36663223D01*
X132778253Y-36681402D01*
X132792867Y-36701107D01*
X132805480Y-36722151D01*
X132815970Y-36744329D01*
X132824235Y-36767429D01*
X132830196Y-36791227D01*
X132833796Y-36815496D01*
X132835000Y-36840000D01*
X132835000Y-38090000D01*
X132833796Y-38114504D01*
X132830196Y-38138773D01*
X132824235Y-38162571D01*
X132815970Y-38185671D01*
X132805480Y-38207849D01*
X132792867Y-38228893D01*
X132778253Y-38248598D01*
X132761777Y-38266777D01*
X132743598Y-38283253D01*
X132723893Y-38297867D01*
X132702849Y-38310480D01*
X132680671Y-38320970D01*
X132657571Y-38329235D01*
X132633773Y-38335196D01*
X132609504Y-38338796D01*
X132585000Y-38340000D01*
X131835000Y-38340000D01*
X131810496Y-38338796D01*
X131786227Y-38335196D01*
X131762429Y-38329235D01*
X131739329Y-38320970D01*
X131717151Y-38310480D01*
X131696107Y-38297867D01*
X131676402Y-38283253D01*
X131658223Y-38266777D01*
X131641747Y-38248598D01*
X131627133Y-38228893D01*
X131614520Y-38207849D01*
X131604030Y-38185671D01*
X131595765Y-38162571D01*
X131589804Y-38138773D01*
X131586204Y-38114504D01*
X131585000Y-38090000D01*
X131585000Y-36840000D01*
X131586204Y-36815496D01*
X131589804Y-36791227D01*
X131595765Y-36767429D01*
X131604030Y-36744329D01*
X131614520Y-36722151D01*
X131627133Y-36701107D01*
X131641747Y-36681402D01*
X131658223Y-36663223D01*
X131676402Y-36646747D01*
X131696107Y-36632133D01*
X131717151Y-36619520D01*
X131739329Y-36609030D01*
X131762429Y-36600765D01*
X131786227Y-36594804D01*
X131810496Y-36591204D01*
X131835000Y-36590000D01*
X132585000Y-36590000D01*
X132609504Y-36591204D01*
G37*
G36*
X129809504Y-36591204D02*
G01*
X129833773Y-36594804D01*
X129857571Y-36600765D01*
X129880671Y-36609030D01*
X129902849Y-36619520D01*
X129923893Y-36632133D01*
X129943598Y-36646747D01*
X129961777Y-36663223D01*
X129978253Y-36681402D01*
X129992867Y-36701107D01*
X130005480Y-36722151D01*
X130015970Y-36744329D01*
X130024235Y-36767429D01*
X130030196Y-36791227D01*
X130033796Y-36815496D01*
X130035000Y-36840000D01*
X130035000Y-38090000D01*
X130033796Y-38114504D01*
X130030196Y-38138773D01*
X130024235Y-38162571D01*
X130015970Y-38185671D01*
X130005480Y-38207849D01*
X129992867Y-38228893D01*
X129978253Y-38248598D01*
X129961777Y-38266777D01*
X129943598Y-38283253D01*
X129923893Y-38297867D01*
X129902849Y-38310480D01*
X129880671Y-38320970D01*
X129857571Y-38329235D01*
X129833773Y-38335196D01*
X129809504Y-38338796D01*
X129785000Y-38340000D01*
X129035000Y-38340000D01*
X129010496Y-38338796D01*
X128986227Y-38335196D01*
X128962429Y-38329235D01*
X128939329Y-38320970D01*
X128917151Y-38310480D01*
X128896107Y-38297867D01*
X128876402Y-38283253D01*
X128858223Y-38266777D01*
X128841747Y-38248598D01*
X128827133Y-38228893D01*
X128814520Y-38207849D01*
X128804030Y-38185671D01*
X128795765Y-38162571D01*
X128789804Y-38138773D01*
X128786204Y-38114504D01*
X128785000Y-38090000D01*
X128785000Y-36840000D01*
X128786204Y-36815496D01*
X128789804Y-36791227D01*
X128795765Y-36767429D01*
X128804030Y-36744329D01*
X128814520Y-36722151D01*
X128827133Y-36701107D01*
X128841747Y-36681402D01*
X128858223Y-36663223D01*
X128876402Y-36646747D01*
X128896107Y-36632133D01*
X128917151Y-36619520D01*
X128939329Y-36609030D01*
X128962429Y-36600765D01*
X128986227Y-36594804D01*
X129010496Y-36591204D01*
X129035000Y-36590000D01*
X129785000Y-36590000D01*
X129809504Y-36591204D01*
G37*
G36*
X121684504Y-39766204D02*
G01*
X121708773Y-39769804D01*
X121732571Y-39775765D01*
X121755671Y-39784030D01*
X121777849Y-39794520D01*
X121798893Y-39807133D01*
X121818598Y-39821747D01*
X121836777Y-39838223D01*
X121853253Y-39856402D01*
X121867867Y-39876107D01*
X121880480Y-39897151D01*
X121890970Y-39919329D01*
X121899235Y-39942429D01*
X121905196Y-39966227D01*
X121908796Y-39990496D01*
X121910000Y-40015000D01*
X121910000Y-41265000D01*
X121908796Y-41289504D01*
X121905196Y-41313773D01*
X121899235Y-41337571D01*
X121890970Y-41360671D01*
X121880480Y-41382849D01*
X121867867Y-41403893D01*
X121853253Y-41423598D01*
X121836777Y-41441777D01*
X121818598Y-41458253D01*
X121798893Y-41472867D01*
X121777849Y-41485480D01*
X121755671Y-41495970D01*
X121732571Y-41504235D01*
X121708773Y-41510196D01*
X121684504Y-41513796D01*
X121660000Y-41515000D01*
X120910000Y-41515000D01*
X120885496Y-41513796D01*
X120861227Y-41510196D01*
X120837429Y-41504235D01*
X120814329Y-41495970D01*
X120792151Y-41485480D01*
X120771107Y-41472867D01*
X120751402Y-41458253D01*
X120733223Y-41441777D01*
X120716747Y-41423598D01*
X120702133Y-41403893D01*
X120689520Y-41382849D01*
X120679030Y-41360671D01*
X120670765Y-41337571D01*
X120664804Y-41313773D01*
X120661204Y-41289504D01*
X120660000Y-41265000D01*
X120660000Y-40015000D01*
X120661204Y-39990496D01*
X120664804Y-39966227D01*
X120670765Y-39942429D01*
X120679030Y-39919329D01*
X120689520Y-39897151D01*
X120702133Y-39876107D01*
X120716747Y-39856402D01*
X120733223Y-39838223D01*
X120751402Y-39821747D01*
X120771107Y-39807133D01*
X120792151Y-39794520D01*
X120814329Y-39784030D01*
X120837429Y-39775765D01*
X120861227Y-39769804D01*
X120885496Y-39766204D01*
X120910000Y-39765000D01*
X121660000Y-39765000D01*
X121684504Y-39766204D01*
G37*
G36*
X118884504Y-39766204D02*
G01*
X118908773Y-39769804D01*
X118932571Y-39775765D01*
X118955671Y-39784030D01*
X118977849Y-39794520D01*
X118998893Y-39807133D01*
X119018598Y-39821747D01*
X119036777Y-39838223D01*
X119053253Y-39856402D01*
X119067867Y-39876107D01*
X119080480Y-39897151D01*
X119090970Y-39919329D01*
X119099235Y-39942429D01*
X119105196Y-39966227D01*
X119108796Y-39990496D01*
X119110000Y-40015000D01*
X119110000Y-41265000D01*
X119108796Y-41289504D01*
X119105196Y-41313773D01*
X119099235Y-41337571D01*
X119090970Y-41360671D01*
X119080480Y-41382849D01*
X119067867Y-41403893D01*
X119053253Y-41423598D01*
X119036777Y-41441777D01*
X119018598Y-41458253D01*
X118998893Y-41472867D01*
X118977849Y-41485480D01*
X118955671Y-41495970D01*
X118932571Y-41504235D01*
X118908773Y-41510196D01*
X118884504Y-41513796D01*
X118860000Y-41515000D01*
X118110000Y-41515000D01*
X118085496Y-41513796D01*
X118061227Y-41510196D01*
X118037429Y-41504235D01*
X118014329Y-41495970D01*
X117992151Y-41485480D01*
X117971107Y-41472867D01*
X117951402Y-41458253D01*
X117933223Y-41441777D01*
X117916747Y-41423598D01*
X117902133Y-41403893D01*
X117889520Y-41382849D01*
X117879030Y-41360671D01*
X117870765Y-41337571D01*
X117864804Y-41313773D01*
X117861204Y-41289504D01*
X117860000Y-41265000D01*
X117860000Y-40015000D01*
X117861204Y-39990496D01*
X117864804Y-39966227D01*
X117870765Y-39942429D01*
X117879030Y-39919329D01*
X117889520Y-39897151D01*
X117902133Y-39876107D01*
X117916747Y-39856402D01*
X117933223Y-39838223D01*
X117951402Y-39821747D01*
X117971107Y-39807133D01*
X117992151Y-39794520D01*
X118014329Y-39784030D01*
X118037429Y-39775765D01*
X118061227Y-39769804D01*
X118085496Y-39766204D01*
X118110000Y-39765000D01*
X118860000Y-39765000D01*
X118884504Y-39766204D01*
G37*
G36*
X43449504Y-36591204D02*
G01*
X43473773Y-36594804D01*
X43497571Y-36600765D01*
X43520671Y-36609030D01*
X43542849Y-36619520D01*
X43563893Y-36632133D01*
X43583598Y-36646747D01*
X43601777Y-36663223D01*
X43618253Y-36681402D01*
X43632867Y-36701107D01*
X43645480Y-36722151D01*
X43655970Y-36744329D01*
X43664235Y-36767429D01*
X43670196Y-36791227D01*
X43673796Y-36815496D01*
X43675000Y-36840000D01*
X43675000Y-38090000D01*
X43673796Y-38114504D01*
X43670196Y-38138773D01*
X43664235Y-38162571D01*
X43655970Y-38185671D01*
X43645480Y-38207849D01*
X43632867Y-38228893D01*
X43618253Y-38248598D01*
X43601777Y-38266777D01*
X43583598Y-38283253D01*
X43563893Y-38297867D01*
X43542849Y-38310480D01*
X43520671Y-38320970D01*
X43497571Y-38329235D01*
X43473773Y-38335196D01*
X43449504Y-38338796D01*
X43425000Y-38340000D01*
X42675000Y-38340000D01*
X42650496Y-38338796D01*
X42626227Y-38335196D01*
X42602429Y-38329235D01*
X42579329Y-38320970D01*
X42557151Y-38310480D01*
X42536107Y-38297867D01*
X42516402Y-38283253D01*
X42498223Y-38266777D01*
X42481747Y-38248598D01*
X42467133Y-38228893D01*
X42454520Y-38207849D01*
X42444030Y-38185671D01*
X42435765Y-38162571D01*
X42429804Y-38138773D01*
X42426204Y-38114504D01*
X42425000Y-38090000D01*
X42425000Y-36840000D01*
X42426204Y-36815496D01*
X42429804Y-36791227D01*
X42435765Y-36767429D01*
X42444030Y-36744329D01*
X42454520Y-36722151D01*
X42467133Y-36701107D01*
X42481747Y-36681402D01*
X42498223Y-36663223D01*
X42516402Y-36646747D01*
X42536107Y-36632133D01*
X42557151Y-36619520D01*
X42579329Y-36609030D01*
X42602429Y-36600765D01*
X42626227Y-36594804D01*
X42650496Y-36591204D01*
X42675000Y-36590000D01*
X43425000Y-36590000D01*
X43449504Y-36591204D01*
G37*
G36*
X46249504Y-36591204D02*
G01*
X46273773Y-36594804D01*
X46297571Y-36600765D01*
X46320671Y-36609030D01*
X46342849Y-36619520D01*
X46363893Y-36632133D01*
X46383598Y-36646747D01*
X46401777Y-36663223D01*
X46418253Y-36681402D01*
X46432867Y-36701107D01*
X46445480Y-36722151D01*
X46455970Y-36744329D01*
X46464235Y-36767429D01*
X46470196Y-36791227D01*
X46473796Y-36815496D01*
X46475000Y-36840000D01*
X46475000Y-38090000D01*
X46473796Y-38114504D01*
X46470196Y-38138773D01*
X46464235Y-38162571D01*
X46455970Y-38185671D01*
X46445480Y-38207849D01*
X46432867Y-38228893D01*
X46418253Y-38248598D01*
X46401777Y-38266777D01*
X46383598Y-38283253D01*
X46363893Y-38297867D01*
X46342849Y-38310480D01*
X46320671Y-38320970D01*
X46297571Y-38329235D01*
X46273773Y-38335196D01*
X46249504Y-38338796D01*
X46225000Y-38340000D01*
X45475000Y-38340000D01*
X45450496Y-38338796D01*
X45426227Y-38335196D01*
X45402429Y-38329235D01*
X45379329Y-38320970D01*
X45357151Y-38310480D01*
X45336107Y-38297867D01*
X45316402Y-38283253D01*
X45298223Y-38266777D01*
X45281747Y-38248598D01*
X45267133Y-38228893D01*
X45254520Y-38207849D01*
X45244030Y-38185671D01*
X45235765Y-38162571D01*
X45229804Y-38138773D01*
X45226204Y-38114504D01*
X45225000Y-38090000D01*
X45225000Y-36840000D01*
X45226204Y-36815496D01*
X45229804Y-36791227D01*
X45235765Y-36767429D01*
X45244030Y-36744329D01*
X45254520Y-36722151D01*
X45267133Y-36701107D01*
X45281747Y-36681402D01*
X45298223Y-36663223D01*
X45316402Y-36646747D01*
X45336107Y-36632133D01*
X45357151Y-36619520D01*
X45379329Y-36609030D01*
X45402429Y-36600765D01*
X45426227Y-36594804D01*
X45450496Y-36591204D01*
X45475000Y-36590000D01*
X46225000Y-36590000D01*
X46249504Y-36591204D01*
G37*
G36*
X54114504Y-39766204D02*
G01*
X54138773Y-39769804D01*
X54162571Y-39775765D01*
X54185671Y-39784030D01*
X54207849Y-39794520D01*
X54228893Y-39807133D01*
X54248598Y-39821747D01*
X54266777Y-39838223D01*
X54283253Y-39856402D01*
X54297867Y-39876107D01*
X54310480Y-39897151D01*
X54320970Y-39919329D01*
X54329235Y-39942429D01*
X54335196Y-39966227D01*
X54338796Y-39990496D01*
X54340000Y-40015000D01*
X54340000Y-41265000D01*
X54338796Y-41289504D01*
X54335196Y-41313773D01*
X54329235Y-41337571D01*
X54320970Y-41360671D01*
X54310480Y-41382849D01*
X54297867Y-41403893D01*
X54283253Y-41423598D01*
X54266777Y-41441777D01*
X54248598Y-41458253D01*
X54228893Y-41472867D01*
X54207849Y-41485480D01*
X54185671Y-41495970D01*
X54162571Y-41504235D01*
X54138773Y-41510196D01*
X54114504Y-41513796D01*
X54090000Y-41515000D01*
X53340000Y-41515000D01*
X53315496Y-41513796D01*
X53291227Y-41510196D01*
X53267429Y-41504235D01*
X53244329Y-41495970D01*
X53222151Y-41485480D01*
X53201107Y-41472867D01*
X53181402Y-41458253D01*
X53163223Y-41441777D01*
X53146747Y-41423598D01*
X53132133Y-41403893D01*
X53119520Y-41382849D01*
X53109030Y-41360671D01*
X53100765Y-41337571D01*
X53094804Y-41313773D01*
X53091204Y-41289504D01*
X53090000Y-41265000D01*
X53090000Y-40015000D01*
X53091204Y-39990496D01*
X53094804Y-39966227D01*
X53100765Y-39942429D01*
X53109030Y-39919329D01*
X53119520Y-39897151D01*
X53132133Y-39876107D01*
X53146747Y-39856402D01*
X53163223Y-39838223D01*
X53181402Y-39821747D01*
X53201107Y-39807133D01*
X53222151Y-39794520D01*
X53244329Y-39784030D01*
X53267429Y-39775765D01*
X53291227Y-39769804D01*
X53315496Y-39766204D01*
X53340000Y-39765000D01*
X54090000Y-39765000D01*
X54114504Y-39766204D01*
G37*
G36*
X56914504Y-39766204D02*
G01*
X56938773Y-39769804D01*
X56962571Y-39775765D01*
X56985671Y-39784030D01*
X57007849Y-39794520D01*
X57028893Y-39807133D01*
X57048598Y-39821747D01*
X57066777Y-39838223D01*
X57083253Y-39856402D01*
X57097867Y-39876107D01*
X57110480Y-39897151D01*
X57120970Y-39919329D01*
X57129235Y-39942429D01*
X57135196Y-39966227D01*
X57138796Y-39990496D01*
X57140000Y-40015000D01*
X57140000Y-41265000D01*
X57138796Y-41289504D01*
X57135196Y-41313773D01*
X57129235Y-41337571D01*
X57120970Y-41360671D01*
X57110480Y-41382849D01*
X57097867Y-41403893D01*
X57083253Y-41423598D01*
X57066777Y-41441777D01*
X57048598Y-41458253D01*
X57028893Y-41472867D01*
X57007849Y-41485480D01*
X56985671Y-41495970D01*
X56962571Y-41504235D01*
X56938773Y-41510196D01*
X56914504Y-41513796D01*
X56890000Y-41515000D01*
X56140000Y-41515000D01*
X56115496Y-41513796D01*
X56091227Y-41510196D01*
X56067429Y-41504235D01*
X56044329Y-41495970D01*
X56022151Y-41485480D01*
X56001107Y-41472867D01*
X55981402Y-41458253D01*
X55963223Y-41441777D01*
X55946747Y-41423598D01*
X55932133Y-41403893D01*
X55919520Y-41382849D01*
X55909030Y-41360671D01*
X55900765Y-41337571D01*
X55894804Y-41313773D01*
X55891204Y-41289504D01*
X55890000Y-41265000D01*
X55890000Y-40015000D01*
X55891204Y-39990496D01*
X55894804Y-39966227D01*
X55900765Y-39942429D01*
X55909030Y-39919329D01*
X55919520Y-39897151D01*
X55932133Y-39876107D01*
X55946747Y-39856402D01*
X55963223Y-39838223D01*
X55981402Y-39821747D01*
X56001107Y-39807133D01*
X56022151Y-39794520D01*
X56044329Y-39784030D01*
X56067429Y-39775765D01*
X56091227Y-39769804D01*
X56115496Y-39766204D01*
X56140000Y-39765000D01*
X56890000Y-39765000D01*
X56914504Y-39766204D01*
G37*
G36*
X78754504Y-97671204D02*
G01*
X78778773Y-97674804D01*
X78802571Y-97680765D01*
X78825671Y-97689030D01*
X78847849Y-97699520D01*
X78868893Y-97712133D01*
X78888598Y-97726747D01*
X78906777Y-97743223D01*
X78923253Y-97761402D01*
X78937867Y-97781107D01*
X78950480Y-97802151D01*
X78960970Y-97824329D01*
X78969235Y-97847429D01*
X78975196Y-97871227D01*
X78978796Y-97895496D01*
X78980000Y-97920000D01*
X78980000Y-98670000D01*
X78978796Y-98694504D01*
X78975196Y-98718773D01*
X78969235Y-98742571D01*
X78960970Y-98765671D01*
X78950480Y-98787849D01*
X78937867Y-98808893D01*
X78923253Y-98828598D01*
X78906777Y-98846777D01*
X78888598Y-98863253D01*
X78868893Y-98877867D01*
X78847849Y-98890480D01*
X78825671Y-98900970D01*
X78802571Y-98909235D01*
X78778773Y-98915196D01*
X78754504Y-98918796D01*
X78730000Y-98920000D01*
X77480000Y-98920000D01*
X77455496Y-98918796D01*
X77431227Y-98915196D01*
X77407429Y-98909235D01*
X77384329Y-98900970D01*
X77362151Y-98890480D01*
X77341107Y-98877867D01*
X77321402Y-98863253D01*
X77303223Y-98846777D01*
X77286747Y-98828598D01*
X77272133Y-98808893D01*
X77259520Y-98787849D01*
X77249030Y-98765671D01*
X77240765Y-98742571D01*
X77234804Y-98718773D01*
X77231204Y-98694504D01*
X77230000Y-98670000D01*
X77230000Y-97920000D01*
X77231204Y-97895496D01*
X77234804Y-97871227D01*
X77240765Y-97847429D01*
X77249030Y-97824329D01*
X77259520Y-97802151D01*
X77272133Y-97781107D01*
X77286747Y-97761402D01*
X77303223Y-97743223D01*
X77321402Y-97726747D01*
X77341107Y-97712133D01*
X77362151Y-97699520D01*
X77384329Y-97689030D01*
X77407429Y-97680765D01*
X77431227Y-97674804D01*
X77455496Y-97671204D01*
X77480000Y-97670000D01*
X78730000Y-97670000D01*
X78754504Y-97671204D01*
G37*
G36*
X78754504Y-100471204D02*
G01*
X78778773Y-100474804D01*
X78802571Y-100480765D01*
X78825671Y-100489030D01*
X78847849Y-100499520D01*
X78868893Y-100512133D01*
X78888598Y-100526747D01*
X78906777Y-100543223D01*
X78923253Y-100561402D01*
X78937867Y-100581107D01*
X78950480Y-100602151D01*
X78960970Y-100624329D01*
X78969235Y-100647429D01*
X78975196Y-100671227D01*
X78978796Y-100695496D01*
X78980000Y-100720000D01*
X78980000Y-101470000D01*
X78978796Y-101494504D01*
X78975196Y-101518773D01*
X78969235Y-101542571D01*
X78960970Y-101565671D01*
X78950480Y-101587849D01*
X78937867Y-101608893D01*
X78923253Y-101628598D01*
X78906777Y-101646777D01*
X78888598Y-101663253D01*
X78868893Y-101677867D01*
X78847849Y-101690480D01*
X78825671Y-101700970D01*
X78802571Y-101709235D01*
X78778773Y-101715196D01*
X78754504Y-101718796D01*
X78730000Y-101720000D01*
X77480000Y-101720000D01*
X77455496Y-101718796D01*
X77431227Y-101715196D01*
X77407429Y-101709235D01*
X77384329Y-101700970D01*
X77362151Y-101690480D01*
X77341107Y-101677867D01*
X77321402Y-101663253D01*
X77303223Y-101646777D01*
X77286747Y-101628598D01*
X77272133Y-101608893D01*
X77259520Y-101587849D01*
X77249030Y-101565671D01*
X77240765Y-101542571D01*
X77234804Y-101518773D01*
X77231204Y-101494504D01*
X77230000Y-101470000D01*
X77230000Y-100720000D01*
X77231204Y-100695496D01*
X77234804Y-100671227D01*
X77240765Y-100647429D01*
X77249030Y-100624329D01*
X77259520Y-100602151D01*
X77272133Y-100581107D01*
X77286747Y-100561402D01*
X77303223Y-100543223D01*
X77321402Y-100526747D01*
X77341107Y-100512133D01*
X77362151Y-100499520D01*
X77384329Y-100489030D01*
X77407429Y-100480765D01*
X77431227Y-100474804D01*
X77455496Y-100471204D01*
X77480000Y-100470000D01*
X78730000Y-100470000D01*
X78754504Y-100471204D01*
G37*
D11*
X112925000Y-40640000D03*
D12*
X115200000Y-40640000D03*
D11*
X61700000Y-40640000D03*
D12*
X59425000Y-40640000D03*
M02*
