G04 #@! TF.GenerationSoftware,KiCad,Pcbnew,5.1.5-52549c5~84~ubuntu18.04.1*
G04 #@! TF.CreationDate,2019-12-30T18:31:59+07:00*
G04 #@! TF.ProjectId,plate,706c6174-652e-46b6-9963-61645f706362,rev?*
G04 #@! TF.SameCoordinates,Original*
G04 #@! TF.FileFunction,Copper,L2,Bot*
G04 #@! TF.FilePolarity,Positive*
%FSLAX46Y46*%
G04 Gerber Fmt 4.6, Leading zero omitted, Abs format (unit mm)*
G04 Created by KiCad (PCBNEW 5.1.5-52549c5~84~ubuntu18.04.1) date 2019-12-30 18:31:59*
%MOMM*%
%LPD*%
G04 APERTURE LIST*
%ADD10O,1.700000X1.700000*%
%ADD11R,1.700000X1.700000*%
%ADD12C,2.000000*%
%ADD13R,1.050000X1.500000*%
%ADD14O,1.050000X1.500000*%
%ADD15O,1.600000X1.600000*%
%ADD16R,1.600000X1.600000*%
%ADD17C,1.000000*%
%ADD18C,0.800000*%
%ADD19C,1.000000*%
%ADD20C,0.600000*%
%ADD21C,0.500000*%
G04 APERTURE END LIST*
D10*
X40640000Y-123825000D03*
X40640000Y-126365000D03*
X40640000Y-128905000D03*
D11*
X40640000Y-131445000D03*
D10*
X135890000Y-130810000D03*
X135890000Y-128270000D03*
X135890000Y-125730000D03*
D11*
X135890000Y-123190000D03*
D10*
X49530000Y-91440000D03*
X49530000Y-88900000D03*
X49530000Y-86360000D03*
D11*
X49530000Y-83820000D03*
D10*
X85090000Y-36830000D03*
X87630000Y-36830000D03*
X90170000Y-36830000D03*
D11*
X92710000Y-36830000D03*
D10*
X127000000Y-83820000D03*
X127000000Y-86360000D03*
X127000000Y-88900000D03*
D11*
X127000000Y-91440000D03*
D10*
X91440000Y-161290000D03*
X88900000Y-161290000D03*
X86360000Y-161290000D03*
D11*
X83820000Y-161290000D03*
D10*
X123190000Y-110490000D03*
X120650000Y-110490000D03*
X118110000Y-110490000D03*
X115570000Y-110490000D03*
X113030000Y-110490000D03*
X110490000Y-110490000D03*
X107950000Y-110490000D03*
D11*
X105410000Y-110490000D03*
D10*
X66675000Y-145415000D03*
X66675000Y-142875000D03*
X66675000Y-140335000D03*
D11*
X66675000Y-137795000D03*
D10*
X107950000Y-146050000D03*
X107950000Y-143510000D03*
X107950000Y-140970000D03*
D11*
X107950000Y-138430000D03*
D10*
X74295000Y-96520000D03*
D11*
X74295000Y-93980000D03*
D10*
X123825000Y-96520000D03*
D11*
X123825000Y-93980000D03*
D12*
X47140000Y-167640000D03*
X47140000Y-172140000D03*
X40640000Y-167640000D03*
X40640000Y-172140000D03*
X134770000Y-167640000D03*
X134770000Y-172140000D03*
X128270000Y-167640000D03*
X128270000Y-172140000D03*
D13*
X48895000Y-130810000D03*
D14*
X46355000Y-130810000D03*
X47625000Y-130810000D03*
D13*
X129540000Y-130810000D03*
D14*
X132080000Y-130810000D03*
X130810000Y-130810000D03*
D10*
X79375000Y-119380000D03*
D11*
X79375000Y-121920000D03*
D10*
X90170000Y-121920000D03*
D11*
X87630000Y-121920000D03*
D10*
X90170000Y-114935000D03*
D11*
X87630000Y-114935000D03*
D10*
X52070000Y-99060000D03*
D11*
X52070000Y-96520000D03*
D10*
X101600000Y-96520000D03*
D11*
X101600000Y-99060000D03*
D10*
X68580000Y-63500000D03*
X68580000Y-66040000D03*
X68580000Y-68580000D03*
X68580000Y-71120000D03*
X68580000Y-73660000D03*
D11*
X68580000Y-76200000D03*
D15*
X55880000Y-60960000D03*
X71120000Y-60960000D03*
X55880000Y-96520000D03*
X71120000Y-63500000D03*
X55880000Y-93980000D03*
X71120000Y-66040000D03*
X55880000Y-91440000D03*
X71120000Y-68580000D03*
X55880000Y-88900000D03*
X71120000Y-71120000D03*
X55880000Y-86360000D03*
X71120000Y-73660000D03*
X55880000Y-83820000D03*
X71120000Y-76200000D03*
X55880000Y-81280000D03*
X71120000Y-78740000D03*
X55880000Y-78740000D03*
X71120000Y-81280000D03*
X55880000Y-76200000D03*
X71120000Y-83820000D03*
X55880000Y-73660000D03*
X71120000Y-86360000D03*
X55880000Y-71120000D03*
X71120000Y-88900000D03*
X55880000Y-68580000D03*
X71120000Y-91440000D03*
X55880000Y-66040000D03*
X71120000Y-93980000D03*
X55880000Y-63500000D03*
D16*
X71120000Y-96520000D03*
D10*
X64135000Y-88900000D03*
X64135000Y-86360000D03*
D11*
X64135000Y-83820000D03*
D10*
X83820000Y-101600000D03*
D11*
X81280000Y-101600000D03*
D15*
X105410000Y-60960000D03*
X120650000Y-60960000D03*
X105410000Y-96520000D03*
X120650000Y-63500000D03*
X105410000Y-93980000D03*
X120650000Y-66040000D03*
X105410000Y-91440000D03*
X120650000Y-68580000D03*
X105410000Y-88900000D03*
X120650000Y-71120000D03*
X105410000Y-86360000D03*
X120650000Y-73660000D03*
X105410000Y-83820000D03*
X120650000Y-76200000D03*
X105410000Y-81280000D03*
X120650000Y-78740000D03*
X105410000Y-78740000D03*
X120650000Y-81280000D03*
X105410000Y-76200000D03*
X120650000Y-83820000D03*
X105410000Y-73660000D03*
X120650000Y-86360000D03*
X105410000Y-71120000D03*
X120650000Y-88900000D03*
X105410000Y-68580000D03*
X120650000Y-91440000D03*
X105410000Y-66040000D03*
X120650000Y-93980000D03*
X105410000Y-63500000D03*
D16*
X120650000Y-96520000D03*
D10*
X56670000Y-125730000D03*
X56670000Y-123190000D03*
X56670000Y-120650000D03*
X56670000Y-118110000D03*
X56670000Y-115570000D03*
X56670000Y-113030000D03*
X56670000Y-110490000D03*
D11*
X56670000Y-107950000D03*
D12*
X132230000Y-29210000D03*
X132230000Y-33710000D03*
X125730000Y-29210000D03*
X125730000Y-33710000D03*
X49680000Y-29210000D03*
X49680000Y-33710000D03*
X43180000Y-29210000D03*
X43180000Y-33710000D03*
D10*
X81280000Y-97790000D03*
D11*
X83820000Y-97790000D03*
D10*
X59055000Y-125730000D03*
X59055000Y-123190000D03*
X59055000Y-120650000D03*
X59055000Y-118110000D03*
X59055000Y-115570000D03*
X59055000Y-113030000D03*
X59055000Y-110490000D03*
D11*
X59055000Y-107950000D03*
D10*
X61595000Y-125730000D03*
X61595000Y-123190000D03*
X61595000Y-120650000D03*
X61595000Y-118110000D03*
X61595000Y-115570000D03*
X61595000Y-113030000D03*
X61595000Y-110490000D03*
D11*
X61595000Y-107950000D03*
D17*
X51435000Y-92710000D03*
X61595000Y-105410000D03*
X59182500Y-131952500D03*
X59055000Y-139065000D03*
X49530000Y-81280000D03*
X53340000Y-81280000D03*
X58420000Y-150495000D03*
X52705000Y-150495000D03*
X76835000Y-104140000D03*
X56515000Y-104140000D03*
X127000000Y-63500000D03*
X125085000Y-57775000D03*
X99695000Y-41910000D03*
X114935000Y-45085000D03*
X107950000Y-106045000D03*
X107315000Y-99695000D03*
X73660000Y-104140000D03*
X118745000Y-88900000D03*
X107315000Y-93980000D03*
X133480000Y-133480000D03*
X133350000Y-127000000D03*
X56670000Y-140180000D03*
X52705000Y-140335000D03*
X66040000Y-80010000D03*
X69215000Y-86360000D03*
X101600000Y-117475000D03*
X98425000Y-96520000D03*
X111760000Y-81280000D03*
X107315000Y-81280000D03*
X113030000Y-78740000D03*
X108585000Y-78740000D03*
X118745000Y-91440000D03*
X114935000Y-91440000D03*
X74930000Y-81280000D03*
X74930000Y-76835000D03*
X99060000Y-60325000D03*
X123825000Y-91440000D03*
X102870000Y-57785000D03*
X99060000Y-57785000D03*
X61595000Y-54610000D03*
X59055000Y-57150000D03*
X42545000Y-45085000D03*
X75565000Y-101600000D03*
X52070000Y-102235000D03*
X52705000Y-130810000D03*
X73660000Y-130810000D03*
X102870000Y-130810000D03*
X117475000Y-130810000D03*
X67945000Y-96520000D03*
X59690000Y-78740000D03*
X55880000Y-99695000D03*
X46990000Y-104140000D03*
X98425000Y-128905000D03*
X75565000Y-128905000D03*
X47625000Y-123190000D03*
X53340000Y-68580000D03*
X46990000Y-71755000D03*
X89535000Y-40005000D03*
X86995000Y-42545000D03*
X63500000Y-56515000D03*
X60960000Y-59055000D03*
X62865000Y-60325000D03*
X64135000Y-57785000D03*
X99060000Y-55245000D03*
X102870000Y-55245000D03*
X111125000Y-55245000D03*
X114935000Y-55245000D03*
X128450001Y-65585001D03*
X123190000Y-60960000D03*
X63500000Y-92710000D03*
X61595000Y-86360000D03*
X131445000Y-125095000D03*
X43815000Y-126365000D03*
D18*
X51435000Y-92710000D02*
X49530000Y-94615000D01*
X49530000Y-94615000D02*
X49530000Y-104775000D01*
X49530000Y-104775000D02*
X49530000Y-105410000D01*
X49530000Y-105410000D02*
X60960000Y-105410000D01*
X60960000Y-105410000D02*
X61595000Y-105410000D01*
X61595000Y-105410000D02*
X61595000Y-105410000D01*
X49680000Y-29210000D02*
X49530000Y-29210000D01*
X59182500Y-138937500D02*
X59055000Y-139065000D01*
X59182500Y-131952500D02*
X59182500Y-138937500D01*
X53340000Y-81280000D02*
X49530000Y-81280000D01*
X64135000Y-86360000D02*
X64135000Y-86995000D01*
X58420000Y-150495000D02*
X52705000Y-150495000D01*
D19*
X76835000Y-104140000D02*
X56515000Y-104140000D01*
X56515000Y-104140000D02*
X56515000Y-104140000D01*
D18*
X125085000Y-61585000D02*
X127000000Y-63500000D01*
X125085000Y-57775000D02*
X125085000Y-61585000D01*
X111760000Y-41910000D02*
X99695000Y-41910000D01*
X114935000Y-45085000D02*
X111760000Y-41910000D01*
X107950000Y-110490000D02*
X107950000Y-109855000D01*
X107950000Y-100330000D02*
X107315000Y-99695000D01*
X107950000Y-106045000D02*
X107950000Y-100330000D01*
X107315000Y-93980000D02*
X109220000Y-93980000D01*
X114300000Y-88900000D02*
X118745000Y-88900000D01*
X109220000Y-93980000D02*
X114300000Y-88900000D01*
D20*
X133350000Y-133350000D02*
X133480000Y-133480000D01*
X133350000Y-127000000D02*
X133350000Y-133350000D01*
D21*
X52860000Y-140180000D02*
X52705000Y-140335000D01*
X56670000Y-140180000D02*
X52860000Y-140180000D01*
D18*
X69215000Y-83185000D02*
X66040000Y-80010000D01*
X69215000Y-86360000D02*
X69215000Y-83185000D01*
D19*
X98425000Y-96520000D02*
X98425000Y-100965000D01*
X101600000Y-104140000D02*
X101600000Y-117475000D01*
X98425000Y-100965000D02*
X101600000Y-104140000D01*
D18*
X107315000Y-81280000D02*
X111760000Y-81280000D01*
X113030000Y-78740000D02*
X108585000Y-78740000D01*
X118745000Y-91440000D02*
X114935000Y-91440000D01*
X74930000Y-81280000D02*
X74930000Y-76835000D01*
X74930000Y-76835000D02*
X74930000Y-76835000D01*
X99060000Y-60325000D02*
X95885000Y-57150000D01*
X95885000Y-57150000D02*
X95885000Y-53975000D01*
X95885000Y-53975000D02*
X107950000Y-53975000D01*
X107950000Y-53975000D02*
X127635000Y-53975000D01*
X129550002Y-55890002D02*
X129550002Y-79999998D01*
X127635000Y-53975000D02*
X129550002Y-55890002D01*
X129550002Y-79999998D02*
X128270000Y-81280000D01*
X127393998Y-81280000D02*
X123825000Y-84848998D01*
X128270000Y-81280000D02*
X127393998Y-81280000D01*
X123825000Y-84848998D02*
X123825000Y-91440000D01*
X123825000Y-91440000D02*
X123825000Y-91440000D01*
X102870000Y-57785000D02*
X99060000Y-57785000D01*
X61595000Y-54610000D02*
X59055000Y-57150000D01*
X66675000Y-56515000D02*
X66040000Y-56515000D01*
X54610000Y-45085000D02*
X42545000Y-45085000D01*
X65405000Y-59690000D02*
X66675000Y-58420000D01*
X66675000Y-58420000D02*
X66675000Y-56515000D01*
X64939999Y-77300001D02*
X65405000Y-76835000D01*
X64939999Y-78570001D02*
X64939999Y-77300001D01*
X66040000Y-56515000D02*
X54610000Y-45085000D01*
X66040000Y-81915000D02*
X64770000Y-81915000D01*
X71120000Y-91440000D02*
X67310000Y-91440000D01*
X64135000Y-79375000D02*
X64939999Y-78570001D01*
X66040000Y-90170000D02*
X66040000Y-81915000D01*
X67310000Y-91440000D02*
X66040000Y-90170000D01*
X64770000Y-81915000D02*
X64135000Y-81280000D01*
X65405000Y-76835000D02*
X65405000Y-59690000D01*
X64135000Y-81280000D02*
X64135000Y-79375000D01*
D19*
X52705000Y-101600000D02*
X52070000Y-102235000D01*
X75565000Y-101600000D02*
X52705000Y-101600000D01*
D21*
X52705000Y-130810000D02*
X73660000Y-130810000D01*
X73660000Y-130810000D02*
X73660000Y-130810000D01*
X102870000Y-130810000D02*
X117475000Y-130810000D01*
X117475000Y-130810000D02*
X117475000Y-130810000D01*
D18*
X67237894Y-96520000D02*
X67945000Y-96520000D01*
X65681998Y-96520000D02*
X67237894Y-96520000D01*
X59690000Y-90528002D02*
X65681998Y-96520000D01*
X59690000Y-78740000D02*
X59690000Y-90528002D01*
D20*
X55880000Y-86360000D02*
X54579999Y-87660001D01*
X54579999Y-87660001D02*
X53975000Y-88265000D01*
X53975000Y-88265000D02*
X53975000Y-99695000D01*
X53975000Y-99695000D02*
X55880000Y-99695000D01*
X55880000Y-99695000D02*
X55880000Y-99695000D01*
X46990000Y-112395000D02*
X51435000Y-116840000D01*
X51435000Y-116840000D02*
X51435000Y-127635000D01*
X46990000Y-104140000D02*
X46990000Y-112395000D01*
X51435000Y-127635000D02*
X52705000Y-128905000D01*
X52705000Y-128905000D02*
X75565000Y-128905000D01*
X130810000Y-130810000D02*
X130810000Y-128905000D01*
X130810000Y-128905000D02*
X98425000Y-128905000D01*
X98425000Y-128905000D02*
X98425000Y-128905000D01*
X75565000Y-128905000D02*
X75565000Y-128905000D01*
D21*
X54290001Y-82230001D02*
X54290001Y-78420001D01*
X55880000Y-83820000D02*
X54290001Y-82230001D01*
X54290001Y-78420001D02*
X53975000Y-78105000D01*
X53975000Y-78105000D02*
X51298998Y-78105000D01*
X51298998Y-78105000D02*
X48895000Y-78105000D01*
X48895000Y-78105000D02*
X45720000Y-81280000D01*
X45720000Y-81280000D02*
X45720000Y-121285000D01*
X45720000Y-121285000D02*
X47625000Y-123190000D01*
X47625000Y-123190000D02*
X47625000Y-123190000D01*
D18*
X50165000Y-68580000D02*
X46990000Y-71755000D01*
X53340000Y-68580000D02*
X50165000Y-68580000D01*
X89535000Y-40005000D02*
X86995000Y-42545000D01*
X86995000Y-42545000D02*
X86995000Y-42545000D01*
X63500000Y-56515000D02*
X60960000Y-59055000D01*
X62865000Y-60325000D02*
X62865000Y-59055000D01*
X62865000Y-59055000D02*
X64135000Y-57785000D01*
X64135000Y-57785000D02*
X64135000Y-57785000D01*
X99060000Y-55245000D02*
X102870000Y-55245000D01*
X102870000Y-55245000D02*
X102870000Y-55245000D01*
X111125000Y-55245000D02*
X114935000Y-55245000D01*
X114935000Y-55245000D02*
X114935000Y-55245000D01*
X128450001Y-65585001D02*
X126545001Y-65585001D01*
X126545001Y-65585001D02*
X123190000Y-62230000D01*
X123190000Y-62230000D02*
X123190000Y-60960000D01*
X61595000Y-90805000D02*
X63500000Y-92710000D01*
X61595000Y-86360000D02*
X61595000Y-90805000D01*
D21*
X55880000Y-81280000D02*
X57150000Y-81280000D01*
X57150000Y-81280000D02*
X57785000Y-81280000D01*
X57785000Y-81280000D02*
X57785000Y-57785000D01*
X57785000Y-57785000D02*
X56515000Y-56515000D01*
X56515000Y-56515000D02*
X51435000Y-56515000D01*
X51435000Y-56515000D02*
X43815000Y-64135000D01*
X43815000Y-125730000D02*
X43815000Y-126365000D01*
X43815000Y-125730000D02*
X43815000Y-135890000D01*
X43815000Y-64135000D02*
X43815000Y-125730000D01*
X43815000Y-135890000D02*
X55880000Y-147955000D01*
X55880000Y-147955000D02*
X66059002Y-147955000D01*
X66059002Y-147955000D02*
X69215000Y-147955000D01*
X69215000Y-147955000D02*
X71755000Y-145415000D01*
X71755000Y-145415000D02*
X71755000Y-135255000D01*
X71755000Y-135255000D02*
X78105000Y-128905000D01*
X78105000Y-128905000D02*
X96520000Y-128905000D01*
X96520000Y-128905000D02*
X96520000Y-127000000D01*
X96520000Y-127000000D02*
X98425000Y-125095000D01*
X98425000Y-125095000D02*
X131445000Y-125095000D01*
X131445000Y-125095000D02*
X131445000Y-125095000D01*
X43815000Y-126365000D02*
X43815000Y-126365000D01*
M02*
