G04 #@! TF.GenerationSoftware,KiCad,Pcbnew,5.1.5-52549c5~84~ubuntu18.04.1*
G04 #@! TF.CreationDate,2019-12-30T18:31:59+07:00*
G04 #@! TF.ProjectId,plate,706c6174-652e-46b6-9963-61645f706362,rev?*
G04 #@! TF.SameCoordinates,Original*
G04 #@! TF.FileFunction,Legend,Top*
G04 #@! TF.FilePolarity,Positive*
%FSLAX46Y46*%
G04 Gerber Fmt 4.6, Leading zero omitted, Abs format (unit mm)*
G04 Created by KiCad (PCBNEW 5.1.5-52549c5~84~ubuntu18.04.1) date 2019-12-30 18:31:59*
%MOMM*%
%LPD*%
G04 APERTURE LIST*
%ADD10C,0.120000*%
%ADD11C,0.150000*%
G04 APERTURE END LIST*
D10*
X41970000Y-132775000D02*
X40640000Y-132775000D01*
X41970000Y-131445000D02*
X41970000Y-132775000D01*
X41970000Y-130175000D02*
X39310000Y-130175000D01*
X39310000Y-130175000D02*
X39310000Y-122495000D01*
X41970000Y-130175000D02*
X41970000Y-122495000D01*
X41970000Y-122495000D02*
X39310000Y-122495000D01*
X134560000Y-121860000D02*
X135890000Y-121860000D01*
X134560000Y-123190000D02*
X134560000Y-121860000D01*
X134560000Y-124460000D02*
X137220000Y-124460000D01*
X137220000Y-124460000D02*
X137220000Y-132140000D01*
X134560000Y-124460000D02*
X134560000Y-132140000D01*
X134560000Y-132140000D02*
X137220000Y-132140000D01*
X49530000Y-82490000D02*
X50640000Y-82490000D01*
X50640000Y-82490000D02*
X50640000Y-83820000D01*
X39440000Y-82490000D02*
X39440000Y-92770000D01*
X39440000Y-92770000D02*
X48070000Y-92770000D01*
X48070000Y-82490000D02*
X48070000Y-92770000D01*
X39440000Y-82490000D02*
X48070000Y-82490000D01*
X39440000Y-90170000D02*
X48070000Y-90170000D01*
X39440000Y-87630000D02*
X48070000Y-87630000D01*
X39440000Y-85090000D02*
X48070000Y-85090000D01*
X48070000Y-91800000D02*
X48480000Y-91800000D01*
X48070000Y-91080000D02*
X48480000Y-91080000D01*
X48070000Y-89260000D02*
X48480000Y-89260000D01*
X48070000Y-88540000D02*
X48480000Y-88540000D01*
X48070000Y-86720000D02*
X48480000Y-86720000D01*
X48070000Y-86000000D02*
X48480000Y-86000000D01*
X48070000Y-84180000D02*
X48420000Y-84180000D01*
X48070000Y-83460000D02*
X48420000Y-83460000D01*
X39440000Y-84971900D02*
X48070000Y-84971900D01*
X39440000Y-84853805D02*
X48070000Y-84853805D01*
X39440000Y-84735710D02*
X48070000Y-84735710D01*
X39440000Y-84617615D02*
X48070000Y-84617615D01*
X39440000Y-84499520D02*
X48070000Y-84499520D01*
X39440000Y-84381425D02*
X48070000Y-84381425D01*
X39440000Y-84263330D02*
X48070000Y-84263330D01*
X39440000Y-84145235D02*
X48070000Y-84145235D01*
X39440000Y-84027140D02*
X48070000Y-84027140D01*
X39440000Y-83909045D02*
X48070000Y-83909045D01*
X39440000Y-83790950D02*
X48070000Y-83790950D01*
X39440000Y-83672855D02*
X48070000Y-83672855D01*
X39440000Y-83554760D02*
X48070000Y-83554760D01*
X39440000Y-83436665D02*
X48070000Y-83436665D01*
X39440000Y-83318570D02*
X48070000Y-83318570D01*
X39440000Y-83200475D02*
X48070000Y-83200475D01*
X39440000Y-83082380D02*
X48070000Y-83082380D01*
X39440000Y-82964285D02*
X48070000Y-82964285D01*
X39440000Y-82846190D02*
X48070000Y-82846190D01*
X39440000Y-82728095D02*
X48070000Y-82728095D01*
X39440000Y-82610000D02*
X48070000Y-82610000D01*
X94040000Y-36830000D02*
X94040000Y-37940000D01*
X94040000Y-37940000D02*
X92710000Y-37940000D01*
X94040000Y-26740000D02*
X83760000Y-26740000D01*
X83760000Y-26740000D02*
X83760000Y-35370000D01*
X94040000Y-35370000D02*
X83760000Y-35370000D01*
X94040000Y-26740000D02*
X94040000Y-35370000D01*
X86360000Y-26740000D02*
X86360000Y-35370000D01*
X88900000Y-26740000D02*
X88900000Y-35370000D01*
X91440000Y-26740000D02*
X91440000Y-35370000D01*
X84730000Y-35370000D02*
X84730000Y-35780000D01*
X85450000Y-35370000D02*
X85450000Y-35780000D01*
X87270000Y-35370000D02*
X87270000Y-35780000D01*
X87990000Y-35370000D02*
X87990000Y-35780000D01*
X89810000Y-35370000D02*
X89810000Y-35780000D01*
X90530000Y-35370000D02*
X90530000Y-35780000D01*
X92350000Y-35370000D02*
X92350000Y-35720000D01*
X93070000Y-35370000D02*
X93070000Y-35720000D01*
X91558100Y-26740000D02*
X91558100Y-35370000D01*
X91676195Y-26740000D02*
X91676195Y-35370000D01*
X91794290Y-26740000D02*
X91794290Y-35370000D01*
X91912385Y-26740000D02*
X91912385Y-35370000D01*
X92030480Y-26740000D02*
X92030480Y-35370000D01*
X92148575Y-26740000D02*
X92148575Y-35370000D01*
X92266670Y-26740000D02*
X92266670Y-35370000D01*
X92384765Y-26740000D02*
X92384765Y-35370000D01*
X92502860Y-26740000D02*
X92502860Y-35370000D01*
X92620955Y-26740000D02*
X92620955Y-35370000D01*
X92739050Y-26740000D02*
X92739050Y-35370000D01*
X92857145Y-26740000D02*
X92857145Y-35370000D01*
X92975240Y-26740000D02*
X92975240Y-35370000D01*
X93093335Y-26740000D02*
X93093335Y-35370000D01*
X93211430Y-26740000D02*
X93211430Y-35370000D01*
X93329525Y-26740000D02*
X93329525Y-35370000D01*
X93447620Y-26740000D02*
X93447620Y-35370000D01*
X93565715Y-26740000D02*
X93565715Y-35370000D01*
X93683810Y-26740000D02*
X93683810Y-35370000D01*
X93801905Y-26740000D02*
X93801905Y-35370000D01*
X93920000Y-26740000D02*
X93920000Y-35370000D01*
X127000000Y-92770000D02*
X125890000Y-92770000D01*
X125890000Y-92770000D02*
X125890000Y-91440000D01*
X137090000Y-92770000D02*
X137090000Y-82490000D01*
X137090000Y-82490000D02*
X128460000Y-82490000D01*
X128460000Y-92770000D02*
X128460000Y-82490000D01*
X137090000Y-92770000D02*
X128460000Y-92770000D01*
X137090000Y-85090000D02*
X128460000Y-85090000D01*
X137090000Y-87630000D02*
X128460000Y-87630000D01*
X137090000Y-90170000D02*
X128460000Y-90170000D01*
X128460000Y-83460000D02*
X128050000Y-83460000D01*
X128460000Y-84180000D02*
X128050000Y-84180000D01*
X128460000Y-86000000D02*
X128050000Y-86000000D01*
X128460000Y-86720000D02*
X128050000Y-86720000D01*
X128460000Y-88540000D02*
X128050000Y-88540000D01*
X128460000Y-89260000D02*
X128050000Y-89260000D01*
X128460000Y-91080000D02*
X128110000Y-91080000D01*
X128460000Y-91800000D02*
X128110000Y-91800000D01*
X137090000Y-90288100D02*
X128460000Y-90288100D01*
X137090000Y-90406195D02*
X128460000Y-90406195D01*
X137090000Y-90524290D02*
X128460000Y-90524290D01*
X137090000Y-90642385D02*
X128460000Y-90642385D01*
X137090000Y-90760480D02*
X128460000Y-90760480D01*
X137090000Y-90878575D02*
X128460000Y-90878575D01*
X137090000Y-90996670D02*
X128460000Y-90996670D01*
X137090000Y-91114765D02*
X128460000Y-91114765D01*
X137090000Y-91232860D02*
X128460000Y-91232860D01*
X137090000Y-91350955D02*
X128460000Y-91350955D01*
X137090000Y-91469050D02*
X128460000Y-91469050D01*
X137090000Y-91587145D02*
X128460000Y-91587145D01*
X137090000Y-91705240D02*
X128460000Y-91705240D01*
X137090000Y-91823335D02*
X128460000Y-91823335D01*
X137090000Y-91941430D02*
X128460000Y-91941430D01*
X137090000Y-92059525D02*
X128460000Y-92059525D01*
X137090000Y-92177620D02*
X128460000Y-92177620D01*
X137090000Y-92295715D02*
X128460000Y-92295715D01*
X137090000Y-92413810D02*
X128460000Y-92413810D01*
X137090000Y-92531905D02*
X128460000Y-92531905D01*
X137090000Y-92650000D02*
X128460000Y-92650000D01*
X82490000Y-161290000D02*
X82490000Y-160180000D01*
X82490000Y-160180000D02*
X83820000Y-160180000D01*
X82490000Y-171380000D02*
X92770000Y-171380000D01*
X92770000Y-171380000D02*
X92770000Y-162750000D01*
X82490000Y-162750000D02*
X92770000Y-162750000D01*
X82490000Y-171380000D02*
X82490000Y-162750000D01*
X90170000Y-171380000D02*
X90170000Y-162750000D01*
X87630000Y-171380000D02*
X87630000Y-162750000D01*
X85090000Y-171380000D02*
X85090000Y-162750000D01*
X91800000Y-162750000D02*
X91800000Y-162340000D01*
X91080000Y-162750000D02*
X91080000Y-162340000D01*
X89260000Y-162750000D02*
X89260000Y-162340000D01*
X88540000Y-162750000D02*
X88540000Y-162340000D01*
X86720000Y-162750000D02*
X86720000Y-162340000D01*
X86000000Y-162750000D02*
X86000000Y-162340000D01*
X84180000Y-162750000D02*
X84180000Y-162400000D01*
X83460000Y-162750000D02*
X83460000Y-162400000D01*
X84971900Y-171380000D02*
X84971900Y-162750000D01*
X84853805Y-171380000D02*
X84853805Y-162750000D01*
X84735710Y-171380000D02*
X84735710Y-162750000D01*
X84617615Y-171380000D02*
X84617615Y-162750000D01*
X84499520Y-171380000D02*
X84499520Y-162750000D01*
X84381425Y-171380000D02*
X84381425Y-162750000D01*
X84263330Y-171380000D02*
X84263330Y-162750000D01*
X84145235Y-171380000D02*
X84145235Y-162750000D01*
X84027140Y-171380000D02*
X84027140Y-162750000D01*
X83909045Y-171380000D02*
X83909045Y-162750000D01*
X83790950Y-171380000D02*
X83790950Y-162750000D01*
X83672855Y-171380000D02*
X83672855Y-162750000D01*
X83554760Y-171380000D02*
X83554760Y-162750000D01*
X83436665Y-171380000D02*
X83436665Y-162750000D01*
X83318570Y-171380000D02*
X83318570Y-162750000D01*
X83200475Y-171380000D02*
X83200475Y-162750000D01*
X83082380Y-171380000D02*
X83082380Y-162750000D01*
X82964285Y-171380000D02*
X82964285Y-162750000D01*
X82846190Y-171380000D02*
X82846190Y-162750000D01*
X82728095Y-171380000D02*
X82728095Y-162750000D01*
X82610000Y-171380000D02*
X82610000Y-162750000D01*
X104080000Y-110490000D02*
X104080000Y-109380000D01*
X104080000Y-109380000D02*
X105410000Y-109380000D01*
X104080000Y-120580000D02*
X124520000Y-120580000D01*
X124520000Y-120580000D02*
X124520000Y-111950000D01*
X104080000Y-111950000D02*
X124520000Y-111950000D01*
X104080000Y-120580000D02*
X104080000Y-111950000D01*
X121920000Y-120580000D02*
X121920000Y-111950000D01*
X119380000Y-120580000D02*
X119380000Y-111950000D01*
X116840000Y-120580000D02*
X116840000Y-111950000D01*
X114300000Y-120580000D02*
X114300000Y-111950000D01*
X111760000Y-120580000D02*
X111760000Y-111950000D01*
X109220000Y-120580000D02*
X109220000Y-111950000D01*
X106680000Y-120580000D02*
X106680000Y-111950000D01*
X123550000Y-111950000D02*
X123550000Y-111540000D01*
X122830000Y-111950000D02*
X122830000Y-111540000D01*
X121010000Y-111950000D02*
X121010000Y-111540000D01*
X120290000Y-111950000D02*
X120290000Y-111540000D01*
X118470000Y-111950000D02*
X118470000Y-111540000D01*
X117750000Y-111950000D02*
X117750000Y-111540000D01*
X115930000Y-111950000D02*
X115930000Y-111540000D01*
X115210000Y-111950000D02*
X115210000Y-111540000D01*
X113390000Y-111950000D02*
X113390000Y-111540000D01*
X112670000Y-111950000D02*
X112670000Y-111540000D01*
X110850000Y-111950000D02*
X110850000Y-111540000D01*
X110130000Y-111950000D02*
X110130000Y-111540000D01*
X108310000Y-111950000D02*
X108310000Y-111540000D01*
X107590000Y-111950000D02*
X107590000Y-111540000D01*
X105770000Y-111950000D02*
X105770000Y-111600000D01*
X105050000Y-111950000D02*
X105050000Y-111600000D01*
X106561900Y-120580000D02*
X106561900Y-111950000D01*
X106443805Y-120580000D02*
X106443805Y-111950000D01*
X106325710Y-120580000D02*
X106325710Y-111950000D01*
X106207615Y-120580000D02*
X106207615Y-111950000D01*
X106089520Y-120580000D02*
X106089520Y-111950000D01*
X105971425Y-120580000D02*
X105971425Y-111950000D01*
X105853330Y-120580000D02*
X105853330Y-111950000D01*
X105735235Y-120580000D02*
X105735235Y-111950000D01*
X105617140Y-120580000D02*
X105617140Y-111950000D01*
X105499045Y-120580000D02*
X105499045Y-111950000D01*
X105380950Y-120580000D02*
X105380950Y-111950000D01*
X105262855Y-120580000D02*
X105262855Y-111950000D01*
X105144760Y-120580000D02*
X105144760Y-111950000D01*
X105026665Y-120580000D02*
X105026665Y-111950000D01*
X104908570Y-120580000D02*
X104908570Y-111950000D01*
X104790475Y-120580000D02*
X104790475Y-111950000D01*
X104672380Y-120580000D02*
X104672380Y-111950000D01*
X104554285Y-120580000D02*
X104554285Y-111950000D01*
X104436190Y-120580000D02*
X104436190Y-111950000D01*
X104318095Y-120580000D02*
X104318095Y-111950000D01*
X104200000Y-120580000D02*
X104200000Y-111950000D01*
X65345000Y-136465000D02*
X66675000Y-136465000D01*
X65345000Y-137795000D02*
X65345000Y-136465000D01*
X65345000Y-139065000D02*
X68005000Y-139065000D01*
X68005000Y-139065000D02*
X68005000Y-146745000D01*
X65345000Y-139065000D02*
X65345000Y-146745000D01*
X65345000Y-146745000D02*
X68005000Y-146745000D01*
X106620000Y-137100000D02*
X107950000Y-137100000D01*
X106620000Y-138430000D02*
X106620000Y-137100000D01*
X106620000Y-139700000D02*
X109280000Y-139700000D01*
X109280000Y-139700000D02*
X109280000Y-147380000D01*
X106620000Y-139700000D02*
X106620000Y-147380000D01*
X106620000Y-147380000D02*
X109280000Y-147380000D01*
X72965000Y-92650000D02*
X74295000Y-92650000D01*
X72965000Y-93980000D02*
X72965000Y-92650000D01*
X72965000Y-95250000D02*
X75625000Y-95250000D01*
X75625000Y-95250000D02*
X75625000Y-97850000D01*
X72965000Y-95250000D02*
X72965000Y-97850000D01*
X72965000Y-97850000D02*
X75625000Y-97850000D01*
X122495000Y-92650000D02*
X123825000Y-92650000D01*
X122495000Y-93980000D02*
X122495000Y-92650000D01*
X122495000Y-95250000D02*
X125155000Y-95250000D01*
X125155000Y-95250000D02*
X125155000Y-97850000D01*
X122495000Y-95250000D02*
X122495000Y-97850000D01*
X122495000Y-97850000D02*
X125155000Y-97850000D01*
X45752936Y-136165000D02*
X46957064Y-136165000D01*
X45752936Y-134345000D02*
X46957064Y-134345000D01*
X132682064Y-135615000D02*
X131477936Y-135615000D01*
X132682064Y-137435000D02*
X131477936Y-137435000D01*
X47390000Y-170640000D02*
X47390000Y-169140000D01*
X46140000Y-166640000D02*
X41640000Y-166640000D01*
X40390000Y-169140000D02*
X40390000Y-170640000D01*
X41640000Y-173140000D02*
X46140000Y-173140000D01*
X135020000Y-170640000D02*
X135020000Y-169140000D01*
X133770000Y-166640000D02*
X129270000Y-166640000D01*
X128020000Y-169140000D02*
X128020000Y-170640000D01*
X129270000Y-173140000D02*
X133770000Y-173140000D01*
X130207936Y-38375000D02*
X131412064Y-38375000D01*
X130207936Y-36555000D02*
X131412064Y-36555000D01*
X119282936Y-41550000D02*
X120487064Y-41550000D01*
X119282936Y-39730000D02*
X120487064Y-39730000D01*
X45052064Y-36555000D02*
X43847936Y-36555000D01*
X45052064Y-38375000D02*
X43847936Y-38375000D01*
X55717064Y-39730000D02*
X54512936Y-39730000D01*
X55717064Y-41550000D02*
X54512936Y-41550000D01*
X79015000Y-100297064D02*
X79015000Y-99092936D01*
X77195000Y-100297064D02*
X77195000Y-99092936D01*
X45786522Y-128971522D02*
G75*
G03X47625000Y-133410000I1838478J-1838478D01*
G01*
X49463478Y-128971522D02*
G75*
G02X47625000Y-133410000I-1838478J-1838478D01*
G01*
X49425000Y-128960000D02*
X45825000Y-128960000D01*
X132648478Y-132648478D02*
G75*
G03X130810000Y-128210000I-1838478J1838478D01*
G01*
X128971522Y-132648478D02*
G75*
G02X130810000Y-128210000I1838478J1838478D01*
G01*
X129010000Y-132660000D02*
X132610000Y-132660000D01*
X80705000Y-123250000D02*
X79375000Y-123250000D01*
X80705000Y-121920000D02*
X80705000Y-123250000D01*
X80705000Y-120650000D02*
X78045000Y-120650000D01*
X78045000Y-120650000D02*
X78045000Y-118050000D01*
X80705000Y-120650000D02*
X80705000Y-118050000D01*
X80705000Y-118050000D02*
X78045000Y-118050000D01*
X86300000Y-121920000D02*
X86300000Y-120590000D01*
X86300000Y-120590000D02*
X87630000Y-120590000D01*
X88900000Y-120590000D02*
X91500000Y-120590000D01*
X91500000Y-123250000D02*
X91500000Y-120590000D01*
X88900000Y-123250000D02*
X91500000Y-123250000D01*
X88900000Y-123250000D02*
X88900000Y-120590000D01*
X86300000Y-116265000D02*
X86300000Y-114935000D01*
X87630000Y-116265000D02*
X86300000Y-116265000D01*
X88900000Y-116265000D02*
X88900000Y-113605000D01*
X88900000Y-113605000D02*
X91500000Y-113605000D01*
X88900000Y-116265000D02*
X91500000Y-116265000D01*
X91500000Y-116265000D02*
X91500000Y-113605000D01*
X52070000Y-95190000D02*
X53400000Y-95190000D01*
X53400000Y-95190000D02*
X53400000Y-96520000D01*
X53400000Y-97790000D02*
X53400000Y-100390000D01*
X50740000Y-100390000D02*
X53400000Y-100390000D01*
X50740000Y-97790000D02*
X50740000Y-100390000D01*
X50740000Y-97790000D02*
X53400000Y-97790000D01*
X101600000Y-100390000D02*
X100270000Y-100390000D01*
X100270000Y-100390000D02*
X100270000Y-99060000D01*
X100270000Y-97790000D02*
X100270000Y-95190000D01*
X102930000Y-95190000D02*
X100270000Y-95190000D01*
X102930000Y-97790000D02*
X102930000Y-95190000D01*
X102930000Y-97790000D02*
X100270000Y-97790000D01*
X69910000Y-77530000D02*
X68580000Y-77530000D01*
X69910000Y-76200000D02*
X69910000Y-77530000D01*
X69910000Y-74930000D02*
X67250000Y-74930000D01*
X67250000Y-74930000D02*
X67250000Y-62170000D01*
X69910000Y-74930000D02*
X69910000Y-62170000D01*
X69910000Y-62170000D02*
X67250000Y-62170000D01*
X54480000Y-100460000D02*
X72520000Y-100460000D01*
X54480000Y-57020000D02*
X54480000Y-100460000D01*
X72520000Y-57020000D02*
X54480000Y-57020000D01*
X69850000Y-59690000D02*
X72520000Y-59690000D01*
X69850000Y-95250000D02*
X69850000Y-59690000D01*
X69850000Y-95250000D02*
X72520000Y-95250000D01*
X57150000Y-59690000D02*
X54480000Y-59690000D01*
X57150000Y-97790000D02*
X57150000Y-59690000D01*
X57150000Y-97790000D02*
X54480000Y-97790000D01*
X72520000Y-100460000D02*
X72520000Y-97790000D01*
X72520000Y-95250000D02*
X72520000Y-57020000D01*
X69850000Y-97790000D02*
X72520000Y-97790000D01*
X69850000Y-95250000D02*
X69850000Y-97790000D01*
X79950000Y-101600000D02*
X79950000Y-100270000D01*
X79950000Y-100270000D02*
X81280000Y-100270000D01*
X82550000Y-100270000D02*
X85150000Y-100270000D01*
X85150000Y-102930000D02*
X85150000Y-100270000D01*
X82550000Y-102930000D02*
X85150000Y-102930000D01*
X82550000Y-102930000D02*
X82550000Y-100270000D01*
X116500000Y-42240000D02*
X116500000Y-39040000D01*
X112900000Y-39040000D02*
X116500000Y-39040000D01*
X112900000Y-42240000D02*
X116500000Y-42240000D01*
X58125000Y-39040000D02*
X58125000Y-42240000D01*
X61725000Y-42240000D02*
X58125000Y-42240000D01*
X61725000Y-39040000D02*
X58125000Y-39040000D01*
X104010000Y-100460000D02*
X122050000Y-100460000D01*
X104010000Y-57020000D02*
X104010000Y-100460000D01*
X122050000Y-57020000D02*
X104010000Y-57020000D01*
X119380000Y-59690000D02*
X122050000Y-59690000D01*
X119380000Y-95250000D02*
X119380000Y-59690000D01*
X119380000Y-95250000D02*
X122050000Y-95250000D01*
X106680000Y-59690000D02*
X104010000Y-59690000D01*
X106680000Y-97790000D02*
X106680000Y-59690000D01*
X106680000Y-97790000D02*
X104010000Y-97790000D01*
X122050000Y-100460000D02*
X122050000Y-97790000D01*
X122050000Y-95250000D02*
X122050000Y-57020000D01*
X119380000Y-97790000D02*
X122050000Y-97790000D01*
X119380000Y-95250000D02*
X119380000Y-97790000D01*
X56670000Y-106620000D02*
X58000000Y-106620000D01*
X58000000Y-106620000D02*
X58000000Y-107950000D01*
X58000000Y-109220000D02*
X58000000Y-127060000D01*
X55340000Y-127060000D02*
X58000000Y-127060000D01*
X55340000Y-109220000D02*
X55340000Y-127060000D01*
X55340000Y-109220000D02*
X58000000Y-109220000D01*
X132480000Y-32210000D02*
X132480000Y-30710000D01*
X131230000Y-28210000D02*
X126730000Y-28210000D01*
X125480000Y-30710000D02*
X125480000Y-32210000D01*
X126730000Y-34710000D02*
X131230000Y-34710000D01*
X49930000Y-32210000D02*
X49930000Y-30710000D01*
X48680000Y-28210000D02*
X44180000Y-28210000D01*
X42930000Y-30710000D02*
X42930000Y-32210000D01*
X44180000Y-34710000D02*
X48680000Y-34710000D01*
X85150000Y-97790000D02*
X85150000Y-99120000D01*
X85150000Y-99120000D02*
X83820000Y-99120000D01*
X82550000Y-99120000D02*
X79950000Y-99120000D01*
X79950000Y-96460000D02*
X79950000Y-99120000D01*
X82550000Y-96460000D02*
X79950000Y-96460000D01*
X82550000Y-96460000D02*
X82550000Y-99120000D01*
X59055000Y-106620000D02*
X60385000Y-106620000D01*
X60385000Y-106620000D02*
X60385000Y-107950000D01*
X60385000Y-109220000D02*
X60385000Y-127060000D01*
X57725000Y-127060000D02*
X60385000Y-127060000D01*
X57725000Y-109220000D02*
X57725000Y-127060000D01*
X57725000Y-109220000D02*
X60385000Y-109220000D01*
X61595000Y-106620000D02*
X62925000Y-106620000D01*
X62925000Y-106620000D02*
X62925000Y-107950000D01*
X62925000Y-109220000D02*
X62925000Y-127060000D01*
X60265000Y-127060000D02*
X62925000Y-127060000D01*
X60265000Y-109220000D02*
X60265000Y-127060000D01*
X60265000Y-109220000D02*
X62925000Y-109220000D01*
D11*
X39878095Y-133227380D02*
X39878095Y-134036904D01*
X39925714Y-134132142D01*
X39973333Y-134179761D01*
X40068571Y-134227380D01*
X40259047Y-134227380D01*
X40354285Y-134179761D01*
X40401904Y-134132142D01*
X40449523Y-134036904D01*
X40449523Y-133227380D01*
X40830476Y-133227380D02*
X41497142Y-133227380D01*
X41068571Y-134227380D01*
X135128095Y-120312380D02*
X135128095Y-121121904D01*
X135175714Y-121217142D01*
X135223333Y-121264761D01*
X135318571Y-121312380D01*
X135509047Y-121312380D01*
X135604285Y-121264761D01*
X135651904Y-121217142D01*
X135699523Y-121121904D01*
X135699523Y-120312380D01*
X136604285Y-120312380D02*
X136413809Y-120312380D01*
X136318571Y-120360000D01*
X136270952Y-120407619D01*
X136175714Y-120550476D01*
X136128095Y-120740952D01*
X136128095Y-121121904D01*
X136175714Y-121217142D01*
X136223333Y-121264761D01*
X136318571Y-121312380D01*
X136509047Y-121312380D01*
X136604285Y-121264761D01*
X136651904Y-121217142D01*
X136699523Y-121121904D01*
X136699523Y-120883809D01*
X136651904Y-120788571D01*
X136604285Y-120740952D01*
X136509047Y-120693333D01*
X136318571Y-120693333D01*
X136223333Y-120740952D01*
X136175714Y-120788571D01*
X136128095Y-120883809D01*
X44388095Y-80502380D02*
X44388095Y-81311904D01*
X44435714Y-81407142D01*
X44483333Y-81454761D01*
X44578571Y-81502380D01*
X44769047Y-81502380D01*
X44864285Y-81454761D01*
X44911904Y-81407142D01*
X44959523Y-81311904D01*
X44959523Y-80502380D01*
X45911904Y-80502380D02*
X45435714Y-80502380D01*
X45388095Y-80978571D01*
X45435714Y-80930952D01*
X45530952Y-80883333D01*
X45769047Y-80883333D01*
X45864285Y-80930952D01*
X45911904Y-80978571D01*
X45959523Y-81073809D01*
X45959523Y-81311904D01*
X45911904Y-81407142D01*
X45864285Y-81454761D01*
X45769047Y-81502380D01*
X45530952Y-81502380D01*
X45435714Y-81454761D01*
X45388095Y-81407142D01*
X94932380Y-33211904D02*
X95741904Y-33211904D01*
X95837142Y-33164285D01*
X95884761Y-33116666D01*
X95932380Y-33021428D01*
X95932380Y-32830952D01*
X95884761Y-32735714D01*
X95837142Y-32688095D01*
X95741904Y-32640476D01*
X94932380Y-32640476D01*
X95265714Y-31735714D02*
X95932380Y-31735714D01*
X94884761Y-31973809D02*
X95599047Y-32211904D01*
X95599047Y-31592857D01*
X130618095Y-93662380D02*
X130618095Y-94471904D01*
X130665714Y-94567142D01*
X130713333Y-94614761D01*
X130808571Y-94662380D01*
X130999047Y-94662380D01*
X131094285Y-94614761D01*
X131141904Y-94567142D01*
X131189523Y-94471904D01*
X131189523Y-93662380D01*
X131570476Y-93662380D02*
X132189523Y-93662380D01*
X131856190Y-94043333D01*
X131999047Y-94043333D01*
X132094285Y-94090952D01*
X132141904Y-94138571D01*
X132189523Y-94233809D01*
X132189523Y-94471904D01*
X132141904Y-94567142D01*
X132094285Y-94614761D01*
X131999047Y-94662380D01*
X131713333Y-94662380D01*
X131618095Y-94614761D01*
X131570476Y-94567142D01*
X80502380Y-166431904D02*
X81311904Y-166431904D01*
X81407142Y-166384285D01*
X81454761Y-166336666D01*
X81502380Y-166241428D01*
X81502380Y-166050952D01*
X81454761Y-165955714D01*
X81407142Y-165908095D01*
X81311904Y-165860476D01*
X80502380Y-165860476D01*
X80597619Y-165431904D02*
X80550000Y-165384285D01*
X80502380Y-165289047D01*
X80502380Y-165050952D01*
X80550000Y-164955714D01*
X80597619Y-164908095D01*
X80692857Y-164860476D01*
X80788095Y-164860476D01*
X80930952Y-164908095D01*
X81502380Y-165479523D01*
X81502380Y-164860476D01*
X102092380Y-115631904D02*
X102901904Y-115631904D01*
X102997142Y-115584285D01*
X103044761Y-115536666D01*
X103092380Y-115441428D01*
X103092380Y-115250952D01*
X103044761Y-115155714D01*
X102997142Y-115108095D01*
X102901904Y-115060476D01*
X102092380Y-115060476D01*
X103092380Y-114060476D02*
X103092380Y-114631904D01*
X103092380Y-114346190D02*
X102092380Y-114346190D01*
X102235238Y-114441428D01*
X102330476Y-114536666D01*
X102378095Y-114631904D01*
X59103571Y-135250714D02*
X59484523Y-135250714D01*
X59246428Y-134917380D02*
X59246428Y-135774523D01*
X59294047Y-135869761D01*
X59389285Y-135917380D01*
X59484523Y-135917380D01*
X60198809Y-135869761D02*
X60103571Y-135917380D01*
X59913095Y-135917380D01*
X59817857Y-135869761D01*
X59770238Y-135774523D01*
X59770238Y-135393571D01*
X59817857Y-135298333D01*
X59913095Y-135250714D01*
X60103571Y-135250714D01*
X60198809Y-135298333D01*
X60246428Y-135393571D01*
X60246428Y-135488809D01*
X59770238Y-135584047D01*
X60627380Y-135869761D02*
X60722619Y-135917380D01*
X60913095Y-135917380D01*
X61008333Y-135869761D01*
X61055952Y-135774523D01*
X61055952Y-135726904D01*
X61008333Y-135631666D01*
X60913095Y-135584047D01*
X60770238Y-135584047D01*
X60675000Y-135536428D01*
X60627380Y-135441190D01*
X60627380Y-135393571D01*
X60675000Y-135298333D01*
X60770238Y-135250714D01*
X60913095Y-135250714D01*
X61008333Y-135298333D01*
X61341666Y-135250714D02*
X61722619Y-135250714D01*
X61484523Y-134917380D02*
X61484523Y-135774523D01*
X61532142Y-135869761D01*
X61627380Y-135917380D01*
X61722619Y-135917380D01*
X62055952Y-135917380D02*
X62055952Y-134917380D01*
X62389285Y-135631666D01*
X62722619Y-134917380D01*
X62722619Y-135917380D01*
X63341666Y-135917380D02*
X63246428Y-135869761D01*
X63198809Y-135822142D01*
X63151190Y-135726904D01*
X63151190Y-135441190D01*
X63198809Y-135345952D01*
X63246428Y-135298333D01*
X63341666Y-135250714D01*
X63484523Y-135250714D01*
X63579761Y-135298333D01*
X63627380Y-135345952D01*
X63675000Y-135441190D01*
X63675000Y-135726904D01*
X63627380Y-135822142D01*
X63579761Y-135869761D01*
X63484523Y-135917380D01*
X63341666Y-135917380D01*
X63960714Y-135250714D02*
X64341666Y-135250714D01*
X64103571Y-134917380D02*
X64103571Y-135774523D01*
X64151190Y-135869761D01*
X64246428Y-135917380D01*
X64341666Y-135917380D01*
X64817857Y-135917380D02*
X64722619Y-135869761D01*
X64675000Y-135822142D01*
X64627380Y-135726904D01*
X64627380Y-135441190D01*
X64675000Y-135345952D01*
X64722619Y-135298333D01*
X64817857Y-135250714D01*
X64960714Y-135250714D01*
X65055952Y-135298333D01*
X65103571Y-135345952D01*
X65151190Y-135441190D01*
X65151190Y-135726904D01*
X65103571Y-135822142D01*
X65055952Y-135869761D01*
X64960714Y-135917380D01*
X64817857Y-135917380D01*
X65579761Y-135917380D02*
X65579761Y-135250714D01*
X65579761Y-135441190D02*
X65627380Y-135345952D01*
X65675000Y-135298333D01*
X65770238Y-135250714D01*
X65865476Y-135250714D01*
X66770238Y-135822142D02*
X66722619Y-135869761D01*
X66579761Y-135917380D01*
X66484523Y-135917380D01*
X66341666Y-135869761D01*
X66246428Y-135774523D01*
X66198809Y-135679285D01*
X66151190Y-135488809D01*
X66151190Y-135345952D01*
X66198809Y-135155476D01*
X66246428Y-135060238D01*
X66341666Y-134965000D01*
X66484523Y-134917380D01*
X66579761Y-134917380D01*
X66722619Y-134965000D01*
X66770238Y-135012619D01*
X67341666Y-135917380D02*
X67246428Y-135869761D01*
X67198809Y-135822142D01*
X67151190Y-135726904D01*
X67151190Y-135441190D01*
X67198809Y-135345952D01*
X67246428Y-135298333D01*
X67341666Y-135250714D01*
X67484523Y-135250714D01*
X67579761Y-135298333D01*
X67627380Y-135345952D01*
X67675000Y-135441190D01*
X67675000Y-135726904D01*
X67627380Y-135822142D01*
X67579761Y-135869761D01*
X67484523Y-135917380D01*
X67341666Y-135917380D01*
X68103571Y-135250714D02*
X68103571Y-135917380D01*
X68103571Y-135345952D02*
X68151190Y-135298333D01*
X68246428Y-135250714D01*
X68389285Y-135250714D01*
X68484523Y-135298333D01*
X68532142Y-135393571D01*
X68532142Y-135917380D01*
X68865476Y-135250714D02*
X69246428Y-135250714D01*
X69008333Y-134917380D02*
X69008333Y-135774523D01*
X69055952Y-135869761D01*
X69151190Y-135917380D01*
X69246428Y-135917380D01*
X69579761Y-135917380D02*
X69579761Y-135250714D01*
X69579761Y-135441190D02*
X69627380Y-135345952D01*
X69675000Y-135298333D01*
X69770238Y-135250714D01*
X69865476Y-135250714D01*
X70341666Y-135917380D02*
X70246428Y-135869761D01*
X70198809Y-135822142D01*
X70151190Y-135726904D01*
X70151190Y-135441190D01*
X70198809Y-135345952D01*
X70246428Y-135298333D01*
X70341666Y-135250714D01*
X70484523Y-135250714D01*
X70579761Y-135298333D01*
X70627380Y-135345952D01*
X70675000Y-135441190D01*
X70675000Y-135726904D01*
X70627380Y-135822142D01*
X70579761Y-135869761D01*
X70484523Y-135917380D01*
X70341666Y-135917380D01*
X71246428Y-135917380D02*
X71151190Y-135869761D01*
X71103571Y-135774523D01*
X71103571Y-134917380D01*
X71770238Y-135917380D02*
X71675000Y-135869761D01*
X71627380Y-135774523D01*
X71627380Y-134917380D01*
X72532142Y-135869761D02*
X72436904Y-135917380D01*
X72246428Y-135917380D01*
X72151190Y-135869761D01*
X72103571Y-135774523D01*
X72103571Y-135393571D01*
X72151190Y-135298333D01*
X72246428Y-135250714D01*
X72436904Y-135250714D01*
X72532142Y-135298333D01*
X72579761Y-135393571D01*
X72579761Y-135488809D01*
X72103571Y-135584047D01*
X73008333Y-135917380D02*
X73008333Y-135250714D01*
X73008333Y-135441190D02*
X73055952Y-135345952D01*
X73103571Y-135298333D01*
X73198809Y-135250714D01*
X73294047Y-135250714D01*
X74151190Y-135917380D02*
X73579761Y-135917380D01*
X73865476Y-135917380D02*
X73865476Y-134917380D01*
X73770238Y-135060238D01*
X73675000Y-135155476D01*
X73579761Y-135203095D01*
X100807142Y-135885714D02*
X101188095Y-135885714D01*
X100950000Y-135552380D02*
X100950000Y-136409523D01*
X100997619Y-136504761D01*
X101092857Y-136552380D01*
X101188095Y-136552380D01*
X101902380Y-136504761D02*
X101807142Y-136552380D01*
X101616666Y-136552380D01*
X101521428Y-136504761D01*
X101473809Y-136409523D01*
X101473809Y-136028571D01*
X101521428Y-135933333D01*
X101616666Y-135885714D01*
X101807142Y-135885714D01*
X101902380Y-135933333D01*
X101950000Y-136028571D01*
X101950000Y-136123809D01*
X101473809Y-136219047D01*
X102330952Y-136504761D02*
X102426190Y-136552380D01*
X102616666Y-136552380D01*
X102711904Y-136504761D01*
X102759523Y-136409523D01*
X102759523Y-136361904D01*
X102711904Y-136266666D01*
X102616666Y-136219047D01*
X102473809Y-136219047D01*
X102378571Y-136171428D01*
X102330952Y-136076190D01*
X102330952Y-136028571D01*
X102378571Y-135933333D01*
X102473809Y-135885714D01*
X102616666Y-135885714D01*
X102711904Y-135933333D01*
X103045238Y-135885714D02*
X103426190Y-135885714D01*
X103188095Y-135552380D02*
X103188095Y-136409523D01*
X103235714Y-136504761D01*
X103330952Y-136552380D01*
X103426190Y-136552380D01*
X104283333Y-135600000D02*
X104188095Y-135552380D01*
X104045238Y-135552380D01*
X103902380Y-135600000D01*
X103807142Y-135695238D01*
X103759523Y-135790476D01*
X103711904Y-135980952D01*
X103711904Y-136123809D01*
X103759523Y-136314285D01*
X103807142Y-136409523D01*
X103902380Y-136504761D01*
X104045238Y-136552380D01*
X104140476Y-136552380D01*
X104283333Y-136504761D01*
X104330952Y-136457142D01*
X104330952Y-136123809D01*
X104140476Y-136123809D01*
X104664285Y-135885714D02*
X104902380Y-136552380D01*
X105140476Y-135885714D02*
X104902380Y-136552380D01*
X104807142Y-136790476D01*
X104759523Y-136838095D01*
X104664285Y-136885714D01*
X105521428Y-136552380D02*
X105521428Y-135885714D01*
X105521428Y-136076190D02*
X105569047Y-135980952D01*
X105616666Y-135933333D01*
X105711904Y-135885714D01*
X105807142Y-135885714D01*
X106283333Y-136552380D02*
X106188095Y-136504761D01*
X106140476Y-136457142D01*
X106092857Y-136361904D01*
X106092857Y-136076190D01*
X106140476Y-135980952D01*
X106188095Y-135933333D01*
X106283333Y-135885714D01*
X106426190Y-135885714D01*
X106521428Y-135933333D01*
X106569047Y-135980952D01*
X106616666Y-136076190D01*
X106616666Y-136361904D01*
X106569047Y-136457142D01*
X106521428Y-136504761D01*
X106426190Y-136552380D01*
X106283333Y-136552380D01*
X107616666Y-136457142D02*
X107569047Y-136504761D01*
X107426190Y-136552380D01*
X107330952Y-136552380D01*
X107188095Y-136504761D01*
X107092857Y-136409523D01*
X107045238Y-136314285D01*
X106997619Y-136123809D01*
X106997619Y-135980952D01*
X107045238Y-135790476D01*
X107092857Y-135695238D01*
X107188095Y-135600000D01*
X107330952Y-135552380D01*
X107426190Y-135552380D01*
X107569047Y-135600000D01*
X107616666Y-135647619D01*
X108188095Y-136552380D02*
X108092857Y-136504761D01*
X108045238Y-136457142D01*
X107997619Y-136361904D01*
X107997619Y-136076190D01*
X108045238Y-135980952D01*
X108092857Y-135933333D01*
X108188095Y-135885714D01*
X108330952Y-135885714D01*
X108426190Y-135933333D01*
X108473809Y-135980952D01*
X108521428Y-136076190D01*
X108521428Y-136361904D01*
X108473809Y-136457142D01*
X108426190Y-136504761D01*
X108330952Y-136552380D01*
X108188095Y-136552380D01*
X108950000Y-135885714D02*
X108950000Y-136552380D01*
X108950000Y-135980952D02*
X108997619Y-135933333D01*
X109092857Y-135885714D01*
X109235714Y-135885714D01*
X109330952Y-135933333D01*
X109378571Y-136028571D01*
X109378571Y-136552380D01*
X109711904Y-135885714D02*
X110092857Y-135885714D01*
X109854761Y-135552380D02*
X109854761Y-136409523D01*
X109902380Y-136504761D01*
X109997619Y-136552380D01*
X110092857Y-136552380D01*
X110426190Y-136552380D02*
X110426190Y-135885714D01*
X110426190Y-136076190D02*
X110473809Y-135980952D01*
X110521428Y-135933333D01*
X110616666Y-135885714D01*
X110711904Y-135885714D01*
X111188095Y-136552380D02*
X111092857Y-136504761D01*
X111045238Y-136457142D01*
X110997619Y-136361904D01*
X110997619Y-136076190D01*
X111045238Y-135980952D01*
X111092857Y-135933333D01*
X111188095Y-135885714D01*
X111330952Y-135885714D01*
X111426190Y-135933333D01*
X111473809Y-135980952D01*
X111521428Y-136076190D01*
X111521428Y-136361904D01*
X111473809Y-136457142D01*
X111426190Y-136504761D01*
X111330952Y-136552380D01*
X111188095Y-136552380D01*
X112092857Y-136552380D02*
X111997619Y-136504761D01*
X111950000Y-136409523D01*
X111950000Y-135552380D01*
X112616666Y-136552380D02*
X112521428Y-136504761D01*
X112473809Y-136409523D01*
X112473809Y-135552380D01*
X113378571Y-136504761D02*
X113283333Y-136552380D01*
X113092857Y-136552380D01*
X112997619Y-136504761D01*
X112950000Y-136409523D01*
X112950000Y-136028571D01*
X112997619Y-135933333D01*
X113092857Y-135885714D01*
X113283333Y-135885714D01*
X113378571Y-135933333D01*
X113426190Y-136028571D01*
X113426190Y-136123809D01*
X112950000Y-136219047D01*
X113854761Y-136552380D02*
X113854761Y-135885714D01*
X113854761Y-136076190D02*
X113902380Y-135980952D01*
X113950000Y-135933333D01*
X114045238Y-135885714D01*
X114140476Y-135885714D01*
X114997619Y-136552380D02*
X114426190Y-136552380D01*
X114711904Y-136552380D02*
X114711904Y-135552380D01*
X114616666Y-135695238D01*
X114521428Y-135790476D01*
X114426190Y-135838095D01*
X67318809Y-92102380D02*
X66985476Y-91626190D01*
X66747380Y-92102380D02*
X66747380Y-91102380D01*
X67128333Y-91102380D01*
X67223571Y-91150000D01*
X67271190Y-91197619D01*
X67318809Y-91292857D01*
X67318809Y-91435714D01*
X67271190Y-91530952D01*
X67223571Y-91578571D01*
X67128333Y-91626190D01*
X66747380Y-91626190D01*
X67652142Y-91102380D02*
X68318809Y-92102380D01*
X68318809Y-91102380D02*
X67652142Y-92102380D01*
X69414047Y-91054761D02*
X68556904Y-92340476D01*
X69604523Y-91102380D02*
X70175952Y-91102380D01*
X69890238Y-92102380D02*
X69890238Y-91102380D01*
X70414047Y-91102380D02*
X71080714Y-92102380D01*
X71080714Y-91102380D02*
X70414047Y-92102380D01*
X71461666Y-92102380D02*
X71461666Y-91435714D01*
X71461666Y-91530952D02*
X71509285Y-91483333D01*
X71604523Y-91435714D01*
X71747380Y-91435714D01*
X71842619Y-91483333D01*
X71890238Y-91578571D01*
X71890238Y-92102380D01*
X71890238Y-91578571D02*
X71937857Y-91483333D01*
X72033095Y-91435714D01*
X72175952Y-91435714D01*
X72271190Y-91483333D01*
X72318809Y-91578571D01*
X72318809Y-92102380D01*
X72937857Y-92102380D02*
X72842619Y-92054761D01*
X72795000Y-92007142D01*
X72747380Y-91911904D01*
X72747380Y-91626190D01*
X72795000Y-91530952D01*
X72842619Y-91483333D01*
X72937857Y-91435714D01*
X73080714Y-91435714D01*
X73175952Y-91483333D01*
X73223571Y-91530952D01*
X73271190Y-91626190D01*
X73271190Y-91911904D01*
X73223571Y-92007142D01*
X73175952Y-92054761D01*
X73080714Y-92102380D01*
X72937857Y-92102380D01*
X73556904Y-91435714D02*
X73937857Y-91435714D01*
X73699761Y-91102380D02*
X73699761Y-91959523D01*
X73747380Y-92054761D01*
X73842619Y-92102380D01*
X73937857Y-92102380D01*
X74414047Y-92102380D02*
X74318809Y-92054761D01*
X74271190Y-92007142D01*
X74223571Y-91911904D01*
X74223571Y-91626190D01*
X74271190Y-91530952D01*
X74318809Y-91483333D01*
X74414047Y-91435714D01*
X74556904Y-91435714D01*
X74652142Y-91483333D01*
X74699761Y-91530952D01*
X74747380Y-91626190D01*
X74747380Y-91911904D01*
X74699761Y-92007142D01*
X74652142Y-92054761D01*
X74556904Y-92102380D01*
X74414047Y-92102380D01*
X75175952Y-92102380D02*
X75175952Y-91435714D01*
X75175952Y-91626190D02*
X75223571Y-91530952D01*
X75271190Y-91483333D01*
X75366428Y-91435714D01*
X75461666Y-91435714D01*
X75747380Y-91816666D02*
X76223571Y-91816666D01*
X75652142Y-92102380D02*
X75985476Y-91102380D01*
X76318809Y-92102380D01*
X76652142Y-92102380D02*
X76652142Y-91435714D01*
X76652142Y-91626190D02*
X76699761Y-91530952D01*
X76747380Y-91483333D01*
X76842619Y-91435714D01*
X76937857Y-91435714D01*
X77699761Y-92102380D02*
X77699761Y-91102380D01*
X77699761Y-92054761D02*
X77604523Y-92102380D01*
X77414047Y-92102380D01*
X77318809Y-92054761D01*
X77271190Y-92007142D01*
X77223571Y-91911904D01*
X77223571Y-91626190D01*
X77271190Y-91530952D01*
X77318809Y-91483333D01*
X77414047Y-91435714D01*
X77604523Y-91435714D01*
X77699761Y-91483333D01*
X78604523Y-91435714D02*
X78604523Y-92102380D01*
X78175952Y-91435714D02*
X78175952Y-91959523D01*
X78223571Y-92054761D01*
X78318809Y-92102380D01*
X78461666Y-92102380D01*
X78556904Y-92054761D01*
X78604523Y-92007142D01*
X79080714Y-92102380D02*
X79080714Y-91435714D01*
X79080714Y-91102380D02*
X79033095Y-91150000D01*
X79080714Y-91197619D01*
X79128333Y-91150000D01*
X79080714Y-91102380D01*
X79080714Y-91197619D01*
X79556904Y-91435714D02*
X79556904Y-92102380D01*
X79556904Y-91530952D02*
X79604523Y-91483333D01*
X79699761Y-91435714D01*
X79842619Y-91435714D01*
X79937857Y-91483333D01*
X79985476Y-91578571D01*
X79985476Y-92102380D01*
X80604523Y-92102380D02*
X80509285Y-92054761D01*
X80461666Y-92007142D01*
X80414047Y-91911904D01*
X80414047Y-91626190D01*
X80461666Y-91530952D01*
X80509285Y-91483333D01*
X80604523Y-91435714D01*
X80747380Y-91435714D01*
X80842619Y-91483333D01*
X80890238Y-91530952D01*
X80937857Y-91626190D01*
X80937857Y-91911904D01*
X80890238Y-92007142D01*
X80842619Y-92054761D01*
X80747380Y-92102380D01*
X80604523Y-92102380D01*
X81890238Y-92102380D02*
X81318809Y-92102380D01*
X81604523Y-92102380D02*
X81604523Y-91102380D01*
X81509285Y-91245238D01*
X81414047Y-91340476D01*
X81318809Y-91388095D01*
X117420238Y-92102380D02*
X117086904Y-91626190D01*
X116848809Y-92102380D02*
X116848809Y-91102380D01*
X117229761Y-91102380D01*
X117325000Y-91150000D01*
X117372619Y-91197619D01*
X117420238Y-91292857D01*
X117420238Y-91435714D01*
X117372619Y-91530952D01*
X117325000Y-91578571D01*
X117229761Y-91626190D01*
X116848809Y-91626190D01*
X117753571Y-91102380D02*
X118420238Y-92102380D01*
X118420238Y-91102380D02*
X117753571Y-92102380D01*
X119515476Y-91054761D02*
X118658333Y-92340476D01*
X119705952Y-91102380D02*
X120277380Y-91102380D01*
X119991666Y-92102380D02*
X119991666Y-91102380D01*
X120515476Y-91102380D02*
X121182142Y-92102380D01*
X121182142Y-91102380D02*
X120515476Y-92102380D01*
X121991666Y-91435714D02*
X121991666Y-92245238D01*
X121944047Y-92340476D01*
X121896428Y-92388095D01*
X121801190Y-92435714D01*
X121658333Y-92435714D01*
X121563095Y-92388095D01*
X121991666Y-92054761D02*
X121896428Y-92102380D01*
X121705952Y-92102380D01*
X121610714Y-92054761D01*
X121563095Y-92007142D01*
X121515476Y-91911904D01*
X121515476Y-91626190D01*
X121563095Y-91530952D01*
X121610714Y-91483333D01*
X121705952Y-91435714D01*
X121896428Y-91435714D01*
X121991666Y-91483333D01*
X122372619Y-91435714D02*
X122610714Y-92102380D01*
X122848809Y-91435714D02*
X122610714Y-92102380D01*
X122515476Y-92340476D01*
X122467857Y-92388095D01*
X122372619Y-92435714D01*
X123229761Y-92102380D02*
X123229761Y-91435714D01*
X123229761Y-91626190D02*
X123277380Y-91530952D01*
X123325000Y-91483333D01*
X123420238Y-91435714D01*
X123515476Y-91435714D01*
X123991666Y-92102380D02*
X123896428Y-92054761D01*
X123848809Y-92007142D01*
X123801190Y-91911904D01*
X123801190Y-91626190D01*
X123848809Y-91530952D01*
X123896428Y-91483333D01*
X123991666Y-91435714D01*
X124134523Y-91435714D01*
X124229761Y-91483333D01*
X124277380Y-91530952D01*
X124325000Y-91626190D01*
X124325000Y-91911904D01*
X124277380Y-92007142D01*
X124229761Y-92054761D01*
X124134523Y-92102380D01*
X123991666Y-92102380D01*
X124705952Y-91816666D02*
X125182142Y-91816666D01*
X124610714Y-92102380D02*
X124944047Y-91102380D01*
X125277380Y-92102380D01*
X125610714Y-92102380D02*
X125610714Y-91435714D01*
X125610714Y-91626190D02*
X125658333Y-91530952D01*
X125705952Y-91483333D01*
X125801190Y-91435714D01*
X125896428Y-91435714D01*
X126658333Y-92102380D02*
X126658333Y-91102380D01*
X126658333Y-92054761D02*
X126563095Y-92102380D01*
X126372619Y-92102380D01*
X126277380Y-92054761D01*
X126229761Y-92007142D01*
X126182142Y-91911904D01*
X126182142Y-91626190D01*
X126229761Y-91530952D01*
X126277380Y-91483333D01*
X126372619Y-91435714D01*
X126563095Y-91435714D01*
X126658333Y-91483333D01*
X127563095Y-91435714D02*
X127563095Y-92102380D01*
X127134523Y-91435714D02*
X127134523Y-91959523D01*
X127182142Y-92054761D01*
X127277380Y-92102380D01*
X127420238Y-92102380D01*
X127515476Y-92054761D01*
X127563095Y-92007142D01*
X128039285Y-92102380D02*
X128039285Y-91435714D01*
X128039285Y-91102380D02*
X127991666Y-91150000D01*
X128039285Y-91197619D01*
X128086904Y-91150000D01*
X128039285Y-91102380D01*
X128039285Y-91197619D01*
X128515476Y-91435714D02*
X128515476Y-92102380D01*
X128515476Y-91530952D02*
X128563095Y-91483333D01*
X128658333Y-91435714D01*
X128801190Y-91435714D01*
X128896428Y-91483333D01*
X128944047Y-91578571D01*
X128944047Y-92102380D01*
X129563095Y-92102380D02*
X129467857Y-92054761D01*
X129420238Y-92007142D01*
X129372619Y-91911904D01*
X129372619Y-91626190D01*
X129420238Y-91530952D01*
X129467857Y-91483333D01*
X129563095Y-91435714D01*
X129705952Y-91435714D01*
X129801190Y-91483333D01*
X129848809Y-91530952D01*
X129896428Y-91626190D01*
X129896428Y-91911904D01*
X129848809Y-92007142D01*
X129801190Y-92054761D01*
X129705952Y-92102380D01*
X129563095Y-92102380D01*
X130848809Y-92102380D02*
X130277380Y-92102380D01*
X130563095Y-92102380D02*
X130563095Y-91102380D01*
X130467857Y-91245238D01*
X130372619Y-91340476D01*
X130277380Y-91388095D01*
X44355000Y-133887380D02*
X44355000Y-133220714D01*
X44355000Y-133411190D02*
X44402619Y-133315952D01*
X44450238Y-133268333D01*
X44545476Y-133220714D01*
X44640714Y-133220714D01*
X44974047Y-133887380D02*
X44974047Y-132887380D01*
X45307380Y-133601666D01*
X45640714Y-132887380D01*
X45640714Y-133887380D01*
X46593095Y-133887380D02*
X46116904Y-133887380D01*
X46116904Y-132887380D01*
X46831190Y-132887380D02*
X47497857Y-133887380D01*
X47497857Y-132887380D02*
X46831190Y-133887380D01*
X47831190Y-132982619D02*
X47878809Y-132935000D01*
X47974047Y-132887380D01*
X48212142Y-132887380D01*
X48307380Y-132935000D01*
X48355000Y-132982619D01*
X48402619Y-133077857D01*
X48402619Y-133173095D01*
X48355000Y-133315952D01*
X47783571Y-133887380D01*
X48402619Y-133887380D01*
X130080000Y-138797380D02*
X130080000Y-138130714D01*
X130080000Y-138321190D02*
X130127619Y-138225952D01*
X130175238Y-138178333D01*
X130270476Y-138130714D01*
X130365714Y-138130714D01*
X130699047Y-138797380D02*
X130699047Y-137797380D01*
X131032380Y-138511666D01*
X131365714Y-137797380D01*
X131365714Y-138797380D01*
X132318095Y-138797380D02*
X131841904Y-138797380D01*
X131841904Y-137797380D01*
X132556190Y-137797380D02*
X133222857Y-138797380D01*
X133222857Y-137797380D02*
X132556190Y-138797380D01*
X134127619Y-138797380D02*
X133556190Y-138797380D01*
X133841904Y-138797380D02*
X133841904Y-137797380D01*
X133746666Y-137940238D01*
X133651428Y-138035476D01*
X133556190Y-138083095D01*
X34509047Y-166092380D02*
X34509047Y-165425714D01*
X34509047Y-165616190D02*
X34556666Y-165520952D01*
X34604285Y-165473333D01*
X34699523Y-165425714D01*
X34794761Y-165425714D01*
X35509047Y-166044761D02*
X35413809Y-166092380D01*
X35223333Y-166092380D01*
X35128095Y-166044761D01*
X35080476Y-165949523D01*
X35080476Y-165568571D01*
X35128095Y-165473333D01*
X35223333Y-165425714D01*
X35413809Y-165425714D01*
X35509047Y-165473333D01*
X35556666Y-165568571D01*
X35556666Y-165663809D01*
X35080476Y-165759047D01*
X35937619Y-166044761D02*
X36032857Y-166092380D01*
X36223333Y-166092380D01*
X36318571Y-166044761D01*
X36366190Y-165949523D01*
X36366190Y-165901904D01*
X36318571Y-165806666D01*
X36223333Y-165759047D01*
X36080476Y-165759047D01*
X35985238Y-165711428D01*
X35937619Y-165616190D01*
X35937619Y-165568571D01*
X35985238Y-165473333D01*
X36080476Y-165425714D01*
X36223333Y-165425714D01*
X36318571Y-165473333D01*
X37175714Y-166044761D02*
X37080476Y-166092380D01*
X36890000Y-166092380D01*
X36794761Y-166044761D01*
X36747142Y-165949523D01*
X36747142Y-165568571D01*
X36794761Y-165473333D01*
X36890000Y-165425714D01*
X37080476Y-165425714D01*
X37175714Y-165473333D01*
X37223333Y-165568571D01*
X37223333Y-165663809D01*
X36747142Y-165759047D01*
X37509047Y-165425714D02*
X37890000Y-165425714D01*
X37651904Y-165092380D02*
X37651904Y-165949523D01*
X37699523Y-166044761D01*
X37794761Y-166092380D01*
X37890000Y-166092380D01*
X38556666Y-165568571D02*
X38699523Y-165616190D01*
X38747142Y-165663809D01*
X38794761Y-165759047D01*
X38794761Y-165901904D01*
X38747142Y-165997142D01*
X38699523Y-166044761D01*
X38604285Y-166092380D01*
X38223333Y-166092380D01*
X38223333Y-165092380D01*
X38556666Y-165092380D01*
X38651904Y-165140000D01*
X38699523Y-165187619D01*
X38747142Y-165282857D01*
X38747142Y-165378095D01*
X38699523Y-165473333D01*
X38651904Y-165520952D01*
X38556666Y-165568571D01*
X38223333Y-165568571D01*
X39651904Y-165425714D02*
X39651904Y-166092380D01*
X39223333Y-165425714D02*
X39223333Y-165949523D01*
X39270952Y-166044761D01*
X39366190Y-166092380D01*
X39509047Y-166092380D01*
X39604285Y-166044761D01*
X39651904Y-165997142D01*
X39985238Y-165425714D02*
X40366190Y-165425714D01*
X40128095Y-165092380D02*
X40128095Y-165949523D01*
X40175714Y-166044761D01*
X40270952Y-166092380D01*
X40366190Y-166092380D01*
X40556666Y-165425714D02*
X40937619Y-165425714D01*
X40699523Y-165092380D02*
X40699523Y-165949523D01*
X40747142Y-166044761D01*
X40842380Y-166092380D01*
X40937619Y-166092380D01*
X41413809Y-166092380D02*
X41318571Y-166044761D01*
X41270952Y-165997142D01*
X41223333Y-165901904D01*
X41223333Y-165616190D01*
X41270952Y-165520952D01*
X41318571Y-165473333D01*
X41413809Y-165425714D01*
X41556666Y-165425714D01*
X41651904Y-165473333D01*
X41699523Y-165520952D01*
X41747142Y-165616190D01*
X41747142Y-165901904D01*
X41699523Y-165997142D01*
X41651904Y-166044761D01*
X41556666Y-166092380D01*
X41413809Y-166092380D01*
X42175714Y-165425714D02*
X42175714Y-166092380D01*
X42175714Y-165520952D02*
X42223333Y-165473333D01*
X42318571Y-165425714D01*
X42461428Y-165425714D01*
X42556666Y-165473333D01*
X42604285Y-165568571D01*
X42604285Y-166092380D01*
X43080476Y-166092380D02*
X43080476Y-165092380D01*
X43413809Y-165806666D01*
X43747142Y-165092380D01*
X43747142Y-166092380D01*
X44366190Y-166092380D02*
X44270952Y-166044761D01*
X44223333Y-165997142D01*
X44175714Y-165901904D01*
X44175714Y-165616190D01*
X44223333Y-165520952D01*
X44270952Y-165473333D01*
X44366190Y-165425714D01*
X44509047Y-165425714D01*
X44604285Y-165473333D01*
X44651904Y-165520952D01*
X44699523Y-165616190D01*
X44699523Y-165901904D01*
X44651904Y-165997142D01*
X44604285Y-166044761D01*
X44509047Y-166092380D01*
X44366190Y-166092380D01*
X44985238Y-165425714D02*
X45366190Y-165425714D01*
X45128095Y-165092380D02*
X45128095Y-165949523D01*
X45175714Y-166044761D01*
X45270952Y-166092380D01*
X45366190Y-166092380D01*
X45842380Y-166092380D02*
X45747142Y-166044761D01*
X45699523Y-165997142D01*
X45651904Y-165901904D01*
X45651904Y-165616190D01*
X45699523Y-165520952D01*
X45747142Y-165473333D01*
X45842380Y-165425714D01*
X45985238Y-165425714D01*
X46080476Y-165473333D01*
X46128095Y-165520952D01*
X46175714Y-165616190D01*
X46175714Y-165901904D01*
X46128095Y-165997142D01*
X46080476Y-166044761D01*
X45985238Y-166092380D01*
X45842380Y-166092380D01*
X46604285Y-166092380D02*
X46604285Y-165425714D01*
X46604285Y-165616190D02*
X46651904Y-165520952D01*
X46699523Y-165473333D01*
X46794761Y-165425714D01*
X46890000Y-165425714D01*
X47175714Y-165806666D02*
X47651904Y-165806666D01*
X47080476Y-166092380D02*
X47413809Y-165092380D01*
X47747142Y-166092380D01*
X48080476Y-166092380D02*
X48080476Y-165425714D01*
X48080476Y-165616190D02*
X48128095Y-165520952D01*
X48175714Y-165473333D01*
X48270952Y-165425714D01*
X48366190Y-165425714D01*
X49128095Y-166092380D02*
X49128095Y-165092380D01*
X49128095Y-166044761D02*
X49032857Y-166092380D01*
X48842380Y-166092380D01*
X48747142Y-166044761D01*
X48699523Y-165997142D01*
X48651904Y-165901904D01*
X48651904Y-165616190D01*
X48699523Y-165520952D01*
X48747142Y-165473333D01*
X48842380Y-165425714D01*
X49032857Y-165425714D01*
X49128095Y-165473333D01*
X50032857Y-165425714D02*
X50032857Y-166092380D01*
X49604285Y-165425714D02*
X49604285Y-165949523D01*
X49651904Y-166044761D01*
X49747142Y-166092380D01*
X49890000Y-166092380D01*
X49985238Y-166044761D01*
X50032857Y-165997142D01*
X50509047Y-166092380D02*
X50509047Y-165425714D01*
X50509047Y-165092380D02*
X50461428Y-165140000D01*
X50509047Y-165187619D01*
X50556666Y-165140000D01*
X50509047Y-165092380D01*
X50509047Y-165187619D01*
X50985238Y-165425714D02*
X50985238Y-166092380D01*
X50985238Y-165520952D02*
X51032857Y-165473333D01*
X51128095Y-165425714D01*
X51270952Y-165425714D01*
X51366190Y-165473333D01*
X51413809Y-165568571D01*
X51413809Y-166092380D01*
X52032857Y-166092380D02*
X51937619Y-166044761D01*
X51890000Y-165997142D01*
X51842380Y-165901904D01*
X51842380Y-165616190D01*
X51890000Y-165520952D01*
X51937619Y-165473333D01*
X52032857Y-165425714D01*
X52175714Y-165425714D01*
X52270952Y-165473333D01*
X52318571Y-165520952D01*
X52366190Y-165616190D01*
X52366190Y-165901904D01*
X52318571Y-165997142D01*
X52270952Y-166044761D01*
X52175714Y-166092380D01*
X52032857Y-166092380D01*
X53318571Y-166092380D02*
X52747142Y-166092380D01*
X53032857Y-166092380D02*
X53032857Y-165092380D01*
X52937619Y-165235238D01*
X52842380Y-165330476D01*
X52747142Y-165378095D01*
X122567619Y-166092380D02*
X122567619Y-165425714D01*
X122567619Y-165616190D02*
X122615238Y-165520952D01*
X122662857Y-165473333D01*
X122758095Y-165425714D01*
X122853333Y-165425714D01*
X123567619Y-166044761D02*
X123472380Y-166092380D01*
X123281904Y-166092380D01*
X123186666Y-166044761D01*
X123139047Y-165949523D01*
X123139047Y-165568571D01*
X123186666Y-165473333D01*
X123281904Y-165425714D01*
X123472380Y-165425714D01*
X123567619Y-165473333D01*
X123615238Y-165568571D01*
X123615238Y-165663809D01*
X123139047Y-165759047D01*
X123996190Y-166044761D02*
X124091428Y-166092380D01*
X124281904Y-166092380D01*
X124377142Y-166044761D01*
X124424761Y-165949523D01*
X124424761Y-165901904D01*
X124377142Y-165806666D01*
X124281904Y-165759047D01*
X124139047Y-165759047D01*
X124043809Y-165711428D01*
X123996190Y-165616190D01*
X123996190Y-165568571D01*
X124043809Y-165473333D01*
X124139047Y-165425714D01*
X124281904Y-165425714D01*
X124377142Y-165473333D01*
X125234285Y-166044761D02*
X125139047Y-166092380D01*
X124948571Y-166092380D01*
X124853333Y-166044761D01*
X124805714Y-165949523D01*
X124805714Y-165568571D01*
X124853333Y-165473333D01*
X124948571Y-165425714D01*
X125139047Y-165425714D01*
X125234285Y-165473333D01*
X125281904Y-165568571D01*
X125281904Y-165663809D01*
X124805714Y-165759047D01*
X125567619Y-165425714D02*
X125948571Y-165425714D01*
X125710476Y-165092380D02*
X125710476Y-165949523D01*
X125758095Y-166044761D01*
X125853333Y-166092380D01*
X125948571Y-166092380D01*
X126615238Y-165568571D02*
X126758095Y-165616190D01*
X126805714Y-165663809D01*
X126853333Y-165759047D01*
X126853333Y-165901904D01*
X126805714Y-165997142D01*
X126758095Y-166044761D01*
X126662857Y-166092380D01*
X126281904Y-166092380D01*
X126281904Y-165092380D01*
X126615238Y-165092380D01*
X126710476Y-165140000D01*
X126758095Y-165187619D01*
X126805714Y-165282857D01*
X126805714Y-165378095D01*
X126758095Y-165473333D01*
X126710476Y-165520952D01*
X126615238Y-165568571D01*
X126281904Y-165568571D01*
X127710476Y-165425714D02*
X127710476Y-166092380D01*
X127281904Y-165425714D02*
X127281904Y-165949523D01*
X127329523Y-166044761D01*
X127424761Y-166092380D01*
X127567619Y-166092380D01*
X127662857Y-166044761D01*
X127710476Y-165997142D01*
X128043809Y-165425714D02*
X128424761Y-165425714D01*
X128186666Y-165092380D02*
X128186666Y-165949523D01*
X128234285Y-166044761D01*
X128329523Y-166092380D01*
X128424761Y-166092380D01*
X128615238Y-165425714D02*
X128996190Y-165425714D01*
X128758095Y-165092380D02*
X128758095Y-165949523D01*
X128805714Y-166044761D01*
X128900952Y-166092380D01*
X128996190Y-166092380D01*
X129472380Y-166092380D02*
X129377142Y-166044761D01*
X129329523Y-165997142D01*
X129281904Y-165901904D01*
X129281904Y-165616190D01*
X129329523Y-165520952D01*
X129377142Y-165473333D01*
X129472380Y-165425714D01*
X129615238Y-165425714D01*
X129710476Y-165473333D01*
X129758095Y-165520952D01*
X129805714Y-165616190D01*
X129805714Y-165901904D01*
X129758095Y-165997142D01*
X129710476Y-166044761D01*
X129615238Y-166092380D01*
X129472380Y-166092380D01*
X130234285Y-165425714D02*
X130234285Y-166092380D01*
X130234285Y-165520952D02*
X130281904Y-165473333D01*
X130377142Y-165425714D01*
X130520000Y-165425714D01*
X130615238Y-165473333D01*
X130662857Y-165568571D01*
X130662857Y-166092380D01*
X131662857Y-165140000D02*
X131567619Y-165092380D01*
X131424761Y-165092380D01*
X131281904Y-165140000D01*
X131186666Y-165235238D01*
X131139047Y-165330476D01*
X131091428Y-165520952D01*
X131091428Y-165663809D01*
X131139047Y-165854285D01*
X131186666Y-165949523D01*
X131281904Y-166044761D01*
X131424761Y-166092380D01*
X131520000Y-166092380D01*
X131662857Y-166044761D01*
X131710476Y-165997142D01*
X131710476Y-165663809D01*
X131520000Y-165663809D01*
X132043809Y-165425714D02*
X132281904Y-166092380D01*
X132520000Y-165425714D02*
X132281904Y-166092380D01*
X132186666Y-166330476D01*
X132139047Y-166378095D01*
X132043809Y-166425714D01*
X132900952Y-166092380D02*
X132900952Y-165425714D01*
X132900952Y-165616190D02*
X132948571Y-165520952D01*
X132996190Y-165473333D01*
X133091428Y-165425714D01*
X133186666Y-165425714D01*
X133662857Y-166092380D02*
X133567619Y-166044761D01*
X133520000Y-165997142D01*
X133472380Y-165901904D01*
X133472380Y-165616190D01*
X133520000Y-165520952D01*
X133567619Y-165473333D01*
X133662857Y-165425714D01*
X133805714Y-165425714D01*
X133900952Y-165473333D01*
X133948571Y-165520952D01*
X133996190Y-165616190D01*
X133996190Y-165901904D01*
X133948571Y-165997142D01*
X133900952Y-166044761D01*
X133805714Y-166092380D01*
X133662857Y-166092380D01*
X134377142Y-165806666D02*
X134853333Y-165806666D01*
X134281904Y-166092380D02*
X134615238Y-165092380D01*
X134948571Y-166092380D01*
X135281904Y-166092380D02*
X135281904Y-165425714D01*
X135281904Y-165616190D02*
X135329523Y-165520952D01*
X135377142Y-165473333D01*
X135472380Y-165425714D01*
X135567619Y-165425714D01*
X136329523Y-166092380D02*
X136329523Y-165092380D01*
X136329523Y-166044761D02*
X136234285Y-166092380D01*
X136043809Y-166092380D01*
X135948571Y-166044761D01*
X135900952Y-165997142D01*
X135853333Y-165901904D01*
X135853333Y-165616190D01*
X135900952Y-165520952D01*
X135948571Y-165473333D01*
X136043809Y-165425714D01*
X136234285Y-165425714D01*
X136329523Y-165473333D01*
X137234285Y-165425714D02*
X137234285Y-166092380D01*
X136805714Y-165425714D02*
X136805714Y-165949523D01*
X136853333Y-166044761D01*
X136948571Y-166092380D01*
X137091428Y-166092380D01*
X137186666Y-166044761D01*
X137234285Y-165997142D01*
X137710476Y-166092380D02*
X137710476Y-165425714D01*
X137710476Y-165092380D02*
X137662857Y-165140000D01*
X137710476Y-165187619D01*
X137758095Y-165140000D01*
X137710476Y-165092380D01*
X137710476Y-165187619D01*
X138186666Y-165425714D02*
X138186666Y-166092380D01*
X138186666Y-165520952D02*
X138234285Y-165473333D01*
X138329523Y-165425714D01*
X138472380Y-165425714D01*
X138567619Y-165473333D01*
X138615238Y-165568571D01*
X138615238Y-166092380D01*
X139234285Y-166092380D02*
X139139047Y-166044761D01*
X139091428Y-165997142D01*
X139043809Y-165901904D01*
X139043809Y-165616190D01*
X139091428Y-165520952D01*
X139139047Y-165473333D01*
X139234285Y-165425714D01*
X139377142Y-165425714D01*
X139472380Y-165473333D01*
X139520000Y-165520952D01*
X139567619Y-165616190D01*
X139567619Y-165901904D01*
X139520000Y-165997142D01*
X139472380Y-166044761D01*
X139377142Y-166092380D01*
X139234285Y-166092380D01*
X140520000Y-166092380D02*
X139948571Y-166092380D01*
X140234285Y-166092380D02*
X140234285Y-165092380D01*
X140139047Y-165235238D01*
X140043809Y-165330476D01*
X139948571Y-165378095D01*
X130643333Y-36097380D02*
X130310000Y-35621190D01*
X130071904Y-36097380D02*
X130071904Y-35097380D01*
X130452857Y-35097380D01*
X130548095Y-35145000D01*
X130595714Y-35192619D01*
X130643333Y-35287857D01*
X130643333Y-35430714D01*
X130595714Y-35525952D01*
X130548095Y-35573571D01*
X130452857Y-35621190D01*
X130071904Y-35621190D01*
X131548095Y-35097380D02*
X131071904Y-35097380D01*
X131024285Y-35573571D01*
X131071904Y-35525952D01*
X131167142Y-35478333D01*
X131405238Y-35478333D01*
X131500476Y-35525952D01*
X131548095Y-35573571D01*
X131595714Y-35668809D01*
X131595714Y-35906904D01*
X131548095Y-36002142D01*
X131500476Y-36049761D01*
X131405238Y-36097380D01*
X131167142Y-36097380D01*
X131071904Y-36049761D01*
X131024285Y-36002142D01*
X119718333Y-39272380D02*
X119385000Y-38796190D01*
X119146904Y-39272380D02*
X119146904Y-38272380D01*
X119527857Y-38272380D01*
X119623095Y-38320000D01*
X119670714Y-38367619D01*
X119718333Y-38462857D01*
X119718333Y-38605714D01*
X119670714Y-38700952D01*
X119623095Y-38748571D01*
X119527857Y-38796190D01*
X119146904Y-38796190D01*
X120575476Y-38605714D02*
X120575476Y-39272380D01*
X120337380Y-38224761D02*
X120099285Y-38939047D01*
X120718333Y-38939047D01*
X44283333Y-39737380D02*
X43950000Y-39261190D01*
X43711904Y-39737380D02*
X43711904Y-38737380D01*
X44092857Y-38737380D01*
X44188095Y-38785000D01*
X44235714Y-38832619D01*
X44283333Y-38927857D01*
X44283333Y-39070714D01*
X44235714Y-39165952D01*
X44188095Y-39213571D01*
X44092857Y-39261190D01*
X43711904Y-39261190D01*
X44616666Y-38737380D02*
X45235714Y-38737380D01*
X44902380Y-39118333D01*
X45045238Y-39118333D01*
X45140476Y-39165952D01*
X45188095Y-39213571D01*
X45235714Y-39308809D01*
X45235714Y-39546904D01*
X45188095Y-39642142D01*
X45140476Y-39689761D01*
X45045238Y-39737380D01*
X44759523Y-39737380D01*
X44664285Y-39689761D01*
X44616666Y-39642142D01*
X54948333Y-42912380D02*
X54615000Y-42436190D01*
X54376904Y-42912380D02*
X54376904Y-41912380D01*
X54757857Y-41912380D01*
X54853095Y-41960000D01*
X54900714Y-42007619D01*
X54948333Y-42102857D01*
X54948333Y-42245714D01*
X54900714Y-42340952D01*
X54853095Y-42388571D01*
X54757857Y-42436190D01*
X54376904Y-42436190D01*
X55329285Y-42007619D02*
X55376904Y-41960000D01*
X55472142Y-41912380D01*
X55710238Y-41912380D01*
X55805476Y-41960000D01*
X55853095Y-42007619D01*
X55900714Y-42102857D01*
X55900714Y-42198095D01*
X55853095Y-42340952D01*
X55281666Y-42912380D01*
X55900714Y-42912380D01*
X76737380Y-99861666D02*
X76261190Y-100195000D01*
X76737380Y-100433095D02*
X75737380Y-100433095D01*
X75737380Y-100052142D01*
X75785000Y-99956904D01*
X75832619Y-99909285D01*
X75927857Y-99861666D01*
X76070714Y-99861666D01*
X76165952Y-99909285D01*
X76213571Y-99956904D01*
X76261190Y-100052142D01*
X76261190Y-100433095D01*
X76737380Y-98909285D02*
X76737380Y-99480714D01*
X76737380Y-99195000D02*
X75737380Y-99195000D01*
X75880238Y-99290238D01*
X75975476Y-99385476D01*
X76023095Y-99480714D01*
X47529761Y-134917619D02*
X47434523Y-134870000D01*
X47339285Y-134774761D01*
X47196428Y-134631904D01*
X47101190Y-134584285D01*
X47005952Y-134584285D01*
X47053571Y-134822380D02*
X46958333Y-134774761D01*
X46863095Y-134679523D01*
X46815476Y-134489047D01*
X46815476Y-134155714D01*
X46863095Y-133965238D01*
X46958333Y-133870000D01*
X47053571Y-133822380D01*
X47244047Y-133822380D01*
X47339285Y-133870000D01*
X47434523Y-133965238D01*
X47482142Y-134155714D01*
X47482142Y-134489047D01*
X47434523Y-134679523D01*
X47339285Y-134774761D01*
X47244047Y-134822380D01*
X47053571Y-134822380D01*
X47863095Y-133917619D02*
X47910714Y-133870000D01*
X48005952Y-133822380D01*
X48244047Y-133822380D01*
X48339285Y-133870000D01*
X48386904Y-133917619D01*
X48434523Y-134012857D01*
X48434523Y-134108095D01*
X48386904Y-134250952D01*
X47815476Y-134822380D01*
X48434523Y-134822380D01*
X130714761Y-127797619D02*
X130619523Y-127750000D01*
X130524285Y-127654761D01*
X130381428Y-127511904D01*
X130286190Y-127464285D01*
X130190952Y-127464285D01*
X130238571Y-127702380D02*
X130143333Y-127654761D01*
X130048095Y-127559523D01*
X130000476Y-127369047D01*
X130000476Y-127035714D01*
X130048095Y-126845238D01*
X130143333Y-126750000D01*
X130238571Y-126702380D01*
X130429047Y-126702380D01*
X130524285Y-126750000D01*
X130619523Y-126845238D01*
X130667142Y-127035714D01*
X130667142Y-127369047D01*
X130619523Y-127559523D01*
X130524285Y-127654761D01*
X130429047Y-127702380D01*
X130238571Y-127702380D01*
X131619523Y-127702380D02*
X131048095Y-127702380D01*
X131333809Y-127702380D02*
X131333809Y-126702380D01*
X131238571Y-126845238D01*
X131143333Y-126940476D01*
X131048095Y-126988095D01*
X72803571Y-124702380D02*
X72803571Y-123702380D01*
X73184523Y-123702380D01*
X73279761Y-123750000D01*
X73327380Y-123797619D01*
X73375000Y-123892857D01*
X73375000Y-124035714D01*
X73327380Y-124130952D01*
X73279761Y-124178571D01*
X73184523Y-124226190D01*
X72803571Y-124226190D01*
X73946428Y-124702380D02*
X73851190Y-124654761D01*
X73803571Y-124607142D01*
X73755952Y-124511904D01*
X73755952Y-124226190D01*
X73803571Y-124130952D01*
X73851190Y-124083333D01*
X73946428Y-124035714D01*
X74089285Y-124035714D01*
X74184523Y-124083333D01*
X74232142Y-124130952D01*
X74279761Y-124226190D01*
X74279761Y-124511904D01*
X74232142Y-124607142D01*
X74184523Y-124654761D01*
X74089285Y-124702380D01*
X73946428Y-124702380D01*
X74613095Y-124035714D02*
X74803571Y-124702380D01*
X74994047Y-124226190D01*
X75184523Y-124702380D01*
X75375000Y-124035714D01*
X76136904Y-124654761D02*
X76041666Y-124702380D01*
X75851190Y-124702380D01*
X75755952Y-124654761D01*
X75708333Y-124559523D01*
X75708333Y-124178571D01*
X75755952Y-124083333D01*
X75851190Y-124035714D01*
X76041666Y-124035714D01*
X76136904Y-124083333D01*
X76184523Y-124178571D01*
X76184523Y-124273809D01*
X75708333Y-124369047D01*
X76613095Y-124702380D02*
X76613095Y-124035714D01*
X76613095Y-124226190D02*
X76660714Y-124130952D01*
X76708333Y-124083333D01*
X76803571Y-124035714D01*
X76898809Y-124035714D01*
X77803571Y-124702380D02*
X77470238Y-124226190D01*
X77232142Y-124702380D02*
X77232142Y-123702380D01*
X77613095Y-123702380D01*
X77708333Y-123750000D01*
X77755952Y-123797619D01*
X77803571Y-123892857D01*
X77803571Y-124035714D01*
X77755952Y-124130952D01*
X77708333Y-124178571D01*
X77613095Y-124226190D01*
X77232142Y-124226190D01*
X78660714Y-124702380D02*
X78660714Y-124178571D01*
X78613095Y-124083333D01*
X78517857Y-124035714D01*
X78327380Y-124035714D01*
X78232142Y-124083333D01*
X78660714Y-124654761D02*
X78565476Y-124702380D01*
X78327380Y-124702380D01*
X78232142Y-124654761D01*
X78184523Y-124559523D01*
X78184523Y-124464285D01*
X78232142Y-124369047D01*
X78327380Y-124321428D01*
X78565476Y-124321428D01*
X78660714Y-124273809D01*
X79089285Y-124654761D02*
X79184523Y-124702380D01*
X79375000Y-124702380D01*
X79470238Y-124654761D01*
X79517857Y-124559523D01*
X79517857Y-124511904D01*
X79470238Y-124416666D01*
X79375000Y-124369047D01*
X79232142Y-124369047D01*
X79136904Y-124321428D01*
X79089285Y-124226190D01*
X79089285Y-124178571D01*
X79136904Y-124083333D01*
X79232142Y-124035714D01*
X79375000Y-124035714D01*
X79470238Y-124083333D01*
X79946428Y-124035714D02*
X79946428Y-125035714D01*
X79946428Y-124083333D02*
X80041666Y-124035714D01*
X80232142Y-124035714D01*
X80327380Y-124083333D01*
X80375000Y-124130952D01*
X80422619Y-124226190D01*
X80422619Y-124511904D01*
X80375000Y-124607142D01*
X80327380Y-124654761D01*
X80232142Y-124702380D01*
X80041666Y-124702380D01*
X79946428Y-124654761D01*
X80851190Y-124702380D02*
X80851190Y-123702380D01*
X80851190Y-124083333D02*
X80946428Y-124035714D01*
X81136904Y-124035714D01*
X81232142Y-124083333D01*
X81279761Y-124130952D01*
X81327380Y-124226190D01*
X81327380Y-124511904D01*
X81279761Y-124607142D01*
X81232142Y-124654761D01*
X81136904Y-124702380D01*
X80946428Y-124702380D01*
X80851190Y-124654761D01*
X82327380Y-124607142D02*
X82279761Y-124654761D01*
X82136904Y-124702380D01*
X82041666Y-124702380D01*
X81898809Y-124654761D01*
X81803571Y-124559523D01*
X81755952Y-124464285D01*
X81708333Y-124273809D01*
X81708333Y-124130952D01*
X81755952Y-123940476D01*
X81803571Y-123845238D01*
X81898809Y-123750000D01*
X82041666Y-123702380D01*
X82136904Y-123702380D01*
X82279761Y-123750000D01*
X82327380Y-123797619D01*
X82898809Y-124702380D02*
X82803571Y-124654761D01*
X82755952Y-124607142D01*
X82708333Y-124511904D01*
X82708333Y-124226190D01*
X82755952Y-124130952D01*
X82803571Y-124083333D01*
X82898809Y-124035714D01*
X83041666Y-124035714D01*
X83136904Y-124083333D01*
X83184523Y-124130952D01*
X83232142Y-124226190D01*
X83232142Y-124511904D01*
X83184523Y-124607142D01*
X83136904Y-124654761D01*
X83041666Y-124702380D01*
X82898809Y-124702380D01*
X83660714Y-124035714D02*
X83660714Y-124702380D01*
X83660714Y-124130952D02*
X83708333Y-124083333D01*
X83803571Y-124035714D01*
X83946428Y-124035714D01*
X84041666Y-124083333D01*
X84089285Y-124178571D01*
X84089285Y-124702380D01*
X84565476Y-124035714D02*
X84565476Y-124702380D01*
X84565476Y-124130952D02*
X84613095Y-124083333D01*
X84708333Y-124035714D01*
X84851190Y-124035714D01*
X84946428Y-124083333D01*
X84994047Y-124178571D01*
X84994047Y-124702380D01*
X85994047Y-124702380D02*
X85422619Y-124702380D01*
X85708333Y-124702380D02*
X85708333Y-123702380D01*
X85613095Y-123845238D01*
X85517857Y-123940476D01*
X85422619Y-123988095D01*
X84645714Y-126586666D02*
X85645714Y-126586666D01*
X84693333Y-126586666D02*
X84645714Y-126491428D01*
X84645714Y-126300952D01*
X84693333Y-126205714D01*
X84740952Y-126158095D01*
X84836190Y-126110476D01*
X85121904Y-126110476D01*
X85217142Y-126158095D01*
X85264761Y-126205714D01*
X85312380Y-126300952D01*
X85312380Y-126491428D01*
X85264761Y-126586666D01*
X85312380Y-125539047D02*
X85264761Y-125634285D01*
X85217142Y-125681904D01*
X85121904Y-125729523D01*
X84836190Y-125729523D01*
X84740952Y-125681904D01*
X84693333Y-125634285D01*
X84645714Y-125539047D01*
X84645714Y-125396190D01*
X84693333Y-125300952D01*
X84740952Y-125253333D01*
X84836190Y-125205714D01*
X85121904Y-125205714D01*
X85217142Y-125253333D01*
X85264761Y-125300952D01*
X85312380Y-125396190D01*
X85312380Y-125539047D01*
X84645714Y-124872380D02*
X85312380Y-124681904D01*
X84836190Y-124491428D01*
X85312380Y-124300952D01*
X84645714Y-124110476D01*
X85264761Y-123348571D02*
X85312380Y-123443809D01*
X85312380Y-123634285D01*
X85264761Y-123729523D01*
X85169523Y-123777142D01*
X84788571Y-123777142D01*
X84693333Y-123729523D01*
X84645714Y-123634285D01*
X84645714Y-123443809D01*
X84693333Y-123348571D01*
X84788571Y-123300952D01*
X84883809Y-123300952D01*
X84979047Y-123777142D01*
X85312380Y-122872380D02*
X84645714Y-122872380D01*
X84836190Y-122872380D02*
X84740952Y-122824761D01*
X84693333Y-122777142D01*
X84645714Y-122681904D01*
X84645714Y-122586666D01*
X85312380Y-121681904D02*
X84836190Y-122015238D01*
X85312380Y-122253333D02*
X84312380Y-122253333D01*
X84312380Y-121872380D01*
X84360000Y-121777142D01*
X84407619Y-121729523D01*
X84502857Y-121681904D01*
X84645714Y-121681904D01*
X84740952Y-121729523D01*
X84788571Y-121777142D01*
X84836190Y-121872380D01*
X84836190Y-122253333D01*
X85312380Y-120824761D02*
X84788571Y-120824761D01*
X84693333Y-120872380D01*
X84645714Y-120967619D01*
X84645714Y-121158095D01*
X84693333Y-121253333D01*
X85264761Y-120824761D02*
X85312380Y-120920000D01*
X85312380Y-121158095D01*
X85264761Y-121253333D01*
X85169523Y-121300952D01*
X85074285Y-121300952D01*
X84979047Y-121253333D01*
X84931428Y-121158095D01*
X84931428Y-120920000D01*
X84883809Y-120824761D01*
X85264761Y-120396190D02*
X85312380Y-120300952D01*
X85312380Y-120110476D01*
X85264761Y-120015238D01*
X85169523Y-119967619D01*
X85121904Y-119967619D01*
X85026666Y-120015238D01*
X84979047Y-120110476D01*
X84979047Y-120253333D01*
X84931428Y-120348571D01*
X84836190Y-120396190D01*
X84788571Y-120396190D01*
X84693333Y-120348571D01*
X84645714Y-120253333D01*
X84645714Y-120110476D01*
X84693333Y-120015238D01*
X84645714Y-119539047D02*
X85645714Y-119539047D01*
X84693333Y-119539047D02*
X84645714Y-119443809D01*
X84645714Y-119253333D01*
X84693333Y-119158095D01*
X84740952Y-119110476D01*
X84836190Y-119062857D01*
X85121904Y-119062857D01*
X85217142Y-119110476D01*
X85264761Y-119158095D01*
X85312380Y-119253333D01*
X85312380Y-119443809D01*
X85264761Y-119539047D01*
X85312380Y-118634285D02*
X84312380Y-118634285D01*
X84693333Y-118634285D02*
X84645714Y-118539047D01*
X84645714Y-118348571D01*
X84693333Y-118253333D01*
X84740952Y-118205714D01*
X84836190Y-118158095D01*
X85121904Y-118158095D01*
X85217142Y-118205714D01*
X85264761Y-118253333D01*
X85312380Y-118348571D01*
X85312380Y-118539047D01*
X85264761Y-118634285D01*
X85312380Y-117205714D02*
X85312380Y-117777142D01*
X85312380Y-117491428D02*
X84312380Y-117491428D01*
X84455238Y-117586666D01*
X84550476Y-117681904D01*
X84598095Y-117777142D01*
X85752380Y-121173095D02*
X84752380Y-121173095D01*
X84752380Y-120792142D01*
X84800000Y-120696904D01*
X84847619Y-120649285D01*
X84942857Y-120601666D01*
X85085714Y-120601666D01*
X85180952Y-120649285D01*
X85228571Y-120696904D01*
X85276190Y-120792142D01*
X85276190Y-121173095D01*
X85752380Y-120030238D02*
X85704761Y-120125476D01*
X85657142Y-120173095D01*
X85561904Y-120220714D01*
X85276190Y-120220714D01*
X85180952Y-120173095D01*
X85133333Y-120125476D01*
X85085714Y-120030238D01*
X85085714Y-119887380D01*
X85133333Y-119792142D01*
X85180952Y-119744523D01*
X85276190Y-119696904D01*
X85561904Y-119696904D01*
X85657142Y-119744523D01*
X85704761Y-119792142D01*
X85752380Y-119887380D01*
X85752380Y-120030238D01*
X85085714Y-119363571D02*
X85752380Y-119173095D01*
X85276190Y-118982619D01*
X85752380Y-118792142D01*
X85085714Y-118601666D01*
X85704761Y-117839761D02*
X85752380Y-117935000D01*
X85752380Y-118125476D01*
X85704761Y-118220714D01*
X85609523Y-118268333D01*
X85228571Y-118268333D01*
X85133333Y-118220714D01*
X85085714Y-118125476D01*
X85085714Y-117935000D01*
X85133333Y-117839761D01*
X85228571Y-117792142D01*
X85323809Y-117792142D01*
X85419047Y-118268333D01*
X85752380Y-117363571D02*
X85085714Y-117363571D01*
X85276190Y-117363571D02*
X85180952Y-117315952D01*
X85133333Y-117268333D01*
X85085714Y-117173095D01*
X85085714Y-117077857D01*
X85752380Y-116744523D02*
X84752380Y-116744523D01*
X84752380Y-116363571D01*
X84800000Y-116268333D01*
X84847619Y-116220714D01*
X84942857Y-116173095D01*
X85085714Y-116173095D01*
X85180952Y-116220714D01*
X85228571Y-116268333D01*
X85276190Y-116363571D01*
X85276190Y-116744523D01*
X85752380Y-115601666D02*
X85704761Y-115696904D01*
X85609523Y-115744523D01*
X84752380Y-115744523D01*
X85752380Y-114792142D02*
X85228571Y-114792142D01*
X85133333Y-114839761D01*
X85085714Y-114935000D01*
X85085714Y-115125476D01*
X85133333Y-115220714D01*
X85704761Y-114792142D02*
X85752380Y-114887380D01*
X85752380Y-115125476D01*
X85704761Y-115220714D01*
X85609523Y-115268333D01*
X85514285Y-115268333D01*
X85419047Y-115220714D01*
X85371428Y-115125476D01*
X85371428Y-114887380D01*
X85323809Y-114792142D01*
X85085714Y-114458809D02*
X85085714Y-114077857D01*
X84752380Y-114315952D02*
X85609523Y-114315952D01*
X85704761Y-114268333D01*
X85752380Y-114173095D01*
X85752380Y-114077857D01*
X85704761Y-113363571D02*
X85752380Y-113458809D01*
X85752380Y-113649285D01*
X85704761Y-113744523D01*
X85609523Y-113792142D01*
X85228571Y-113792142D01*
X85133333Y-113744523D01*
X85085714Y-113649285D01*
X85085714Y-113458809D01*
X85133333Y-113363571D01*
X85228571Y-113315952D01*
X85323809Y-113315952D01*
X85419047Y-113792142D01*
X85657142Y-112315952D02*
X85704761Y-112363571D01*
X85752380Y-112506428D01*
X85752380Y-112601666D01*
X85704761Y-112744523D01*
X85609523Y-112839761D01*
X85514285Y-112887380D01*
X85323809Y-112935000D01*
X85180952Y-112935000D01*
X84990476Y-112887380D01*
X84895238Y-112839761D01*
X84800000Y-112744523D01*
X84752380Y-112601666D01*
X84752380Y-112506428D01*
X84800000Y-112363571D01*
X84847619Y-112315952D01*
X85752380Y-111744523D02*
X85704761Y-111839761D01*
X85657142Y-111887380D01*
X85561904Y-111935000D01*
X85276190Y-111935000D01*
X85180952Y-111887380D01*
X85133333Y-111839761D01*
X85085714Y-111744523D01*
X85085714Y-111601666D01*
X85133333Y-111506428D01*
X85180952Y-111458809D01*
X85276190Y-111411190D01*
X85561904Y-111411190D01*
X85657142Y-111458809D01*
X85704761Y-111506428D01*
X85752380Y-111601666D01*
X85752380Y-111744523D01*
X85085714Y-110982619D02*
X85752380Y-110982619D01*
X85180952Y-110982619D02*
X85133333Y-110935000D01*
X85085714Y-110839761D01*
X85085714Y-110696904D01*
X85133333Y-110601666D01*
X85228571Y-110554047D01*
X85752380Y-110554047D01*
X85085714Y-110077857D02*
X85752380Y-110077857D01*
X85180952Y-110077857D02*
X85133333Y-110030238D01*
X85085714Y-109935000D01*
X85085714Y-109792142D01*
X85133333Y-109696904D01*
X85228571Y-109649285D01*
X85752380Y-109649285D01*
X85752380Y-108649285D02*
X85752380Y-109220714D01*
X85752380Y-108935000D02*
X84752380Y-108935000D01*
X84895238Y-109030238D01*
X84990476Y-109125476D01*
X85038095Y-109220714D01*
X43879523Y-93535714D02*
X43879523Y-94535714D01*
X43879523Y-93583333D02*
X43974761Y-93535714D01*
X44165238Y-93535714D01*
X44260476Y-93583333D01*
X44308095Y-93630952D01*
X44355714Y-93726190D01*
X44355714Y-94011904D01*
X44308095Y-94107142D01*
X44260476Y-94154761D01*
X44165238Y-94202380D01*
X43974761Y-94202380D01*
X43879523Y-94154761D01*
X44927142Y-94202380D02*
X44831904Y-94154761D01*
X44784285Y-94107142D01*
X44736666Y-94011904D01*
X44736666Y-93726190D01*
X44784285Y-93630952D01*
X44831904Y-93583333D01*
X44927142Y-93535714D01*
X45069999Y-93535714D01*
X45165238Y-93583333D01*
X45212857Y-93630952D01*
X45260476Y-93726190D01*
X45260476Y-94011904D01*
X45212857Y-94107142D01*
X45165238Y-94154761D01*
X45069999Y-94202380D01*
X44927142Y-94202380D01*
X45593809Y-93535714D02*
X45784285Y-94202380D01*
X45974761Y-93726190D01*
X46165238Y-94202380D01*
X46355714Y-93535714D01*
X47117619Y-94154761D02*
X47022380Y-94202380D01*
X46831904Y-94202380D01*
X46736666Y-94154761D01*
X46689047Y-94059523D01*
X46689047Y-93678571D01*
X46736666Y-93583333D01*
X46831904Y-93535714D01*
X47022380Y-93535714D01*
X47117619Y-93583333D01*
X47165238Y-93678571D01*
X47165238Y-93773809D01*
X46689047Y-93869047D01*
X47593809Y-94202380D02*
X47593809Y-93535714D01*
X47593809Y-93726190D02*
X47641428Y-93630952D01*
X47689047Y-93583333D01*
X47784285Y-93535714D01*
X47879523Y-93535714D01*
X48212857Y-94202380D02*
X48212857Y-93202380D01*
X48546190Y-93916666D01*
X48879523Y-93202380D01*
X48879523Y-94202380D01*
X49498571Y-94202380D02*
X49403333Y-94154761D01*
X49355714Y-94107142D01*
X49308095Y-94011904D01*
X49308095Y-93726190D01*
X49355714Y-93630952D01*
X49403333Y-93583333D01*
X49498571Y-93535714D01*
X49641428Y-93535714D01*
X49736666Y-93583333D01*
X49784285Y-93630952D01*
X49831904Y-93726190D01*
X49831904Y-94011904D01*
X49784285Y-94107142D01*
X49736666Y-94154761D01*
X49641428Y-94202380D01*
X49498571Y-94202380D01*
X50117619Y-93535714D02*
X50498571Y-93535714D01*
X50260476Y-93202380D02*
X50260476Y-94059523D01*
X50308095Y-94154761D01*
X50403333Y-94202380D01*
X50498571Y-94202380D01*
X50974761Y-94202380D02*
X50879523Y-94154761D01*
X50831904Y-94107142D01*
X50784285Y-94011904D01*
X50784285Y-93726190D01*
X50831904Y-93630952D01*
X50879523Y-93583333D01*
X50974761Y-93535714D01*
X51117619Y-93535714D01*
X51212857Y-93583333D01*
X51260476Y-93630952D01*
X51308095Y-93726190D01*
X51308095Y-94011904D01*
X51260476Y-94107142D01*
X51212857Y-94154761D01*
X51117619Y-94202380D01*
X50974761Y-94202380D01*
X51736666Y-94202380D02*
X51736666Y-93535714D01*
X51736666Y-93726190D02*
X51784285Y-93630952D01*
X51831904Y-93583333D01*
X51927142Y-93535714D01*
X52022380Y-93535714D01*
X52927142Y-94107142D02*
X52879523Y-94154761D01*
X52736666Y-94202380D01*
X52641428Y-94202380D01*
X52498571Y-94154761D01*
X52403333Y-94059523D01*
X52355714Y-93964285D01*
X52308095Y-93773809D01*
X52308095Y-93630952D01*
X52355714Y-93440476D01*
X52403333Y-93345238D01*
X52498571Y-93250000D01*
X52641428Y-93202380D01*
X52736666Y-93202380D01*
X52879523Y-93250000D01*
X52927142Y-93297619D01*
X53498571Y-94202380D02*
X53403333Y-94154761D01*
X53355714Y-94107142D01*
X53308095Y-94011904D01*
X53308095Y-93726190D01*
X53355714Y-93630952D01*
X53403333Y-93583333D01*
X53498571Y-93535714D01*
X53641428Y-93535714D01*
X53736666Y-93583333D01*
X53784285Y-93630952D01*
X53831904Y-93726190D01*
X53831904Y-94011904D01*
X53784285Y-94107142D01*
X53736666Y-94154761D01*
X53641428Y-94202380D01*
X53498571Y-94202380D01*
X54260476Y-93535714D02*
X54260476Y-94202380D01*
X54260476Y-93630952D02*
X54308095Y-93583333D01*
X54403333Y-93535714D01*
X54546190Y-93535714D01*
X54641428Y-93583333D01*
X54689047Y-93678571D01*
X54689047Y-94202380D01*
X55022380Y-93535714D02*
X55403333Y-93535714D01*
X55165238Y-93202380D02*
X55165238Y-94059523D01*
X55212857Y-94154761D01*
X55308095Y-94202380D01*
X55403333Y-94202380D01*
X55736666Y-94202380D02*
X55736666Y-93535714D01*
X55736666Y-93726190D02*
X55784285Y-93630952D01*
X55831904Y-93583333D01*
X55927142Y-93535714D01*
X56022380Y-93535714D01*
X56498571Y-94202380D02*
X56403333Y-94154761D01*
X56355714Y-94107142D01*
X56308095Y-94011904D01*
X56308095Y-93726190D01*
X56355714Y-93630952D01*
X56403333Y-93583333D01*
X56498571Y-93535714D01*
X56641428Y-93535714D01*
X56736666Y-93583333D01*
X56784285Y-93630952D01*
X56831904Y-93726190D01*
X56831904Y-94011904D01*
X56784285Y-94107142D01*
X56736666Y-94154761D01*
X56641428Y-94202380D01*
X56498571Y-94202380D01*
X57403333Y-94202380D02*
X57308095Y-94154761D01*
X57260476Y-94059523D01*
X57260476Y-93202380D01*
X57927142Y-94202380D02*
X57831904Y-94154761D01*
X57784285Y-94059523D01*
X57784285Y-93202380D01*
X58689047Y-94154761D02*
X58593809Y-94202380D01*
X58403333Y-94202380D01*
X58308095Y-94154761D01*
X58260476Y-94059523D01*
X58260476Y-93678571D01*
X58308095Y-93583333D01*
X58403333Y-93535714D01*
X58593809Y-93535714D01*
X58689047Y-93583333D01*
X58736666Y-93678571D01*
X58736666Y-93773809D01*
X58260476Y-93869047D01*
X59165238Y-94202380D02*
X59165238Y-93535714D01*
X59165238Y-93726190D02*
X59212857Y-93630952D01*
X59260476Y-93583333D01*
X59355714Y-93535714D01*
X59450952Y-93535714D01*
X60308095Y-94202380D02*
X59736666Y-94202380D01*
X60022380Y-94202380D02*
X60022380Y-93202380D01*
X59927142Y-93345238D01*
X59831904Y-93440476D01*
X59736666Y-93488095D01*
X93838095Y-101615714D02*
X93838095Y-102615714D01*
X93838095Y-101663333D02*
X93933333Y-101615714D01*
X94123809Y-101615714D01*
X94219047Y-101663333D01*
X94266666Y-101710952D01*
X94314285Y-101806190D01*
X94314285Y-102091904D01*
X94266666Y-102187142D01*
X94219047Y-102234761D01*
X94123809Y-102282380D01*
X93933333Y-102282380D01*
X93838095Y-102234761D01*
X94885714Y-102282380D02*
X94790476Y-102234761D01*
X94742857Y-102187142D01*
X94695238Y-102091904D01*
X94695238Y-101806190D01*
X94742857Y-101710952D01*
X94790476Y-101663333D01*
X94885714Y-101615714D01*
X95028571Y-101615714D01*
X95123809Y-101663333D01*
X95171428Y-101710952D01*
X95219047Y-101806190D01*
X95219047Y-102091904D01*
X95171428Y-102187142D01*
X95123809Y-102234761D01*
X95028571Y-102282380D01*
X94885714Y-102282380D01*
X95552380Y-101615714D02*
X95742857Y-102282380D01*
X95933333Y-101806190D01*
X96123809Y-102282380D01*
X96314285Y-101615714D01*
X97076190Y-102234761D02*
X96980952Y-102282380D01*
X96790476Y-102282380D01*
X96695238Y-102234761D01*
X96647619Y-102139523D01*
X96647619Y-101758571D01*
X96695238Y-101663333D01*
X96790476Y-101615714D01*
X96980952Y-101615714D01*
X97076190Y-101663333D01*
X97123809Y-101758571D01*
X97123809Y-101853809D01*
X96647619Y-101949047D01*
X97552380Y-102282380D02*
X97552380Y-101615714D01*
X97552380Y-101806190D02*
X97600000Y-101710952D01*
X97647619Y-101663333D01*
X97742857Y-101615714D01*
X97838095Y-101615714D01*
X98695238Y-101330000D02*
X98600000Y-101282380D01*
X98457142Y-101282380D01*
X98314285Y-101330000D01*
X98219047Y-101425238D01*
X98171428Y-101520476D01*
X98123809Y-101710952D01*
X98123809Y-101853809D01*
X98171428Y-102044285D01*
X98219047Y-102139523D01*
X98314285Y-102234761D01*
X98457142Y-102282380D01*
X98552380Y-102282380D01*
X98695238Y-102234761D01*
X98742857Y-102187142D01*
X98742857Y-101853809D01*
X98552380Y-101853809D01*
X99076190Y-101615714D02*
X99314285Y-102282380D01*
X99552380Y-101615714D02*
X99314285Y-102282380D01*
X99219047Y-102520476D01*
X99171428Y-102568095D01*
X99076190Y-102615714D01*
X99933333Y-102282380D02*
X99933333Y-101615714D01*
X99933333Y-101806190D02*
X99980952Y-101710952D01*
X100028571Y-101663333D01*
X100123809Y-101615714D01*
X100219047Y-101615714D01*
X100695238Y-102282380D02*
X100600000Y-102234761D01*
X100552380Y-102187142D01*
X100504761Y-102091904D01*
X100504761Y-101806190D01*
X100552380Y-101710952D01*
X100600000Y-101663333D01*
X100695238Y-101615714D01*
X100838095Y-101615714D01*
X100933333Y-101663333D01*
X100980952Y-101710952D01*
X101028571Y-101806190D01*
X101028571Y-102091904D01*
X100980952Y-102187142D01*
X100933333Y-102234761D01*
X100838095Y-102282380D01*
X100695238Y-102282380D01*
X102028571Y-102187142D02*
X101980952Y-102234761D01*
X101838095Y-102282380D01*
X101742857Y-102282380D01*
X101600000Y-102234761D01*
X101504761Y-102139523D01*
X101457142Y-102044285D01*
X101409523Y-101853809D01*
X101409523Y-101710952D01*
X101457142Y-101520476D01*
X101504761Y-101425238D01*
X101600000Y-101330000D01*
X101742857Y-101282380D01*
X101838095Y-101282380D01*
X101980952Y-101330000D01*
X102028571Y-101377619D01*
X102600000Y-102282380D02*
X102504761Y-102234761D01*
X102457142Y-102187142D01*
X102409523Y-102091904D01*
X102409523Y-101806190D01*
X102457142Y-101710952D01*
X102504761Y-101663333D01*
X102600000Y-101615714D01*
X102742857Y-101615714D01*
X102838095Y-101663333D01*
X102885714Y-101710952D01*
X102933333Y-101806190D01*
X102933333Y-102091904D01*
X102885714Y-102187142D01*
X102838095Y-102234761D01*
X102742857Y-102282380D01*
X102600000Y-102282380D01*
X103361904Y-101615714D02*
X103361904Y-102282380D01*
X103361904Y-101710952D02*
X103409523Y-101663333D01*
X103504761Y-101615714D01*
X103647619Y-101615714D01*
X103742857Y-101663333D01*
X103790476Y-101758571D01*
X103790476Y-102282380D01*
X104123809Y-101615714D02*
X104504761Y-101615714D01*
X104266666Y-101282380D02*
X104266666Y-102139523D01*
X104314285Y-102234761D01*
X104409523Y-102282380D01*
X104504761Y-102282380D01*
X104838095Y-102282380D02*
X104838095Y-101615714D01*
X104838095Y-101806190D02*
X104885714Y-101710952D01*
X104933333Y-101663333D01*
X105028571Y-101615714D01*
X105123809Y-101615714D01*
X105600000Y-102282380D02*
X105504761Y-102234761D01*
X105457142Y-102187142D01*
X105409523Y-102091904D01*
X105409523Y-101806190D01*
X105457142Y-101710952D01*
X105504761Y-101663333D01*
X105600000Y-101615714D01*
X105742857Y-101615714D01*
X105838095Y-101663333D01*
X105885714Y-101710952D01*
X105933333Y-101806190D01*
X105933333Y-102091904D01*
X105885714Y-102187142D01*
X105838095Y-102234761D01*
X105742857Y-102282380D01*
X105600000Y-102282380D01*
X106504761Y-102282380D02*
X106409523Y-102234761D01*
X106361904Y-102139523D01*
X106361904Y-101282380D01*
X107028571Y-102282380D02*
X106933333Y-102234761D01*
X106885714Y-102139523D01*
X106885714Y-101282380D01*
X107790476Y-102234761D02*
X107695238Y-102282380D01*
X107504761Y-102282380D01*
X107409523Y-102234761D01*
X107361904Y-102139523D01*
X107361904Y-101758571D01*
X107409523Y-101663333D01*
X107504761Y-101615714D01*
X107695238Y-101615714D01*
X107790476Y-101663333D01*
X107838095Y-101758571D01*
X107838095Y-101853809D01*
X107361904Y-101949047D01*
X108266666Y-102282380D02*
X108266666Y-101615714D01*
X108266666Y-101806190D02*
X108314285Y-101710952D01*
X108361904Y-101663333D01*
X108457142Y-101615714D01*
X108552380Y-101615714D01*
X109409523Y-102282380D02*
X108838095Y-102282380D01*
X109123809Y-102282380D02*
X109123809Y-101282380D01*
X109028571Y-101425238D01*
X108933333Y-101520476D01*
X108838095Y-101568095D01*
X62437142Y-78982380D02*
X62437142Y-78315714D01*
X62437142Y-78410952D02*
X62484761Y-78363333D01*
X62580000Y-78315714D01*
X62722857Y-78315714D01*
X62818095Y-78363333D01*
X62865714Y-78458571D01*
X62865714Y-78982380D01*
X62865714Y-78458571D02*
X62913333Y-78363333D01*
X63008571Y-78315714D01*
X63151428Y-78315714D01*
X63246666Y-78363333D01*
X63294285Y-78458571D01*
X63294285Y-78982380D01*
X63913333Y-78982380D02*
X63818095Y-78934761D01*
X63770476Y-78887142D01*
X63722857Y-78791904D01*
X63722857Y-78506190D01*
X63770476Y-78410952D01*
X63818095Y-78363333D01*
X63913333Y-78315714D01*
X64056190Y-78315714D01*
X64151428Y-78363333D01*
X64199047Y-78410952D01*
X64246666Y-78506190D01*
X64246666Y-78791904D01*
X64199047Y-78887142D01*
X64151428Y-78934761D01*
X64056190Y-78982380D01*
X63913333Y-78982380D01*
X64532380Y-78315714D02*
X64913333Y-78315714D01*
X64675238Y-77982380D02*
X64675238Y-78839523D01*
X64722857Y-78934761D01*
X64818095Y-78982380D01*
X64913333Y-78982380D01*
X65389523Y-78982380D02*
X65294285Y-78934761D01*
X65246666Y-78887142D01*
X65199047Y-78791904D01*
X65199047Y-78506190D01*
X65246666Y-78410952D01*
X65294285Y-78363333D01*
X65389523Y-78315714D01*
X65532380Y-78315714D01*
X65627619Y-78363333D01*
X65675238Y-78410952D01*
X65722857Y-78506190D01*
X65722857Y-78791904D01*
X65675238Y-78887142D01*
X65627619Y-78934761D01*
X65532380Y-78982380D01*
X65389523Y-78982380D01*
X66151428Y-78982380D02*
X66151428Y-78315714D01*
X66151428Y-78506190D02*
X66199047Y-78410952D01*
X66246666Y-78363333D01*
X66341904Y-78315714D01*
X66437142Y-78315714D01*
X66722857Y-78934761D02*
X66865714Y-78982380D01*
X67103809Y-78982380D01*
X67199047Y-78934761D01*
X67246666Y-78887142D01*
X67294285Y-78791904D01*
X67294285Y-78696666D01*
X67246666Y-78601428D01*
X67199047Y-78553809D01*
X67103809Y-78506190D01*
X66913333Y-78458571D01*
X66818095Y-78410952D01*
X66770476Y-78363333D01*
X66722857Y-78268095D01*
X66722857Y-78172857D01*
X66770476Y-78077619D01*
X66818095Y-78030000D01*
X66913333Y-77982380D01*
X67151428Y-77982380D01*
X67294285Y-78030000D01*
X67722857Y-78982380D02*
X67722857Y-77982380D01*
X68151428Y-78982380D02*
X68151428Y-78458571D01*
X68103809Y-78363333D01*
X68008571Y-78315714D01*
X67865714Y-78315714D01*
X67770476Y-78363333D01*
X67722857Y-78410952D01*
X68627619Y-78982380D02*
X68627619Y-78315714D01*
X68627619Y-77982380D02*
X68580000Y-78030000D01*
X68627619Y-78077619D01*
X68675238Y-78030000D01*
X68627619Y-77982380D01*
X68627619Y-78077619D01*
X69246666Y-78982380D02*
X69151428Y-78934761D01*
X69103809Y-78839523D01*
X69103809Y-77982380D01*
X70056190Y-78982380D02*
X70056190Y-77982380D01*
X70056190Y-78934761D02*
X69960952Y-78982380D01*
X69770476Y-78982380D01*
X69675238Y-78934761D01*
X69627619Y-78887142D01*
X69580000Y-78791904D01*
X69580000Y-78506190D01*
X69627619Y-78410952D01*
X69675238Y-78363333D01*
X69770476Y-78315714D01*
X69960952Y-78315714D01*
X70056190Y-78363333D01*
X71103809Y-78887142D02*
X71056190Y-78934761D01*
X70913333Y-78982380D01*
X70818095Y-78982380D01*
X70675238Y-78934761D01*
X70580000Y-78839523D01*
X70532380Y-78744285D01*
X70484761Y-78553809D01*
X70484761Y-78410952D01*
X70532380Y-78220476D01*
X70580000Y-78125238D01*
X70675238Y-78030000D01*
X70818095Y-77982380D01*
X70913333Y-77982380D01*
X71056190Y-78030000D01*
X71103809Y-78077619D01*
X71675238Y-78982380D02*
X71580000Y-78934761D01*
X71532380Y-78887142D01*
X71484761Y-78791904D01*
X71484761Y-78506190D01*
X71532380Y-78410952D01*
X71580000Y-78363333D01*
X71675238Y-78315714D01*
X71818095Y-78315714D01*
X71913333Y-78363333D01*
X71960952Y-78410952D01*
X72008571Y-78506190D01*
X72008571Y-78791904D01*
X71960952Y-78887142D01*
X71913333Y-78934761D01*
X71818095Y-78982380D01*
X71675238Y-78982380D01*
X72437142Y-78315714D02*
X72437142Y-78982380D01*
X72437142Y-78410952D02*
X72484761Y-78363333D01*
X72580000Y-78315714D01*
X72722857Y-78315714D01*
X72818095Y-78363333D01*
X72865714Y-78458571D01*
X72865714Y-78982380D01*
X73341904Y-78315714D02*
X73341904Y-78982380D01*
X73341904Y-78410952D02*
X73389523Y-78363333D01*
X73484761Y-78315714D01*
X73627619Y-78315714D01*
X73722857Y-78363333D01*
X73770476Y-78458571D01*
X73770476Y-78982380D01*
X74770476Y-78982380D02*
X74199047Y-78982380D01*
X74484761Y-78982380D02*
X74484761Y-77982380D01*
X74389523Y-78125238D01*
X74294285Y-78220476D01*
X74199047Y-78268095D01*
X57380952Y-102052380D02*
X57380952Y-101385714D01*
X57380952Y-101480952D02*
X57428571Y-101433333D01*
X57523809Y-101385714D01*
X57666666Y-101385714D01*
X57761904Y-101433333D01*
X57809523Y-101528571D01*
X57809523Y-102052380D01*
X57809523Y-101528571D02*
X57857142Y-101433333D01*
X57952380Y-101385714D01*
X58095238Y-101385714D01*
X58190476Y-101433333D01*
X58238095Y-101528571D01*
X58238095Y-102052380D01*
X58857142Y-102052380D02*
X58761904Y-102004761D01*
X58714285Y-101957142D01*
X58666666Y-101861904D01*
X58666666Y-101576190D01*
X58714285Y-101480952D01*
X58761904Y-101433333D01*
X58857142Y-101385714D01*
X59000000Y-101385714D01*
X59095238Y-101433333D01*
X59142857Y-101480952D01*
X59190476Y-101576190D01*
X59190476Y-101861904D01*
X59142857Y-101957142D01*
X59095238Y-102004761D01*
X59000000Y-102052380D01*
X58857142Y-102052380D01*
X59476190Y-101385714D02*
X59857142Y-101385714D01*
X59619047Y-101052380D02*
X59619047Y-101909523D01*
X59666666Y-102004761D01*
X59761904Y-102052380D01*
X59857142Y-102052380D01*
X60333333Y-102052380D02*
X60238095Y-102004761D01*
X60190476Y-101957142D01*
X60142857Y-101861904D01*
X60142857Y-101576190D01*
X60190476Y-101480952D01*
X60238095Y-101433333D01*
X60333333Y-101385714D01*
X60476190Y-101385714D01*
X60571428Y-101433333D01*
X60619047Y-101480952D01*
X60666666Y-101576190D01*
X60666666Y-101861904D01*
X60619047Y-101957142D01*
X60571428Y-102004761D01*
X60476190Y-102052380D01*
X60333333Y-102052380D01*
X61095238Y-102052380D02*
X61095238Y-101385714D01*
X61095238Y-101576190D02*
X61142857Y-101480952D01*
X61190476Y-101433333D01*
X61285714Y-101385714D01*
X61380952Y-101385714D01*
X62285714Y-101957142D02*
X62238095Y-102004761D01*
X62095238Y-102052380D01*
X62000000Y-102052380D01*
X61857142Y-102004761D01*
X61761904Y-101909523D01*
X61714285Y-101814285D01*
X61666666Y-101623809D01*
X61666666Y-101480952D01*
X61714285Y-101290476D01*
X61761904Y-101195238D01*
X61857142Y-101100000D01*
X62000000Y-101052380D01*
X62095238Y-101052380D01*
X62238095Y-101100000D01*
X62285714Y-101147619D01*
X62857142Y-102052380D02*
X62761904Y-102004761D01*
X62714285Y-101957142D01*
X62666666Y-101861904D01*
X62666666Y-101576190D01*
X62714285Y-101480952D01*
X62761904Y-101433333D01*
X62857142Y-101385714D01*
X63000000Y-101385714D01*
X63095238Y-101433333D01*
X63142857Y-101480952D01*
X63190476Y-101576190D01*
X63190476Y-101861904D01*
X63142857Y-101957142D01*
X63095238Y-102004761D01*
X63000000Y-102052380D01*
X62857142Y-102052380D01*
X63619047Y-101385714D02*
X63619047Y-102052380D01*
X63619047Y-101480952D02*
X63666666Y-101433333D01*
X63761904Y-101385714D01*
X63904761Y-101385714D01*
X64000000Y-101433333D01*
X64047619Y-101528571D01*
X64047619Y-102052380D01*
X64380952Y-101385714D02*
X64761904Y-101385714D01*
X64523809Y-101052380D02*
X64523809Y-101909523D01*
X64571428Y-102004761D01*
X64666666Y-102052380D01*
X64761904Y-102052380D01*
X65095238Y-102052380D02*
X65095238Y-101385714D01*
X65095238Y-101576190D02*
X65142857Y-101480952D01*
X65190476Y-101433333D01*
X65285714Y-101385714D01*
X65380952Y-101385714D01*
X65857142Y-102052380D02*
X65761904Y-102004761D01*
X65714285Y-101957142D01*
X65666666Y-101861904D01*
X65666666Y-101576190D01*
X65714285Y-101480952D01*
X65761904Y-101433333D01*
X65857142Y-101385714D01*
X66000000Y-101385714D01*
X66095238Y-101433333D01*
X66142857Y-101480952D01*
X66190476Y-101576190D01*
X66190476Y-101861904D01*
X66142857Y-101957142D01*
X66095238Y-102004761D01*
X66000000Y-102052380D01*
X65857142Y-102052380D01*
X66761904Y-102052380D02*
X66666666Y-102004761D01*
X66619047Y-101909523D01*
X66619047Y-101052380D01*
X67285714Y-102052380D02*
X67190476Y-102004761D01*
X67142857Y-101909523D01*
X67142857Y-101052380D01*
X68047619Y-102004761D02*
X67952380Y-102052380D01*
X67761904Y-102052380D01*
X67666666Y-102004761D01*
X67619047Y-101909523D01*
X67619047Y-101528571D01*
X67666666Y-101433333D01*
X67761904Y-101385714D01*
X67952380Y-101385714D01*
X68047619Y-101433333D01*
X68095238Y-101528571D01*
X68095238Y-101623809D01*
X67619047Y-101719047D01*
X68523809Y-102052380D02*
X68523809Y-101385714D01*
X68523809Y-101576190D02*
X68571428Y-101480952D01*
X68619047Y-101433333D01*
X68714285Y-101385714D01*
X68809523Y-101385714D01*
X69666666Y-102052380D02*
X69095238Y-102052380D01*
X69380952Y-102052380D02*
X69380952Y-101052380D01*
X69285714Y-101195238D01*
X69190476Y-101290476D01*
X69095238Y-101338095D01*
X78962380Y-104909523D02*
X78962380Y-105385714D01*
X77962380Y-105385714D01*
X78914761Y-104195238D02*
X78962380Y-104290476D01*
X78962380Y-104480952D01*
X78914761Y-104576190D01*
X78819523Y-104623809D01*
X78438571Y-104623809D01*
X78343333Y-104576190D01*
X78295714Y-104480952D01*
X78295714Y-104290476D01*
X78343333Y-104195238D01*
X78438571Y-104147619D01*
X78533809Y-104147619D01*
X78629047Y-104623809D01*
X78962380Y-103290476D02*
X77962380Y-103290476D01*
X78914761Y-103290476D02*
X78962380Y-103385714D01*
X78962380Y-103576190D01*
X78914761Y-103671428D01*
X78867142Y-103719047D01*
X78771904Y-103766666D01*
X78486190Y-103766666D01*
X78390952Y-103719047D01*
X78343333Y-103671428D01*
X78295714Y-103576190D01*
X78295714Y-103385714D01*
X78343333Y-103290476D01*
X78914761Y-102861904D02*
X78962380Y-102766666D01*
X78962380Y-102576190D01*
X78914761Y-102480952D01*
X78819523Y-102433333D01*
X78771904Y-102433333D01*
X78676666Y-102480952D01*
X78629047Y-102576190D01*
X78629047Y-102719047D01*
X78581428Y-102814285D01*
X78486190Y-102861904D01*
X78438571Y-102861904D01*
X78343333Y-102814285D01*
X78295714Y-102719047D01*
X78295714Y-102576190D01*
X78343333Y-102480952D01*
X78962380Y-102004761D02*
X78295714Y-102004761D01*
X77962380Y-102004761D02*
X78010000Y-102052380D01*
X78057619Y-102004761D01*
X78010000Y-101957142D01*
X77962380Y-102004761D01*
X78057619Y-102004761D01*
X78295714Y-101100000D02*
X79105238Y-101100000D01*
X79200476Y-101147619D01*
X79248095Y-101195238D01*
X79295714Y-101290476D01*
X79295714Y-101433333D01*
X79248095Y-101528571D01*
X78914761Y-101100000D02*
X78962380Y-101195238D01*
X78962380Y-101385714D01*
X78914761Y-101480952D01*
X78867142Y-101528571D01*
X78771904Y-101576190D01*
X78486190Y-101576190D01*
X78390952Y-101528571D01*
X78343333Y-101480952D01*
X78295714Y-101385714D01*
X78295714Y-101195238D01*
X78343333Y-101100000D01*
X78295714Y-100623809D02*
X78962380Y-100623809D01*
X78390952Y-100623809D02*
X78343333Y-100576190D01*
X78295714Y-100480952D01*
X78295714Y-100338095D01*
X78343333Y-100242857D01*
X78438571Y-100195238D01*
X78962380Y-100195238D01*
X78962380Y-99290476D02*
X78438571Y-99290476D01*
X78343333Y-99338095D01*
X78295714Y-99433333D01*
X78295714Y-99623809D01*
X78343333Y-99719047D01*
X78914761Y-99290476D02*
X78962380Y-99385714D01*
X78962380Y-99623809D01*
X78914761Y-99719047D01*
X78819523Y-99766666D01*
X78724285Y-99766666D01*
X78629047Y-99719047D01*
X78581428Y-99623809D01*
X78581428Y-99385714D01*
X78533809Y-99290476D01*
X78962380Y-98671428D02*
X78914761Y-98766666D01*
X78819523Y-98814285D01*
X77962380Y-98814285D01*
X78962380Y-97766666D02*
X78962380Y-98338095D01*
X78962380Y-98052380D02*
X77962380Y-98052380D01*
X78105238Y-98147619D01*
X78200476Y-98242857D01*
X78248095Y-98338095D01*
X108823809Y-43492380D02*
X108347619Y-43492380D01*
X108347619Y-42492380D01*
X109538095Y-43444761D02*
X109442857Y-43492380D01*
X109252380Y-43492380D01*
X109157142Y-43444761D01*
X109109523Y-43349523D01*
X109109523Y-42968571D01*
X109157142Y-42873333D01*
X109252380Y-42825714D01*
X109442857Y-42825714D01*
X109538095Y-42873333D01*
X109585714Y-42968571D01*
X109585714Y-43063809D01*
X109109523Y-43159047D01*
X110442857Y-43492380D02*
X110442857Y-42492380D01*
X110442857Y-43444761D02*
X110347619Y-43492380D01*
X110157142Y-43492380D01*
X110061904Y-43444761D01*
X110014285Y-43397142D01*
X109966666Y-43301904D01*
X109966666Y-43016190D01*
X110014285Y-42920952D01*
X110061904Y-42873333D01*
X110157142Y-42825714D01*
X110347619Y-42825714D01*
X110442857Y-42873333D01*
X110871428Y-43206666D02*
X111347619Y-43206666D01*
X110776190Y-43492380D02*
X111109523Y-42492380D01*
X111442857Y-43492380D01*
X111776190Y-43492380D02*
X111776190Y-42825714D01*
X111776190Y-43016190D02*
X111823809Y-42920952D01*
X111871428Y-42873333D01*
X111966666Y-42825714D01*
X112061904Y-42825714D01*
X112823809Y-43492380D02*
X112823809Y-42492380D01*
X112823809Y-43444761D02*
X112728571Y-43492380D01*
X112538095Y-43492380D01*
X112442857Y-43444761D01*
X112395238Y-43397142D01*
X112347619Y-43301904D01*
X112347619Y-43016190D01*
X112395238Y-42920952D01*
X112442857Y-42873333D01*
X112538095Y-42825714D01*
X112728571Y-42825714D01*
X112823809Y-42873333D01*
X113728571Y-42825714D02*
X113728571Y-43492380D01*
X113300000Y-42825714D02*
X113300000Y-43349523D01*
X113347619Y-43444761D01*
X113442857Y-43492380D01*
X113585714Y-43492380D01*
X113680952Y-43444761D01*
X113728571Y-43397142D01*
X114204761Y-43492380D02*
X114204761Y-42825714D01*
X114204761Y-42492380D02*
X114157142Y-42540000D01*
X114204761Y-42587619D01*
X114252380Y-42540000D01*
X114204761Y-42492380D01*
X114204761Y-42587619D01*
X114680952Y-42825714D02*
X114680952Y-43492380D01*
X114680952Y-42920952D02*
X114728571Y-42873333D01*
X114823809Y-42825714D01*
X114966666Y-42825714D01*
X115061904Y-42873333D01*
X115109523Y-42968571D01*
X115109523Y-43492380D01*
X115728571Y-43492380D02*
X115633333Y-43444761D01*
X115585714Y-43397142D01*
X115538095Y-43301904D01*
X115538095Y-43016190D01*
X115585714Y-42920952D01*
X115633333Y-42873333D01*
X115728571Y-42825714D01*
X115871428Y-42825714D01*
X115966666Y-42873333D01*
X116014285Y-42920952D01*
X116061904Y-43016190D01*
X116061904Y-43301904D01*
X116014285Y-43397142D01*
X115966666Y-43444761D01*
X115871428Y-43492380D01*
X115728571Y-43492380D01*
X117014285Y-42540000D02*
X116919047Y-42492380D01*
X116776190Y-42492380D01*
X116633333Y-42540000D01*
X116538095Y-42635238D01*
X116490476Y-42730476D01*
X116442857Y-42920952D01*
X116442857Y-43063809D01*
X116490476Y-43254285D01*
X116538095Y-43349523D01*
X116633333Y-43444761D01*
X116776190Y-43492380D01*
X116871428Y-43492380D01*
X117014285Y-43444761D01*
X117061904Y-43397142D01*
X117061904Y-43063809D01*
X116871428Y-43063809D01*
X117395238Y-42825714D02*
X117633333Y-43492380D01*
X117871428Y-42825714D02*
X117633333Y-43492380D01*
X117538095Y-43730476D01*
X117490476Y-43778095D01*
X117395238Y-43825714D01*
X118252380Y-43492380D02*
X118252380Y-42825714D01*
X118252380Y-43016190D02*
X118300000Y-42920952D01*
X118347619Y-42873333D01*
X118442857Y-42825714D01*
X118538095Y-42825714D01*
X119014285Y-43492380D02*
X118919047Y-43444761D01*
X118871428Y-43397142D01*
X118823809Y-43301904D01*
X118823809Y-43016190D01*
X118871428Y-42920952D01*
X118919047Y-42873333D01*
X119014285Y-42825714D01*
X119157142Y-42825714D01*
X119252380Y-42873333D01*
X119300000Y-42920952D01*
X119347619Y-43016190D01*
X119347619Y-43301904D01*
X119300000Y-43397142D01*
X119252380Y-43444761D01*
X119157142Y-43492380D01*
X119014285Y-43492380D01*
X119728571Y-42587619D02*
X119776190Y-42540000D01*
X119871428Y-42492380D01*
X120109523Y-42492380D01*
X120204761Y-42540000D01*
X120252380Y-42587619D01*
X120300000Y-42682857D01*
X120300000Y-42778095D01*
X120252380Y-42920952D01*
X119680952Y-43492380D01*
X120300000Y-43492380D01*
X54848809Y-38692380D02*
X54372619Y-38692380D01*
X54372619Y-37692380D01*
X55563095Y-38644761D02*
X55467857Y-38692380D01*
X55277380Y-38692380D01*
X55182142Y-38644761D01*
X55134523Y-38549523D01*
X55134523Y-38168571D01*
X55182142Y-38073333D01*
X55277380Y-38025714D01*
X55467857Y-38025714D01*
X55563095Y-38073333D01*
X55610714Y-38168571D01*
X55610714Y-38263809D01*
X55134523Y-38359047D01*
X56467857Y-38692380D02*
X56467857Y-37692380D01*
X56467857Y-38644761D02*
X56372619Y-38692380D01*
X56182142Y-38692380D01*
X56086904Y-38644761D01*
X56039285Y-38597142D01*
X55991666Y-38501904D01*
X55991666Y-38216190D01*
X56039285Y-38120952D01*
X56086904Y-38073333D01*
X56182142Y-38025714D01*
X56372619Y-38025714D01*
X56467857Y-38073333D01*
X56896428Y-38406666D02*
X57372619Y-38406666D01*
X56801190Y-38692380D02*
X57134523Y-37692380D01*
X57467857Y-38692380D01*
X57801190Y-38692380D02*
X57801190Y-38025714D01*
X57801190Y-38216190D02*
X57848809Y-38120952D01*
X57896428Y-38073333D01*
X57991666Y-38025714D01*
X58086904Y-38025714D01*
X58848809Y-38692380D02*
X58848809Y-37692380D01*
X58848809Y-38644761D02*
X58753571Y-38692380D01*
X58563095Y-38692380D01*
X58467857Y-38644761D01*
X58420238Y-38597142D01*
X58372619Y-38501904D01*
X58372619Y-38216190D01*
X58420238Y-38120952D01*
X58467857Y-38073333D01*
X58563095Y-38025714D01*
X58753571Y-38025714D01*
X58848809Y-38073333D01*
X59753571Y-38025714D02*
X59753571Y-38692380D01*
X59324999Y-38025714D02*
X59324999Y-38549523D01*
X59372619Y-38644761D01*
X59467857Y-38692380D01*
X59610714Y-38692380D01*
X59705952Y-38644761D01*
X59753571Y-38597142D01*
X60229761Y-38692380D02*
X60229761Y-38025714D01*
X60229761Y-37692380D02*
X60182142Y-37740000D01*
X60229761Y-37787619D01*
X60277380Y-37740000D01*
X60229761Y-37692380D01*
X60229761Y-37787619D01*
X60705952Y-38025714D02*
X60705952Y-38692380D01*
X60705952Y-38120952D02*
X60753571Y-38073333D01*
X60848809Y-38025714D01*
X60991666Y-38025714D01*
X61086904Y-38073333D01*
X61134523Y-38168571D01*
X61134523Y-38692380D01*
X61753571Y-38692380D02*
X61658333Y-38644761D01*
X61610714Y-38597142D01*
X61563095Y-38501904D01*
X61563095Y-38216190D01*
X61610714Y-38120952D01*
X61658333Y-38073333D01*
X61753571Y-38025714D01*
X61896428Y-38025714D01*
X61991666Y-38073333D01*
X62039285Y-38120952D01*
X62086904Y-38216190D01*
X62086904Y-38501904D01*
X62039285Y-38597142D01*
X61991666Y-38644761D01*
X61896428Y-38692380D01*
X61753571Y-38692380D01*
X63039285Y-37740000D02*
X62944047Y-37692380D01*
X62801190Y-37692380D01*
X62658333Y-37740000D01*
X62563095Y-37835238D01*
X62515476Y-37930476D01*
X62467857Y-38120952D01*
X62467857Y-38263809D01*
X62515476Y-38454285D01*
X62563095Y-38549523D01*
X62658333Y-38644761D01*
X62801190Y-38692380D01*
X62896428Y-38692380D01*
X63039285Y-38644761D01*
X63086904Y-38597142D01*
X63086904Y-38263809D01*
X62896428Y-38263809D01*
X63420238Y-38025714D02*
X63658333Y-38692380D01*
X63896428Y-38025714D02*
X63658333Y-38692380D01*
X63563095Y-38930476D01*
X63515476Y-38978095D01*
X63420238Y-39025714D01*
X64277380Y-38692380D02*
X64277380Y-38025714D01*
X64277380Y-38216190D02*
X64324999Y-38120952D01*
X64372619Y-38073333D01*
X64467857Y-38025714D01*
X64563095Y-38025714D01*
X65039285Y-38692380D02*
X64944047Y-38644761D01*
X64896428Y-38597142D01*
X64848809Y-38501904D01*
X64848809Y-38216190D01*
X64896428Y-38120952D01*
X64944047Y-38073333D01*
X65039285Y-38025714D01*
X65182142Y-38025714D01*
X65277380Y-38073333D01*
X65324999Y-38120952D01*
X65372619Y-38216190D01*
X65372619Y-38501904D01*
X65324999Y-38597142D01*
X65277380Y-38644761D01*
X65182142Y-38692380D01*
X65039285Y-38692380D01*
X66324999Y-38692380D02*
X65753571Y-38692380D01*
X66039285Y-38692380D02*
X66039285Y-37692380D01*
X65944047Y-37835238D01*
X65848809Y-37930476D01*
X65753571Y-37978095D01*
X107910952Y-101385714D02*
X107910952Y-102195238D01*
X107863333Y-102290476D01*
X107815714Y-102338095D01*
X107720476Y-102385714D01*
X107577619Y-102385714D01*
X107482380Y-102338095D01*
X107910952Y-102004761D02*
X107815714Y-102052380D01*
X107625238Y-102052380D01*
X107530000Y-102004761D01*
X107482380Y-101957142D01*
X107434761Y-101861904D01*
X107434761Y-101576190D01*
X107482380Y-101480952D01*
X107530000Y-101433333D01*
X107625238Y-101385714D01*
X107815714Y-101385714D01*
X107910952Y-101433333D01*
X108291904Y-101385714D02*
X108530000Y-102052380D01*
X108768095Y-101385714D02*
X108530000Y-102052380D01*
X108434761Y-102290476D01*
X108387142Y-102338095D01*
X108291904Y-102385714D01*
X109149047Y-102052380D02*
X109149047Y-101385714D01*
X109149047Y-101576190D02*
X109196666Y-101480952D01*
X109244285Y-101433333D01*
X109339523Y-101385714D01*
X109434761Y-101385714D01*
X109910952Y-102052380D02*
X109815714Y-102004761D01*
X109768095Y-101957142D01*
X109720476Y-101861904D01*
X109720476Y-101576190D01*
X109768095Y-101480952D01*
X109815714Y-101433333D01*
X109910952Y-101385714D01*
X110053809Y-101385714D01*
X110149047Y-101433333D01*
X110196666Y-101480952D01*
X110244285Y-101576190D01*
X110244285Y-101861904D01*
X110196666Y-101957142D01*
X110149047Y-102004761D01*
X110053809Y-102052380D01*
X109910952Y-102052380D01*
X111244285Y-101957142D02*
X111196666Y-102004761D01*
X111053809Y-102052380D01*
X110958571Y-102052380D01*
X110815714Y-102004761D01*
X110720476Y-101909523D01*
X110672857Y-101814285D01*
X110625238Y-101623809D01*
X110625238Y-101480952D01*
X110672857Y-101290476D01*
X110720476Y-101195238D01*
X110815714Y-101100000D01*
X110958571Y-101052380D01*
X111053809Y-101052380D01*
X111196666Y-101100000D01*
X111244285Y-101147619D01*
X111815714Y-102052380D02*
X111720476Y-102004761D01*
X111672857Y-101957142D01*
X111625238Y-101861904D01*
X111625238Y-101576190D01*
X111672857Y-101480952D01*
X111720476Y-101433333D01*
X111815714Y-101385714D01*
X111958571Y-101385714D01*
X112053809Y-101433333D01*
X112101428Y-101480952D01*
X112149047Y-101576190D01*
X112149047Y-101861904D01*
X112101428Y-101957142D01*
X112053809Y-102004761D01*
X111958571Y-102052380D01*
X111815714Y-102052380D01*
X112577619Y-101385714D02*
X112577619Y-102052380D01*
X112577619Y-101480952D02*
X112625238Y-101433333D01*
X112720476Y-101385714D01*
X112863333Y-101385714D01*
X112958571Y-101433333D01*
X113006190Y-101528571D01*
X113006190Y-102052380D01*
X113339523Y-101385714D02*
X113720476Y-101385714D01*
X113482380Y-101052380D02*
X113482380Y-101909523D01*
X113530000Y-102004761D01*
X113625238Y-102052380D01*
X113720476Y-102052380D01*
X114053809Y-102052380D02*
X114053809Y-101385714D01*
X114053809Y-101576190D02*
X114101428Y-101480952D01*
X114149047Y-101433333D01*
X114244285Y-101385714D01*
X114339523Y-101385714D01*
X114815714Y-102052380D02*
X114720476Y-102004761D01*
X114672857Y-101957142D01*
X114625238Y-101861904D01*
X114625238Y-101576190D01*
X114672857Y-101480952D01*
X114720476Y-101433333D01*
X114815714Y-101385714D01*
X114958571Y-101385714D01*
X115053809Y-101433333D01*
X115101428Y-101480952D01*
X115149047Y-101576190D01*
X115149047Y-101861904D01*
X115101428Y-101957142D01*
X115053809Y-102004761D01*
X114958571Y-102052380D01*
X114815714Y-102052380D01*
X115720476Y-102052380D02*
X115625238Y-102004761D01*
X115577619Y-101909523D01*
X115577619Y-101052380D01*
X116244285Y-102052380D02*
X116149047Y-102004761D01*
X116101428Y-101909523D01*
X116101428Y-101052380D01*
X117006190Y-102004761D02*
X116910952Y-102052380D01*
X116720476Y-102052380D01*
X116625238Y-102004761D01*
X116577619Y-101909523D01*
X116577619Y-101528571D01*
X116625238Y-101433333D01*
X116720476Y-101385714D01*
X116910952Y-101385714D01*
X117006190Y-101433333D01*
X117053809Y-101528571D01*
X117053809Y-101623809D01*
X116577619Y-101719047D01*
X117482380Y-102052380D02*
X117482380Y-101385714D01*
X117482380Y-101576190D02*
X117530000Y-101480952D01*
X117577619Y-101433333D01*
X117672857Y-101385714D01*
X117768095Y-101385714D01*
X118625238Y-102052380D02*
X118053809Y-102052380D01*
X118339523Y-102052380D02*
X118339523Y-101052380D01*
X118244285Y-101195238D01*
X118149047Y-101290476D01*
X118053809Y-101338095D01*
X55431904Y-104680000D02*
X55336666Y-104632380D01*
X55193809Y-104632380D01*
X55050952Y-104680000D01*
X54955714Y-104775238D01*
X54908095Y-104870476D01*
X54860476Y-105060952D01*
X54860476Y-105203809D01*
X54908095Y-105394285D01*
X54955714Y-105489523D01*
X55050952Y-105584761D01*
X55193809Y-105632380D01*
X55289047Y-105632380D01*
X55431904Y-105584761D01*
X55479523Y-105537142D01*
X55479523Y-105203809D01*
X55289047Y-105203809D01*
X55908095Y-105632380D02*
X55908095Y-104632380D01*
X56479523Y-105632380D01*
X56479523Y-104632380D01*
X56955714Y-105632380D02*
X56955714Y-104632380D01*
X57193809Y-104632380D01*
X57336666Y-104680000D01*
X57431904Y-104775238D01*
X57479523Y-104870476D01*
X57527142Y-105060952D01*
X57527142Y-105203809D01*
X57479523Y-105394285D01*
X57431904Y-105489523D01*
X57336666Y-105584761D01*
X57193809Y-105632380D01*
X56955714Y-105632380D01*
X58479523Y-105632380D02*
X57908095Y-105632380D01*
X58193809Y-105632380D02*
X58193809Y-104632380D01*
X58098571Y-104775238D01*
X58003333Y-104870476D01*
X57908095Y-104918095D01*
X119003809Y-27614761D02*
X118908571Y-27662380D01*
X118718095Y-27662380D01*
X118622857Y-27614761D01*
X118575238Y-27567142D01*
X118527619Y-27471904D01*
X118527619Y-27186190D01*
X118575238Y-27090952D01*
X118622857Y-27043333D01*
X118718095Y-26995714D01*
X118908571Y-26995714D01*
X119003809Y-27043333D01*
X119860952Y-27662380D02*
X119860952Y-27138571D01*
X119813333Y-27043333D01*
X119718095Y-26995714D01*
X119527619Y-26995714D01*
X119432380Y-27043333D01*
X119860952Y-27614761D02*
X119765714Y-27662380D01*
X119527619Y-27662380D01*
X119432380Y-27614761D01*
X119384761Y-27519523D01*
X119384761Y-27424285D01*
X119432380Y-27329047D01*
X119527619Y-27281428D01*
X119765714Y-27281428D01*
X119860952Y-27233809D01*
X120480000Y-27662380D02*
X120384761Y-27614761D01*
X120337142Y-27519523D01*
X120337142Y-26662380D01*
X120860952Y-27662380D02*
X120860952Y-26995714D01*
X120860952Y-26662380D02*
X120813333Y-26710000D01*
X120860952Y-26757619D01*
X120908571Y-26710000D01*
X120860952Y-26662380D01*
X120860952Y-26757619D01*
X121337142Y-27662380D02*
X121337142Y-26662380D01*
X121337142Y-27043333D02*
X121432380Y-26995714D01*
X121622857Y-26995714D01*
X121718095Y-27043333D01*
X121765714Y-27090952D01*
X121813333Y-27186190D01*
X121813333Y-27471904D01*
X121765714Y-27567142D01*
X121718095Y-27614761D01*
X121622857Y-27662380D01*
X121432380Y-27662380D01*
X121337142Y-27614761D01*
X122241904Y-27662380D02*
X122241904Y-26995714D01*
X122241904Y-27186190D02*
X122289523Y-27090952D01*
X122337142Y-27043333D01*
X122432380Y-26995714D01*
X122527619Y-26995714D01*
X123289523Y-27662380D02*
X123289523Y-27138571D01*
X123241904Y-27043333D01*
X123146666Y-26995714D01*
X122956190Y-26995714D01*
X122860952Y-27043333D01*
X123289523Y-27614761D02*
X123194285Y-27662380D01*
X122956190Y-27662380D01*
X122860952Y-27614761D01*
X122813333Y-27519523D01*
X122813333Y-27424285D01*
X122860952Y-27329047D01*
X122956190Y-27281428D01*
X123194285Y-27281428D01*
X123289523Y-27233809D01*
X123622857Y-26995714D02*
X124003809Y-26995714D01*
X123765714Y-26662380D02*
X123765714Y-27519523D01*
X123813333Y-27614761D01*
X123908571Y-27662380D01*
X124003809Y-27662380D01*
X124718095Y-27614761D02*
X124622857Y-27662380D01*
X124432380Y-27662380D01*
X124337142Y-27614761D01*
X124289523Y-27519523D01*
X124289523Y-27138571D01*
X124337142Y-27043333D01*
X124432380Y-26995714D01*
X124622857Y-26995714D01*
X124718095Y-27043333D01*
X124765714Y-27138571D01*
X124765714Y-27233809D01*
X124289523Y-27329047D01*
X125527619Y-27138571D02*
X125670476Y-27186190D01*
X125718095Y-27233809D01*
X125765714Y-27329047D01*
X125765714Y-27471904D01*
X125718095Y-27567142D01*
X125670476Y-27614761D01*
X125575238Y-27662380D01*
X125194285Y-27662380D01*
X125194285Y-26662380D01*
X125527619Y-26662380D01*
X125622857Y-26710000D01*
X125670476Y-26757619D01*
X125718095Y-26852857D01*
X125718095Y-26948095D01*
X125670476Y-27043333D01*
X125622857Y-27090952D01*
X125527619Y-27138571D01*
X125194285Y-27138571D01*
X126622857Y-26995714D02*
X126622857Y-27662380D01*
X126194285Y-26995714D02*
X126194285Y-27519523D01*
X126241904Y-27614761D01*
X126337142Y-27662380D01*
X126480000Y-27662380D01*
X126575238Y-27614761D01*
X126622857Y-27567142D01*
X126956190Y-26995714D02*
X127337142Y-26995714D01*
X127099047Y-26662380D02*
X127099047Y-27519523D01*
X127146666Y-27614761D01*
X127241904Y-27662380D01*
X127337142Y-27662380D01*
X127527619Y-26995714D02*
X127908571Y-26995714D01*
X127670476Y-26662380D02*
X127670476Y-27519523D01*
X127718095Y-27614761D01*
X127813333Y-27662380D01*
X127908571Y-27662380D01*
X128384761Y-27662380D02*
X128289523Y-27614761D01*
X128241904Y-27567142D01*
X128194285Y-27471904D01*
X128194285Y-27186190D01*
X128241904Y-27090952D01*
X128289523Y-27043333D01*
X128384761Y-26995714D01*
X128527619Y-26995714D01*
X128622857Y-27043333D01*
X128670476Y-27090952D01*
X128718095Y-27186190D01*
X128718095Y-27471904D01*
X128670476Y-27567142D01*
X128622857Y-27614761D01*
X128527619Y-27662380D01*
X128384761Y-27662380D01*
X129146666Y-26995714D02*
X129146666Y-27662380D01*
X129146666Y-27090952D02*
X129194285Y-27043333D01*
X129289523Y-26995714D01*
X129432380Y-26995714D01*
X129527619Y-27043333D01*
X129575238Y-27138571D01*
X129575238Y-27662380D01*
X130575238Y-26710000D02*
X130480000Y-26662380D01*
X130337142Y-26662380D01*
X130194285Y-26710000D01*
X130099047Y-26805238D01*
X130051428Y-26900476D01*
X130003809Y-27090952D01*
X130003809Y-27233809D01*
X130051428Y-27424285D01*
X130099047Y-27519523D01*
X130194285Y-27614761D01*
X130337142Y-27662380D01*
X130432380Y-27662380D01*
X130575238Y-27614761D01*
X130622857Y-27567142D01*
X130622857Y-27233809D01*
X130432380Y-27233809D01*
X130956190Y-26995714D02*
X131194285Y-27662380D01*
X131432380Y-26995714D02*
X131194285Y-27662380D01*
X131099047Y-27900476D01*
X131051428Y-27948095D01*
X130956190Y-27995714D01*
X131813333Y-27662380D02*
X131813333Y-26995714D01*
X131813333Y-27186190D02*
X131860952Y-27090952D01*
X131908571Y-27043333D01*
X132003809Y-26995714D01*
X132099047Y-26995714D01*
X132575238Y-27662380D02*
X132480000Y-27614761D01*
X132432380Y-27567142D01*
X132384761Y-27471904D01*
X132384761Y-27186190D01*
X132432380Y-27090952D01*
X132480000Y-27043333D01*
X132575238Y-26995714D01*
X132718095Y-26995714D01*
X132813333Y-27043333D01*
X132860952Y-27090952D01*
X132908571Y-27186190D01*
X132908571Y-27471904D01*
X132860952Y-27567142D01*
X132813333Y-27614761D01*
X132718095Y-27662380D01*
X132575238Y-27662380D01*
X133289523Y-27376666D02*
X133765714Y-27376666D01*
X133194285Y-27662380D02*
X133527619Y-26662380D01*
X133860952Y-27662380D01*
X134194285Y-27662380D02*
X134194285Y-26995714D01*
X134194285Y-27186190D02*
X134241904Y-27090952D01*
X134289523Y-27043333D01*
X134384761Y-26995714D01*
X134480000Y-26995714D01*
X135241904Y-27662380D02*
X135241904Y-26662380D01*
X135241904Y-27614761D02*
X135146666Y-27662380D01*
X134956190Y-27662380D01*
X134860952Y-27614761D01*
X134813333Y-27567142D01*
X134765714Y-27471904D01*
X134765714Y-27186190D01*
X134813333Y-27090952D01*
X134860952Y-27043333D01*
X134956190Y-26995714D01*
X135146666Y-26995714D01*
X135241904Y-27043333D01*
X136146666Y-26995714D02*
X136146666Y-27662380D01*
X135718095Y-26995714D02*
X135718095Y-27519523D01*
X135765714Y-27614761D01*
X135860952Y-27662380D01*
X136003809Y-27662380D01*
X136099047Y-27614761D01*
X136146666Y-27567142D01*
X136622857Y-27662380D02*
X136622857Y-26995714D01*
X136622857Y-26662380D02*
X136575238Y-26710000D01*
X136622857Y-26757619D01*
X136670476Y-26710000D01*
X136622857Y-26662380D01*
X136622857Y-26757619D01*
X137099047Y-26995714D02*
X137099047Y-27662380D01*
X137099047Y-27090952D02*
X137146666Y-27043333D01*
X137241904Y-26995714D01*
X137384761Y-26995714D01*
X137480000Y-27043333D01*
X137527619Y-27138571D01*
X137527619Y-27662380D01*
X138146666Y-27662380D02*
X138051428Y-27614761D01*
X138003809Y-27567142D01*
X137956190Y-27471904D01*
X137956190Y-27186190D01*
X138003809Y-27090952D01*
X138051428Y-27043333D01*
X138146666Y-26995714D01*
X138289523Y-26995714D01*
X138384761Y-27043333D01*
X138432380Y-27090952D01*
X138480000Y-27186190D01*
X138480000Y-27471904D01*
X138432380Y-27567142D01*
X138384761Y-27614761D01*
X138289523Y-27662380D01*
X138146666Y-27662380D01*
X138860952Y-26757619D02*
X138908571Y-26710000D01*
X139003809Y-26662380D01*
X139241904Y-26662380D01*
X139337142Y-26710000D01*
X139384761Y-26757619D01*
X139432380Y-26852857D01*
X139432380Y-26948095D01*
X139384761Y-27090952D01*
X138813333Y-27662380D01*
X139432380Y-27662380D01*
X36453809Y-27614761D02*
X36358571Y-27662380D01*
X36168095Y-27662380D01*
X36072857Y-27614761D01*
X36025238Y-27567142D01*
X35977619Y-27471904D01*
X35977619Y-27186190D01*
X36025238Y-27090952D01*
X36072857Y-27043333D01*
X36168095Y-26995714D01*
X36358571Y-26995714D01*
X36453809Y-27043333D01*
X37310952Y-27662380D02*
X37310952Y-27138571D01*
X37263333Y-27043333D01*
X37168095Y-26995714D01*
X36977619Y-26995714D01*
X36882380Y-27043333D01*
X37310952Y-27614761D02*
X37215714Y-27662380D01*
X36977619Y-27662380D01*
X36882380Y-27614761D01*
X36834761Y-27519523D01*
X36834761Y-27424285D01*
X36882380Y-27329047D01*
X36977619Y-27281428D01*
X37215714Y-27281428D01*
X37310952Y-27233809D01*
X37930000Y-27662380D02*
X37834761Y-27614761D01*
X37787142Y-27519523D01*
X37787142Y-26662380D01*
X38310952Y-27662380D02*
X38310952Y-26995714D01*
X38310952Y-26662380D02*
X38263333Y-26710000D01*
X38310952Y-26757619D01*
X38358571Y-26710000D01*
X38310952Y-26662380D01*
X38310952Y-26757619D01*
X38787142Y-27662380D02*
X38787142Y-26662380D01*
X38787142Y-27043333D02*
X38882380Y-26995714D01*
X39072857Y-26995714D01*
X39168095Y-27043333D01*
X39215714Y-27090952D01*
X39263333Y-27186190D01*
X39263333Y-27471904D01*
X39215714Y-27567142D01*
X39168095Y-27614761D01*
X39072857Y-27662380D01*
X38882380Y-27662380D01*
X38787142Y-27614761D01*
X39691904Y-27662380D02*
X39691904Y-26995714D01*
X39691904Y-27186190D02*
X39739523Y-27090952D01*
X39787142Y-27043333D01*
X39882380Y-26995714D01*
X39977619Y-26995714D01*
X40739523Y-27662380D02*
X40739523Y-27138571D01*
X40691904Y-27043333D01*
X40596666Y-26995714D01*
X40406190Y-26995714D01*
X40310952Y-27043333D01*
X40739523Y-27614761D02*
X40644285Y-27662380D01*
X40406190Y-27662380D01*
X40310952Y-27614761D01*
X40263333Y-27519523D01*
X40263333Y-27424285D01*
X40310952Y-27329047D01*
X40406190Y-27281428D01*
X40644285Y-27281428D01*
X40739523Y-27233809D01*
X41072857Y-26995714D02*
X41453809Y-26995714D01*
X41215714Y-26662380D02*
X41215714Y-27519523D01*
X41263333Y-27614761D01*
X41358571Y-27662380D01*
X41453809Y-27662380D01*
X42168095Y-27614761D02*
X42072857Y-27662380D01*
X41882380Y-27662380D01*
X41787142Y-27614761D01*
X41739523Y-27519523D01*
X41739523Y-27138571D01*
X41787142Y-27043333D01*
X41882380Y-26995714D01*
X42072857Y-26995714D01*
X42168095Y-27043333D01*
X42215714Y-27138571D01*
X42215714Y-27233809D01*
X41739523Y-27329047D01*
X42977619Y-27138571D02*
X43120476Y-27186190D01*
X43168095Y-27233809D01*
X43215714Y-27329047D01*
X43215714Y-27471904D01*
X43168095Y-27567142D01*
X43120476Y-27614761D01*
X43025238Y-27662380D01*
X42644285Y-27662380D01*
X42644285Y-26662380D01*
X42977619Y-26662380D01*
X43072857Y-26710000D01*
X43120476Y-26757619D01*
X43168095Y-26852857D01*
X43168095Y-26948095D01*
X43120476Y-27043333D01*
X43072857Y-27090952D01*
X42977619Y-27138571D01*
X42644285Y-27138571D01*
X44072857Y-26995714D02*
X44072857Y-27662380D01*
X43644285Y-26995714D02*
X43644285Y-27519523D01*
X43691904Y-27614761D01*
X43787142Y-27662380D01*
X43930000Y-27662380D01*
X44025238Y-27614761D01*
X44072857Y-27567142D01*
X44406190Y-26995714D02*
X44787142Y-26995714D01*
X44549047Y-26662380D02*
X44549047Y-27519523D01*
X44596666Y-27614761D01*
X44691904Y-27662380D01*
X44787142Y-27662380D01*
X44977619Y-26995714D02*
X45358571Y-26995714D01*
X45120476Y-26662380D02*
X45120476Y-27519523D01*
X45168095Y-27614761D01*
X45263333Y-27662380D01*
X45358571Y-27662380D01*
X45834761Y-27662380D02*
X45739523Y-27614761D01*
X45691904Y-27567142D01*
X45644285Y-27471904D01*
X45644285Y-27186190D01*
X45691904Y-27090952D01*
X45739523Y-27043333D01*
X45834761Y-26995714D01*
X45977619Y-26995714D01*
X46072857Y-27043333D01*
X46120476Y-27090952D01*
X46168095Y-27186190D01*
X46168095Y-27471904D01*
X46120476Y-27567142D01*
X46072857Y-27614761D01*
X45977619Y-27662380D01*
X45834761Y-27662380D01*
X46596666Y-26995714D02*
X46596666Y-27662380D01*
X46596666Y-27090952D02*
X46644285Y-27043333D01*
X46739523Y-26995714D01*
X46882380Y-26995714D01*
X46977619Y-27043333D01*
X47025238Y-27138571D01*
X47025238Y-27662380D01*
X48025238Y-26710000D02*
X47930000Y-26662380D01*
X47787142Y-26662380D01*
X47644285Y-26710000D01*
X47549047Y-26805238D01*
X47501428Y-26900476D01*
X47453809Y-27090952D01*
X47453809Y-27233809D01*
X47501428Y-27424285D01*
X47549047Y-27519523D01*
X47644285Y-27614761D01*
X47787142Y-27662380D01*
X47882380Y-27662380D01*
X48025238Y-27614761D01*
X48072857Y-27567142D01*
X48072857Y-27233809D01*
X47882380Y-27233809D01*
X48406190Y-26995714D02*
X48644285Y-27662380D01*
X48882380Y-26995714D02*
X48644285Y-27662380D01*
X48549047Y-27900476D01*
X48501428Y-27948095D01*
X48406190Y-27995714D01*
X49263333Y-27662380D02*
X49263333Y-26995714D01*
X49263333Y-27186190D02*
X49310952Y-27090952D01*
X49358571Y-27043333D01*
X49453809Y-26995714D01*
X49549047Y-26995714D01*
X50025238Y-27662380D02*
X49930000Y-27614761D01*
X49882380Y-27567142D01*
X49834761Y-27471904D01*
X49834761Y-27186190D01*
X49882380Y-27090952D01*
X49930000Y-27043333D01*
X50025238Y-26995714D01*
X50168095Y-26995714D01*
X50263333Y-27043333D01*
X50310952Y-27090952D01*
X50358571Y-27186190D01*
X50358571Y-27471904D01*
X50310952Y-27567142D01*
X50263333Y-27614761D01*
X50168095Y-27662380D01*
X50025238Y-27662380D01*
X50739523Y-27376666D02*
X51215714Y-27376666D01*
X50644285Y-27662380D02*
X50977619Y-26662380D01*
X51310952Y-27662380D01*
X51644285Y-27662380D02*
X51644285Y-26995714D01*
X51644285Y-27186190D02*
X51691904Y-27090952D01*
X51739523Y-27043333D01*
X51834761Y-26995714D01*
X51930000Y-26995714D01*
X52691904Y-27662380D02*
X52691904Y-26662380D01*
X52691904Y-27614761D02*
X52596666Y-27662380D01*
X52406190Y-27662380D01*
X52310952Y-27614761D01*
X52263333Y-27567142D01*
X52215714Y-27471904D01*
X52215714Y-27186190D01*
X52263333Y-27090952D01*
X52310952Y-27043333D01*
X52406190Y-26995714D01*
X52596666Y-26995714D01*
X52691904Y-27043333D01*
X53596666Y-26995714D02*
X53596666Y-27662380D01*
X53168095Y-26995714D02*
X53168095Y-27519523D01*
X53215714Y-27614761D01*
X53310952Y-27662380D01*
X53453809Y-27662380D01*
X53549047Y-27614761D01*
X53596666Y-27567142D01*
X54072857Y-27662380D02*
X54072857Y-26995714D01*
X54072857Y-26662380D02*
X54025238Y-26710000D01*
X54072857Y-26757619D01*
X54120476Y-26710000D01*
X54072857Y-26662380D01*
X54072857Y-26757619D01*
X54549047Y-26995714D02*
X54549047Y-27662380D01*
X54549047Y-27090952D02*
X54596666Y-27043333D01*
X54691904Y-26995714D01*
X54834761Y-26995714D01*
X54930000Y-27043333D01*
X54977619Y-27138571D01*
X54977619Y-27662380D01*
X55596666Y-27662380D02*
X55501428Y-27614761D01*
X55453809Y-27567142D01*
X55406190Y-27471904D01*
X55406190Y-27186190D01*
X55453809Y-27090952D01*
X55501428Y-27043333D01*
X55596666Y-26995714D01*
X55739523Y-26995714D01*
X55834761Y-27043333D01*
X55882380Y-27090952D01*
X55929999Y-27186190D01*
X55929999Y-27471904D01*
X55882380Y-27567142D01*
X55834761Y-27614761D01*
X55739523Y-27662380D01*
X55596666Y-27662380D01*
X56882380Y-27662380D02*
X56310952Y-27662380D01*
X56596666Y-27662380D02*
X56596666Y-26662380D01*
X56501428Y-26805238D01*
X56406190Y-26900476D01*
X56310952Y-26948095D01*
X86518571Y-98670952D02*
X86566190Y-98528095D01*
X86613809Y-98480476D01*
X86709047Y-98432857D01*
X86851904Y-98432857D01*
X86947142Y-98480476D01*
X86994761Y-98528095D01*
X87042380Y-98623333D01*
X87042380Y-99004285D01*
X86042380Y-99004285D01*
X86042380Y-98670952D01*
X86090000Y-98575714D01*
X86137619Y-98528095D01*
X86232857Y-98480476D01*
X86328095Y-98480476D01*
X86423333Y-98528095D01*
X86470952Y-98575714D01*
X86518571Y-98670952D01*
X86518571Y-99004285D01*
X86042380Y-98099523D02*
X86042380Y-97432857D01*
X87042380Y-98099523D01*
X87042380Y-97432857D01*
X87042380Y-96528095D02*
X87042380Y-97099523D01*
X87042380Y-96813809D02*
X86042380Y-96813809D01*
X86185238Y-96909047D01*
X86280476Y-97004285D01*
X86328095Y-97099523D01*
X58388333Y-104632380D02*
X57912142Y-104632380D01*
X57864523Y-105108571D01*
X57912142Y-105060952D01*
X58007380Y-105013333D01*
X58245476Y-105013333D01*
X58340714Y-105060952D01*
X58388333Y-105108571D01*
X58435952Y-105203809D01*
X58435952Y-105441904D01*
X58388333Y-105537142D01*
X58340714Y-105584761D01*
X58245476Y-105632380D01*
X58007380Y-105632380D01*
X57912142Y-105584761D01*
X57864523Y-105537142D01*
X58721666Y-104632380D02*
X59055000Y-105632380D01*
X59388333Y-104632380D01*
X60245476Y-105632380D02*
X59674047Y-105632380D01*
X59959761Y-105632380D02*
X59959761Y-104632380D01*
X59864523Y-104775238D01*
X59769285Y-104870476D01*
X59674047Y-104918095D01*
X59642619Y-104632380D02*
X60261666Y-104632380D01*
X59928333Y-105013333D01*
X60071190Y-105013333D01*
X60166428Y-105060952D01*
X60214047Y-105108571D01*
X60261666Y-105203809D01*
X60261666Y-105441904D01*
X60214047Y-105537142D01*
X60166428Y-105584761D01*
X60071190Y-105632380D01*
X59785476Y-105632380D01*
X59690238Y-105584761D01*
X59642619Y-105537142D01*
X60690238Y-105537142D02*
X60737857Y-105584761D01*
X60690238Y-105632380D01*
X60642619Y-105584761D01*
X60690238Y-105537142D01*
X60690238Y-105632380D01*
X61071190Y-104632380D02*
X61690238Y-104632380D01*
X61356904Y-105013333D01*
X61499761Y-105013333D01*
X61595000Y-105060952D01*
X61642619Y-105108571D01*
X61690238Y-105203809D01*
X61690238Y-105441904D01*
X61642619Y-105537142D01*
X61595000Y-105584761D01*
X61499761Y-105632380D01*
X61214047Y-105632380D01*
X61118809Y-105584761D01*
X61071190Y-105537142D01*
X61975952Y-104632380D02*
X62309285Y-105632380D01*
X62642619Y-104632380D01*
X63499761Y-105632380D02*
X62928333Y-105632380D01*
X63214047Y-105632380D02*
X63214047Y-104632380D01*
X63118809Y-104775238D01*
X63023571Y-104870476D01*
X62928333Y-104918095D01*
M02*
