M48
; DRILL file {KiCad 5.1.5-52549c5~84~ubuntu18.04.1} date Пн 30 дек 2019 18:32:10
; FORMAT={-:-/ absolute / inch / decimal}
; #@! TF.CreationDate,2019-12-30T18:32:10+07:00
; #@! TF.GenerationSoftware,Kicad,Pcbnew,5.1.5-52549c5~84~ubuntu18.04.1
FMAT,2
INCH
T1C0.0295
T2C0.0315
T3C0.0394
T4C0.0433
%
G90
G05
T1
X1.675Y-1.775
X1.725Y-4.975
X1.85Y-2.825
X1.85Y-4.1
X1.875Y-4.85
X1.95Y-3.2
X2.025Y-3.65
X2.05Y-4.025
X2.075Y-5.15
X2.075Y-5.525
X2.075Y-5.925
X2.1Y-2.7
X2.1Y-3.2
X2.2Y-3.925
X2.225Y-4.1
X2.2311Y-5.5189
X2.3Y-5.925
X2.325Y-2.25
X2.325Y-5.475
X2.33Y-5.195
X2.35Y-3.1
X2.4Y-2.325
X2.425Y-2.15
X2.425Y-3.4
X2.425Y-4.15
X2.475Y-2.375
X2.5Y-2.225
X2.5Y-3.65
X2.525Y-2.275
X2.6Y-3.15
X2.675Y-3.8
X2.725Y-3.4
X2.9Y-4.1
X2.9Y-5.15
X2.95Y-3.025
X2.95Y-3.2
X2.975Y-4.0
X2.975Y-5.075
X3.025Y-4.1
X3.425Y-1.675
X3.525Y-1.575
X3.875Y-3.8
X3.875Y-5.075
X3.9Y-2.175
X3.9Y-2.275
X3.9Y-2.375
X3.925Y-1.65
X4.0Y-4.625
X4.05Y-2.175
X4.05Y-2.275
X4.05Y-5.15
X4.225Y-3.2
X4.225Y-3.7
X4.225Y-3.925
X4.25Y-4.175
X4.275Y-3.1
X4.375Y-2.175
X4.4Y-3.2
X4.45Y-3.1
X4.525Y-1.775
X4.525Y-2.175
X4.525Y-3.6
X4.625Y-5.15
X4.675Y-3.5
X4.675Y-3.6
X4.85Y-2.4
X4.875Y-3.6
X4.9246Y-2.2746
X5.0Y-2.5
X5.0571Y-2.5821
X5.175Y-4.925
X5.25Y-5.0
X5.2551Y-5.2551
X5.1Y-5.15
X5.15Y-5.15
X5.2Y-5.15
X1.825Y-5.15
X1.875Y-5.15
X1.925Y-5.15
T2
X4.15Y-2.4
X4.15Y-2.5
X4.15Y-2.6
X4.15Y-2.7
X4.15Y-2.8
X4.15Y-2.9
X4.15Y-3.0
X4.15Y-3.1
X4.15Y-3.2
X4.15Y-3.3
X4.15Y-3.4
X4.15Y-3.5
X4.15Y-3.6
X4.15Y-3.7
X4.15Y-3.8
X4.75Y-2.4
X4.75Y-2.5
X4.75Y-2.6
X4.75Y-2.7
X4.75Y-2.8
X4.75Y-2.9
X4.75Y-3.0
X4.75Y-3.1
X4.75Y-3.2
X4.75Y-3.3
X4.75Y-3.4
X4.75Y-3.5
X4.75Y-3.6
X4.75Y-3.7
X4.75Y-3.8
X2.2Y-2.4
X2.2Y-2.5
X2.2Y-2.6
X2.2Y-2.7
X2.2Y-2.8
X2.2Y-2.9
X2.2Y-3.0
X2.2Y-3.1
X2.2Y-3.2
X2.2Y-3.3
X2.2Y-3.4
X2.2Y-3.5
X2.2Y-3.6
X2.2Y-3.7
X2.2Y-3.8
X2.8Y-2.4
X2.8Y-2.5
X2.8Y-2.6
X2.8Y-2.7
X2.8Y-2.8
X2.8Y-2.9
X2.8Y-3.0
X2.8Y-3.1
X2.8Y-3.2
X2.8Y-3.3
X2.8Y-3.4
X2.8Y-3.5
X2.8Y-3.6
X2.8Y-3.7
X2.8Y-3.8
T3
X2.05Y-3.8
X2.05Y-3.9
X4.875Y-3.7
X4.875Y-3.8
X3.125Y-4.7
X3.125Y-4.8
X4.0Y-3.8
X4.0Y-3.9
X2.925Y-3.7
X2.925Y-3.8
X2.525Y-3.3
X2.525Y-3.4
X2.525Y-3.5
X3.2Y-4.0
X3.3Y-4.0
X3.3Y-6.35
X3.4Y-6.35
X3.5Y-6.35
X3.6Y-6.35
X1.95Y-3.3
X1.95Y-3.4
X1.95Y-3.5
X1.95Y-3.6
X3.2Y-3.85
X3.3Y-3.85
X3.45Y-4.8
X3.55Y-4.8
X4.15Y-4.35
X4.25Y-4.35
X4.35Y-4.35
X4.45Y-4.35
X4.55Y-4.35
X4.65Y-4.35
X4.75Y-4.35
X4.85Y-4.35
X1.6Y-4.875
X1.6Y-4.975
X1.6Y-5.075
X1.6Y-5.175
X2.425Y-4.25
X2.425Y-4.35
X2.425Y-4.45
X2.425Y-4.55
X2.425Y-4.65
X2.425Y-4.75
X2.425Y-4.85
X2.425Y-4.95
X5.0Y-3.3
X5.0Y-3.4
X5.0Y-3.5
X5.0Y-3.6
X4.25Y-5.45
X4.25Y-5.55
X4.25Y-5.65
X4.25Y-5.75
X3.45Y-4.525
X3.55Y-4.525
X2.325Y-4.25
X2.325Y-4.35
X2.325Y-4.45
X2.325Y-4.55
X2.325Y-4.65
X2.325Y-4.75
X2.325Y-4.85
X2.325Y-4.95
X5.35Y-4.85
X5.35Y-4.95
X5.35Y-5.05
X5.35Y-5.15
X2.625Y-5.425
X2.625Y-5.525
X2.625Y-5.625
X2.625Y-5.725
X2.2311Y-4.25
X2.2311Y-4.35
X2.2311Y-4.45
X2.2311Y-4.55
X2.2311Y-4.65
X2.2311Y-4.75
X2.2311Y-4.85
X2.2311Y-4.95
X3.35Y-1.45
X3.45Y-1.45
X3.55Y-1.45
X3.65Y-1.45
X2.7Y-2.5
X2.7Y-2.6
X2.7Y-2.7
X2.7Y-2.8
X2.7Y-2.9
X2.7Y-3.0
T4
X4.95Y-1.15
X4.95Y-1.3272
X5.2059Y-1.15
X5.2059Y-1.3272
X1.7Y-1.15
X1.7Y-1.3272
X1.9559Y-1.15
X1.9559Y-1.3272
X5.05Y-6.6
X5.05Y-6.7772
X5.3059Y-6.6
X5.3059Y-6.7772
X1.6Y-6.6
X1.6Y-6.7772
X1.8559Y-6.6
X1.8559Y-6.7772
T0
M30
